<?xml version="1.0" encoding="utf-8"?>
<!-- Generator: Adobe Illustrator 22.0.1, SVG Export Plug-In . SVG Version: 6.00 Build 0)  -->
<svg version="1.1" id="레이어_1" xmlns="http://www.w3.org/2000/svg" xmlns:xlink="http://www.w3.org/1999/xlink" x="0px"
	 y="0px" viewBox="0 0 500 500" style="enable-background:new 0 0 500 500;" xml:space="preserve">
<style type="text/css">
	.st0{fill:url(#SVGID_1_);}
	.st1{fill:#FFFFFF;}
</style>
<g>
	<g>
		<radialGradient id="SVGID_1_" cx="251.3299" cy="600.8185" r="651.8488" gradientUnits="userSpaceOnUse">
			<stop  offset="0" style="stop-color:#3A5691"/>
			<stop  offset="0.301" style="stop-color:#3A5691"/>
			<stop  offset="1" style="stop-color:#5C7DBE"/>
		</radialGradient>
		<path class="st0" d="M489.6,392.6c0,54.9-44.5,99.4-99.4,99.4H105.1c-54.9,0-99.4-44.5-99.4-99.4V107.4C5.7,52.5,50.2,8,105.1,8
			h285.2c54.9,0,99.4,44.5,99.4,99.4V392.6z"/>
		<path class="st1" d="M377.8,141.1h44.6V70.9H367l0,0h-11.5c0,0-42.1-1-68.9,33.8c0,0-18.3,17.2-18.5,67.6h0V225h-66.1v74.5h66.1
			V492h76.3V299.5H410l9.1-74.5h-74.8v-52.6h0C344.5,166.5,347.1,140.5,377.8,141.1z"/>
	</g>
</g>
</svg>
