<?xml version="1.0" encoding="utf-8"?>
<!-- Generator: Adobe Illustrator 22.1.0, SVG Export Plug-In . SVG Version: 6.00 Build 0)  -->
<svg version="1.1" id="레이어_1" xmlns="http://www.w3.org/2000/svg" xmlns:xlink="http://www.w3.org/1999/xlink" x="0px"
	 y="0px" viewBox="0 0 430 430" style="enable-background:new 0 0 430 430;" xml:space="preserve">
<style type="text/css">
	.st0{clip-path:url(#SVGID_2_);}
	.st1{fill:#FFFFFF;stroke:#999999;stroke-width:2;stroke-miterlimit:10;}
	.st2{fill:#221714;stroke:#999999;stroke-width:2;}
	.st3{fill:#0D3886;stroke:#999999;stroke-width:2;}
	.st4{fill:#DD2914;stroke:#999999;stroke-width:2;}
</style>
<g>
	<g>
		<defs>
			<path id="SVGID_1_" d="M215.3,427.1L215.3,427.1C98.9,427.1,3.6,331.9,3.6,215.5v0C3.6,99.1,98.9,3.9,215.3,3.9h0
				c116.4,0,211.6,95.2,211.6,211.6v0C426.9,331.9,331.6,427.1,215.3,427.1z"/>
		</defs>
		<clipPath id="SVGID_2_">
			<use xlink:href="#SVGID_1_"  style="overflow:visible;"/>
		</clipPath>
		<g class="st0">
			<rect x="-48.4" y="-48.7" class="st1" width="527.3" height="528.3"/>
			<polygon class="st2" points="307.6,149.7 290.2,124.2 281.5,129.8 298.9,155.3 			"/>
			<polygon class="st2" points="327.6,180.5 310.2,155 301.5,160.6 319,186.1 			"/>
			<polygon class="st2" points="115.1,279.8 97.6,254.3 89,260 106.4,285.5 			"/>
			<polygon class="st2" points="135.1,310.6 117.7,285.1 109,290.8 126.4,316.3 			"/>
			<polygon class="st2" points="310.8,276.8 327.7,250.9 319.1,245 302.3,270.9 			"/>
			<polygon class="st2" points="290.1,307.1 306.9,281.2 298.4,275.4 281.6,301.3 			"/>
			<polygon class="st2" points="324.9,286.2 341.7,260.2 333.2,254.4 316.3,280.3 			"/>
			<polygon class="st2" points="304.2,316.5 321,290.6 312.4,284.7 295.6,310.7 			"/>
			<polygon class="st2" points="338.7,295.5 355.5,269.6 347,263.8 330.2,289.7 			"/>
			<polygon class="st2" points="318,325.9 334.8,299.9 326.2,294.1 309.4,320 			"/>
			<polygon class="st2" points="335.7,130.2 318.3,104.7 309.6,110.4 327,135.9 			"/>
			<polygon class="st2" points="355.7,161 338.3,135.6 329.6,141.2 347.1,166.7 			"/>
			<polygon class="st2" points="333.1,176.6 341.8,170.9 304.7,114.2 296,119.8 			"/>
			<polygon class="st2" points="74.8,161.8 83.4,167.5 120.5,110.7 111.8,105 			"/>
			<polygon class="st2" points="89.6,171.7 98.2,177.4 135.2,120.6 126.6,114.9 			"/>
			<polygon class="st2" points="103.9,180.8 112.5,186.5 149.5,129.7 140.9,124 			"/>
			<polygon class="st2" points="140.6,307.2 149.3,301.6 112.2,244.8 103.5,250.5 			"/>
			<polygon class="st2" points="112.2,326.2 120.9,320.6 83.8,263.8 75.1,269.4 			"/>
			<g>
				<path class="st3" d="M256.4,203c-27.1-8.4-38.2,9.1-42.1,13.2c-3.9,4.1-14.3,18.6-36.8,12.5c-25.8-7-26.2-29.6-23.2-44.9
					c-4.6,9.2-7.3,19.6-7.3,30.6c0,0.2,0,0.5,0,0.7c0.4,37.4,30.8,67.5,68.2,67.5c27.8,0,51.6-16.6,62.3-40.4
					C278.8,225.3,274.2,208.5,256.4,203z"/>
				<path class="st4" d="M283.6,214.4c0-37.7-30.6-68.3-68.3-68.3c-26.7,0-49.8,15.3-61,37.6c-3.1,15.3-2.7,37.8,23.2,44.9
					c22.5,6.1,33-8.4,36.8-12.5c3.9-4.1,15-21.6,42.1-13.2c17.8,5.5,22.4,22.3,21.2,39.3c2.9-6.4,4.8-13.3,5.6-20.6
					C283.4,219.3,283.6,216.9,283.6,214.4z"/>
			</g>
		</g>
		<use xlink:href="#SVGID_1_"  style="overflow:visible;fill:none;stroke:#999999;stroke-width:2;stroke-miterlimit:10;"/>
	</g>
</g>
</svg>
