<?xml version="1.0" encoding="utf-8"?>
<!-- Generator: Adobe Illustrator 22.1.0, SVG Export Plug-In . SVG Version: 6.00 Build 0)  -->
<svg version="1.1" id="레이어_1" xmlns="http://www.w3.org/2000/svg" xmlns:xlink="http://www.w3.org/1999/xlink" x="0px"
	 y="0px" viewBox="0 0 430 430" style="enable-background:new 0 0 430 430;" xml:space="preserve">
<style type="text/css">
	.st0{clip-path:url(#SVGID_2_);}
	.st1{fill:#FFFFFF;stroke:#999999;stroke-miterlimit:10;}
	.st2{fill:#DD2914;stroke:#999999;}
	.st3{fill:#0D3886;stroke:#999999;}
	.st4{fill:#FFFFFF;stroke:#999999;}
	.st5{fill:none;stroke:#999999;stroke-miterlimit:10;}
</style>
<g>
	<defs>
		<path id="SVGID_1_" d="M215,426.7L215,426.7C98.6,426.7,3.4,331.4,3.4,215.1v0C3.4,98.7,98.6,3.4,215,3.4h0
			c116.4,0,211.6,95.2,211.6,211.6v0C426.6,331.4,331.4,426.7,215,426.7z"/>
	</defs>
	<clipPath id="SVGID_2_">
		<use xlink:href="#SVGID_1_"  style="overflow:visible;"/>
	</clipPath>
	<g class="st0">
		<polygon class="st1" points="-100.6,-81.9 -100.6,190.7 -100.6,512 530.7,512 530.7,191.1 530.7,-81.9 		"/>
		<polygon class="st2" points="-101.8,3.8 -101.8,18.5 -101.8,35.7 531.9,35.7 531.9,18.5 531.9,3.8 		"/>
		<polygon class="st2" points="-101.8,68.7 -101.8,83.3 -101.8,100.6 531.9,100.6 531.9,83.3 531.9,68.7 		"/>
		<polygon class="st2" points="-101.8,134 -101.8,148.7 -101.8,165.9 531.9,165.9 531.9,148.7 531.9,134 		"/>
		<polygon class="st2" points="-101.8,198.9 -101.8,213.5 -101.8,230.8 531.9,230.8 531.9,213.5 531.9,198.9 		"/>
		<polygon class="st2" points="-101.8,263.7 -101.8,278.3 -101.8,295.6 531.9,295.6 531.9,278.4 531.9,263.7 		"/>
		<polygon class="st2" points="-101.8,328.5 -101.8,343.2 -101.8,360.4 531.9,360.4 531.9,343.2 531.9,328.5 		"/>
		<polygon class="st2" points="-101.8,394.4 -101.8,409 -101.8,426.3 531.9,426.3 531.9,409 531.9,394.4 		"/>
		<rect x="-101.8" y="3.8" class="st3" width="320.8" height="192.8"/>
		<rect x="-101.8" y="37.9" class="st3" width="320.8" height="192.8"/>
		<g>
			<polygon class="st4" points="-74.9,14 -72.2,22.4 -63.4,22.4 -70.5,27.6 -67.8,36 -74.9,30.8 -82.1,36 -79.3,27.6 -86.5,22.4 
				-77.6,22.4 			"/>
			<polygon class="st4" points="-21.2,14 -18.5,22.4 -9.7,22.4 -16.8,27.6 -14.1,36 -21.2,30.8 -28.4,36 -25.7,27.6 -32.8,22.4 
				-24,22.4 			"/>
			<polygon class="st4" points="32.4,14 35.1,22.4 44,22.4 36.8,27.6 39.6,36 32.4,30.8 25.3,36 28,27.6 20.9,22.4 29.7,22.4 			"/>
			<polygon class="st4" points="86.1,14 88.8,22.4 97.6,22.4 90.5,27.6 93.2,36 86.1,30.8 79,36 81.7,27.6 74.5,22.4 83.4,22.4 			
				"/>
			<polygon class="st4" points="139.8,14 142.5,22.4 151.3,22.4 144.2,27.6 146.9,36 139.8,30.8 132.6,36 135.4,27.6 128.2,22.4 
				137,22.4 			"/>
			<polygon class="st4" points="193.4,14 196.1,22.4 205,22.4 197.8,27.6 200.6,36 193.4,30.8 186.3,36 189,27.6 181.9,22.4 
				190.7,22.4 			"/>
		</g>
		<g>
			<polygon class="st4" points="-74.9,59.7 -72.2,68.1 -63.4,68.1 -70.5,73.3 -67.8,81.7 -74.9,76.5 -82.1,81.7 -79.3,73.3 
				-86.5,68.1 -77.6,68.1 			"/>
			<polygon class="st4" points="-21.2,59.7 -18.5,68.1 -9.7,68.1 -16.8,73.3 -14.1,81.7 -21.2,76.5 -28.4,81.7 -25.7,73.3 
				-32.8,68.1 -24,68.1 			"/>
			<polygon class="st4" points="32.4,59.7 35.1,68.1 44,68.1 36.8,73.3 39.6,81.7 32.4,76.5 25.3,81.7 28,73.3 20.9,68.1 29.7,68.1 
							"/>
			<polygon class="st4" points="86.1,59.7 88.8,68.1 97.6,68.1 90.5,73.3 93.2,81.7 86.1,76.5 79,81.7 81.7,73.3 74.5,68.1 
				83.4,68.1 			"/>
			<polygon class="st4" points="139.8,59.7 142.5,68.1 151.3,68.1 144.2,73.3 146.9,81.7 139.8,76.5 132.6,81.7 135.4,73.3 
				128.2,68.1 137,68.1 			"/>
			<polygon class="st4" points="193.4,59.7 196.1,68.1 205,68.1 197.8,73.3 200.6,81.7 193.4,76.5 186.3,81.7 189,73.3 181.9,68.1 
				190.7,68.1 			"/>
		</g>
		<g>
			<polygon class="st4" points="-74.9,105.4 -72.2,113.8 -63.4,113.8 -70.5,119 -67.8,127.4 -74.9,122.2 -82.1,127.4 -79.3,119 
				-86.5,113.8 -77.6,113.8 			"/>
			<polygon class="st4" points="-21.2,105.4 -18.5,113.8 -9.7,113.8 -16.8,119 -14.1,127.4 -21.2,122.2 -28.4,127.4 -25.7,119 
				-32.8,113.8 -24,113.8 			"/>
			<polygon class="st4" points="32.4,105.4 35.1,113.8 44,113.8 36.8,119 39.6,127.4 32.4,122.2 25.3,127.4 28,119 20.9,113.8 
				29.7,113.8 			"/>
			<polygon class="st4" points="86.1,105.4 88.8,113.8 97.6,113.8 90.5,119 93.2,127.4 86.1,122.2 79,127.4 81.7,119 74.5,113.8 
				83.4,113.8 			"/>
			<polygon class="st4" points="139.8,105.4 142.5,113.8 151.3,113.8 144.2,119 146.9,127.4 139.8,122.2 132.6,127.4 135.4,119 
				128.2,113.8 137,113.8 			"/>
			<polygon class="st4" points="193.4,105.4 196.1,113.8 205,113.8 197.8,119 200.6,127.4 193.4,122.2 186.3,127.4 189,119 
				181.9,113.8 190.7,113.8 			"/>
		</g>
		<g>
			<polygon class="st4" points="-74.9,151.1 -72.2,159.5 -63.4,159.5 -70.5,164.7 -67.8,173.1 -74.9,167.9 -82.1,173.1 -79.3,164.7 
				-86.5,159.5 -77.6,159.5 			"/>
			<polygon class="st4" points="-21.2,151.1 -18.5,159.5 -9.7,159.5 -16.8,164.7 -14.1,173.1 -21.2,167.9 -28.4,173.1 -25.7,164.7 
				-32.8,159.5 -24,159.5 			"/>
			<polygon class="st4" points="32.4,151.1 35.1,159.5 44,159.5 36.8,164.7 39.6,173.1 32.4,167.9 25.3,173.1 28,164.7 20.9,159.5 
				29.7,159.5 			"/>
			<polygon class="st4" points="86.1,151.1 88.8,159.5 97.6,159.5 90.5,164.7 93.2,173.1 86.1,167.9 79,173.1 81.7,164.7 
				74.5,159.5 83.4,159.5 			"/>
			<polygon class="st4" points="139.8,151.1 142.5,159.5 151.3,159.5 144.2,164.7 146.9,173.1 139.8,167.9 132.6,173.1 135.4,164.7 
				128.2,159.5 137,159.5 			"/>
			<polygon class="st4" points="193.4,151.1 196.1,159.5 205,159.5 197.8,164.7 200.6,173.1 193.4,167.9 186.3,173.1 189,164.7 
				181.9,159.5 190.7,159.5 			"/>
		</g>
		<g>
			<polygon class="st4" points="-74.9,196.8 -72.2,205.2 -63.4,205.2 -70.5,210.4 -67.8,218.8 -74.9,213.6 -82.1,218.8 -79.3,210.4 
				-86.5,205.2 -77.6,205.2 			"/>
			<polygon class="st4" points="-21.2,196.8 -18.5,205.2 -9.7,205.2 -16.8,210.4 -14.1,218.8 -21.2,213.6 -28.4,218.8 -25.7,210.4 
				-32.8,205.2 -24,205.2 			"/>
			<polygon class="st4" points="32.4,196.8 35.1,205.2 44,205.2 36.8,210.4 39.6,218.8 32.4,213.6 25.3,218.8 28,210.4 20.9,205.2 
				29.7,205.2 			"/>
			<polygon class="st4" points="86.1,196.8 88.8,205.2 97.6,205.2 90.5,210.4 93.2,218.8 86.1,213.6 79,218.8 81.7,210.4 
				74.5,205.2 83.4,205.2 			"/>
			<polygon class="st4" points="139.8,196.8 142.5,205.2 151.3,205.2 144.2,210.4 146.9,218.8 139.8,213.6 132.6,218.8 135.4,210.4 
				128.2,205.2 137,205.2 			"/>
			<polygon class="st4" points="193.4,196.8 196.1,205.2 205,205.2 197.8,210.4 200.6,218.8 193.4,213.6 186.3,218.8 189,210.4 
				181.9,205.2 190.7,205.2 			"/>
		</g>
		<g>
			<polygon class="st4" points="-48.3,37.4 -45.6,45.8 -36.8,45.8 -43.9,51 -41.2,59.4 -48.3,54.2 -55.5,59.4 -52.8,51 -59.9,45.8 
				-51.1,45.8 			"/>
			<polygon class="st4" points="5.3,37.4 8,45.8 16.9,45.8 9.7,51 12.5,59.4 5.3,54.2 -1.8,59.4 0.9,51 -6.2,45.8 2.6,45.8 			"/>
			<polygon class="st4" points="59,37.4 61.7,45.8 70.5,45.8 63.4,51 66.1,59.4 59,54.2 51.9,59.4 54.6,51 47.4,45.8 56.3,45.8 			
				"/>
			<polygon class="st4" points="112.7,37.4 115.4,45.8 124.2,45.8 117.1,51 119.8,59.4 112.7,54.2 105.5,59.4 108.3,51 101.1,45.8 
				109.9,45.8 			"/>
			<polygon class="st4" points="166.3,37.4 169.1,45.8 177.9,45.8 170.7,51 173.5,59.4 166.3,54.2 159.2,59.4 161.9,51 154.8,45.8 
				163.6,45.8 			"/>
		</g>
		<g>
			<polygon class="st4" points="-48.3,82.6 -45.6,90.9 -36.8,90.9 -43.9,96.1 -41.2,104.5 -48.3,99.3 -55.5,104.5 -52.8,96.1 
				-59.9,90.9 -51.1,90.9 			"/>
			<polygon class="st4" points="5.3,82.6 8,90.9 16.9,90.9 9.7,96.1 12.5,104.5 5.3,99.3 -1.8,104.5 0.9,96.1 -6.2,90.9 2.6,90.9 
							"/>
			<polygon class="st4" points="59,82.6 61.7,90.9 70.5,90.9 63.4,96.1 66.1,104.5 59,99.3 51.9,104.5 54.6,96.1 47.4,90.9 
				56.3,90.9 			"/>
			<polygon class="st4" points="112.7,82.6 115.4,90.9 124.2,90.9 117.1,96.1 119.8,104.5 112.7,99.3 105.5,104.5 108.3,96.1 
				101.1,90.9 109.9,90.9 			"/>
			<polygon class="st4" points="166.3,82.6 169.1,90.9 177.9,90.9 170.7,96.1 173.5,104.5 166.3,99.3 159.2,104.5 161.9,96.1 
				154.8,90.9 163.6,90.9 			"/>
		</g>
		<g>
			<polygon class="st4" points="-48.3,127.7 -45.6,136.1 -36.8,136.1 -43.9,141.3 -41.2,149.7 -48.3,144.5 -55.5,149.7 -52.8,141.3 
				-59.9,136.1 -51.1,136.1 			"/>
			<polygon class="st4" points="5.3,127.7 8,136.1 16.9,136.1 9.7,141.3 12.5,149.7 5.3,144.5 -1.8,149.7 0.9,141.3 -6.2,136.1 
				2.6,136.1 			"/>
			<polygon class="st4" points="59,127.7 61.7,136.1 70.5,136.1 63.4,141.3 66.1,149.7 59,144.5 51.9,149.7 54.6,141.3 47.4,136.1 
				56.3,136.1 			"/>
			<polygon class="st4" points="112.7,127.7 115.4,136.1 124.2,136.1 117.1,141.3 119.8,149.7 112.7,144.5 105.5,149.7 108.3,141.3 
				101.1,136.1 109.9,136.1 			"/>
			<polygon class="st4" points="166.3,127.7 169.1,136.1 177.9,136.1 170.7,141.3 173.5,149.7 166.3,144.5 159.2,149.7 161.9,141.3 
				154.8,136.1 163.6,136.1 			"/>
		</g>
		<g>
			<polygon class="st4" points="-48.3,172.9 -45.6,181.3 -36.8,181.3 -43.9,186.5 -41.2,194.9 -48.3,189.7 -55.5,194.9 -52.8,186.5 
				-59.9,181.3 -51.1,181.3 			"/>
			<polygon class="st4" points="5.3,172.9 8,181.3 16.9,181.3 9.7,186.5 12.5,194.9 5.3,189.7 -1.8,194.9 0.9,186.5 -6.2,181.3 
				2.6,181.3 			"/>
			<polygon class="st4" points="59,172.9 61.7,181.3 70.5,181.3 63.4,186.5 66.1,194.9 59,189.7 51.9,194.9 54.6,186.5 47.4,181.3 
				56.3,181.3 			"/>
			<polygon class="st4" points="112.7,172.9 115.4,181.3 124.2,181.3 117.1,186.5 119.8,194.9 112.7,189.7 105.5,194.9 108.3,186.5 
				101.1,181.3 109.9,181.3 			"/>
			<polygon class="st4" points="166.3,172.9 169.1,181.3 177.9,181.3 170.7,186.5 173.5,194.9 166.3,189.7 159.2,194.9 161.9,186.5 
				154.8,181.3 163.6,181.3 			"/>
		</g>
		<polygon class="st5" points="-101.8,3.8 -101.8,197.7 -101.8,426.3 531.9,426.3 531.9,198 531.9,3.8 		"/>
	</g>
	<use xlink:href="#SVGID_1_"  style="overflow:visible;fill:none;stroke:#999999;stroke-miterlimit:10;"/>
</g>
</svg>
