<?xml version="1.0" encoding="utf-8"?>
<!-- Generator: Adobe Illustrator 22.1.0, SVG Export Plug-In . SVG Version: 6.00 Build 0)  -->
<svg version="1.1" id="레이어_1" xmlns="http://www.w3.org/2000/svg" xmlns:xlink="http://www.w3.org/1999/xlink" x="0px"
	 y="0px" viewBox="0 0 430 430" style="enable-background:new 0 0 430 430;" xml:space="preserve">
<style type="text/css">
	.st0{clip-path:url(#SVGID_3_);}
	.st1{fill:#D02E1A;}
	.st2{fill:#F3E128;}
	.st3{fill:none;}
</style>
<g>
	<g>
		<defs>
			<path id="SVGID_2_" d="M215.2,426.7L215.2,426.7C98.8,426.7,3.6,331.4,3.6,215.1l0,0C3.6,98.7,98.8,3.4,215.2,3.4l0,0
				c116.4,0,211.6,95.2,211.6,211.6l0,0C426.8,331.4,331.6,426.7,215.2,426.7z"/>
		</defs>
		<clipPath id="SVGID_3_">
			<use xlink:href="#SVGID_2_"  style="overflow:visible;"/>
		</clipPath>
		<g class="st0">
			<g>
				<g>
					<rect x="-42.4" y="-49.1" class="st1" width="515.3" height="528.3"/>
				</g>
			</g>
			<polygon class="st2" points="82,107.2 91.2,135.4 121,135.4 96.9,152.9 106.1,181.2 82,163.7 58,181.2 67.2,152.9 43.1,135.4 
				72.9,135.4 			"/>
			<polygon class="st2" points="152.4,97.1 151.8,106.1 160.1,109.5 151.4,111.6 150.7,120.6 146,113 137.2,115.1 143,108.2 
				138.3,100.6 146.6,104 			"/>
			<polygon class="st2" points="183.2,126.1 179,134.1 185.3,140.6 176.4,139.1 172.2,147 170.9,138.1 162,136.6 170.1,132.6 
				168.8,123.7 175.1,130.1 			"/>
			<polygon class="st2" points="185.8,170.1 178.8,175.7 181.9,184.2 174.4,179.2 167.3,184.8 169.8,176.1 162.3,171.1 171.3,170.8 
				173.7,162.1 176.8,170.5 			"/>
			<polygon class="st2" points="160.2,201.1 151.6,203.4 151.1,212.4 146.2,204.9 137.5,207.3 143.1,200.3 138.2,192.7 146.6,195.9 
				152.3,188.9 151.8,197.9 			"/>
		</g>
	</g>
	<g>
		<path id="SVGID_1_" class="st3" d="M215.2,426.7L215.2,426.7C98.8,426.7,3.6,331.4,3.6,215.1l0,0C3.6,98.7,98.8,3.4,215.2,3.4l0,0
			c116.4,0,211.6,95.2,211.6,211.6l0,0C426.8,331.4,331.6,426.7,215.2,426.7z"/>
	</g>
</g>
</svg>
