<?xml version="1.0" encoding="utf-8"?>
<!-- Generator: Adobe Illustrator 22.1.0, SVG Export Plug-In . SVG Version: 6.00 Build 0)  -->
<svg version="1.1" id="레이어_1" xmlns="http://www.w3.org/2000/svg" xmlns:xlink="http://www.w3.org/1999/xlink" x="0px"
	 y="0px" viewBox="0 0 430 430" style="enable-background:new 0 0 430 430;" xml:space="preserve">
<style type="text/css">
	.st0{clip-path:url(#SVGID_2_);}
	.st1{fill:#FFFFFF;stroke:#999999;stroke-miterlimit:10;}
	.st2{fill:#DD2914;stroke:#999999;}
</style>
<g>
	<defs>
		<path id="SVGID_1_" d="M214.8,427.3L214.8,427.3C98.5,427.3,3.2,332.1,3.2,215.7v0C3.2,99.3,98.5,4.1,214.8,4.1h0
			c116.4,0,211.6,95.2,211.6,211.6v0C426.5,332.1,331.2,427.3,214.8,427.3z"/>
	</defs>
	<clipPath id="SVGID_2_">
		<use xlink:href="#SVGID_1_"  style="overflow:visible;"/>
	</clipPath>
	<g class="st0">
		<rect x="-46.8" y="-48.4" class="st1" width="523.4" height="528.3"/>
		<path class="st2" d="M214.8,146.4c-38.3,0-69.3,31-69.3,69.3c0,2.5,0.1,4.9,0.4,7.3c3.7,34.8,33.1,62,68.9,62
			c38,0,68.9-30.6,69.3-68.6c0-0.2,0-0.5,0-0.7C284.1,177.5,253.1,146.4,214.8,146.4z"/>
	</g>
	<use xlink:href="#SVGID_1_"  style="overflow:visible;fill:none;stroke:#999999;stroke-miterlimit:10;"/>
</g>
</svg>
