<?xml version="1.0" encoding="utf-8"?>
<!-- Generator: Adobe Illustrator 22.1.0, SVG Export Plug-In . SVG Version: 6.00 Build 0)  -->
<svg version="1.1" id="레이어_1" xmlns="http://www.w3.org/2000/svg" xmlns:xlink="http://www.w3.org/1999/xlink" x="0px"
	 y="0px" viewBox="0 0 600 500" style="enable-background:new 0 0 600 500;" xml:space="preserve">
<style type="text/css">
	.st0{fill:url(#SVGID_1_);}
	.st1{fill:url(#SVGID_2_);}
	.st2{fill:url(#SVGID_3_);}
	.st3{fill:url(#SVGID_4_);}
	.st4{fill:url(#SVGID_5_);}
	.st5{fill:url(#SVGID_6_);}
	.st6{fill:url(#SVGID_7_);}
	.st7{fill:url(#SVGID_8_);}
	.st8{fill:url(#SVGID_9_);}
	.st9{fill:url(#SVGID_10_);}
	.st10{fill:url(#SVGID_11_);}
	.st11{fill:url(#SVGID_12_);}
	.st12{fill:url(#SVGID_13_);}
	.st13{fill:url(#SVGID_14_);}
	.st14{fill:url(#SVGID_15_);}
	.st15{fill:url(#SVGID_16_);}
	.st16{fill:url(#SVGID_17_);}
	.st17{fill:url(#SVGID_18_);}
	.st18{fill:url(#SVGID_19_);}
	.st19{fill:url(#SVGID_20_);}
	.st20{fill:url(#SVGID_21_);}
	.st21{fill:url(#SVGID_22_);}
	.st22{fill:url(#SVGID_23_);}
	.st23{fill:url(#SVGID_24_);}
	.st24{fill:url(#SVGID_25_);}
	.st25{fill:url(#SVGID_26_);}
	.st26{fill:url(#SVGID_27_);}
	.st27{fill:url(#SVGID_28_);}
	.st28{fill:url(#SVGID_29_);}
	.st29{fill:url(#SVGID_30_);}
	.st30{fill:url(#SVGID_31_);}
	.st31{fill:url(#SVGID_32_);}
	.st32{fill:url(#SVGID_33_);}
	.st33{fill:url(#SVGID_34_);}
	.st34{fill:url(#SVGID_35_);}
	.st35{fill:#156796;}
	.st36{fill:#0F4A6B;}
	.st37{fill:#FFFFFF;}
	.st38{fill:#0C4A70;}
	.st39{fill:#FF5400;}
	.st40{fill:#C9EBFF;}
	.st41{opacity:0.6;}
</style>
<g>
	<g>
		<g>
			<linearGradient id="SVGID_1_" gradientUnits="userSpaceOnUse" x1="68.5104" y1="98.093" x2="40.1832" y2="235.0078">
				<stop  offset="0" style="stop-color:#3C7FA5"/>
				<stop  offset="1" style="stop-color:#C9EBFF"/>
			</linearGradient>
			<path class="st0" d="M74.9,134.4v-8.9H66l-6.3-6.3l-6.3,6.3h-8.9v8.9l-6.3,6.3l6.3,6.3v8.9h8.9l6.3,6.3l6.3-6.3h8.9V147l6.3-6.3
				L74.9,134.4z M71.1,129.7l-0.1,5.7l-8.3,2.4l2.7-8.3L71.1,129.7z M59.8,124.9l4,4.1l-4.1,7.6l-4-7.7L59.8,124.9z M62.2,140.7
				c0,1.4-1.1,2.5-2.5,2.5c-1.4,0-2.5-1.1-2.5-2.5c0-1.4,1.1-2.5,2.5-2.5C61.1,138.2,62.2,139.3,62.2,140.7z M48.5,129.5l5.7,0.1
				l2.4,8.3l-8.3-2.7L48.5,129.5z M43.7,140.8l4.1-4l7.6,4.1l-7.7,4L43.7,140.8z M48.3,152.1l0.1-5.7l8.3-2.4l-2.7,8.3L48.3,152.1z
				 M59.6,156.9l-4-4.1l4.1-7.6l4,7.7L59.6,156.9z M70.9,152.2l-5.7-0.1l-2.4-8.3l8.3,2.7L70.9,152.2z M71.6,144.9l-7.6-4.1l7.7-4
				l4,4.1L71.6,144.9z"/>
		</g>
		<g>
			<g>
				<g>
					<linearGradient id="SVGID_2_" gradientUnits="userSpaceOnUse" x1="61.3791" y1="96.6176" x2="33.0519" y2="233.5324">
						<stop  offset="0" style="stop-color:#3C7FA5"/>
						<stop  offset="1" style="stop-color:#C9EBFF"/>
					</linearGradient>
					<rect x="58.5" y="87" class="st1" width="2.6" height="34.5"/>
				</g>
				<g>
					<linearGradient id="SVGID_3_" gradientUnits="userSpaceOnUse" x1="62.0933" y1="96.7653" x2="33.7661" y2="233.6802">
						<stop  offset="0" style="stop-color:#3C7FA5"/>
						<stop  offset="1" style="stop-color:#C9EBFF"/>
					</linearGradient>
					<polygon class="st2" points="59.8,119.9 44.8,107.8 46.4,105.8 59.8,116.6 73.2,105.8 74.9,107.8 					"/>
				</g>
				<g>
					<linearGradient id="SVGID_4_" gradientUnits="userSpaceOnUse" x1="60.5103" y1="96.4378" x2="32.1831" y2="233.3526">
						<stop  offset="0" style="stop-color:#3C7FA5"/>
						<stop  offset="1" style="stop-color:#C9EBFF"/>
					</linearGradient>
					<polygon class="st3" points="59.8,108.9 48.4,99.8 50,97.8 59.8,105.6 69.6,97.8 71.2,99.8 					"/>
				</g>
				<g>
					<linearGradient id="SVGID_5_" gradientUnits="userSpaceOnUse" x1="59.3471" y1="96.1972" x2="31.0199" y2="233.112">
						<stop  offset="0" style="stop-color:#3C7FA5"/>
						<stop  offset="1" style="stop-color:#C9EBFF"/>
					</linearGradient>
					<polygon class="st4" points="60,98.9 52.4,92.9 54,90.9 60,95.6 66,90.9 67.6,92.9 					"/>
				</g>
			</g>
			<g>
				<g>
					<linearGradient id="SVGID_6_" gradientUnits="userSpaceOnUse" x1="75.7621" y1="99.5934" x2="47.4349" y2="236.5082">
						<stop  offset="0" style="stop-color:#3C7FA5"/>
						<stop  offset="1" style="stop-color:#C9EBFF"/>
					</linearGradient>
					<rect x="58.5" y="159.5" class="st5" width="2.6" height="34.5"/>
				</g>
				<g>
					<linearGradient id="SVGID_7_" gradientUnits="userSpaceOnUse" x1="75.0479" y1="99.4456" x2="46.7207" y2="236.3604">
						<stop  offset="0" style="stop-color:#3C7FA5"/>
						<stop  offset="1" style="stop-color:#C9EBFF"/>
					</linearGradient>
					<polygon class="st6" points="73.2,175.1 59.8,164.4 46.4,175.1 44.8,173.1 59.8,161.1 74.9,173.1 					"/>
				</g>
				<g>
					<linearGradient id="SVGID_8_" gradientUnits="userSpaceOnUse" x1="76.6309" y1="99.7731" x2="48.3037" y2="236.6879">
						<stop  offset="0" style="stop-color:#3C7FA5"/>
						<stop  offset="1" style="stop-color:#C9EBFF"/>
					</linearGradient>
					<polygon class="st7" points="69.6,183.1 59.8,175.4 50,183.1 48.4,181.1 59.8,172.1 71.2,181.1 					"/>
				</g>
				<g>
					<linearGradient id="SVGID_9_" gradientUnits="userSpaceOnUse" x1="78.2074" y1="100.0993" x2="49.8802" y2="237.0141">
						<stop  offset="0" style="stop-color:#3C7FA5"/>
						<stop  offset="1" style="stop-color:#C9EBFF"/>
					</linearGradient>
					<polygon class="st8" points="66,190 60,185.3 54,190 52.4,188 60,182 67.6,188 					"/>
				</g>
			</g>
		</g>
		<g>
			<g>
				<g>
					<linearGradient id="SVGID_10_" gradientUnits="userSpaceOnUse" x1="103.3297" y1="105.297" x2="75.0025" y2="242.2118">
						<stop  offset="0" style="stop-color:#3C7FA5"/>
						<stop  offset="1" style="stop-color:#C9EBFF"/>
					</linearGradient>
					<rect x="78.8" y="139.2" class="st9" width="34.5" height="2.6"/>
				</g>
				<g>
					<linearGradient id="SVGID_11_" gradientUnits="userSpaceOnUse" x1="96.3986" y1="103.863" x2="68.0714" y2="240.7778">
						<stop  offset="0" style="stop-color:#3C7FA5"/>
						<stop  offset="1" style="stop-color:#C9EBFF"/>
					</linearGradient>
					<polygon class="st10" points="92.5,155.5 80.4,140.5 92.5,125.4 94.5,127 83.7,140.5 94.5,153.9 					"/>
				</g>
				<g>
					<linearGradient id="SVGID_12_" gradientUnits="userSpaceOnUse" x1="105.149" y1="105.6734" x2="76.8217" y2="242.5882">
						<stop  offset="0" style="stop-color:#3C7FA5"/>
						<stop  offset="1" style="stop-color:#C9EBFF"/>
					</linearGradient>
					<polygon class="st11" points="100.4,151.9 91.4,140.5 100.4,129.1 102.5,130.7 94.7,140.5 102.5,150.3 					"/>
				</g>
				<g>
					<linearGradient id="SVGID_13_" gradientUnits="userSpaceOnUse" x1="112.8807" y1="107.2731" x2="84.5535" y2="244.1879">
						<stop  offset="0" style="stop-color:#3C7FA5"/>
						<stop  offset="1" style="stop-color:#C9EBFF"/>
					</linearGradient>
					<polygon class="st12" points="107.3,148.3 101.3,140.7 107.3,133.1 109.4,134.7 104.6,140.7 109.4,146.7 					"/>
				</g>
			</g>
			<g>
				<g>
					<linearGradient id="SVGID_14_" gradientUnits="userSpaceOnUse" x1="33.8115" y1="90.9139" x2="5.4843" y2="227.8288">
						<stop  offset="0" style="stop-color:#3C7FA5"/>
						<stop  offset="1" style="stop-color:#C9EBFF"/>
					</linearGradient>
					<rect x="6.3" y="139.2" class="st13" width="34.5" height="2.6"/>
				</g>
				<g>
					<linearGradient id="SVGID_15_" gradientUnits="userSpaceOnUse" x1="40.7426" y1="92.3479" x2="12.4154" y2="229.2628">
						<stop  offset="0" style="stop-color:#3C7FA5"/>
						<stop  offset="1" style="stop-color:#C9EBFF"/>
					</linearGradient>
					<polygon class="st14" points="27.2,155.5 25.1,153.9 35.9,140.5 25.1,127 27.2,125.4 39.2,140.5 					"/>
				</g>
				<g>
					<linearGradient id="SVGID_16_" gradientUnits="userSpaceOnUse" x1="31.9922" y1="90.5375" x2="3.665" y2="227.4523">
						<stop  offset="0" style="stop-color:#3C7FA5"/>
						<stop  offset="1" style="stop-color:#C9EBFF"/>
					</linearGradient>
					<polygon class="st15" points="19.2,151.9 17.1,150.3 24.9,140.5 17.1,130.7 19.2,129.1 28.2,140.5 					"/>
				</g>
				<g>
					<linearGradient id="SVGID_17_" gradientUnits="userSpaceOnUse" x1="24.3465" y1="88.9556" x2="-3.9807" y2="225.8705">
						<stop  offset="0" style="stop-color:#3C7FA5"/>
						<stop  offset="1" style="stop-color:#C9EBFF"/>
					</linearGradient>
					<polygon class="st16" points="12.3,148.3 10.2,146.7 15,140.7 10.2,134.7 12.3,133.1 18.3,140.7 					"/>
				</g>
			</g>
		</g>
		<g>
			<g>
				<g>
					<linearGradient id="SVGID_18_" gradientUnits="userSpaceOnUse" x1="88.0632" y1="102.1384" x2="59.736" y2="239.0532">
						<stop  offset="0" style="stop-color:#3C7FA5"/>
						<stop  offset="1" style="stop-color:#C9EBFF"/>
					</linearGradient>
					<polygon class="st17" points="74.1,128 72.3,126.1 96.7,101.7 98.6,103.6 					"/>
				</g>
				<g>
					<linearGradient id="SVGID_19_" gradientUnits="userSpaceOnUse" x1="86.1278" y1="101.738" x2="57.8006" y2="238.6528">
						<stop  offset="0" style="stop-color:#3C7FA5"/>
						<stop  offset="1" style="stop-color:#C9EBFF"/>
					</linearGradient>
					<polygon class="st18" points="93.5,128 74.4,125.9 72.2,106.7 74.8,106.5 76.7,123.6 93.8,125.5 					"/>
				</g>
				<g>
					<linearGradient id="SVGID_20_" gradientUnits="userSpaceOnUse" x1="90.4204" y1="102.6261" x2="62.0932" y2="239.5409">
						<stop  offset="0" style="stop-color:#3C7FA5"/>
						<stop  offset="1" style="stop-color:#C9EBFF"/>
					</linearGradient>
					<polygon class="st19" points="96.6,119.8 82.2,118.1 80.5,103.7 83,103.4 84.5,115.8 96.9,117.2 					"/>
				</g>
				<g>
					<linearGradient id="SVGID_21_" gradientUnits="userSpaceOnUse" x1="94.309" y1="103.4306" x2="65.9817" y2="240.3455">
						<stop  offset="0" style="stop-color:#3C7FA5"/>
						<stop  offset="1" style="stop-color:#C9EBFF"/>
					</linearGradient>
					<polygon class="st20" points="98.9,112.4 89.3,111.3 88.2,101.6 90.8,101.3 91.7,108.9 99.2,109.8 					"/>
				</g>
			</g>
			<g>
				<g>
					<linearGradient id="SVGID_22_" gradientUnits="userSpaceOnUse" x1="49.078" y1="94.0725" x2="20.7508" y2="230.9874">
						<stop  offset="0" style="stop-color:#3C7FA5"/>
						<stop  offset="1" style="stop-color:#C9EBFF"/>
					</linearGradient>
					<polygon class="st21" points="22.9,179.2 21.1,177.4 45.5,153 47.3,154.8 					"/>
				</g>
				<g>
					<linearGradient id="SVGID_23_" gradientUnits="userSpaceOnUse" x1="51.0133" y1="94.4729" x2="22.6861" y2="231.3878">
						<stop  offset="0" style="stop-color:#3C7FA5"/>
						<stop  offset="1" style="stop-color:#C9EBFF"/>
					</linearGradient>
					<polygon class="st22" points="44.8,174.5 42.9,157.4 25.8,155.5 26.1,152.9 45.2,155 47.4,174.2 					"/>
				</g>
				<g>
					<linearGradient id="SVGID_24_" gradientUnits="userSpaceOnUse" x1="46.7208" y1="93.5848" x2="18.3936" y2="230.4996">
						<stop  offset="0" style="stop-color:#3C7FA5"/>
						<stop  offset="1" style="stop-color:#C9EBFF"/>
					</linearGradient>
					<polygon class="st23" points="36.6,177.6 35.1,165.2 22.7,163.7 23,161.1 37.5,162.8 39.1,177.3 					"/>
				</g>
				<g>
					<linearGradient id="SVGID_25_" gradientUnits="userSpaceOnUse" x1="43.1871" y1="92.8537" x2="14.8599" y2="229.7685">
						<stop  offset="0" style="stop-color:#3C7FA5"/>
						<stop  offset="1" style="stop-color:#C9EBFF"/>
					</linearGradient>
					<polygon class="st24" points="29.1,179.9 28.3,172.3 20.7,171.4 21,168.9 30.6,170 31.7,179.6 					"/>
				</g>
			</g>
		</g>
		<g>
			<g>
				<g>
					<linearGradient id="SVGID_26_" gradientUnits="userSpaceOnUse" x1="98.2338" y1="104.2427" x2="69.9066" y2="241.1575">
						<stop  offset="0" style="stop-color:#3C7FA5"/>
						<stop  offset="1" style="stop-color:#C9EBFF"/>
					</linearGradient>
					<polygon class="st25" points="96.7,179.2 72.3,154.8 74.1,153 98.6,177.4 					"/>
				</g>
				<g>
					<linearGradient id="SVGID_27_" gradientUnits="userSpaceOnUse" x1="94.7938" y1="103.531" x2="66.4666" y2="240.4458">
						<stop  offset="0" style="stop-color:#3C7FA5"/>
						<stop  offset="1" style="stop-color:#C9EBFF"/>
					</linearGradient>
					<polygon class="st26" points="74.8,174.5 72.2,174.2 74.4,155 93.5,152.9 93.8,155.5 76.7,157.4 					"/>
				</g>
				<g>
					<linearGradient id="SVGID_28_" gradientUnits="userSpaceOnUse" x1="101.5925" y1="104.9376" x2="73.2653" y2="241.8524">
						<stop  offset="0" style="stop-color:#3C7FA5"/>
						<stop  offset="1" style="stop-color:#C9EBFF"/>
					</linearGradient>
					<polygon class="st27" points="83,177.6 80.5,177.3 82.2,162.8 96.6,161.1 96.9,163.7 84.5,165.2 					"/>
				</g>
				<g>
					<linearGradient id="SVGID_29_" gradientUnits="userSpaceOnUse" x1="107.3355" y1="106.1258" x2="79.0083" y2="243.0406">
						<stop  offset="0" style="stop-color:#3C7FA5"/>
						<stop  offset="1" style="stop-color:#C9EBFF"/>
					</linearGradient>
					<polygon class="st28" points="90.5,179.9 87.9,179.6 89,170 98.6,168.9 98.9,171.4 91.4,172.3 					"/>
				</g>
			</g>
			<g>
				<g>
					<linearGradient id="SVGID_30_" gradientUnits="userSpaceOnUse" x1="38.9074" y1="91.9682" x2="10.5802" y2="228.8831">
						<stop  offset="0" style="stop-color:#3C7FA5"/>
						<stop  offset="1" style="stop-color:#C9EBFF"/>
					</linearGradient>
					<polygon class="st29" points="45.5,128 21.1,103.6 22.9,101.7 47.3,126.1 					"/>
				</g>
				<g>
					<linearGradient id="SVGID_31_" gradientUnits="userSpaceOnUse" x1="42.3474" y1="92.68" x2="14.0202" y2="229.5948">
						<stop  offset="0" style="stop-color:#3C7FA5"/>
						<stop  offset="1" style="stop-color:#C9EBFF"/>
					</linearGradient>
					<polygon class="st30" points="26.1,128 25.8,125.5 42.9,123.6 44.8,106.5 47.4,106.7 45.2,125.9 					"/>
				</g>
				<g>
					<linearGradient id="SVGID_32_" gradientUnits="userSpaceOnUse" x1="35.5487" y1="91.2733" x2="7.2215" y2="228.1882">
						<stop  offset="0" style="stop-color:#3C7FA5"/>
						<stop  offset="1" style="stop-color:#C9EBFF"/>
					</linearGradient>
					<polygon class="st31" points="23,119.8 22.7,117.2 35.1,115.8 36.6,103.4 39.1,103.7 37.5,118.1 					"/>
				</g>
				<g>
					<linearGradient id="SVGID_33_" gradientUnits="userSpaceOnUse" x1="29.5732" y1="90.037" x2="1.246" y2="226.9519">
						<stop  offset="0" style="stop-color:#3C7FA5"/>
						<stop  offset="1" style="stop-color:#C9EBFF"/>
					</linearGradient>
					<polygon class="st32" points="20.7,112.4 20.4,109.8 28,108.9 28.8,101.3 31.4,101.6 30.3,111.3 					"/>
				</g>
			</g>
		</g>
		<g>
			<linearGradient id="SVGID_34_" gradientUnits="userSpaceOnUse" x1="111.7198" y1="106.2958" x2="83.2786" y2="243.7621">
				<stop  offset="0" style="stop-color:#3C7FA5"/>
				<stop  offset="1" style="stop-color:#C9EBFF"/>
			</linearGradient>
			<path class="st33" d="M80.8,282.5c0-0.6,0.1-1.2-0.1-1.8c-0.2-0.6-0.6-1-1-1.5c-0.3-0.5-0.6-1-1.1-1.4c-0.5-0.3-1.1-0.4-1.7-0.6
				c-0.5-0.2-1.1-0.5-1.7-0.5c-0.6,0-1.2,0.3-1.7,0.5c-0.6,0.2-1.2,0.3-1.7,0.6c-0.5,0.3-0.8,0.9-1.1,1.4c-0.3,0.5-0.8,0.9-1,1.5
				c-0.2,0.5-0.1,1.2-0.1,1.8c0,0.6-0.1,1.2,0.1,1.8c0.2,0.6,0.6,1,1,1.5c0.3,0.5,0.6,1,1.1,1.4c0.5,0.3,1.1,0.4,1.7,0.6
				c0.5,0.2,1.1,0.5,1.7,0.5c0.6,0,1.2-0.3,1.7-0.5c0.6-0.2,1.2-0.3,1.7-0.6c0.5-0.3,0.8-0.9,1.1-1.4c0.3-0.5,0.8-0.9,1-1.5
				C80.9,283.7,80.8,283.1,80.8,282.5z"/>
		</g>
		<linearGradient id="SVGID_35_" gradientUnits="userSpaceOnUse" x1="75.0146" y1="99.4387" x2="46.6874" y2="236.3535">
			<stop  offset="0" style="stop-color:#3C7FA5"/>
			<stop  offset="1" style="stop-color:#C9EBFF"/>
		</linearGradient>
		<path class="st34" d="M42.2,272.2c-7.8,0-14.2-6.4-14.2-14.2c0-7.8,6.4-14.2,14.2-14.2s14.2,6.3,14.2,14.2
			C56.4,265.8,50.1,272.2,42.2,272.2z"/>
	</g>
	<g>
		<path class="st35" d="M257.9,46.2c-16-31-54-43.2-85-27.2c-31,16-43.2,54-27.2,85c16,31,54,43.2,85,27.2
			C261.7,115.3,273.8,77.2,257.9,46.2z"/>
		<path class="st36" d="M247.4,51.6c-13-25.2-43.9-35.1-69.1-22.1s-35.1,43.9-22.1,69.1c13,25.2,43.9,35.1,69.1,22.1
			S260.4,76.8,247.4,51.6z"/>
	</g>
	<path class="st37" d="M472.4,193.5c-45-87.3-152.2-121.6-239.5-76.6c-87.3,45-121.6,152.2-76.6,239.5
		c45,87.3,152.2,121.6,239.5,76.6C483,388,517.4,280.8,472.4,193.5z"/>
	<path class="st37" d="M265,60c-14.8-28.7-50-39.9-78.7-25.2c-28.7,14.8-39.9,50-25.2,78.7c14.8,28.7,50,39.9,78.7,25.2
		C268.6,123.8,279.8,88.6,265,60z"/>
	<g>
		<path class="st38" d="M184.5,55.7c1.2,2.3,0.4,5-1.7,6.1c-2.1,1.1-4.7,0.1-5.9-2.1c-1.2-2.3-0.4-5,1.7-6.1
			C180.6,52.5,183.3,53.4,184.5,55.7z"/>
		<path class="st38" d="M218.3,38.3c1.2,2.3,0.4,5-1.7,6.1c-2.1,1.1-4.7,0.1-5.9-2.1c-1.2-2.3-0.4-5,1.7-6.1
			C214.5,35,217.1,36,218.3,38.3z"/>
		<path class="st39" d="M209.2,55c-0.4-4.8-6.4-29.1-11.6-28.8c-5.2,0.4-7.6,25.3-7.2,30.1c0.4,4.8,4.8,8.4,10,8
			C205.6,64,209.5,59.8,209.2,55z"/>
		<path class="st38" d="M209.3,75.3c-0.2,0.1-0.5,0.2-0.7,0.3c-8.3,3.8-17.8,1-21.1-6.3c-0.3-0.6,0-1.2,0.6-1.5
			c0.6-0.3,1.3,0,1.5,0.6c2.9,6.2,11,8.5,18.1,5.2c7.1-3.3,10.6-11,7.7-17.2c-0.3-0.6,0-1.2,0.6-1.5c0.6-0.3,1.3,0,1.5,0.6
			C220.8,62.6,217.1,71.3,209.3,75.3z"/>
	</g>
	<path class="st40" d="M182.1,80c-1.5-5.7-7.4-9-13-7.5c-5.7,1.5-9,7.4-7.5,13c1.5,5.7,7.4,9,13,7.5C180.3,91.5,183.6,85.7,182.1,80
		z"/>
	<path class="st40" d="M249.1,48.2c-1.5-5.7-7.4-9-13-7.5c-5.7,1.5-9,7.4-7.5,13c1.5,5.7,7.4,9,13,7.5
		C247.3,59.7,250.7,53.9,249.1,48.2z"/>
	<path class="st40" d="M266.7,110c5.7,18.1-2.3,38.3-19.8,47.3c-18.9,9.7-42,2.9-52.6-15.3c14.5,4.9,30.9,4.2,45.6-3.4
		C252.3,132.2,261.5,121.9,266.7,110z"/>
	<path class="st35" d="M276.5,167.3c6.1,2,9.4,8.5,7.4,14.5l-3.3,10.2c-2,6.1-8.5,9.4-14.5,7.4L176,170.3c-6.1-2-9.4-8.5-7.4-14.5
		l3.3-10.3c2-6.1,8.5-9.4,14.5-7.4L276.5,167.3z"/>
	<g class="st41">
		<g>
			<path class="st35" d="M189.6,164.7c1.1,0.4,1.7,1.5,1.3,2.6l0,0c-0.4,1.1-1.5,1.7-2.6,1.4l-7.5-2.4c-1.1-0.4-1.7-1.5-1.3-2.6l0,0
				c0.4-1.1,1.5-1.7,2.6-1.4L189.6,164.7z"/>
			<path class="st35" d="M192.5,155.7c1.1,0.4,1.7,1.5,1.3,2.6l0,0c-0.4,1.1-1.5,1.7-2.6,1.4l-7.5-2.4c-1.1-0.4-1.7-1.5-1.4-2.6l0,0
				c0.4-1.1,1.5-1.7,2.6-1.3L192.5,155.7z"/>
			<path class="st35" d="M195.4,146.7c1.1,0.4,1.7,1.5,1.3,2.6l0,0c-0.4,1.1-1.5,1.7-2.6,1.4l-7.5-2.4c-1.1-0.4-1.7-1.5-1.4-2.6l0,0
				c0.4-1.1,1.5-1.7,2.6-1.4L195.4,146.7z"/>
		</g>
		<g>
			<path class="st35" d="M214,172.6c1.1,0.4,1.7,1.5,1.4,2.6l0,0c-0.4,1.1-1.5,1.7-2.6,1.3l-7.5-2.4c-1.1-0.4-1.7-1.5-1.3-2.6l0,0
				c0.4-1.1,1.5-1.7,2.6-1.4L214,172.6z"/>
			<path class="st35" d="M216.9,163.6c1.1,0.4,1.7,1.5,1.4,2.6l0,0c-0.4,1.1-1.5,1.7-2.6,1.3l-7.5-2.4c-1.1-0.4-1.7-1.5-1.4-2.6l0,0
				c0.4-1.1,1.5-1.7,2.6-1.3L216.9,163.6z"/>
			<path class="st35" d="M219.8,154.6c1.1,0.4,1.7,1.5,1.4,2.6l0,0c-0.4,1.1-1.5,1.7-2.6,1.3l-7.5-2.4c-1.1-0.4-1.7-1.5-1.3-2.6l0,0
				c0.4-1.1,1.5-1.7,2.6-1.4L219.8,154.6z"/>
		</g>
		<g>
			<path class="st35" d="M238.5,180.5c1.1,0.4,1.7,1.5,1.3,2.6l0,0c-0.4,1.1-1.5,1.7-2.6,1.4l-7.5-2.4c-1.1-0.4-1.7-1.5-1.4-2.6l0,0
				c0.4-1.1,1.5-1.7,2.6-1.3L238.5,180.5z"/>
			<path class="st35" d="M241.4,171.5c1.1,0.4,1.7,1.5,1.4,2.6l0,0c-0.4,1.1-1.5,1.7-2.6,1.3l-7.5-2.4c-1.1-0.4-1.7-1.5-1.4-2.6l0,0
				c0.4-1.1,1.5-1.7,2.6-1.3L241.4,171.5z"/>
			<path class="st35" d="M244.3,162.5c1.1,0.4,1.7,1.5,1.3,2.6l0,0c-0.4,1.1-1.5,1.7-2.6,1.4l-7.5-2.4c-1.1-0.4-1.7-1.5-1.3-2.6l0,0
				c0.4-1.1,1.5-1.7,2.6-1.4L244.3,162.5z"/>
		</g>
		<g>
			<path class="st35" d="M263,188.4c1.1,0.4,1.7,1.5,1.4,2.6l0,0c-0.4,1.1-1.5,1.7-2.6,1.4l-7.5-2.4c-1.1-0.4-1.7-1.5-1.3-2.6l0,0
				c0.4-1.1,1.5-1.7,2.6-1.4L263,188.4z"/>
			<path class="st35" d="M265.9,179.4c1.1,0.4,1.7,1.5,1.3,2.6l0,0c-0.4,1.1-1.5,1.7-2.6,1.4l-7.5-2.4c-1.1-0.4-1.7-1.5-1.3-2.6l0,0
				c0.4-1.1,1.5-1.7,2.6-1.4L265.9,179.4z"/>
			<path class="st35" d="M268.8,170.5c1.1,0.4,1.7,1.5,1.3,2.6l0,0c-0.4,1.1-1.5,1.7-2.6,1.4L260,172c-1.1-0.4-1.7-1.5-1.3-2.6l0,0
				c0.4-1.1,1.5-1.7,2.6-1.4L268.8,170.5z"/>
		</g>
	</g>
	<path class="st35" d="M260.8,201.1c-2.4,5.9-9.1,8.8-15,6.4l-10-4c-5.9-2.4-8.8-9.1-6.4-15l35.1-87.9c2.4-5.9,9.1-8.8,15-6.4l10,4
		c5.9,2.4,8.8,9.1,6.4,15L260.8,201.1z"/>
	<g class="st41">
		<g>
			<path class="st35" d="M269.3,114.6c-0.4,1.1-1.7,1.6-2.7,1.2l0,0c-1.1-0.4-1.6-1.6-1.2-2.7l2.9-7.3c0.4-1.1,1.6-1.6,2.7-1.2l0,0
				c1.1,0.4,1.6,1.7,1.2,2.7L269.3,114.6z"/>
			<path class="st35" d="M278,118.1c-0.4,1.1-1.7,1.6-2.7,1.2l0,0c-1.1-0.4-1.6-1.7-1.2-2.7l2.9-7.3c0.4-1.1,1.7-1.6,2.7-1.2l0,0
				c1.1,0.4,1.6,1.7,1.2,2.7L278,118.1z"/>
			<path class="st35" d="M286.8,121.6c-0.4,1.1-1.7,1.6-2.7,1.2l0,0c-1.1-0.4-1.6-1.7-1.2-2.7l2.9-7.3c0.4-1.1,1.7-1.6,2.7-1.2l0,0
				c1.1,0.4,1.6,1.7,1.2,2.7L286.8,121.6z"/>
		</g>
		<g>
			<path class="st35" d="M259.7,138.5c-0.4,1.1-1.7,1.6-2.7,1.2l0,0c-1.1-0.4-1.6-1.6-1.2-2.7l2.9-7.3c0.4-1.1,1.6-1.6,2.7-1.2l0,0
				c1.1,0.4,1.6,1.7,1.2,2.7L259.7,138.5z"/>
			<path class="st35" d="M268.5,142c-0.4,1.1-1.7,1.6-2.7,1.2l0,0c-1.1-0.4-1.6-1.7-1.2-2.7l2.9-7.3c0.4-1.1,1.7-1.6,2.7-1.2l0,0
				c1.1,0.4,1.6,1.7,1.2,2.7L268.5,142z"/>
			<path class="st35" d="M277.3,145.5c-0.4,1.1-1.7,1.6-2.7,1.2l0,0c-1.1-0.4-1.6-1.7-1.2-2.7l2.9-7.3c0.4-1.1,1.7-1.6,2.7-1.2l0,0
				c1.1,0.4,1.6,1.7,1.2,2.7L277.3,145.5z"/>
		</g>
		<g>
			<path class="st35" d="M250.2,162.3c-0.4,1.1-1.7,1.6-2.7,1.2l0,0c-1.1-0.4-1.6-1.6-1.2-2.7l2.9-7.3c0.4-1.1,1.6-1.6,2.7-1.2l0,0
				c1.1,0.4,1.6,1.6,1.2,2.7L250.2,162.3z"/>
			<path class="st35" d="M258.9,165.8c-0.4,1.1-1.7,1.6-2.7,1.2l0,0c-1.1-0.4-1.6-1.6-1.2-2.7l2.9-7.3c0.4-1.1,1.7-1.6,2.7-1.2l0,0
				c1.1,0.4,1.6,1.6,1.2,2.7L258.9,165.8z"/>
			<path class="st35" d="M267.7,169.4c-0.4,1.1-1.7,1.6-2.7,1.2l0,0c-1.1-0.4-1.6-1.7-1.2-2.7l2.9-7.3c0.4-1.1,1.7-1.6,2.7-1.2l0,0
				c1.1,0.4,1.6,1.7,1.2,2.7L267.7,169.4z"/>
		</g>
		<g>
			<path class="st35" d="M240.6,186.2c-0.4,1.1-1.7,1.6-2.7,1.2l0,0c-1.1-0.4-1.6-1.6-1.2-2.7l2.9-7.3c0.4-1.1,1.7-1.6,2.7-1.2l0,0
				c1.1,0.4,1.6,1.7,1.2,2.7L240.6,186.2z"/>
			<path class="st35" d="M249.4,189.7c-0.4,1.1-1.7,1.6-2.7,1.2l0,0c-1.1-0.4-1.6-1.7-1.2-2.7l2.9-7.3c0.4-1.1,1.7-1.6,2.7-1.2l0,0
				c1.1,0.4,1.6,1.7,1.2,2.7L249.4,189.7z"/>
			<path class="st35" d="M258.2,193.2c-0.4,1.1-1.7,1.6-2.7,1.2l0,0c-1.1-0.4-1.6-1.7-1.2-2.7l2.9-7.3c0.4-1.1,1.7-1.6,2.7-1.2l0,0
				c1.1,0.4,1.6,1.7,1.2,2.7L258.2,193.2z"/>
		</g>
	</g>
</g>
</svg>
