<svg xmlns="http://www.w3.org/2000/svg" xmlns:xlink="http://www.w3.org/1999/xlink" viewBox="0 0 227 57.5"><defs><style>.cls-1{fill:none;}.cls-2{clip-path:url(#clip-path);}.cls-3{fill:url(#무제_그라디언트);}.cls-4{fill:url(#무제_그라디언트_2);}.cls-5{fill:url(#무제_그라디언트_3);}.cls-6{fill:url(#무제_그라디언트_4);}.cls-7{fill:gray;}.cls-8{fill:#7f7f7f;}</style><clipPath id="clip-path"><path class="cls-1" d="M36.5,21.1,24.9,14.4,2.5,1.5C1.3.8,0,1.2,0,2.7V55.4c0,1.1.9,1.6,2,1S24.9,43.2,24.9,43.2l11.6-6.7s9.9-5.7,11.2-6.4,1.2-1.8.1-2.4Z"/></clipPath><linearGradient id="무제_그라디언트" x1="14.35" y1="58.09" x2="14.35" y2="1.09" gradientTransform="matrix(1, 0, 0, -1, 0, 58.29)" gradientUnits="userSpaceOnUse"><stop offset="0" stop-color="#2376a7"/><stop offset="0.31" stop-color="#4a93af"/><stop offset="0.78" stop-color="#75bbb7"/><stop offset="1" stop-color="#86cbb8"/></linearGradient><linearGradient id="무제_그라디언트_2" y1="43.94" x2="36.5" y2="43.94" gradientTransform="matrix(1, 0, 0, -1, 0, 58.29)" gradientUnits="userSpaceOnUse"><stop offset="0" stop-color="#4dbaa7"/><stop offset="1" stop-color="#d9e297"/></linearGradient><linearGradient id="무제_그라디언트_3" x1="18.25" y1="29.59" x2="18.25" y2="0.86" gradientTransform="matrix(1, 0, 0, -1, 0, 58.29)" gradientUnits="userSpaceOnUse"><stop offset="0" stop-color="#de423d"/><stop offset="0.08" stop-color="#d74347"/><stop offset="0.53" stop-color="#ab4576"/><stop offset="0.85" stop-color="#8a438e"/><stop offset="1" stop-color="#7d4296"/></linearGradient><linearGradient id="무제_그라디언트_4" x1="39.2" y1="37.23" x2="39.2" y2="21.91" gradientTransform="matrix(1, 0, 0, -1, 0, 58.29)" gradientUnits="userSpaceOnUse"><stop offset="0" stop-color="#ef8374"/><stop offset="0.02" stop-color="#ef8574"/><stop offset="0.68" stop-color="#f5b276"/><stop offset="1" stop-color="#f7c274"/></linearGradient></defs><title>자산 1</title><g id="레이어_2" data-name="레이어 2"><g id="레이어_1-2" data-name="레이어 1"><g id="PLAY"><g class="cls-2"><polygon class="cls-3" points="0 0.2 0 28.7 0 57.2 28.7 28.7 0 0.2"/></g><g class="cls-2"><polygon class="cls-4" points="36.5 21.1 24.9 14.4 0 0 0 0.2 28.7 28.7 36.5 21.1"/></g><g class="cls-2"><polygon class="cls-5" points="0 57.2 0 57.5 24.9 43.1 36.5 36.4 28.7 28.7 0 57.2"/></g><g class="cls-2"><polygon class="cls-6" points="36.5 21.1 28.7 28.7 36.5 36.4 49.7 28.7 36.5 21.1"/></g></g><path class="cls-7" d="M181.1,39.9a7.31,7.31,0,0,1-3-.6,5.49,5.49,0,0,1-2.2-1.8h-.2c.1,1,.2,1.9.2,2.8v6.8h-2.5v-24h2l.3,2.3h.1a5.5,5.5,0,0,1,2.3-2,7,7,0,0,1,3-.6,6.19,6.19,0,0,1,5.1,2.3,9.84,9.84,0,0,1,1.8,6.3,10.35,10.35,0,0,1-1.8,6.4A7,7,0,0,1,181.1,39.9Zm-.4-15.1a4.67,4.67,0,0,0-3.7,1.4c-.8.9-1.1,2.4-1.2,4.5v.6c0,2.3.4,4,1.2,5a4.41,4.41,0,0,0,3.7,1.5,4.08,4.08,0,0,0,3.4-1.7,8.53,8.53,0,0,0,1.2-4.8,8.1,8.1,0,0,0-1.2-4.8A4,4,0,0,0,180.7,24.8Z"/><path class="cls-7" d="M193.8,39.6h-2.5V16h2.5Z"/><path class="cls-7" d="M208.2,39.6l-.5-2.4h-.1a7.76,7.76,0,0,1-2.5,2.1,6.84,6.84,0,0,1-3.1.6,5.58,5.58,0,0,1-3.9-1.3,4.74,4.74,0,0,1-1.4-3.6c0-3.3,2.7-5.1,8-5.3l2.8-.1v-1a4.56,4.56,0,0,0-.8-2.9,3.67,3.67,0,0,0-2.7-.9,10.47,10.47,0,0,0-4.7,1.3l-.8-1.9a10.79,10.79,0,0,1,2.7-1,9.67,9.67,0,0,1,2.9-.4,6.26,6.26,0,0,1,4.4,1.3c1,.9,1.4,2.3,1.4,4.2V39.6h-1.7Zm-5.7-1.8a4.92,4.92,0,0,0,3.7-1.3,4.84,4.84,0,0,0,1.3-3.6V31.4l-2.5.1a10.25,10.25,0,0,0-4.3.9,2.72,2.72,0,0,0-1.3,2.6,2.86,2.86,0,0,0,.8,2.1A3.51,3.51,0,0,0,202.5,37.8Z"/><path class="cls-7" d="M211.5,23h2.7l3.6,9.5a37.7,37.7,0,0,1,1.5,4.7h.1c.1-.5.4-1.4.8-2.6s1.8-5.1,4.1-11.5H227L219.9,42a8.88,8.88,0,0,1-2.5,4,5.13,5.13,0,0,1-3.5,1.2,9.08,9.08,0,0,1-2.3-.3v-2a11.08,11.08,0,0,0,1.9.2,3.87,3.87,0,0,0,3.7-2.9l.9-2.4Z"/><path class="cls-8" d="M134.5,24.5a5.85,5.85,0,0,1,2.5,4.7c0,2.6-1.5,3.8-2.9,4.9-.5.5-1,.9-1,1.7a1.8,1.8,0,0,0,.9,1.5l1.3,1c1.5,1.3,2.9,2.5,2.9,4.9,0,3.3-3.2,6.6-9.1,6.6-5,0-7.5-2.4-7.5-5a4.92,4.92,0,0,1,2.7-4.2c2.1-1.3,5.1-1.5,6.6-1.6a3.55,3.55,0,0,1-1-2.4,5.77,5.77,0,0,1,.3-1.4c-.4,0-.8.1-1.1.1a5.48,5.48,0,0,1-5.8-5.4,6,6,0,0,1,2.2-4.6,9.59,9.59,0,0,1,6.2-1.9h7.1l-2.2,1.2h-2.1Zm-2.4,15.4h-.8a13.46,13.46,0,0,0-3.6.6c-.8.3-3,1.1-3,3.6s2.4,4.2,6.1,4.2c3.3,0,5.1-1.6,5.1-3.7C135.9,42.7,134.7,41.8,132.1,39.9Zm1-6.6a3.51,3.51,0,0,0,.9-2.5c0-2.5-1.5-6.4-4.4-6.4a3.39,3.39,0,0,0-2.4,1.1,4,4,0,0,0-.8,2.6c0,2.3,1.4,6.2,4.3,6.2A3.49,3.49,0,0,0,133.1,33.3Z"/><path class="cls-8" d="M112.7,39.4a8.23,8.23,0,0,1-8.5-8.2c0-4.5,3.7-8.4,9-8.4a8.13,8.13,0,0,1,8.3,8.2A8.53,8.53,0,0,1,112.7,39.4Zm4.3-2.8a6.4,6.4,0,0,0,1-3.8c0-3-1.5-8.9-5.8-8.9a4.82,4.82,0,0,0-4.7,5.4c0,3.4,1.7,9.1,5.9,9.1A4.86,4.86,0,0,0,117,36.6Z"/><path class="cls-8" d="M93.9,39.4a8.23,8.23,0,0,1-8.5-8.2c0-4.5,3.7-8.4,9-8.4a8.13,8.13,0,0,1,8.3,8.2A8.47,8.47,0,0,1,93.9,39.4Zm4.3-2.8a6.4,6.4,0,0,0,1-3.8c0-3-1.5-8.9-5.8-8.9a4.82,4.82,0,0,0-4.7,5.4c0,3.4,1.7,9.1,5.9,9.1A4.69,4.69,0,0,0,98.2,36.6Z"/><path class="cls-8" d="M82.8,38.8l-5,1.1a38.08,38.08,0,0,1-5.7.6c-9.6,0-13.3-7.1-13.3-12.6,0-6.8,5.2-13,14.1-13a21.91,21.91,0,0,1,5.3.7,12,12,0,0,1,4.6,2.2l-2.9,2.8-1.2.3.9-1.4a10.11,10.11,0,0,0-7.5-3.3c-5.5,0-9.6,4.2-9.6,10.3,0,6.5,4.7,12.7,12.3,12.7a10.4,10.4,0,0,0,4.4-.9V32.7l-5.3.3,2.8-1.5h7.4l-.9.9a.71.71,0,0,0-.3.6c0,.3-.1,1.3-.1,1.7v4.1Z"/><path class="cls-8" d="M145.5,37.8c-1.2-.1-1.4-.3-1.4-1.7V16.2c.1-1.2.5-1.4,1.6-2.1h-5l-2.6,1.3h2.7V37c0,.7-.1.8-.9,1.8h6.2l1.3-.8C146.7,37.9,146.1,37.9,145.5,37.8Z"/><path class="cls-8" d="M159.7,38.1c-.4.2-.8.5-1.1.6a8.29,8.29,0,0,1-3.4.7,7.89,7.89,0,0,1-4.6-1.3,8.76,8.76,0,0,1-3.5-7.3,7.84,7.84,0,0,1,7.9-8,6.77,6.77,0,0,1,3.6,1,5.48,5.48,0,0,1,2.4,3.4l-8.1,3.3-2.7.2c.9,4.4,3.8,7,7.1,7a8.67,8.67,0,0,0,4.2-1.2Zm-3.2-10.3c.7-.2,1-.4,1-.9a3.47,3.47,0,0,0-3.4-3c-1.4,0-4,1.1-4,4.8,0,.6.1,1.2.1,1.8Z"/><path class="cls-8" d="M163,23v2.3h-.3V23h-.8v-.2h1.8V23Z"/><path class="cls-8" d="M166.2,25.3V23h0l-.7,2.3h-.2l-.7-2.3h0v2.3h-.3V22.8h.4l.6,2h0l.6-2h.4v2.5Z"/></g></g></svg>