<?xml version="1.0" encoding="utf-8"?>
<!-- Generator: Adobe Illustrator 22.1.0, SVG Export Plug-In . SVG Version: 6.00 Build 0)  -->
<svg version="1.1" id="圖層_4" xmlns="http://www.w3.org/2000/svg" xmlns:xlink="http://www.w3.org/1999/xlink" x="0px" y="0px"
	 viewBox="0 0 18.5 18.5" style="enable-background:new 0 0 18.5 18.5;" xml:space="preserve">
<style type="text/css">
	.st0{fill:#848484;}
</style>
<g>
	<path class="st0" d="M9.3,7.7c-1.2,0-2.2,1-2.2,2.2c0,1.2,1,2.2,2.2,2.2s2.2-1,2.2-2.2C11.5,8.7,10.5,7.7,9.3,7.7z"/>
	<path class="st0" d="M17.5,4.2c-0.3-0.3-0.7-0.5-1-0.7V2c0-0.2-0.2-0.4-0.4-0.4h-2.8c-0.2,0-0.4,0.2-0.4,0.4v1.3H3.4
		c-0.9,0-1.7,0.3-2.4,1C0.3,4.9,0,5.7,0,6.6v6.9c0,0.9,0.3,1.7,1,2.4c0.6,0.6,1.5,1,2.4,1h11.8c0.9,0,1.7-0.3,2.4-1
		c0.6-0.6,1-1.5,1-2.4V6.6C18.5,5.7,18.2,4.9,17.5,4.2z M13.2,9.9c0,2.2-1.8,3.9-3.9,3.9S5.4,12,5.4,9.9c0-2.2,1.8-3.9,3.9-3.9
		S13.2,7.7,13.2,9.9z"/>
</g>
</svg>
