<?xml version="1.0" encoding="utf-8"?>
<!-- Generator: Adobe Illustrator 22.1.0, SVG Export Plug-In . SVG Version: 6.00 Build 0)  -->
<svg version="1.1" id="레이어_1" xmlns="http://www.w3.org/2000/svg" xmlns:xlink="http://www.w3.org/1999/xlink" x="0px"
	 y="0px" viewBox="0 0 50 50" style="enable-background:new 0 0 50 50;" xml:space="preserve">
<style type="text/css">
	.st0{fill:#FFFFFF;}
</style>
<g>
	<path class="st0" d="M48.4,18.6c-1.7-5.2-6.5-8.8-11.7-8.8c-1.8-5-6.4-8.4-11.8-8.4C19.5,1.4,14.7,5,13,10.1
		c-5.2,0.2-9.8,3.7-11.4,8.8c-1.7,5.2,0.2,11,4.4,14.2c-1.4,5.1,0.4,10.7,4.7,13.8c2.2,1.6,4.8,2.4,7.3,2.4c2.5,0,5.1-0.8,7.2-2.3
		c4.3,3,10,2.9,14.3-0.3c4.3-3.2,6.1-9,4.6-14.2C48.3,29.3,50,23.8,48.4,18.6z M41.4,30.6C41.4,30.6,41.4,30.6,41.4,30.6
		c-0.1,0.1-0.1,0.1-0.2,0.1c0,0-0.1,0.1-0.1,0.1c0,0-0.1,0.1-0.1,0.1c0,0-0.1,0.1-0.1,0.1c0,0-0.1,0.1-0.1,0.1c0,0-0.1,0.1-0.1,0.1
		c0,0,0,0.1,0,0.2c0,0,0,0.1,0,0.1c0,0.1,0,0.1,0,0.2c0,0.1,0,0.1,0,0.2c0,0.1,0,0.1,0,0.2c0,0.1,0,0.1,0,0.2c0,0.1,0,0.1,0,0.2
		c0,0.1,0,0.1,0.1,0.2c0,0,0,0,0,0c1.7,4,0.4,8.8-3.1,11.4c-3.4,2.6-8.1,2.4-11.4-0.4c-0.6-0.5-1.5-0.5-2.1,0
		c-3.2,2.9-8.1,3.1-11.6,0.6c-3.5-2.6-4.7-7.2-3.1-11.2c0.3-0.8,0-1.6-0.7-2.1c-3.7-2.2-5.4-6.9-4.1-11.1c1.3-4.1,5.2-6.8,9.5-6.5
		c0,0,0,0,0.1,0c0.1,0,0.1,0,0.2,0c0,0,0.1,0,0.1,0c0.3,0,0.6-0.2,0.8-0.4c0,0,0,0,0,0c0.1-0.1,0.1-0.1,0.2-0.2c0,0,0,0,0,0
		c0-0.1,0.1-0.1,0.1-0.2c0,0,0-0.1,0-0.1c0-0.1,0.1-0.1,0.1-0.2c0,0,0-0.1,0-0.1c0,0,0,0,0,0c0.9-4.3,4.7-7.4,9-7.4c4.3,0,8,3,9,7.2
		c0.2,0.8,0.9,1.3,1.7,1.3c4.3-0.4,8.4,2.3,9.7,6.5C46.6,23.8,45,28.3,41.4,30.6z"/>
	<path class="st0" d="M32.6,24c-0.6,0-1.2,0.4-1.5,0.9H27l3.1-3.1c0.6,0.2,1.2,0,1.6-0.4c0.7-0.7,0.7-1.8,0-2.4
		c-0.7-0.7-1.7-0.7-2.4,0c-0.5,0.5-0.6,1.2-0.4,1.8l-3.1,3.2v-4.6c0.5-0.3,0.9-0.9,0.9-1.5c0-1-0.8-1.7-1.7-1.7
		c-0.9,0-1.7,0.8-1.7,1.7c0,0.7,0.4,1.2,0.9,1.5v4.4l-3-3.1c0.2-0.6,0-1.2-0.4-1.7c-0.7-0.7-1.7-0.7-2.4,0c-0.7,0.7-0.7,1.8,0,2.4
		c0.5,0.5,1.1,0.6,1.7,0.4l3.1,3.2h-4.3C18.5,24.4,18,24,17.4,24c-0.9,0-1.7,0.8-1.7,1.7c0,1,0.8,1.7,1.7,1.7c0.6,0,1.2-0.4,1.5-0.9
		h4.3l-3,3.1c-0.6-0.2-1.2,0-1.6,0.4c-0.7,0.7-0.7,1.8,0,2.4c0.7,0.7,1.7,0.7,2.4,0c0.5-0.5,0.6-1.2,0.4-1.7l2.9-2.9V32
		c-0.5,0.3-0.9,0.9-0.9,1.5c0,1,0.8,1.7,1.7,1.7c0.9,0,1.7-0.8,1.7-1.7c0-0.7-0.4-1.2-0.9-1.5v-4.4l3,3.1c-0.2,0.6-0.1,1.3,0.4,1.8
		c0.7,0.7,1.7,0.7,2.4,0c0.7-0.7,0.7-1.8,0-2.4c-0.4-0.4-1-0.6-1.6-0.5l-3-3h4.2c0.3,0.5,0.8,0.9,1.5,0.9c0.9,0,1.7-0.8,1.7-1.7
		C34.3,24.8,33.6,24,32.6,24z"/>
</g>
</svg>
