<?xml version="1.0" encoding="utf-8"?>
<!-- Generator: Adobe Illustrator 22.1.0, SVG Export Plug-In . SVG Version: 6.00 Build 0)  -->
<svg version="1.1" id="레이어_1" xmlns="http://www.w3.org/2000/svg" xmlns:xlink="http://www.w3.org/1999/xlink" x="0px"
	 y="0px" viewBox="0 0 500 500" style="enable-background:new 0 0 500 500;" xml:space="preserve">
<style type="text/css">
	.st0{fill:#FFD800;}
</style>
<g>
	<path class="st0" d="M250,310.9c7.4,0,13.5-6,13.5-13.5v-94.5c0-7.4-6-13.5-13.5-13.5c-7.4,0-13.5,6-13.5,13.5v94.5
		C236.6,304.8,242.6,310.9,250,310.9z"/>
	<path class="st0" d="M484,395.9l-44.1-76.4L386.5,227l-51.8-89.7l-44-76.2c-10.1-17.4-24.9-27.5-40.7-27.5
		c-15.8,0-30.6,10-40.7,27.5l-37.9,65.7L124,208.9l-53.3,92.4l-54.6,94.6c-8.9,15.3-10.9,31-5.9,43.8c0.7,1.8,1.5,3.5,2.5,5.2
		c7.9,13.7,24,21.5,44.1,21.5h64.1H250h132h61.3c20.2,0,36.2-7.8,44.1-21.5c0.2-0.4,0.4-0.9,0.6-1.3
		C495.1,430.1,493.7,412.8,484,395.9z M464.1,431.4c-2.9,5.1-10.5,8-20.8,8H382H250H120.9H56.8c-10.3,0-17.9-2.9-20.8-8
		c-0.8-1.3-1.2-2.9-1.4-4.6c-0.6-4.8,1.1-10.9,4.9-17.5l56.1-97.2l53-91.8l46.9-81.3l37.3-64.5c5.1-8.9,11.5-14,17.4-14
		c5.9,0,12.2,5.1,17.4,14l43.3,75l52.6,91.1l52,90.1l45.4,78.6c4.3,7.5,5.9,14.3,4.5,19.4C464.9,429.7,464.6,430.6,464.1,431.4z"/>
	<path class="st0" d="M250,340c-8.1,0-14.6,6.6-14.6,14.6c0,8.1,6.5,14.7,14.6,14.7s14.6-6.6,14.6-14.7
		C264.7,346.5,258.1,340,250,340z"/>
</g>
</svg>
