<?xml version="1.0" encoding="utf-8"?>
<!-- Generator: Adobe Illustrator 22.0.1, SVG Export Plug-In . SVG Version: 6.00 Build 0)  -->
<svg version="1.1" id="레이어_1" xmlns="http://www.w3.org/2000/svg" xmlns:xlink="http://www.w3.org/1999/xlink" x="0px"
	 y="0px" viewBox="0 0 500 500" style="enable-background:new 0 0 500 500;" xml:space="preserve">
<style type="text/css">
	.st0{fill:url(#SVGID_1_);}
	.st1{fill:#FFFFFF;}
</style>
<g>
	<g>
		<g>
			<radialGradient id="SVGID_1_" cx="147.4344" cy="529.48" r="641.356" gradientUnits="userSpaceOnUse">
				<stop  offset="9.693880e-02" style="stop-color:#F8D37B"/>
				<stop  offset="0.1469" style="stop-color:#F5CA78"/>
				<stop  offset="0.2385" style="stop-color:#EDB06F"/>
				<stop  offset="0.3606" style="stop-color:#E18361"/>
				<stop  offset="0.449" style="stop-color:#D85D56"/>
				<stop  offset="0.6786" style="stop-color:#C0348D"/>
				<stop  offset="1" style="stop-color:#5B62AB"/>
			</radialGradient>
			<path class="st0" d="M489.6,392.6c0,54.9-44.5,99.4-99.4,99.4H105.1c-54.9,0-99.4-44.5-99.4-99.4V107.4C5.7,52.5,50.2,8,105.1,8
				h285.2c54.9,0,99.4,44.5,99.4,99.4V392.6z"/>
			<g>
				<path class="st1" d="M317.7,67.5H177.6c-62.1,0-112.5,50.4-112.5,112.5V320c0,62.1,50.3,112.5,112.5,112.5h140.1
					c62.1,0,112.5-50.3,112.5-112.5V180C430.2,117.8,379.8,67.5,317.7,67.5z M395.1,306.6c0,50.2-40.7,90.9-90.9,90.9H191.1
					c-50.2,0-90.9-40.7-90.9-90.9V193.4c0-50.2,40.7-90.9,90.9-90.9h113.2c50.2,0,90.9,40.7,90.9,90.9V306.6z"/>
				<path class="st1" d="M252.5,154.5c-53.1,0-96.2,43-96.2,96.1c0,53.1,43,96.1,96.2,96.1c53.1,0,96.1-43.1,96.1-96.1
					C348.7,197.5,305.6,154.5,252.5,154.5z M252.5,308.5c-32,0-57.9-25.9-57.9-57.8c0-32,25.9-57.8,57.9-57.8
					c31.9,0,57.8,25.9,57.8,57.8C310.4,282.6,284.5,308.5,252.5,308.5z"/>
				<path class="st1" d="M366.5,153c0,13.5-11,24.4-24.5,24.4c-13.5,0-24.4-10.9-24.4-24.4c0-13.5,10.9-24.5,24.4-24.5
					C355.5,128.5,366.5,139.5,366.5,153z"/>
			</g>
		</g>
	</g>
</g>
</svg>
