<?xml version="1.0" encoding="utf-8"?>
<!-- Generator: Adobe Illustrator 22.0.1, SVG Export Plug-In . SVG Version: 6.00 Build 0)  -->
<svg version="1.1" id="레이어_1" xmlns="http://www.w3.org/2000/svg" xmlns:xlink="http://www.w3.org/1999/xlink" x="0px"
	 y="0px" viewBox="0 0 500 500" style="enable-background:new 0 0 500 500;" xml:space="preserve">
<style type="text/css">
	.st0{fill:#EFD925;}
	.st1{fill:#371E1E;}
	.st2{clip-path:url(#SVGID_4_);fill:#EFD925;}
	.st3{clip-path:url(#SVGID_10_);fill:#EFD925;}
	.st4{clip-path:url(#SVGID_16_);fill:#EFD925;}
	.st5{clip-path:url(#SVGID_22_);fill:#EFD925;}
</style>
<g>
	<path class="st0" d="M492,392.6c0,54.9-44.5,99.4-99.4,99.4H107.4C52.5,492,8,447.5,8,392.6V107.4C8,52.5,52.5,8,107.4,8h285.2
		c54.9,0,99.4,44.5,99.4,99.4V392.6z"/>
	<path class="st1" d="M250,83.4c-105,0-190.1,67.3-190.1,150.3c0,54,36.1,101.4,90.2,127.9c-4,14.8-14.4,53.8-16.5,62.1
		c-2.6,10.3,3.8,10.2,8,7.4c3.3-2.2,52.1-35.4,73.2-49.7c11.4,1.7,23.2,2.6,35.3,2.6c105,0,190.1-67.3,190.1-150.3
		C440.1,150.7,355,83.4,250,83.4"/>
	<g>
		<g>
			<g>
				<defs>
					<path id="SVGID_1_" d="M116.7,185.8c-11.6,0-11.6,20.4,0,20.4h19.8c0,0,0.1,55.1,0,67.8c0,9.2,20.6,9.7,20.6,0.5l0.1-66.3
						c0,0,6.7-1.5,19.7-1.4c12.3,0,12.3-20.9,0-20.9H116.7z"/>
				</defs>
				<clipPath id="SVGID_2_">
					<use xlink:href="#SVGID_1_"  style="overflow:visible;"/>
				</clipPath>
			</g>
			<g>
				<defs>
					<path id="SVGID_3_" d="M116.7,185.8c-11.6,0-11.6,20.4,0,20.4h19.8c0,0,0.1,55.1,0,67.8c0,9.2,20.6,9.7,20.6,0.5l0.1-66.3
						c0,0,6.7-1.5,19.7-1.4c12.3,0,12.3-20.9,0-20.9H116.7z"/>
				</defs>
				<use xlink:href="#SVGID_3_"  style="overflow:visible;fill:#EFD925;"/>
				<clipPath id="SVGID_4_">
					<use xlink:href="#SVGID_3_"  style="overflow:visible;"/>
				</clipPath>
				<rect x="105" y="185.8" class="st2" width="84.2" height="97.9"/>
			</g>
			<g>
				<defs>
					<path id="SVGID_5_" d="M116.7,185.8c-11.6,0-11.6,20.4,0,20.4h19.8c0,0,0.1,55.1,0,67.8c0,9.2,20.6,9.7,20.6,0.5l0.1-66.3
						c0,0,6.7-1.5,19.7-1.4c12.3,0,12.3-20.9,0-20.9H116.7z"/>
				</defs>
				<clipPath id="SVGID_6_">
					<use xlink:href="#SVGID_5_"  style="overflow:visible;"/>
				</clipPath>
			</g>
		</g>
		<g>
			<g>
				<defs>
					<path id="SVGID_7_" d="M214,211.2l11,34.5h-23L214,211.2z M201.6,195c-4.9,10.7-22.5,61.4-28.3,74.9c-4.2,9.7,14,17.6,18.2,7.9
						l3.9-13.9l36.3,0c0,0-1.2,0.6,3.6,13.3c3.9,10.3,22.7,3.2,18.8-7.1c-5.6-14.7-24.8-67.6-28.3-75.1c-1.6-3.5-7.4-6-13-6
						C208.1,189.1,203.5,190.8,201.6,195"/>
				</defs>
				<clipPath id="SVGID_8_">
					<use xlink:href="#SVGID_7_"  style="overflow:visible;"/>
				</clipPath>
			</g>
			<g>
				<defs>
					<path id="SVGID_9_" d="M214,211.2l11,34.5h-23L214,211.2z M201.6,195c-4.9,10.7-22.5,61.4-28.3,74.9c-4.2,9.7,14,17.6,18.2,7.9
						l3.9-13.9l36.3,0c0,0-1.2,0.6,3.6,13.3c3.9,10.3,22.7,3.2,18.8-7.1c-5.6-14.7-24.8-67.6-28.3-75.1c-1.6-3.5-7.4-6-13-6
						C208.1,189.1,203.5,190.8,201.6,195"/>
				</defs>
				<use xlink:href="#SVGID_9_"  style="overflow:visible;fill:#EFD925;"/>
				<clipPath id="SVGID_10_">
					<use xlink:href="#SVGID_9_"  style="overflow:visible;"/>
				</clipPath>
				<rect x="169.1" y="189.1" class="st3" width="88.9" height="98.5"/>
			</g>
			<g>
				<defs>
					<path id="SVGID_11_" d="M214,211.2l11,34.5h-23L214,211.2z M201.6,195c-4.9,10.7-22.5,61.4-28.3,74.9
						c-4.2,9.7,14,17.6,18.2,7.9l3.9-13.9l36.3,0c0,0-1.2,0.6,3.6,13.3c3.9,10.3,22.7,3.2,18.8-7.1c-5.6-14.7-24.8-67.6-28.3-75.1
						c-1.6-3.5-7.4-6-13-6C208.1,189.1,203.5,190.8,201.6,195"/>
				</defs>
				<clipPath id="SVGID_12_">
					<use xlink:href="#SVGID_11_"  style="overflow:visible;"/>
				</clipPath>
			</g>
		</g>
		<g>
			<g>
				<defs>
					<path id="SVGID_13_" d="M261.9,198.1c0,17.2,0.1,72.7,0.1,72.7s-1.6,11,7.9,11c9.5,0,30.5-0.1,39.8-0.1
						c9.3,0,9.3-19.8-0.1-19.8c-9.3,0-26.3-0.1-26.3-0.1s0.1-51.4,0.1-63.8c0-6-5.4-9.1-10.7-9.1C267.2,189,261.8,192.1,261.9,198.1
						"/>
				</defs>
				<clipPath id="SVGID_14_">
					<use xlink:href="#SVGID_13_"  style="overflow:visible;"/>
				</clipPath>
			</g>
			<g>
				<defs>
					<path id="SVGID_15_" d="M261.9,198.1c0,17.2,0.1,72.7,0.1,72.7s-1.6,11,7.9,11c9.5,0,30.5-0.1,39.8-0.1
						c9.3,0,9.3-19.8-0.1-19.8c-9.3,0-26.3-0.1-26.3-0.1s0.1-51.4,0.1-63.8c0-6-5.4-9.1-10.7-9.1C267.2,189,261.8,192.1,261.9,198.1
						"/>
				</defs>
				<use xlink:href="#SVGID_15_"  style="overflow:visible;fill:#EFD925;"/>
				<clipPath id="SVGID_16_">
					<use xlink:href="#SVGID_15_"  style="overflow:visible;"/>
				</clipPath>
				<rect x="260.4" y="189" class="st4" width="58.5" height="92.9"/>
			</g>
			<g>
				<defs>
					<path id="SVGID_17_" d="M261.9,198.1c0,17.2,0.1,72.7,0.1,72.7s-1.6,11,7.9,11c9.5,0,30.5-0.1,39.8-0.1
						c9.3,0,9.3-19.8-0.1-19.8c-9.3,0-26.3-0.1-26.3-0.1s0.1-51.4,0.1-63.8c0-6-5.4-9.1-10.7-9.1C267.2,189,261.8,192.1,261.9,198.1
						"/>
				</defs>
				<clipPath id="SVGID_18_">
					<use xlink:href="#SVGID_17_"  style="overflow:visible;"/>
				</clipPath>
			</g>
		</g>
		<g>
			<g>
				<defs>
					<path id="SVGID_19_" d="M322.2,195.4c0.2,7.6-0.2,75.9-0.2,80.9c0,8,20.3,8,20.3,0c0-9.3,0-26.9,0-26.9l6-4.8l26.1,35.6
						c5.3,7,21.9-5.6,16.6-12.6l-27.7-36.5c0,0,18.8-20.4,26.2-27.7c4.3-4.3-9.1-17.8-13.4-13.5c-4.2,4.2-33.7,33.7-33.7,33.7
						s0.3-18.5,0-28.8c-0.1-3.9-4.9-5.8-9.8-5.8C327.5,189.1,322.1,191.2,322.2,195.4"/>
				</defs>
				<clipPath id="SVGID_20_">
					<use xlink:href="#SVGID_19_"  style="overflow:visible;"/>
				</clipPath>
			</g>
			<g>
				<defs>
					<path id="SVGID_21_" d="M322.2,195.4c0.2,7.6-0.2,75.9-0.2,80.9c0,8,20.3,8,20.3,0c0-9.3,0-26.9,0-26.9l6-4.8l26.1,35.6
						c5.3,7,21.9-5.6,16.6-12.6l-27.7-36.5c0,0,18.8-20.4,26.2-27.7c4.3-4.3-9.1-17.8-13.4-13.5c-4.2,4.2-33.7,33.7-33.7,33.7
						s0.3-18.5,0-28.8c-0.1-3.9-4.9-5.8-9.8-5.8C327.5,189.1,322.1,191.2,322.2,195.4"/>
				</defs>
				<use xlink:href="#SVGID_21_"  style="overflow:visible;fill:#EFD925;"/>
				<clipPath id="SVGID_22_">
					<use xlink:href="#SVGID_21_"  style="overflow:visible;"/>
				</clipPath>
				<rect x="322" y="185.6" class="st5" width="74.3" height="101.6"/>
			</g>
			<g>
				<defs>
					<path id="SVGID_23_" d="M322.2,195.4c0.2,7.6-0.2,75.9-0.2,80.9c0,8,20.3,8,20.3,0c0-9.3,0-26.9,0-26.9l6-4.8l26.1,35.6
						c5.3,7,21.9-5.6,16.6-12.6l-27.7-36.5c0,0,18.8-20.4,26.2-27.7c4.3-4.3-9.1-17.8-13.4-13.5c-4.2,4.2-33.7,33.7-33.7,33.7
						s0.3-18.5,0-28.8c-0.1-3.9-4.9-5.8-9.8-5.8C327.5,189.1,322.1,191.2,322.2,195.4"/>
				</defs>
				<clipPath id="SVGID_24_">
					<use xlink:href="#SVGID_23_"  style="overflow:visible;"/>
				</clipPath>
			</g>
		</g>
	</g>
</g>
</svg>
