<?xml version="1.0" encoding="utf-8"?>
<!-- Generator: Adobe Illustrator 22.0.1, SVG Export Plug-In . SVG Version: 6.00 Build 0)  -->
<svg version="1.1" id="레이어_1" xmlns="http://www.w3.org/2000/svg" xmlns:xlink="http://www.w3.org/1999/xlink" x="0px"
	 y="0px" viewBox="0 0 220 35" style="enable-background:new 0 0 220 35;" xml:space="preserve">
<style type="text/css">
	.st0{fill:#0074BB;}
	.st1{fill:#555555;}
	.st2{fill:#CBCBCB;}
</style>
<g>
	<g>
		<path class="st0" d="M28.6,17.4c-0.1,5-1.2,9-3.5,11.8c-2.5,3.1-5.9,4.6-10.4,4.6c-4.5,0-8-1.5-10.5-4.6
			c-2.3-2.9-3.5-6.9-3.5-11.8C0.7,15,1,12.9,1.6,11C2.1,9.1,3,7.4,4,6c1.3-1.6,2.8-2.8,4.6-3.6c1.8-0.9,3.8-1.3,6-1.3
			c2.2,0,4.2,0.4,6,1.3C22.4,3.2,24,4.4,25.2,6c1.1,1.5,1.9,3.2,2.5,5.1C28.3,13,28.6,15.1,28.6,17.4z M25.5,17.4
			c0-1.8-0.2-3.5-0.7-5.1c-0.5-1.6-1.1-3-1.9-4.3c-1-1.4-2.2-2.5-3.5-3.2c-1.4-0.8-2.9-1.1-4.7-1.1c-1.8,0-3.3,0.4-4.7,1.1
			C8.6,5.6,7.4,6.7,6.4,8C5.6,9.3,5,10.7,4.5,12.3c-0.5,1.6-0.7,3.3-0.7,5.1c0,1.8,0.2,3.5,0.7,5.1c0.5,1.6,1.1,3,1.9,4.3
			c1,1.4,2.2,2.4,3.6,3.2c1.4,0.8,2.9,1.1,4.6,1.1c1.7,0,3.3-0.4,4.7-1.1c1.4-0.8,2.6-1.8,3.5-3.2c0.8-1.3,1.5-2.7,1.9-4.3
			C25.2,20.9,25.5,19.2,25.5,17.4z"/>
		<path class="st0" d="M38.7,32.5c0,0.4-0.2,0.6-0.6,0.6h-1.9c-0.4,0-0.6-0.2-0.6-0.6V2.9c0-0.6,0.1-1,0.2-1.1
			c0.1-0.1,0.5-0.2,1.1-0.2h7.6c3.1,0,5.6,0.8,7.3,2.3c1.8,1.6,2.7,3.8,2.7,6.7c0,1.5-0.3,2.8-0.8,3.9c-0.5,1.1-1.3,2.1-2.2,2.9
			c-0.9,0.8-2,1.4-3.3,1.8c-1.3,0.4-2.6,0.6-4.1,0.5h-5.4V32.5z M51.2,10.5c0-2-0.5-3.6-1.6-4.7S47.1,4.3,45,4.3h-6.4V17h3.4
			c1.4,0,2.6-0.1,3.7-0.2c1.1-0.1,2-0.4,2.8-0.9c0.8-0.5,1.4-1.1,1.8-1.9C50.9,13.1,51.2,12,51.2,10.5z"/>
		<path class="st0" d="M61.3,33.1c-0.6,0-0.9,0-1-0.1c-0.1-0.1-0.1-0.4-0.1-1V2.7c0-0.5,0-0.9,0.1-1c0.1-0.1,0.4-0.1,1-0.1h14.7
			c0.4,0,0.6,0.2,0.6,0.6v1.5c0,0.4-0.2,0.6-0.6,0.6H63.2v11.2h12.1c0.4,0,0.6,0.2,0.6,0.6v1.5c0,0.4-0.2,0.6-0.6,0.6H63.2v12.2
			h13.3c0.4,0,0.6,0.2,0.6,0.6v1.5c0,0.4-0.2,0.6-0.6,0.6H61.3z"/>
		<path class="st0" d="M86.6,33.1h-1.9c-0.4,0-0.6-0.2-0.6-0.6V2.8c0-0.6,0-0.9,0.1-1c0.1-0.1,0.4-0.1,1-0.1h2c0.4,0,0.6,0,0.7,0.1
			c0.1,0.1,0.3,0.2,0.4,0.5l16,27.5V2.2c0-0.4,0.2-0.6,0.6-0.6h1.9c0.4,0,0.6,0.2,0.6,0.6v29.7c0,0.6,0,0.9-0.1,1
			c-0.1,0.1-0.4,0.1-1,0.1h-2.6c-0.2,0-0.4,0-0.5-0.1c-0.1-0.1-0.2-0.2-0.4-0.4l-15.6-27v26.9C87.2,32.9,87,33.1,86.6,33.1z"/>
		<path class="st1" d="M122.1,31.2c-0.7,1-1.6,1.7-2.7,2.1c-1.1,0.4-2.3,0.6-3.4,0.6c-0.6,0-1.2,0-1.8-0.1c-0.6,0-1.1-0.1-1.5-0.2
			c-0.3-0.1-0.5-0.2-0.6-0.3S112,33,112,32.7v-3.9c0-0.4,0-0.6,0.1-0.7s0.4-0.1,0.8,0.1c0.7,0.2,1.6,0.3,2.7,0.3
			c0.7,0,1.2-0.3,1.5-0.8c0.4-0.6,0.5-1.6,0.5-3.1V1.8c0-0.6,0.3-0.8,0.8-0.8h4.1c0.6,0,0.9,0.3,0.9,0.8v22.5c0,1.3-0.1,2.6-0.3,3.9
			C123,29.3,122.7,30.4,122.1,31.2z"/>
		<path class="st1" d="M131.8,33.7c-0.7,0-1.1-0.1-1.2-0.3s-0.2-0.6-0.2-1.3V2.4c0-0.7,0.1-1.1,0.2-1.2c0.1-0.2,0.5-0.3,1.2-0.3
			h15.1c0.5,0,0.8,0.1,0.8,0.3s0.1,0.4,0.1,0.8v3.3c0,0.4,0,0.7-0.1,0.8s-0.3,0.2-0.8,0.2h-10.7v8.1h10.2c0.5,0,0.7,0.1,0.8,0.3
			c0.1,0.2,0.1,0.4,0.1,0.8v3.3c0,0.4,0,0.7-0.1,0.8s-0.3,0.2-0.7,0.2h-10.2v8.8h11.1c0.5,0,0.7,0.1,0.8,0.2
			c0.1,0.1,0.1,0.4,0.1,0.8v3.3c0,0.4,0,0.6-0.1,0.8c-0.1,0.2-0.3,0.2-0.8,0.2H131.8z"/>
		<path class="st1" d="M162,31.2c-0.7,1-1.6,1.7-2.7,2.1c-1.1,0.4-2.3,0.6-3.4,0.6c-0.6,0-1.2,0-1.8-0.1c-0.6,0-1.1-0.1-1.5-0.2
			c-0.3-0.1-0.5-0.2-0.6-0.3s-0.1-0.3-0.1-0.7v-3.9c0-0.4,0-0.6,0.1-0.7s0.4-0.1,0.8,0.1c0.7,0.2,1.6,0.3,2.7,0.3
			c0.7,0,1.2-0.3,1.5-0.8c0.4-0.6,0.5-1.6,0.5-3.1V1.8c0-0.6,0.3-0.8,0.8-0.8h4.1c0.6,0,0.9,0.3,0.9,0.8v22.5c0,1.3-0.1,2.6-0.3,3.9
			C162.9,29.3,162.6,30.4,162,31.2z"/>
		<path class="st1" d="M189.8,31.8c-1.1,0.8-2.3,1.5-3.6,1.9c-1.3,0.4-2.7,0.6-4.2,0.6c-1.5,0-2.9-0.2-4.2-0.6
			c-1.3-0.4-2.5-1-3.5-1.9c-1.5-1.2-2.5-2.6-3.2-4.3c-0.7-1.7-1-3.6-1-5.8V1.8c0-0.3,0-0.5,0.1-0.7c0.1-0.2,0.3-0.3,0.7-0.3h4.1
			c0.6,0,0.8,0.3,0.8,0.8v20.4c0,2.1,0.5,3.7,1.6,4.9c1.1,1.2,2.6,1.8,4.6,1.8c2,0,3.5-0.6,4.6-1.8c1-1.2,1.6-2.9,1.6-5V1.8
			c0-0.6,0.3-0.8,0.8-0.8h4.1c0.4,0,0.6,0.1,0.7,0.3c0.1,0.2,0.1,0.4,0.1,0.7v19.9c0,2.1-0.3,4-1,5.8
			C192.2,29.2,191.2,30.7,189.8,31.8z"/>
	</g>
	<path class="st0" d="M200.2,0.7c10.1,0,19,10.1,19,19v-19H200.2z"/>
	<path class="st2" d="M218.9,19.4c-0.6-0.4-2.1-1.3-6-2.6c-0.1-1.4-0.3-2.7-0.6-3.9c-2.6-11.1-12.1-12.1-12.1-12.1v19h19L218.9,19.4
		z"/>
	<path class="st2" d="M218.9,19.4l0.3,0.3C219.2,19.7,219.1,19.6,218.9,19.4z"/>
</g>
</svg>
