<?xml version="1.0" encoding="utf-8"?>
<!-- Generator: Adobe Illustrator 22.0.1, SVG Export Plug-In . SVG Version: 6.00 Build 0)  -->
<svg version="1.1" id="레이어_1" xmlns="http://www.w3.org/2000/svg" xmlns:xlink="http://www.w3.org/1999/xlink" x="0px"
	 y="0px" viewBox="0 0 220 35" style="enable-background:new 0 0 220 35;" xml:space="preserve">
<style type="text/css">
	.st0{fill:#FFFFFF;}
</style>
<g>
	<path class="st0" d="M219.3,19.7h-19v-19c0,0,11.8,1.3,12.7,16.1C218.8,18.6,219.3,19.7,219.3,19.7z"/>
	<path class="st0" d="M219.3,0.7v19c0-9-8.9-19-19-19H219.3z"/>
	<path class="st0" d="M28.6,17.4c-0.1,5-1.2,9-3.5,11.8c-2.5,3.1-5.9,4.6-10.4,4.6s-8-1.5-10.5-4.6c-2.3-2.9-3.5-6.9-3.5-11.8
		C0.7,15,1,12.9,1.5,11C2.1,9.1,2.9,7.4,4,5.9c1.3-1.6,2.8-2.8,4.6-3.6c1.8-0.9,3.8-1.3,6-1.3s4.2,0.4,6,1.3
		c1.8,0.8,3.3,2.1,4.6,3.7c1.1,1.5,1.9,3.2,2.5,5.1C28.4,13,28.7,15.1,28.6,17.4z M25.5,17.4c0-1.8-0.2-3.5-0.7-5.1s-1.1-3-1.9-4.3
		c-1-1.4-2.2-2.5-3.5-3.2C18,4,16.5,3.7,14.7,3.7S11.4,4.1,10,4.8C8.6,5.6,7.4,6.6,6.5,8C5.7,9.3,5,10.7,4.6,12.3
		c-0.5,1.6-0.7,3.3-0.7,5.1s0.2,3.5,0.7,5.1s1.1,3,1.9,4.3c1,1.4,2.2,2.4,3.6,3.2c1.4,0.8,2.9,1.1,4.6,1.1c1.7,0,3.3-0.4,4.7-1.1
		c1.4-0.8,2.6-1.8,3.5-3.2c0.8-1.3,1.5-2.7,1.9-4.3C25.3,20.9,25.5,19.2,25.5,17.4z"/>
	<path class="st0" d="M38.7,32.5c0,0.4-0.2,0.6-0.6,0.6h-1.9c-0.4,0-0.6-0.2-0.6-0.6V2.8c0-0.6,0.1-1,0.2-1.1
		c0.1-0.1,0.5-0.2,1.1-0.2h7.6c3.1,0,5.6,0.8,7.3,2.3c1.8,1.6,2.7,3.8,2.7,6.7c0,1.5-0.3,2.8-0.8,3.9c-0.5,1.1-1.3,2.1-2.2,2.9
		c-0.9,0.8-2,1.4-3.3,1.8c-1.3,0.4-2.6,0.6-4.1,0.5h-5.4V32.5z M51.3,10.5c0-2-0.5-3.6-1.6-4.7s-2.6-1.6-4.6-1.6h-6.4v12.7h3.4
		c1.4,0,2.6-0.1,3.7-0.2c1.1-0.1,2-0.4,2.8-0.9s1.4-1.1,1.8-1.9C51,13.1,51.2,12,51.3,10.5z"/>
	<path class="st0" d="M61.3,33.2c-0.6,0-0.9,0-1-0.1s-0.1-0.4-0.1-1V2.8c0-0.5,0-0.9,0.1-1s0.4-0.1,1-0.1H76c0.4,0,0.6,0.2,0.6,0.6
		v1.5c0,0.4-0.2,0.6-0.6,0.6H63.3v11.2h12.1c0.4,0,0.6,0.2,0.6,0.6v1.5c0,0.4-0.2,0.6-0.6,0.6H63.3v12.1h13.3c0.4,0,0.6,0.2,0.6,0.6
		v1.5c0,0.4-0.2,0.6-0.6,0.6L61.3,33.2L61.3,33.2z"/>
	<path class="st0" d="M86.7,33.1h-1.9c-0.4,0-0.6-0.2-0.6-0.6V2.8c0-0.6,0-0.9,0.1-1s0.4-0.1,1-0.1h2c0.4,0,0.6,0,0.7,0.1
		c0.1,0.1,0.3,0.2,0.4,0.5l16,27.5V2.3c0-0.4,0.2-0.6,0.6-0.6h1.9c0.4,0,0.6,0.2,0.6,0.6V32c0,0.6,0,0.9-0.1,1s-0.4,0.1-1,0.1h-2.6
		c-0.2,0-0.4,0-0.5-0.1s-0.2-0.2-0.4-0.4l-15.6-27v26.9C87.3,32.9,87.1,33.1,86.7,33.1z"/>
	<path class="st0" d="M122.2,31.2c-0.7,1-1.6,1.7-2.7,2.1s-2.3,0.6-3.4,0.6c-0.6,0-1.2,0-1.8-0.1c-0.6,0-1.1-0.1-1.5-0.2
		c-0.3-0.1-0.5-0.2-0.6-0.3s-0.1-0.3-0.1-0.7v-3.9c0-0.4,0-0.6,0.1-0.7s0.4-0.1,0.8,0.1c0.7,0.2,1.6,0.3,2.7,0.3
		c0.7,0,1.2-0.3,1.5-0.8c0.4-0.6,0.5-1.6,0.5-3.1V1.8c0-0.6,0.3-0.8,0.8-0.8h4.1c0.6,0,0.9,0.3,0.9,0.8v22.5c0,1.3-0.1,2.6-0.3,3.9
		C123.1,29.3,122.8,30.4,122.2,31.2z"/>
	<path class="st0" d="M131.9,33.7c-0.7,0-1.1-0.1-1.2-0.3s-0.2-0.6-0.2-1.3V2.4c0-0.7,0.1-1.1,0.2-1.2c0.1-0.2,0.5-0.3,1.2-0.3H147
		c0.5,0,0.8,0.1,0.8,0.3s0.1,0.4,0.1,0.8v3.3c0,0.4,0,0.7-0.1,0.8s-0.3,0.2-0.8,0.2h-10.7v8.1h10.1c0.5,0,0.7,0.1,0.8,0.3
		c0.1,0.2,0.1,0.4,0.1,0.8v3.3c0,0.4,0,0.7-0.1,0.8s-0.3,0.2-0.7,0.2h-10.2v8.8h11.1c0.5,0,0.7,0.1,0.8,0.2c0.1,0.1,0.1,0.4,0.1,0.8
		v3.3c0,0.4,0,0.6-0.1,0.8c-0.1,0.2-0.3,0.2-0.8,0.2h-15.5V33.7z"/>
	<path class="st0" d="M162.1,31.2c-0.7,1-1.6,1.7-2.7,2.1s-2.3,0.6-3.4,0.6c-0.6,0-1.2,0-1.8-0.1c-0.6,0-1.1-0.1-1.5-0.2
		c-0.3-0.1-0.5-0.2-0.6-0.3S152,33,152,32.6v-3.9c0-0.4,0-0.6,0.1-0.7s0.4-0.1,0.8,0.1c0.7,0.2,1.6,0.3,2.7,0.3
		c0.7,0,1.2-0.3,1.5-0.8c0.4-0.6,0.5-1.6,0.5-3.1V1.8c0-0.6,0.3-0.8,0.8-0.8h4.1c0.6,0,0.9,0.3,0.9,0.8v22.5c0,1.3-0.1,2.6-0.3,3.9
		C163,29.3,162.6,30.4,162.1,31.2z"/>
	<path class="st0" d="M189.9,31.8c-1.1,0.8-2.3,1.5-3.6,1.9c-1.3,0.4-2.7,0.6-4.2,0.6s-2.9-0.2-4.2-0.6c-1.3-0.4-2.5-1-3.5-1.9
		c-1.5-1.2-2.5-2.6-3.2-4.3c-0.7-1.7-1-3.6-1-5.8V1.8c0-0.3,0-0.5,0.1-0.7s0.3-0.3,0.7-0.3h4.1c0.6,0,0.8,0.3,0.8,0.8V22
		c0,2.1,0.5,3.7,1.6,4.9c1.1,1.2,2.6,1.8,4.6,1.8s3.5-0.6,4.6-1.8c1-1.2,1.6-2.9,1.6-5V1.5c0-0.6,0.3-0.8,0.8-0.8h4.1
		c0.4,0,0.6,0.1,0.7,0.3s0.1,0.4,0.1,0.7v19.9c0,2.1-0.3,4-1,5.8S191.3,30.7,189.9,31.8z"/>
</g>
</svg>
