<?xml version="1.0" encoding="utf-8"?>
<!-- Generator: Adobe Illustrator 22.0.1, SVG Export Plug-In . SVG Version: 6.00 Build 0)  -->
<svg version="1.1" id="Layer_1" xmlns="http://www.w3.org/2000/svg" xmlns:xlink="http://www.w3.org/1999/xlink" x="0px" y="0px"
	 viewBox="0 0 1006.3 626.9" style="enable-background:new 0 0 1006.3 626.9;" xml:space="preserve">
<style type="text/css">
	.st0{fill:none;stroke:#FFFFFF;stroke-width:5;stroke-linecap:round;stroke-linejoin:round;stroke-miterlimit:10;}
	.st1{fill:none;stroke:#FFFFFF;stroke-width:6;stroke-miterlimit:10;}
	.st2{fill:#3A3D3E;stroke:#FFFFFF;stroke-width:5;stroke-linecap:round;stroke-linejoin:round;stroke-miterlimit:10;}
</style>
<polyline class="st0" points="812.9,284.3 685.1,191 576.7,280.8 517.3,225 431.4,283.2 "/>
<polyline class="st0" points="279.2,282 353.5,228.8 462.3,305.1 507,280.9 526.1,293.9 "/>
<g>
	<path class="st1" d="M930.7,240.6c-1.2-1.5-2.4-2.9-2.8-3.7c-0.9-1.9-2.3-5.5-2.5-5.9c0-0.1-1-5-1-7.9c0-3.8,0-7,0.5-8.4
		c0.5-1.5,1-3,2.5-4c1.4-0.9,4.5-4,4.8-5.4l0-0.2l0-0.2c0-0.7-0.4-1.9-1.7-5.2c-0.9-2.5-1.2-3.5-1.4-3.9c0,0,0.1,0.1,0.1,0.1
		c0-0.1-0.1-0.1-0.1-0.2c-0.1-0.2-0.1-0.3-0.2-0.3c-1.4-1.9-6.2-4.3-7.4-4.6c-1.5-0.5-5.9-2-7.9-4l-2.6-2.3c0,0-4-3.7-4.8-4.4
		l-0.7-1c-0.5-0.7-0.7-1-0.7-1.2l-0.5-1.5c-0.4-1.3-0.9-2.6-0.9-3.9c0-0.6,0.1-1.1,0.3-1.6c0.8-1.6,1.3-2.2,2.2-3.5l0.7-0.9
		c1.3-1.7,4-7.3,4-10.5c0-0.3,0-0.5-0.1-0.7c0-0.3-0.1-0.5-0.1-0.8c0-1.2,0.4-2.1,0.9-3.1c0.5-1.2,1.1-2.5,1.1-4.5l0-1.7
		c0-0.5,0-0.9,0-1.3c0-2.2-0.2-3.8-1.9-5.2c-2.4-1.9-8.3-4.9-11.2-5.4c-1.2-0.2-2.1-0.8-2.6-1.6c-0.3-0.5-0.4-1.1-0.4-1.7
		c0-0.7,0.2-1.4,0.5-2.2c1-2.4,1-4.9,1-6.3c0-0.6-0.2-3.5-4.3-5.3c-1.3-0.6-2.6-1.8-4-3c-2.2-2-4.5-4.2-7.2-3.9
		c-2.7,0.3-4.2-0.2-5.8-0.6c-1-0.3-2.1-0.6-3.6-0.8c-1.4-0.2-2.3-0.6-3-1c-1.9-1-2.9-0.8-5.2,1l-3.1,2.5c-2.4,1.9-4,3.2-5.8,3.9
		c-2.6,1-3.6,0.5-7-1.5c-2.4-1.3-4-3.8-5.6-6.2l-2.2-3.1c-2.1-2.6-4.9-2.9-7.9-3.3l-1.4-0.2c-2.6-0.4-4.7-3-6.2-4.9
		c0,0-1.2-1.5-1.2-1.5l-0.1-0.1l-2-1.6c-1.4-1-3-2.2-4.2-3.7l-1.8-1.6c-1.6-1.1-2.5-2-2.2-5.4l0.1-0.9c0.4-4.4,0.8-7.5-1-9.3
		c-2-2-6.9-5.4-8.8-5.9c-2.1-0.5-6.4-0.9-9.2,1c-2.9,1.9-9.3,3.5-10.9,3.5c-3.6,0-6,0.3-7.4,0.8c-0.2,0-0.9,0.1-1.3,0.1
		c-0.6-0.4-1.1-1.5-1.7-2.8c-0.8-1.9-1.4-3.4-2.5-4c-1.7-1-5.3-2.9-9.8-3.4c-2.1-0.3-3.8,0.2-5.2,0.6c-1.3,0.3-2.5,0.6-3.6,0.4
		c-1.9-0.4-2.4-0.8-3.6-1.8c0,0-1.3-1.1-1.3-1.1c-2.5-2-3.9-2.4-6.3-2l0,0c-2.3,0.5-5.3,1.4-6.8,3.4c-0.5,0.7-0.9,1.5-1.2,2.4
		c-0.6,1.4-1.2,2.9-2.8,3.6c-2.2,0.9-2.9,0.6-4.7-0.1c0,0-0.8-0.3-0.8-0.3l-1.8-0.9c-1.3-0.8-2.2-1.2-4.5-0.5c-3.4,1-3.5,1-6.8,2.9
		l-1.8,1.1c-1.7,1.1-2.1,1.3-3.7,0.9c-1.1-0.3-1.5-1.2-2.1-2.5l-1.2-2.1L703,64c-0.5-0.2-0.9-0.5-1.2-0.8c-0.7-0.7-1.4-1.1-3.1-1.1
		c-3,0-4.4,0-6.8,1.9c-1.1,0.9-1.5,1.4-1.9,2c-0.5,0.8-1.1,1.5-3,2.9c-3.4,2.5-6,3.5-8.4,4.4c-3.1,1.2-7.3,0.1-9-0.5l-1.9-0.8
		c-1.8-0.8-2.7-1-5.4,0.3c-3.9,2-5.9,2.9-8.4,3.4c-0.9,0.2-1.4,0.7-1.9,1.1c-0.7,0.7-1.4,1.4-3.6,0.8c-1.8-0.5-1.9-0.6-2.2-1.1
		c-0.3-0.5-0.8-1.1-2.8-2.4c-1.7-1.1-2.5-2-3-2.6l-0.8-0.9l-1.1,0.5l-0.7,0.4l-1.6,1.1c-1.6,1.1-2.3,1.4-3.8,3.4
		c-1.8,2.2-3.6,4.9-3.9,5.4l0.3,0.2l-0.9-0.3l-0.1,0.1l-2.4,0.6c-3.5,1-5.5,0-7.5-1l-1.6-0.7c-2-0.8-3.5-1.4-3.8-2.8
		c-0.5-2.1-1.1-3.3-4.3-3.3l-2.3-0.1c-1.3-0.1-1.8-0.1-4,0.6l-2.7,0.7c-2.1,0.5-3.8,0.9-5.6,2.3c-1.5,1.2-2.4,3.1-3.3,5
		c-0.5,1.1-1,2.1-1.6,2.8c-0.5,0.7-0.9,1.8-1.2,3c-0.6,2.1-1.3,4.4-3.2,5.4l-1.3,0.7c-2,1.1-3.1,1.6-5.2,0.8
		c-1.1-0.4-1.9-1.1-2.6-1.6c-0.9-0.7-1.7-1.3-2.7-1.3c-1.4,0-2.3,0.3-3.5,0.6l-1.4,0.4c-0.8,0.2-1.6,0.1-2.4-0.1
		c-1.1-0.2-2.3-0.5-3.9,0.1c-1.7,0.6-2.4,0.9-3.1,1.4l-2.4,1.1l-0.3,0.1c-2.4,1-3.3,1.2-4.6,0.3l-1-0.8c-0.9-0.8-1.6-1.2-3.9-1.2
		c-2.4,0-3.8,1-5.2,1.9c0,0-1.2,0.8-1.6,1c-0.3,0.1-1.9,0.6-1.9,0.6c-1.4,0.3-2.5,0.7-4,2.8c-1.3,1.8-1.9,3.5-2.4,4.9
		c-0.4,1.2-0.8,2.3-1.5,3c-1.5,1.5-2.5,1.5-4.5,1.5c-2.2,0-4.6-0.6-6.5-1.5c-1.7-0.9-4.1-1-6.3-0.5l-1.9,0.3c-1,0.1-2.1,0.2-4,1.2
		c-1.5,0.7-2.3,0.3-3-0.1c-1.1-0.7-1.7-0.6-2.9,0.1c-1.5,1-2.3,1.9-3,2.6c-0.8,0.8-1.4,1.4-2.4,1.9l-0.1,0l-1.4,1
		c-0.8,0.6-1.4,1.1-2.9,1.4l-2.4,0.6c-1.7,0.4-3.3,0.9-5,0.9c-1.5,0-2.3-0.4-3.2-0.8l-1.7-0.7l-0.1,0c-0.6-0.2-1-0.5-1.3-0.8
		c-1-0.9-2.2-1-5-0.2c-5.5,1.5-6.9,2-9.3,3.9l-0.4,0.3c-2.2,1.8-2.8,2.2-5.6,2.7c-1.9,0.3-3.6,0-5.1-0.2l-2.2-0.3l-1.7-0.1
		c-1.5-0.1-3.3-0.2-4.8,0.5c-1.7,0.9-2.7,0.6-4.4,0.2l-1.1-0.2c-2.4-0.5-6.4-2.7-6.8-2.9l-0.1,0l-0.1,0c-0.6-0.2-3.6-1.3-6.7-0.5
		c-3.5,1-8.9,3.5-11.7,5.9c-3.3,2.7-6.3,4.6-10.4,6.4c-2.1,0.9-3.9,1-5.4,1c-1.7,0.1-2.8,0.1-3.3,1.3c-0.7,1.9-2.4,4.6-4.9,7.9
		c-1.1,1.5-2.2,1.9-4,2.5l-2.4,0.9c-1.5,0.7-2.9,0.7-4.2,0.8c-1.8,0.1-3.3,0.2-4.6,1.6c-2.1,2.1-5.6,3.1-7.5,3.7l-0.9,0.3l-3.3,1.4
		c-3.1,1.4-7.3,3.2-9,3.5c-0.9,0.2-2.5-0.2-4.5-0.6c-4.6-1-8.6-1.7-10.6,0.1c-1,0.9-1.7,1.7-2.3,2.5c-1.6,1.9-2.8,3.4-7.1,3.4
		l-3.2-0.1c-3.5-0.1-5-0.2-6.5,2.5l-1.1,2.1c-0.9,1.8-1.2,2.4-3.5,2.4c-2.9,0-5.4,0-7.4-1.5c-0.2-0.2-2-1.9-2-1.9
		c-1.2-1.3-2.5-2.7-4.4-3c-3-0.5-6.8,0.5-9.2,2.4c-1.5,1.2-2.5,1.7-3.8,2.3l-3,1.6c-1.4,0.8-2.3,1.7-3.3,2.6
		c-1.4,1.4-2.9,2.8-5.7,3.4c-2.2,0.5-3.4-0.1-4.4-0.7c-1.2-0.7-2.1-1-3.9-0.3l-3.1,1c-2.4,0.7-4.4,1.3-6.2,3.4
		c-2.4,2.9-4.9,5.9-8,6.4c-1.2,0.2-2.1,0-3-0.2c-1.4-0.3-2.7-0.5-4.8,0.6c-1.8,1-3.1,2.6-4.3,4.1c-1.1,1.4-2.1,2.5-3.1,2.8
		c-0.8,0.2-1.4-0.3-2.4-1.4c-0.9-1-1.9-2.1-3.5-1.6l-2.1,0.5c-1.3,0.3-1.9,0.6-3.8,2.4c-3.2,3.2-5.2,4.6-6.1,4.4
		c-0.3-0.1-0.4-0.2-0.5-0.5c-0.1-0.2-0.3-1.4-0.3-1.4c-0.3-1.5-0.5-2.2-0.7-2.5l-0.7-1.4l-1.5,0.8l-1.5,1c-2.3,1.4-4.2,2.7-5.4,5.9
		c-0.6,1.5-0.9,3.1-1.2,4.7c-0.5,2.5-1,4.7-2.3,5.7c-1.1,0.8-2.4,2.6-4,4.8c-0.9,1.2-1.7,2.4-2.3,3c-1.6,1.6-4.5,3.5-7,4
		c-1.3,0.3-2.8,1.3-4.1,2.2c-1.2,0.8-2.3,1.5-3.2,1.8c-0.8,0.2-1.5-0.1-2.3-0.3c-1.2-0.4-2.3-0.9-4.1,0.3c-1,0.6-1.9,1-2.8,1.4
		c-1.8,0.7-3.3,1.4-4.6,4l-1.5,3.8c-0.8,2.2-1.2,3.4-2.5,3.7c-1.2,0.3-2.5-0.1-3.8-0.5c-0.9-0.3-1.8-0.5-2.6-0.5l0.2,0
		c0,0-1.5-0.2-1.5-0.2h0c0,0-0.7-0.1-0.7-0.1l-0.5,0.1c-0.5,0.2-1.1,0.6-2.3,2.6c-1.7,2.7-2,3.9-2,5.8l0,2.5c0,3.4,0,6.4-1,9.4
		c-1,3.1-2,5.6-3.4,8.4c-1,2-2.4,4.1-3.6,6c0,0-1.7,2.8-1.7,2.8c-1.5,2.5-3,5-5,6.9c-1.5,1.5-6.6,5.4-9.3,7.4c0,0-2.1,1.5-2.1,1.5
		l-4.8,3.4l-2.4,3.9l-3,3c0,0-0.1,0.1-0.2,0c0,0-5.9-2-5.9-2l-3.9-0.5c0,0-5.9,5.4-5.9,5.4c0,0-4.9,4-4.9,4l-0.4,0.3l-0.1,0.5
		c-0.2,1-0.6,3.3-1.4,4.9c-0.7,1.3-1.5,2-2.5,2.7l-1.4,1.2c-1.4,1.4-4.3,3.3-5.2,3.9l-0.3,0.2l-2.9,4.4c-1,1.2-3.3,3.7-4.5,4.5
		c-1,0.7-4.9,2.9-8.2,4.8l-0.2,0.1l-0.1,0.1c-1.3,1.3-3.4,2.8-4.8,2.8c-1.8,0-5.3,0.9-6.8,2.4c-1.4,1.4-1.9,2.8-1.9,5.3
		c0,1,0.2,1.6,0.5,2.2c0.2,0.5,0.4,1,0.4,1.6c0,0.5-0.1,1-0.3,1.6c-1,2.4-3.3,6.7-3.4,6.9l-6,2.5c0,0-6.3,1.3-6.3,1.3l-0.6,0.1
		l-0.3,0.5c-0.6,0.9-2.1,3.3-2.1,4.8c0,2,0,2.5-1.5,4.5l-0.9,1.1c0,0-0.9,1.1-0.9,1.1l0.3,1.1l0-0.1l1,1.3c0.3,0.3,1,0.9,1,1.6
		c0,0.4-0.2,0.8-0.5,1.2c0,0-0.7,1-0.7,1l0.1,0.8c0,0.3-0.1,0.9-0.4,1.6c-0.3,0.8-0.5,1.4-0.7,1.7l-0.2,0.4l0,0.8
		c0,0-0.1,0.3-0.1,0.3l-0.2,0.7l0.5,0.5l1.3,1.8c3.9,5.4,3.9,6.9,3.9,7l-0.5,3.5c0,0-3.2,7.4-3.2,7.4l-0.2,0.4l1.5,6.8l3.9,5.9
		c0,0.1,0,0.2,0,0.2l-3.4,5.9c0,0-4.4,5.8-4.4,5.8l4.3,9.2c0.1,0.1,2.7,4.5,2.7,4.5l0.3,0.5l0.5,0.2c0.7,0.2,2,0.8,2,1.9
		c0,0,0.3,1.4,0.3,1.4l0.4,2.2l0.2-0.2l0.1,0.3l0.3,0.8c0.7,2.1,1.4,4.3,1.7,5.7c0.5,2.9,5.5,7.8,7.3,8.7c1.4,0.7,2.1,3.5,2.7,5.9
		c0,0.1,0.8,3,0.8,3l0,0.1c0.9,2.3,4.7,4.8,6.8,5.3c2.1,0.5,9.9,5.9,11.4,9.4c1.4,3.4,8.3,6.3,13.7,7.8l13.3,3.3
		c1.7,0.4,2.3,0.6,2.5,0.6c-0.1,0-0.1,0-0.1,0c2,0.5,14.4,8.5,16.8,11.3c0.8,1,1.8,2.9,3,5.2c2.2,4.3,5.2,10.2,8.7,12.4
		c4.9,3.1,8.2,6.9,9.9,11.4c1.4,3.8,4.8,6.3,7.3,7.3c1.2,0.5,1.6,1.9,2.1,4.1c0.6,2.2,1.3,4.9,3.3,7.3c4,4.5,6.1,6.4,7.8,6.2
		c0.7-0.1,1.3-0.7,1.8-1.7l0.8-2c1.1-2.9,1.6-4.1,6.2-4.5l4.5-0.1c3.2,0,5.7,0.1,6.7-2.3c0.6-1.4-0.1-2.7-0.9-4
		c-1-1.8-2.1-3.7-0.1-6.3l1.8-2.2c2.6-3.2,4.7-5.8,5.1-9c0.5-3.7,2.1-6.2,6-8.9c1.4-1,3-1.4,4.6-1.9c2.2-0.6,4.5-1.2,6.2-3.5
		c2.3-3.1,3.4-4.9,4.5-6.9l0.9-1.5c1.4-2.3,5.3-5.9,8.4-6.4c2.9-0.5,8.4-1,10.9,0c0.9,0.4,1.5,1.1,2.1,1.9c1.1,1.5,2.3,3.1,5.7,2.5
		l3.6-0.8c3.3-0.8,5-1.1,6.8,0.3c2.5,2,9.3,3.9,13.1,2.4c3-1.1,5.5,0.3,7.5,1.4c0.1,0,1.9,1,1.9,1l0.1,0c2.3,0.9,11.2,1.5,14.6,0
		l16.2-6.9c6-2.5,16.8-6.4,20.2-6.9c3.3-0.5,9.4,0.5,11.4,3l1.1,1.4c1.6,2.1,3.3,4.2,5.2,5.4c2.3,1.4,13.1,2.9,15.6,2l3.1-1.7
		c2.4-1.4,5.3-3.1,8.2-3.7l3.5-1.1c2.9-1,4.8-1.6,6.5,0.1l3.9,4.4c3.4,3.9,7.5,8.7,9.8,10.3l1.7,1.2c2.7,2,4.8,3.6,7.6,3.2
		c2.7-0.4,5-1.7,7.3-2.9l2-1l1.1-0.6c3.4-1.8,9.8-5.1,14.7-3.8c2,0.5,3.6,1.4,4.8,2.2c2.3,1.3,4.1,2.3,6.8,0.8
		c2.9-1.6,4.9-3.2,7.1-4.9c2-1.5,2.9-2.2,3.4-2.7c0,0-0.1,0.1-0.1,0.1l3.1-2.6c2.2-2,4.2-3.8,6.2-3.8l4.8,0.3
		c3.8,0.3,8.6,0.6,10.9,0.2c1.9-0.3,3.1-0.1,4.5,0.1c1.1,0.2,2.4,0.4,4.4,0.4c4.4,0,6.7-1.9,9.2-3.9c1.2-1,4.3-3.1,6.8-2.7
		c1,0.2,1.8,0.8,2.3,1.7c0.9,1.6,1,3.3,1,4.8c0.1,1.6,0.1,3,1.3,3.4c2.5,1,6.3,0.4,7.7-1.9l0.8-1.6c0.8-1.7,1.5-3.1,4.1-3.8l2.5-0.8
		c2.8-1,5.6-1.9,7.9-1.2c2.8,0.9,11.8,4.9,14.8,7.4c2.7,2.3,10.6,2.9,14.1,0.5c3.5-2.5,9.4-5.4,11.8-5.9c2.2-0.4,6.2-2.8,7.7-6.3
		c1.5-3.6,6.1-7,11.9-8.9l3.9-1.2c3.6-1,5.7-1.6,6.8-4.2c0.3-0.6,0.4-1.2,0.4-1.7c0-0.8-0.3-1.6-0.5-2.2c-0.3-0.7-0.5-1.3-0.5-1.8
		c0-0.5,0.2-1.1,0.7-1.7c2-2.5,7-6.4,9.4-6.4c0.2,0,2,0.2,2,0.2c1.5,0.3,3,0.6,5.8-1.2c4.9-3.1,8.7-4.3,10.5-3.4
		c1.9,1,4.9,2.4,10.2,2.4c5.7,0,18.3-1,20.6-1.5c0.7-0.1,2-0.2,3.6-0.3c5-0.2,9.7-0.6,11.6-2.2c2.4-2,5.1-2.4,9.6-3l3.3-0.5
		c6.4-1,14.2-2.9,16.1-4.9c2.1-2.1,5.6-2.5,10-1l1.7,0.6c3.7,1.3,7,2.5,9.5-0.1c1.4-1.4,2.2-3.5,3-5.6c0.9-2.3,1.8-4.6,3.4-5.7
		l4.9-3l7.3-4.4c3.8-2.4,7.4-5.9,10.4-8.7l3.4-3.2l2-1.9c2.1-2.2,4.1-4.3,7.9-4l14,1.7l9.5,1.2l2.9,0.4c3.1,0.5,5.8,1,8.8-0.9
		l2.7-1.8c2.4-1.7,4.1-3,6.7-2.6c0.2,0,2.6,0.7,2.6,0.7c2.7,0.8,5.7,1.7,9.1-1.6l4.1-4c4.1-3.8,7-6.7,7.6-8.2
		c0.7-1.7,0.8-4.9,0.8-6.6c0-1.8-0.1-3.6-0.3-5.1l-0.2-1.3c0,0-0.3-2.5-0.3-2.5c0-1.2,0.3-2.7,2.5-4.6c3.2-2.8,12.5-9,13.5-9.7
		l0.2-0.1l0.1-0.2c1.7-2.1,3.2-5.9,4.2-8.5l1.1-2.7c0.4-0.8,1.9-1.4,3.5-2.1c2-0.8,4-1.6,4.8-3.2c1.6-3.2,3.9-8.9,3.9-11.2v-0.1
		l-0.2-2.1c0-0.1-0.3-2.6-0.3-2.6c0-1.3,0.3-2.3,1.1-3.2c0.8-1,1.7-1.6,2.6-2.3c1.4-1,2.5-1.8,2.8-3.6l0.4-2.7
		c0.2-2,0.4-3.9,1.1-5.2c1-2,1.5-2.5,3.5-4c1.9-1.5,2.9-2.9,4.9-5.9l0.9-1.4c1.1-1.8,1.4-2.2,3.1-3l0.8-0.4c1.8-0.9,4.2-2.2,8.1-3
		l3.9-0.8c3.1-0.6,6.1-1.1,7.9-2.2c1.6-1,3-2.2,3.9-3l0.5-0.4l0.1-3.7c0-2.8-0.2-5.2-0.6-7c-0.2-0.7-0.2-1.4-0.2-2.2
		c0-2.5,0.8-5,1.6-7.3c0.8-2.5,1-3.2,1.1-3.5c0,0.1,0,0.1,0,0.1c0.5-2.1,1.5-4.3,2.4-6.3c0.8-1.8,1.5-3.4,2-5l0.8-3.1
		c0.4-1.8,0.7-3.3,1.7-5.3c0.7-1.4,1.1-2.8,1.4-4.1c0.4-1.5,0.8-2.9,1.5-4.2c1.5-2.5,3.5-4,3.5-4c0,0,0.1,0,0.2,0l4.9,2.9
		c0.9,2.3,2.2,5,3.2,5.9l0.7,0.6l0.9-0.4c1.7-0.8,3.9-3.8,3.9-5.5V246l-0.1-0.3C934.1,244.7,933,243.3,930.7,240.6z"/>
	<path class="st1" d="M966.5,145.2c-0.2-1.2-0.4-2.2-1.2-3.1c-1.2-1.2-2.1-3.7-2.5-5c0-0.3-0.1-2.9-2.4-3.8c-2.5-1-3-2.5-3.5-4
		l-0.1-0.7c0-0.7,0.3-1.5,0.6-2.3c0.3-0.8,0.5-1.4,0.5-2c0-1.2-0.4-3.8-1.9-4.8c-1.2-0.8-4.4-2.1-5.8-2.7l-0.5-0.2l-0.5,0.2
		c-2.3,0.8-5.1,1.9-6.1,2.7l-0.7,0.6l0.2,0.9c0.3,1.6,0.4,4.7,0.4,6.4c0,0.1-3.7,3.7-3.7,3.7l-0.3,0.3l-1.5,5.4l-2,4
		c-0.1,0.2-2.4,3.5-2.4,5.3c0,2,0.5,6.4,1.4,7.8c0.8,1.2,2.8,5.2,3.9,7.4c0.1,0.2,1.2,4.4,3.2,4.8l0.3,0.1l0.3-0.1
		c2.1-0.4,5.7-0.1,6.9,0c0.1,0,4.9,4,4.9,4l0.5,0.4l0.7-0.1c1.3-0.3,3.5-0.9,4.6-2.3c1-1.4,3.4-4.7,3.4-6.3c0-1.7,1.1-4.6,2.5-6
		c1-1,1.8-3.4,1.8-5.5c0-0.8-0.1-1.6-0.4-2.2C966.8,146.9,966.7,146,966.5,145.2z"/>
	<path class="st1" d="M975.4,128.6c-1.7-1.1-6.3-0.8-7.7-0.7c-0.6,0.1-1.1,0.5-1.2,1.1l-1,6.9c-0.1,0.4,0.1,0.9,0.4,1.2l3.4,2.9
		c0.5,0.4,1.2,0.4,1.7,0l3.4-2.9c0.1-0.1,0.3-0.3,0.3-0.4C976,134.2,977.5,130,975.4,128.6z"/>
	<path class="st1" d="M155.5,584.1c-1.6-1.2-3-1.6-4-1.9l-1.2-0.4c-0.2-0.1-1-0.8-1.5-1.3c-2-1.8-4.2-3.9-6.1-2.8c0,0,0,0,0,0
		c-0.8,0.5-4.8,2.8-5.8,4.6c-0.6,0.9-3.3,5.7-1.4,7.6c0.5,0.5,1.2,0.8,2,1.3c0.7,0.4,2.2,1.2,2.4,1.7c0,1.7,0.3,4,1.8,4.8
		c0.6,0.3,1.6,0.6,3-0.3c2.5-1.6,8.1-5.6,8.3-5.7c0.9-0.7,3.7-3.2,3.7-5.4C156.6,585.3,156.2,584.6,155.5,584.1z"/>
</g>
<g>
	<path class="st2" d="M192.7,397.7c0,0-2.3-61.1,30-180.5l17.9,0.5c0,0-14.4,115.5-7.2,180"/>
	<path class="st2" d="M233.4,213.5c0,0-63-11.6-89.5,49l29.8-14.8v14.8l26.5-25l2.2,10.1L233.4,213.5z"/>
	<path class="st2" d="M233.4,214.2c0,0-44.2-46.3-101.2-12.7L165,207l-8.7,12l36.1-4.7l-4.2,9.5L233.4,214.2z"/>
	<path class="st2" d="M229,217.3c0,0,62.7,13.2,64,79.4l-21.9-25.1l-5.7,13.7l-15-33.2l-5.9,8.5L229,217.3z"/>
	<path class="st2" d="M230.8,214.4c0,0,59.9-22.6,96.7,32.5l-32-9.3l2.6,14.6l-30.5-19.9l-0.4,10.4L230.8,214.4z"/>
	<line class="st2" x1="212.8" y1="262.5" x2="216.6" y2="262.5"/>
	<line class="st2" x1="224.4" y1="282.1" x2="233.4" y2="282.1"/>
	<line class="st2" x1="200.9" y1="315" x2="205.9" y2="315"/>
	<line class="st2" x1="224.4" y1="344" x2="230.8" y2="344"/>
	<line class="st2" x1="194.3" y1="364.7" x2="203.4" y2="364.7"/>
</g>
<g>
	<path class="st2" d="M304.1,352.5c0,0-2.9-78.7,38.6-232.4l23,0.6c0,0-18.6,148.8-9.3,231.8"/>
	<path class="st2" d="M356.5,115.2c0,0-81.1-15-115.3,63.2l38.4-19.1v19.1l34.1-32.2l2.8,13.1L356.5,115.2z"/>
	<path class="st2" d="M356.5,116.1c0,0-56.9-59.7-130.4-16.3l42.3,7l-11.2,15.5l46.5-6.1l-5.3,12.3L356.5,116.1z"/>
	<path class="st2" d="M350.8,120c0,0,80.7,17,82.5,102.3l-28.2-32.3l-7.3,17.7L378.5,165l-7.6,11L350.8,120z"/>
	<path class="st2" d="M353.2,116.4c0,0,77.2-29.1,124.6,41.9l-41.2-12L440,165l-39.3-25.6l-0.5,13.4L353.2,116.4z"/>
	<line class="st2" x1="330" y1="178.3" x2="334.9" y2="178.3"/>
	<line class="st2" x1="344.9" y1="203.5" x2="356.5" y2="203.5"/>
	<line class="st2" x1="314.7" y1="246" x2="321.2" y2="246"/>
	<line class="st2" x1="344.9" y1="283.2" x2="353.2" y2="283.2"/>
	<line class="st2" x1="306.2" y1="309.9" x2="317.9" y2="309.9"/>
</g>
<g>
	<g>
		<path class="st2" d="M479.4,266.4h129.5c4.2,0,8.2,1.5,11.3,4.2l40.4,34.3c1.8,1.5,3.9,2.7,6.1,3.4l25.1,7.9
			c7.3,2.3,12.3,9.1,12.3,16.7v21.6c0,9.7-7.8,17.5-17.5,17.5H466.3c-11,0-19.2-10-17.2-20.7l13.1-70.4
			C463.7,272.5,471,266.4,479.4,266.4z"/>
		
			<ellipse transform="matrix(0.7071 -0.7071 0.7071 0.7071 -118.9241 461.3986)" class="st2" cx="497.5" cy="374.3" rx="24" ry="24"/>
		<circle class="st2" cx="497.5" cy="374.3" r="10"/>
		<ellipse transform="matrix(0.1679 -0.9858 0.9858 0.1679 175.1346 955.986)" class="st2" cx="653.8" cy="374.3" rx="24" ry="24"/>
		<circle class="st2" cx="653.8" cy="374.3" r="10"/>
		<path class="st2" d="M475.6,285.8v13.4c0,2.9,1.8,5.4,4.5,6.5l17.1,6.5c0.8,0.3,1.6,0.4,2.4,0.4h134.5c6.4,0,9.4-8,4.5-12.1
			l-23.1-19.9c-1.3-1.1-2.9-1.7-4.5-1.7H482.5C478.7,278.9,475.6,282,475.6,285.8z"/>
		<line class="st2" x1="508.2" y1="278.9" x2="508.2" y2="309.8"/>
		<line class="st2" x1="567.6" y1="278.9" x2="567.6" y2="309.8"/>
		<path class="st2" d="M455.9,314.6c0,0,13.2-1.9,17.6,9c0,0-3.9,25.8-23.5,22.7L455.9,314.6z"/>
		<path class="st2" d="M691.8,316.1c0,0-7.2,3.1-4.5,18.9c0,0,1.4,13.4,16.8,11.5v-13.7C704.1,325.2,699.1,318.4,691.8,316.1z"/>
		<line class="st2" x1="518.6" y1="327.2" x2="530.9" y2="327.2"/>
		<line class="st2" x1="575.3" y1="327.2" x2="587.7" y2="327.2"/>
	</g>
	<line class="st2" x1="473.5" y1="398.3" x2="416.8" y2="398.3"/>
	<line class="st2" x1="740.4" y1="398.3" x2="683.8" y2="398.3"/>
	<line class="st2" x1="708.6" y1="389.2" x2="680.9" y2="389.2"/>
	<line class="st2" x1="669.4" y1="398.3" x2="612.7" y2="398.3"/>
	<line class="st2" x1="500" y1="398.3" x2="537.2" y2="398.3"/>
	<line class="st2" x1="546" y1="398.3" x2="555.9" y2="398.3"/>
	<line class="st2" x1="529.2" y1="389.2" x2="546" y2="389.2"/>
	<line class="st2" x1="440.4" y1="389.2" x2="465.6" y2="389.2"/>
	<line class="st2" x1="596.7" y1="389.2" x2="619.3" y2="389.2"/>
	<line class="st2" x1="643.8" y1="407.5" x2="698.2" y2="407.5"/>
</g>
</svg>
