<?xml version="1.0" encoding="utf-8"?>
<!-- Generator: Adobe Illustrator 22.1.0, SVG Export Plug-In . SVG Version: 6.00 Build 0)  -->
<svg version="1.1" id="레이어_1" xmlns="http://www.w3.org/2000/svg" xmlns:xlink="http://www.w3.org/1999/xlink" x="0px"
	 y="0px" viewBox="0 0 72 72" style="enable-background:new 0 0 72 72;" xml:space="preserve">
<style type="text/css">
	.st0{fill:#E8E8E8;}
	.st1{fill:#ADADAD;}
</style>
<g>
	<circle class="st0" cx="35.7" cy="36.3" r="35.3"/>
	<path class="st1" d="M47.8,46.3c-1.4-1.2-3.3-2.3-6.1-2.9v0l0,0c0,0,0,0,0,0l-1.8-1.8c0,0,0,0,0,0c-0.1-0.3-0.3-0.5-0.6-0.8
		c0,0,0,0,0,0l0,0c0,0,0,0,0,0l0,0c1.7-1.7,3.4-4.2,4-6.9c2.3,0,2.4-4.1,1.1-3.9c2.8-12-10.7-14.4-11.5-10.8
		c-5.3-2.5-6.5,7-5.9,11.2c-1.5-0.5-1,3.9,1.1,3.9c0.7,2.5,2.3,4.9,3.9,6.6c-0.2,0.2-0.4,0.5-0.5,0.8c0,0,0,0,0,0l-1.8,1.8
		c0,0,0,0,0,0v0v0c-2.7,0.6-4.7,1.7-6.1,2.9c-4.1,3.5-3.5,8.5-3.5,8.5h13.4h4.1h13.4C51.2,54.8,51.8,49.8,47.8,46.3z"/>
</g>
</svg>
