<?xml version="1.0" encoding="utf-8"?>
<!-- Generator: Adobe Illustrator 22.1.0, SVG Export Plug-In . SVG Version: 6.00 Build 0)  -->
<svg version="1.1" id="레이어_1" xmlns="http://www.w3.org/2000/svg" xmlns:xlink="http://www.w3.org/1999/xlink" x="0px"
	 y="0px" viewBox="0 0 40 40" style="enable-background:new 0 0 40 40;" xml:space="preserve">
<style type="text/css">
	.st0{fill:#0B75BB;}
	.st1{fill:#FFFFFF;}
</style>
<g>
	<circle class="st0" cx="19.8" cy="19.7" r="19.3"/>
	<g>
		<path class="st1" d="M27.8,27.8L27.8,27.8l-15.9,0c-0.5,0-1-0.4-1-1V15.6c0-0.5,0.4-1,1-1h3.3l0.8-2.3c0.1-0.4,0.5-0.7,0.9-0.7
			c0,0,0,0,0,0l5.8,0c0.4,0,0.8,0.3,0.9,0.7l0.8,2.3h3.3c0.5,0,1,0.4,1,1v11.2c0,0.3-0.1,0.5-0.3,0.7C28.3,27.7,28.1,27.8,27.8,27.8
			z M12.9,25.8l13.9,0v-9.3h-3c-0.4,0-0.8-0.3-0.9-0.7l-0.8-2.3l-4.4,0l-0.8,2.3c-0.1,0.4-0.5,0.7-0.9,0.7h-3V25.8z"/>
		<path class="st1" d="M19.9,24.8c-2.1,0-3.8-1.7-3.8-3.8c0-2.1,1.7-3.8,3.8-3.8s3.8,1.7,3.8,3.8C23.6,23.1,21.9,24.8,19.9,24.8z
			 M19.9,19.2c-1,0-1.8,0.8-1.8,1.8c0,1,0.8,1.8,1.8,1.8c1,0,1.8-0.8,1.8-1.8C21.7,20,20.9,19.2,19.9,19.2z"/>
	</g>
</g>
</svg>
