<?xml version="1.0" encoding="utf-8"?>
<!-- Generator: Adobe Illustrator 22.0.1, SVG Export Plug-In . SVG Version: 6.00 Build 0)  -->
<svg version="1.1" id="레이어_1" xmlns="http://www.w3.org/2000/svg" xmlns:xlink="http://www.w3.org/1999/xlink" x="0px"
	 y="0px" viewBox="0 0 123.5 47.5" style="enable-background:new 0 0 123.5 47.5;" xml:space="preserve">
<style type="text/css">
	.st0{fill:#FFFFFF;}
</style>
<g>
	<g>
		<path class="st0" d="M26,36.7c-0.3-0.1-0.6-0.1-1,0c-1.5,0.2-3.2,0.4-5,0.7c-1.8,0.3-3.7,0.6-5.6,1c-1.9,0.4-3.8,0.8-5.6,1.2
			c-1.8,0.4-3.6,0.8-5.1,1.2c-0.8,0.2-1.5,0.6-2.2,1c-0.7,0.4-1.1,0.8-1.2,1.1c-0.1,0.5,0,0.9,0.3,1.2c0.3,0.3,0.6,0.5,0.8,0.6
			c0.4,0.1,0.8,0.1,1.2,0c0.1,0,0.3-0.1,0.5-0.1c0.2,0,0.4,0,0.6,0.1c0.3,0.1,0.6,0.2,0.9,0.2l6-1.5c0.4-0.1,0.8-0.3,1.3-0.4
			c0.5-0.1,1-0.2,1.8-0.1c0.5,0.1,0.9,0.1,1-0.1c0.2-0.2,0.3-0.3,0.5-0.4c0.1,0,0.2-0.1,0.2-0.1c0,0,0.1-0.1,0.1-0.1
			c0.1,0.1,0.2,0.1,0.4,0.1c0.2,0,0.4,0,0.6,0l0.2-0.3c1.2-0.2,2.3-0.4,3.4-0.5c1.1-0.2,2.2-0.3,3.3-0.5c0.1,0,0.2,0,0.3,0
			c0.1,0,0.3,0.1,0.5,0.1c0.2,0,0.5,0.1,0.7,0.1h0.7l0.6-0.3c0.1-0.1,0.3-0.3,0.5-0.5c0.2-0.2,0.4-0.3,0.5-0.4
			c0-0.1,0.1-0.3,0.1-0.5c0-0.2,0.1-0.4,0.1-0.5c0.1-0.4,0.1-0.7,0.1-0.9c0-0.3-0.2-0.6-0.6-1.1C26.6,36.9,26.3,36.8,26,36.7z
			 M1.7,11.2c0.3,0.2,0.5,0.3,0.7,0.3c0.2,0,0.4,0,0.8,0.3c0.1,0.1,0.2,0.1,0.5,0.1c0.2,0,0.4-0.1,0.5-0.1c0.5-0.2,1-0.4,1.5-0.6
			c0.5-0.2,1.3-0.5,2.3-0.8c0.3-0.1,0.7-0.2,1.4-0.5s1.1-0.4,1.5-0.5c0.7-0.3,1.6-0.5,2.6-0.8c1-0.3,1.9-0.5,2.8-0.7
			c0.4-0.1,0.8-0.1,1.1,0C17.5,8,17.8,8.1,18.1,8c0.3,0,0.6-0.1,0.8-0.2c0.2-0.1,0.4-0.3,0.6-0.7c0.2-0.5,0.5-1,0.7-1.5
			c0.2-0.5,0.2-0.9,0-1.2C19.3,4,18.6,3.8,18,3.9c-2.3,0.4-4.6,0.9-6.9,1.5c-2.3,0.6-4.7,1.3-7,2C3.3,7.7,2.7,8.1,2.2,8.6
			C1.7,9,1.3,9.4,1,9.5c-0.1,0.4,0,0.8,0.1,1C1.4,10.9,1.6,11.1,1.7,11.2z M19.4,16.3c-0.2,0-0.4,0.1-0.6,0.1
			c-0.2,0-0.4,0.1-0.6,0.1L17.4,17l-2.2,0.5c-0.9,0.2-1.8,0.5-2.8,0.7c-1,0.2-1.9,0.5-2.7,0.7c0.2-0.8,0.3-1.5,0.5-2
			c0.1-0.5,0.3-1.2,0.6-2c0.1-0.5,0.1-0.9,0.1-1.3c0-0.4-0.3-0.7-0.7-1c-0.2-0.1-0.5-0.2-0.7-0.3c-0.2-0.1-0.5-0.2-0.7-0.3
			c-0.2-0.1-0.5-0.2-0.8-0.2l-1.9,0.4c-0.5,1.4-0.9,2.7-1.3,4c-0.4,1.2-0.8,2.5-1.3,3.7l-0.2,0.8c-0.3,0.5-0.4,0.9-0.2,1.4
			c0.2,0.5,0.3,0.9,0.5,1.1c0.1,0.1,0.3,0.3,0.6,0.6c0.3,0.2,0.6,0.4,1,0.5c0.3,0.1,0.6,0.1,0.8,0c0.2-0.1,0.5-0.2,0.8-0.2
			c0.2-0.1,0.5-0.2,0.7-0.2c0.2,0,0.4,0,0.5,0c0.3,0,0.5,0,0.6-0.1c0.1-0.1,0.2-0.2,0.4-0.3l0.3-0.2c0.5,0,1.1-0.2,1.8-0.4
			c0.7-0.2,1.5-0.4,2.3-0.7c0.7-0.2,1.4-0.4,2-0.6c0.6-0.1,1.1-0.3,1.5-0.3c0.4-0.1,0.7-0.2,1.1-0.2c0.3-0.1,0.7-0.2,1-0.2
			c0.5-0.1,1-0.3,1.4-0.5c0.4-0.2,0.8-0.3,1.2-0.5c0.2,0,0.4-0.2,0.5-0.4c0.1-0.2,0.2-0.4,0.2-0.7c0-0.3,0-0.5-0.1-0.8
			c-0.1-0.3-0.2-0.5-0.2-0.6c-0.4-0.4-0.8-0.7-1.2-0.9C20.1,16.3,19.7,16.2,19.4,16.3z M14.7,25.6c-0.1-0.7-0.5-1-1.2-0.9
			c-0.7,0.1-1.3,0.2-1.8,0.4c-0.5,0.2-0.9,0.5-1.2,1.1c0,0.2-0.1,0.5-0.1,0.8c0,0.3-0.1,0.6-0.2,0.8c-0.1,0.7-0.2,1.4-0.3,2.3
			c-0.1,0.9-0.2,1.7-0.4,2.6c-0.1,0.8-0.2,1.7-0.2,2.5c0,0.8,0,1.4,0,2c0,0.3,0.1,0.5,0.1,0.6c0,0.1,0.2,0.3,0.4,0.6h1
			c0.5,0,1-0.1,1.5-0.3c0.5-0.1,0.7-0.4,0.7-0.9c0.2-0.4,0.4-0.7,0.6-1c0.4-0.7,0.6-1.2,0.6-1.6l0.1-0.3l0.6-6.1l-0.1-0.5
			C14.8,26.8,14.8,26.2,14.7,25.6z M38.6,28.5c0.6,0.4,1.1,0.7,1.5,0.9c0.5,0.2,0.9,0.4,1.2,0.5l0.4,0.1c0,0,0.1,0,0.2-0.1
			c0.1-0.1,0.2-0.1,0.3-0.2c0.3,0,0.5-0.1,0.5-0.2c0.1-0.1,0.2-0.3,0.5-0.5l0.1-1L43,26.3c-0.2,0-0.4-0.1-0.5-0.2
			c-0.1-0.1-0.2-0.3-0.2-0.5L42,24.8L41.6,24l-0.4-0.8l-0.1-0.6l-0.3-1.1c-0.2-0.5-0.4-1.1-0.5-1.6c-0.2-0.6-0.3-1.2-0.4-1.9
			c0.9-0.3,2-0.6,3.1-0.9s2.2-0.5,3.2-0.8c-0.1,0.3-0.2,0.5-0.3,0.8c-0.1,0.2-0.2,0.5-0.2,0.8c-0.1,0.5-0.2,1.2-0.2,2.1
			c-0.1,0.9-0.1,1.7-0.1,2.5c0,0.7,0,1.2,0,1.7c0,0.5,0.2,0.8,0.6,0.9c0.5,0.1,0.9,0.1,1.2-0.1c0.4-0.2,0.7-0.3,0.9-0.4
			c0.4-0.1,0.7-0.4,1-0.8c0.3-0.4,0.5-0.9,0.7-1.4c0.2-0.5,0.3-1.1,0.5-1.7c0.1-0.6,0.2-1.1,0.3-1.6c0-0.4,0.1-0.7,0.2-0.9
			c0.2-0.2,0.2-0.5,0.2-0.8c0-0.5,0.1-1,0.2-1.4c0.2-0.4,0.3-0.8,0.5-1.2l-0.1-0.6c0-0.2,0.1-0.4,0.1-0.6c0-0.2,0.1-0.4,0.2-0.7
			c0.3-1.3,0.7-2.7,1-4.4c0.4-1.7,0.5-3.3,0.4-4.9c0-0.8-0.2-1.6-0.4-2.3c-0.2-0.7-0.5-1.1-0.9-1.2c-1.1-0.2-1.8-0.1-2.3,0.2
			c-0.5,0.3-0.8,0.7-1,1c-0.1,0.2-0.2,0.4-0.3,0.7c-0.1,0.3-0.2,0.6-0.2,0.9c-0.1,0.5-0.2,1-0.3,1.6c-0.1,0.6-0.2,1.2-0.3,1.8
			c-0.1,0.6-0.2,1.2-0.3,1.7C47.1,8.5,47,8.9,47,9.1c-0.1,0.5-0.2,0.9-0.2,1.3c0,0.4-0.1,0.8-0.2,1.3c0,0.1-0.1,0.3-0.1,0.4
			c0,0.1,0,0.2-0.1,0.4h-0.2c-1.3,0.3-2.6,0.6-3.8,0.9c-1.2,0.3-2.2,0.6-3,0.9c-0.1-0.5-0.2-1-0.2-1.6c0-0.5-0.1-1.1-0.1-1.6
			l0.1-1.3L39,9.1c0-0.1,0-0.2,0.1-0.4c0.1-0.3,0.1-0.5,0.1-0.6l-0.3-1.5L39.1,6l0.1-1l0.1-0.3c0-0.2-0.2-0.6-0.5-1.1
			c0-0.4-0.1-1-0.2-1.8c-0.1-0.8-0.5-1.3-1.2-1.6c-0.7-0.2-1.2-0.2-1.7,0.2c-0.5,0.4-1.1,0.9-1.9,1.6c0,0.4-0.3,1.4-0.8,3.1
			C33,5.5,32.9,6,32.8,6.6c-0.1,0.6-0.2,1.3-0.2,1.9c0,0.4-0.1,0.8,0,1.2c0,0.4,0.1,0.8,0.2,1.1c-0.2,0.2-0.4,0.5-0.4,0.8
			c-0.1,0.2-0.1,0.4,0,0.5c0.1,0.1,0.2,0.2,0.3,0.3c0.1,1.6,0.3,3.1,0.6,4.5c0.2,1.4,0.6,2.8,1.1,4.3c0.2,1.1,0.6,1.9,1.1,2.5
			l0.2,0.1c0,0.1,0.1,0.2,0.2,0.5c0.1,0.2,0.2,0.4,0.3,0.5c0.2,0.5,0.5,0.8,0.7,1c0,0.6,0.2,1.1,0.6,1.6
			C37.8,27.9,38.2,28.2,38.6,28.5z M59.2,40.8c-0.3-0.3-0.6-0.4-1-0.4c-0.6,0-1.1,0.1-1.4,0.3C56.4,40.8,56,41,55.6,41
			c-0.1,0-0.2,0-0.2,0c-0.1-0.1-0.2-0.1-0.2-0.1c-1.5,0-3.4,0.3-5.7,0.8c0-0.1,0.1-0.2,0.3-0.4l0.4-0.6c0.3-0.6,0.5-1,0.6-1.3
			c0.1-0.3,0.2-0.5,0.2-0.7c0-0.1,0.1-0.2,0.1-0.3v-0.2c0.1-0.3,0.2-0.6,0.3-0.7c0.1-0.2,0.2-0.4,0.4-0.6c0.3-0.4,0.4-0.8,0.4-1.3
			c0-0.2-0.1-0.5-0.1-0.8c0-0.3,0-0.5,0-0.6c0.3-0.7,0.5-1.2,0.6-1.6c0.1-0.4,0.3-0.8,0.4-1.2l0.5-1.8l-0.1-0.6
			c0-0.2-0.1-0.5-0.2-0.8c-0.1-0.3-0.1-0.6-0.2-0.9L52.9,26c-0.2-0.3-0.5-0.5-0.7-0.8c-0.2-0.3-0.5-0.4-0.9-0.4
			c-0.5-0.1-0.8-0.1-1.1,0.1c-0.3,0.1-0.5,0.3-0.7,0.4c-0.2,0.4-0.4,0.7-0.5,1c-0.1,0.3-0.2,0.5-0.2,0.7c0,0,0.1,0,0.2,0.1
			c0.1,0.1,0.3,0.2,0.6,0.2l-0.9,0.4l-0.3,0.6c-0.1,0.3-0.2,0.6-0.2,0.8c0,0.2-0.1,0.4-0.2,0.7l-0.6,2L47,32.4V33
			c-0.1,0.5-0.3,1.1-0.5,1.9c-0.2,0.7-0.4,1.5-0.6,2.2c-0.2,0.7-0.4,1.4-0.5,2c-0.2,0.6-0.3,1-0.3,1.3c0,0.1,0,0.2,0.1,0.3
			c0,0.1,0.1,0.2,0.1,0.3v0.2l-0.3,1.1c-0.2,0-0.3,0.1-0.5,0.1c-0.1,0-0.3,0-0.5,0c-0.1,0-0.2,0-0.3,0c-0.1,0-0.1,0-0.2,0
			c-0.2,0-0.3-0.1-0.5-0.1c-0.1,0-0.3-0.1-0.5-0.1c-0.1,0-0.3,0-0.5,0.1c-0.3,0.1-0.5,0.2-0.8,0.3H40c-0.6,0-1.1,0-1.4,0.1
			c-0.9,0.1-1.4,0.5-1.5,1.1c-0.1,0.7,0,1.2,0.2,1.7c0.2,0.7,0.5,1.2,0.9,1.5c0.4,0.3,0.9,0.5,1.7,0.5c0.5,0,1,0,1.6-0.1
			c0.6-0.1,1.3-0.2,2-0.3c0.7-0.1,1.4-0.3,2.1-0.4c0.7-0.1,1.4-0.3,2-0.4c0.5-0.1,0.9-0.2,1.2-0.2s0.6-0.1,0.9-0.2
			c0.2,0,0.5-0.1,0.8-0.2c0.3-0.1,0.6-0.2,0.9-0.2c0.5-0.1,1-0.3,1.6-0.4c0.5-0.1,1-0.2,1.3-0.2c0.2,0,0.7-0.1,1.3-0.2
			c0.6-0.1,1.2-0.3,1.9-0.6c0.6-0.3,1.2-0.6,1.7-0.9c0.5-0.4,0.7-0.8,0.7-1.3l-0.1-0.4C59.7,41.3,59.5,41,59.2,40.8z M68.9,20.7
			c0.2,0,0.5-0.1,0.8-0.2c0.3-0.1,0.6-0.3,0.8-0.5c1-0.4,2.1-0.8,3.4-1.2c1.3-0.4,2.5-0.7,3.6-0.9c0.2-0.1,0.4-0.2,0.5-0.3
			c0.1-0.1,0.1-0.3,0.1-0.6c0.5-0.1,0.8-0.2,0.9-0.4c0.1-0.2,0.1-0.5-0.1-1l-0.6-1.1h-1.2c-0.4,0-0.8,0-1.2,0.1
			c-1.6,0.4-3.1,0.8-4.5,1.3c-1.4,0.5-2.3,0.9-2.8,1.1c-0.1,0.1-0.2,0.3-0.5,0.5C68,17.8,67.9,18,67.8,18c-0.3,0.1-0.5,0.2-0.7,0.2
			s-0.3,0.4-0.3,0.9c0,0.3,0.1,0.7,0.4,1C67.4,20.5,68,20.7,68.9,20.7z M71.5,31.6c0,1.3,0.3,2.2,0.8,2.6c0.5,0.4,1.2,0.7,2,0.7
			c0.3-0.3,0.5-0.6,0.6-0.9c0.1-0.3,0.2-0.5,0.2-0.7c0-0.5,0.1-0.9,0.1-1.1c0-0.2,0.1-0.5,0.2-0.7c0.3-0.8,0.5-1.4,0.5-1.8
			c0-0.4,0-0.8,0.1-1.3c0.1-0.7,0.2-1.5,0.3-2.3c0.1-0.8,0.1-1.3,0.1-1.6c0-0.3-0.1-0.6-0.4-0.8c0-0.2,0-0.4,0.1-0.6
			c0.1-0.1,0.2-0.3,0.2-0.6l-0.2-0.5c-0.1-0.2-0.2-0.5-0.5-0.7s-0.5-0.3-0.9-0.4c-0.8,0-1.4,0.1-1.8,0.6c-0.5,0.7-0.9,1.5-1.2,2.4
			c-0.3,1-0.5,1.9-0.6,2.7c-0.1,0.8-0.1,1.5-0.1,2c0,0.5,0.1,1,0.1,1.4v0.7C71.4,31.1,71.4,31.4,71.5,31.6z M89.7,33.2
			c-0.3-0.1-0.6-0.1-1,0c-1.5,0.2-3.2,0.4-5,0.7c-1.8,0.3-3.7,0.6-5.6,1c-1.9,0.4-3.8,0.8-5.6,1.2c-1.8,0.4-3.6,0.8-5.1,1.2
			c-0.8,0.2-1.5,0.6-2.2,1c-0.7,0.4-1.1,0.8-1.2,1.1c-0.1,0.5,0,0.9,0.3,1.2c0.3,0.3,0.6,0.5,0.8,0.6c0.4,0.1,0.8,0.1,1.2,0
			c0.1,0,0.3-0.1,0.5-0.1c0.2,0,0.4,0,0.6,0.1c0.3,0.1,0.6,0.2,0.9,0.2l5.9-1.5c0.4-0.1,0.8-0.3,1.3-0.4c0.5-0.1,1-0.2,1.8-0.1
			c0.5,0.1,0.9,0.1,1-0.1c0.2-0.2,0.3-0.3,0.5-0.4c0.1,0,0.2-0.1,0.2-0.1c0,0,0.1-0.1,0.1-0.1c0.1,0.1,0.2,0.1,0.4,0.1
			c0.2,0,0.4,0,0.6,0l0.2-0.3c1.2-0.2,2.3-0.4,3.4-0.5c1.1-0.2,2.2-0.3,3.3-0.5c0.1,0,0.2,0,0.3,0c0.1,0,0.3,0.1,0.5,0.1
			c0.2,0,0.5,0.1,0.7,0.1h0.7l0.6-0.3c0.1-0.1,0.3-0.3,0.5-0.5c0.2-0.2,0.4-0.3,0.5-0.4c0-0.1,0.1-0.3,0.1-0.5
			c0-0.2,0.1-0.4,0.1-0.5c0.1-0.4,0.1-0.7,0.1-0.9c0-0.3-0.2-0.6-0.6-1.1C90.3,33.4,90,33.3,89.7,33.2z M69.5,11.2l0.4,0.1l0.1,0.1
			c0.6,0,1.3-0.1,2-0.4c0.4-0.1,0.9-0.3,1.5-0.5c0.6-0.2,1.2-0.4,1.9-0.6c0.7-0.2,1.3-0.4,2-0.6c0.7-0.2,1.3-0.4,1.9-0.5l1-0.3
			l-0.1,0.9c0,0.2-0.1,0.5-0.1,0.7c0,0.3,0,0.5,0,0.7c0,0.7,0,1.9,0,3.6c0,1.8-0.1,3.6-0.1,5.5c0,1.3-0.1,2.6-0.1,3.9
			c0,1.3,0,2.2,0,2.7c0.1,0,0.2,0.1,0.3,0.1c0.1,0,0.2,0.1,0.2,0.1s0.2,0,0.2,0.1l0.1,0.1c0,0,0.1,0.1,0.2,0.1
			c0.1,0,0.2,0.1,0.2,0.2l0.3,0.3h0.5l1-0.1c0.4,0,0.7-0.2,1.1-0.3c0.3-0.2,0.6-0.6,0.7-1.3c0-0.6,0.2-1.2,0.4-1.7
			c0.1-0.4,0.2-0.6,0.2-0.8c0-0.2,0.1-0.3,0.1-0.4c0-0.3,0.1-1,0.2-1.9c0.1-0.9,0.2-2,0.2-3.1c0.1-1.1,0.2-2.3,0.2-3.5
			c0.1-1.2,0.2-2.2,0.2-3.1c0-0.6,0.1-1,0.1-1.4c0-0.4,0-0.6,0-0.8c0.1-0.5,0.2-0.9,0.2-1.3c0-0.3-0.1-0.7-0.3-1.1
			c-0.2-0.7-0.5-1.4-0.9-1.9c-0.4-0.5-0.9-0.8-1.7-0.8C83.1,4.1,82.6,4,82.4,4c-0.2,0-0.4,0-0.6,0.1c-0.5,0.1-1,0.2-1.6,0.5
			C79.6,4.8,79,5,78.5,5.1l-0.7,0.3l-0.5,0.1c-0.1,0-0.2,0.1-0.3,0.2c-0.1,0.1-0.3,0.2-0.5,0.2c-0.9,0.3-2,0.7-3.1,1.1
			c-1.2,0.4-2.1,0.8-2.9,1.2l-0.4,0.2c-0.1,0.1-0.3,0.2-0.6,0.5C69.2,9,69,9.3,68.7,9.8c-0.1,0.2-0.1,0.4-0.1,0.6
			C68.6,10.7,68.9,11,69.5,11.2z M107.4,16.9c-0.1,0.1-0.2,0.2-0.3,0.3c-0.1,0.1-0.1,0.3-0.1,0.5c-0.1,0.5-0.1,0.9,0.1,1
			c0.1,0.2,0.3,0.3,0.6,0.4c0.5,0.3,0.9,0.4,1.3,0.4l0.8,0.1c0.7,0.2,1.8,0.4,3.2,0.5c1.4,0.2,2.7,0.3,3.8,0.4c0,0,0.1,0,0.2-0.1
			c0.1,0,0.2-0.1,0.4-0.1c0.2,0.1,0.3,0.1,0.5,0.1c0.1,0,0.3-0.1,0.5-0.1c0.5-0.1,0.9-0.2,1.2-0.4c0.3-0.2,0.4-0.6,0.3-1.1
			c0-0.3-0.1-0.6-0.3-1c-0.2-0.4-0.5-0.6-0.8-0.8c-0.2-0.1-0.5-0.2-0.9-0.3c-0.3-0.1-0.7-0.2-1.1-0.4c-0.4-0.2-0.7-0.3-0.9-0.3h-0.6
			c-0.1,0-0.2,0-0.3,0c0,0-0.1,0-0.1,0c-0.3-0.1-0.5-0.1-0.8-0.1c-0.2,0-0.6,0-1,0c-0.4,0-0.9-0.1-1.4-0.1h-2.5
			c-0.3,0-0.5,0.1-0.8,0.3c-0.3,0.2-0.5,0.3-0.7,0.5L107.4,16.9z M122,32.7c-0.2,0-0.5-0.1-0.8-0.2c-0.3-0.1-0.6-0.1-1,0
			c-1.5,0.2-3.2,0.4-5,0.7c-1.8,0.3-3.7,0.6-5.6,1c-1.9,0.4-3.8,0.8-5.6,1.2c-1.8,0.4-3.6,0.8-5.1,1.2c-0.8,0.2-1.5,0.6-2.2,1
			s-1.1,0.8-1.2,1.1c-0.1,0.5,0,0.9,0.3,1.2c0.3,0.3,0.6,0.5,0.8,0.6c0.4,0.1,0.8,0.1,1.2,0c0.1,0,0.3-0.1,0.5-0.1
			c0.2,0,0.4,0,0.6,0.1c0.3,0.1,0.6,0.2,0.9,0.2l5.9-1.5c0.4-0.1,0.8-0.3,1.3-0.4c0.5-0.1,1-0.2,1.8-0.1c0.5,0.1,0.9,0.1,1-0.1
			c0.2-0.2,0.3-0.3,0.5-0.4c0.1,0,0.2-0.1,0.2-0.1c0,0,0.1-0.1,0.1-0.1c0.1,0.1,0.2,0.1,0.4,0.1c0.2,0,0.4,0,0.6,0l0.2-0.3
			c1.2-0.2,2.3-0.4,3.4-0.5c1.1-0.2,2.2-0.3,3.3-0.5c0.1,0,0.2,0,0.3,0c0.1,0,0.3,0.1,0.5,0.1c0.2,0,0.5,0.1,0.7,0.1h0.7l0.6-0.3
			c0.1-0.1,0.3-0.3,0.5-0.5c0.2-0.2,0.4-0.3,0.5-0.4c0-0.1,0.1-0.3,0.1-0.5c0-0.2,0.1-0.4,0.1-0.5c0.1-0.4,0.1-0.7,0.1-0.9
			C122.6,33.5,122.4,33.2,122,32.7z M96,29.7c0.2,0.1,0.5,0.2,0.8,0.1c0.3,0,0.6-0.1,0.9-0.2c0.3-0.1,0.6-0.2,0.8-0.4
			c0.2-0.2,0.4-0.4,0.5-0.7c0-0.1,0.2-0.2,0.3-0.5c0.2-0.2,0.3-0.4,0.4-0.7c0-0.1,0.1-0.2,0.2-0.3c0.1-0.1,0.1-0.2,0.2-0.3
			c0.2-0.6,0.5-1.3,0.9-2.1c0.4-0.8,1-1.8,1.8-3.2c0.2-0.3,0.4-0.7,0.6-1c0.2-0.4,0.4-0.7,0.6-1.1l2.6-4.9c0-0.1,0.1-0.2,0.1-0.4
			c0-0.2,0.1-0.3,0.1-0.5l0.8-1.2c0-0.2,0-0.4,0.1-0.6c0-0.3,0-0.7,0-1.3c0-0.3,0-0.5-0.1-0.8c0-0.3-0.4-0.4-1.2-0.5l-1.5,0.3
			c-0.1,0.1-0.3,0.2-0.3,0.2c-0.5,0.3-0.9,0.7-1.2,1c-0.3,0.4-0.6,0.8-0.9,1.3c-0.1,0.2-0.2,0.5-0.5,0.8c-0.2,0.3-0.7,1.2-1.4,2.5
			l-2.2,3.9c-0.7,1.3-1.3,2.5-1.9,3.7c-0.6,1.2-0.9,2-1,2.5c0,0,0,0.1,0,0.3c0,0.1,0,0.3,0,0.4v0.5c0,0.2,0,0.3-0.1,0.5v0.4
			c0,0.1,0,0.3-0.1,0.6c0,0.2-0.1,0.5-0.1,0.7c0,0.2,0,0.4,0.1,0.6C95.7,29.5,95.9,29.6,96,29.7z"/>
	</g>
</g>
</svg>
