<?xml version="1.0" encoding="utf-8"?>
<!-- Generator: Adobe Illustrator 22.0.1, SVG Export Plug-In . SVG Version: 6.00 Build 0)  -->
<svg version="1.1" id="레이어_1" xmlns="http://www.w3.org/2000/svg" xmlns:xlink="http://www.w3.org/1999/xlink" x="0px"
	 y="0px" viewBox="0 0 200 47.5" style="enable-background:new 0 0 200 47.5;" xml:space="preserve">
<style type="text/css">
	.st0{fill:#FFFFFF;}
</style>
<g>
	<g>
		<path class="st0" d="M48.2,15.9c-0.4,0-0.9,0-1.4,0.1c-0.6,0-1.2,0.2-1.7,0.4c-1.3,0.7-2.4,1.3-3.4,1.8c-1,0.5-1.9,0.7-2.7,0.8
			c-0.2,0-0.4,0-0.6,0.1c-0.2,0.1-0.4,0.2-0.5,0.3l-0.3,0.1c-0.3,0.1-0.6,0.2-0.8,0.2c-0.2,0.1-0.3,0.4-0.3,0.9
			c0,0.4,0.2,0.7,0.5,1.1c0.3,0.3,0.9,0.6,1.9,0.7c0.7,0,1.4,0,2.2-0.2c0.8-0.2,1.6-0.5,2.4-0.8c0.8-0.3,1.6-0.6,2.3-1
			c0.7-0.4,1.3-0.7,1.8-1c0.3,0,0.5-0.1,0.5-0.3c0-0.1,0-0.4,0-0.6c0.5-0.1,0.9-0.2,1-0.4c0.2-0.2,0.1-0.5-0.2-1.1L48.2,15.9z
			 M36.8,9.2c0.1-0.3,0.1-0.7,0.1-1c0-0.4-0.1-0.8-0.3-1.1c0.2-0.4,0.3-0.8,0.3-1.2c0-0.2,0-0.3-0.1-0.5c0-0.1-0.1-0.2-0.1-0.3
			c0-0.2,0.1-0.3,0.2-0.3c0.1,0,0.1-0.3,0.1-0.8c-0.1-0.3-0.3-0.7-0.4-1.1c-0.1-0.4-0.3-0.8-0.5-1.3c-0.2-0.4-0.4-0.8-0.7-1.1
			c-0.3-0.3-0.7-0.5-1.2-0.6c-0.7,0.1-1.2,0.3-1.5,0.6c-0.3,0.3-0.6,0.6-0.7,0.8c-0.1,0.3-0.2,0.5-0.2,0.8c0,0.3,0,0.4,0,0.5
			l-0.7,0.5v0.7c0,0.1,0,0.2-0.1,0.4c-0.3,0.9-0.5,2.1-0.7,3.5C30.1,9,30,10.5,29.8,12c0,0.4,0,0.7-0.1,1c-0.1,0.3-0.1,0.6-0.1,1
			l0.1,0.5c-0.2,0.7-0.3,1.4-0.5,1.9c-0.1,0.5-0.2,1-0.3,1.4c-0.1,0.4-0.1,0.9-0.1,1.3c0,0.4,0,0.9,0,1.5v0.6
			c-0.1,1.1-0.2,2.2-0.5,3.3c-0.2,1.1-0.3,2.4-0.3,3.7v1.3c0,0.7-0.1,1-0.2,1.1c-0.1,0.1-0.2,0.3-0.2,0.7v0.4c0,0.1,0,0.3,0,0.5
			c0,0.2,0,0.3,0,0.5s0,0.3,0.1,0.3c-0.3,0.9-0.5,1.7-0.6,2.5c-0.1,0.8-0.1,1.5-0.1,2.2v3h0.6c1.5,0,2.7-0.5,3.7-1.4
			c1-1,1.8-2.3,2.3-4.1l-0.1-0.4l0.1-0.1l0.3-0.8c0.1-1.1,0.2-2.2,0.5-3.3c0.2-1.1,0.3-2.1,0.3-3c0-0.2,0-0.4-0.1-0.6
			c0-0.2-0.1-0.4-0.2-0.6c0.3-0.4,0.5-0.9,0.6-1.4c0.1-0.5,0.2-1,0.2-1.4c0-0.5,0-0.9,0-1.3c0-0.4,0-0.7,0.1-0.9
			c0.2-0.5,0.3-1,0.3-1.5c0-0.5,0-0.9,0.1-1.3v-0.6c0-0.2,0-0.6,0.1-1.1c0-0.6,0.2-1.8,0.4-3.6c0-0.4,0-0.8,0.1-1.2s0.2-0.8,0.3-1.4
			C36.6,9.9,36.7,9.6,36.8,9.2z M24.1,25.2c-0.1-0.1-0.2-0.3-0.2-0.6c-0.1,0-0.3-0.1-0.5-0.2c-0.2-0.1-0.3-0.2-0.4-0.3l-0.8-0.8
			c-0.1-0.1-0.3-0.3-0.4-0.4c-0.1-0.1-0.2-0.2-0.2-0.2v-0.1c-0.4-0.1-0.7-0.3-0.8-0.5c-0.1-0.1-0.3-0.3-0.3-0.4
			c-0.1-0.1-0.3-0.2-0.6-0.2c-0.3-0.1-0.5-0.2-0.6-0.4c-0.5-0.4-0.7-0.6-0.8-0.6c-0.1,0-0.2-0.1-0.4-0.2c-0.2-0.1-0.4-0.2-0.8-0.4
			c-0.3-0.2-0.5-0.3-0.4-0.2c-0.2,0-0.3-0.1-0.5-0.1c-0.1,0-0.2,0-0.4-0.1l-0.8-0.3c-0.2,0-0.4-0.1-0.7-0.1l-0.1-0.1
			c-0.2,0.1-0.5,0.2-0.8,0.2c-0.3,0.1-0.5,0.1-0.7,0.2c-0.2,0.4-0.4,0.7-0.6,0.8c-0.2,0.2-0.2,0.5,0,1c0.1,0.1,0.1,0.2,0.1,0.3
			c0,0.2,0,0.5,0.1,0.7c0.1,0.2,0.3,0.6,0.7,1h0.4l0.3,0.2c0.2,0.2,0.5,0.4,0.8,0.6c0.3,0.2,0.5,0.3,0.8,0.4l0.3,0.3h0.3l0.2,0.1
			c0.1,0.1,0.4,0.2,0.8,0.4c0.3,0.2,0.6,0.5,0.9,0.7c0.3,0.2,0.6,0.4,0.8,0.5c0.5,0.3,1,0.5,1.4,0.6l0.5,0.1l0.3-0.1l0.8,0.2
			c0.2,0.2,0.5,0.3,0.8,0.3c0.3,0,0.5,0.1,0.8,0.1h0.8c0.3-0.3,0.4-0.6,0.4-0.8v-0.1l0.1-0.1c0-0.2,0.1-0.5,0.1-0.7
			c0-0.2,0-0.5-0.1-0.8H24.1z M12.3,14.4l0.3-0.6c0.2-0.6,0.3-1,0.1-1.3l0.5-0.3c0-1,0-1.8,0-2.6c-0.1-0.6-0.3-1-0.6-1.5
			c-0.2-0.2-0.4-0.5-0.8-0.7c-0.3-0.2-0.7-0.3-1.3-0.2C9.7,7.4,9,7.5,8.4,7.7C7.7,7.8,7.1,8,6.5,8.3C5.7,8.6,5.1,8.8,4.6,9
			c-0.4,0.2-0.8,0.3-1,0.4C3.2,9.5,2.9,9.6,2.7,9.7C2.4,9.8,2.3,9.9,2.1,9.9c-0.2,0.1-0.3,0.1-0.3,0.1c-0.6,0.2-1.1,0.7-1.4,1.4
			c-0.3,0.7-0.1,1.4,0.5,2c0.1,0.1,0.3,0.2,0.7,0.3c0.4,0,0.7,0,1-0.1c0.7-0.4,1.6-0.7,2.5-1c0.2,0,0.4-0.2,0.6-0.3
			c0.1-0.1,0.2-0.2,0.4-0.2c0.4-0.2,0.8-0.4,1.2-0.5c0.4-0.1,0.8-0.2,1.2-0.3c-0.2,1.3-0.5,2.5-0.9,3.6c-0.4,1.1-0.6,1.9-0.8,2.3
			c-0.2,0.6-0.3,1.1-0.5,1.5c-0.1,0.4-0.3,0.9-0.6,1.5c-0.1,0.4-0.2,0.7-0.3,1c-0.1,0.3-0.3,0.6-0.4,1v0.4l-0.3,0.5
			c-0.3,0.7-0.5,1.4-0.8,2c-0.2,0.6-0.5,1.3-0.8,2l-0.7,1.1l-0.1,0.8l-0.6,0.9v0.3c-0.4,0.2-0.5,0.5-0.5,0.9c0,0.3,0.1,0.7,0.3,1
			c0.2,0.4,0.5,0.7,0.8,1.1c0.4,0.1,1,0,1.8-0.2c0.4-0.1,0.6-0.3,0.7-0.6c0.1-0.3,0.2-0.5,0.2-0.6c0.1-0.1,0.2-0.2,0.3-0.2
			c0.1-0.1,0.2-0.2,0.3-0.3C5.9,31,6,30.7,6.1,30.4c0.1-0.3,0.4-0.7,0.7-1.4c0.1-0.1,0.3-0.6,0.6-1.5c0.3-0.9,0.7-1.8,1.1-2.7
			c0.2-0.5,0.4-0.9,0.5-1.2c0.1-0.3,0.1-0.5,0.1-0.8l0.5-0.5c0.2-0.3,0.4-0.5,0.4-0.8c0-0.3,0-0.5,0-0.7c0.3-0.7,0.5-1.2,0.6-1.5
			c0-0.1,0.1-0.3,0.1-0.5c0-0.2,0-0.4,0.1-0.6c0,0,0.1-0.2,0.4-0.5c0.1-0.1,0.2-0.4,0.2-0.7c0.1-0.3,0.2-0.7,0.4-1
			c0.1-0.4,0.3-0.7,0.3-1.1L12.3,14.4z M70.2,31.9c-0.1-0.2-0.1-0.4-0.1-0.5c0-0.1,0.1-0.3,0.1-0.5c-0.3-0.3-0.5-0.7-0.6-1.3
			l0.1-0.1c-0.2-0.7-0.4-1.1-0.5-1.3c-0.1-0.2-0.2-0.4-0.3-0.6c-0.1-0.1-0.2-0.2-0.2-0.2c0,0-0.1-0.1-0.1-0.1l-0.1-0.1
			c0-0.2,0-0.4-0.1-0.6c-0.1-0.2-0.2-0.4-0.3-0.6c-0.1-0.2-0.2-0.3-0.3-0.4c0-0.4-0.3-0.9-0.7-1.3c-0.4-0.4-0.8-0.9-1.2-1.2
			c-0.3-0.2-0.5-0.4-0.5-0.4c-0.1,0-0.2-0.1-0.5-0.2l-0.6-0.8c-0.2-0.1-0.4-0.3-0.8-0.3c-0.6-0.2-1.2-0.3-1.9-0.1
			c-0.1,0.1-0.2,0.2-0.3,0.2c-0.1,0-0.3,0.1-0.4,0.1c-0.6,0.2-0.9,0.7-1,1.3c0,0.6,0,1.1,0.3,1.5c0.2,0.5,0.4,0.8,0.6,1
			c0.1,0.2,0.2,0.4,0.3,0.5c0.1,0.4,0.3,0.8,0.6,1.1l0.3,0.6l0.6,0.4c0.1,0.4,0.3,0.8,0.6,1.2c0.3,0.4,0.6,0.8,0.8,1.3
			c0.3,0.4,0.5,0.8,0.8,1.1c0.2,0.3,0.4,0.5,0.5,0.7c0,0,0.1,0,0.2,0.1l0.4,0.2c0.1,0.5,0.3,0.7,0.6,0.8c0.3,0.4,0.9,0.7,1.6,0.9
			c0.3,0,0.6-0.1,0.7-0.2c0.2-0.1,0.3-0.2,0.5-0.3l0.8-1L70.2,31.9z M60.6,18.1l0.5-1.8l0.4-0.6c0.1,0,0.2-0.3,0.2-0.6l0.7-2.1v-0.1
			c0,0,0-0.1,0-0.2c0-0.1,0-0.2,0-0.2l0.3-0.6c0.2-0.6,0.3-1,0.1-1.3l0.5-0.3c0-1,0-1.8,0-2.6C63.3,7,63,6.4,62.5,5.9
			c-0.5-0.5-1.1-0.7-1.8-0.6c-0.8,0.1-1.6,0.2-2.2,0.4c-0.6,0.2-1.2,0.4-1.9,0.6l-0.3,0.1l-0.8,0.3c-0.2,0.1-0.5,0.2-0.9,0.4
			c-0.4,0.1-0.7,0.3-0.9,0.3c-0.2,0.1-0.5,0.2-0.8,0.3c-0.3,0.1-0.6,0.2-1,0.4c-0.6,0.2-1.1,0.7-1.4,1.4c-0.3,0.7-0.1,1.4,0.5,2
			c0.1,0.1,0.3,0.2,0.7,0.3c0.4,0,0.7,0,1-0.1c0.7-0.4,1.6-0.7,2.5-1c0.1,0,0.2,0,0.3-0.1l0.2-0.2c0.1-0.1,0.2-0.2,0.4-0.2
			c0.2-0.1,0.5-0.2,0.8-0.3c0.3-0.1,0.8-0.3,1.6-0.6c-0.2,1.3-0.5,2.5-0.9,3.6c-0.3,1.1-0.6,1.9-0.8,2.3c-0.1,0.3-0.2,0.6-0.3,0.8
			c-0.1,0.3-0.2,0.6-0.3,0.9c-0.1,0.3-0.3,0.8-0.5,1.3c-0.2,0.5-0.4,1.2-0.7,2v0.3l-0.3,0.5c-0.3,0.7-0.5,1.4-0.8,2
			c-0.2,0.6-0.5,1.3-0.8,2l-0.8,1.2l0.1,0.7L52,27.9v0.3c-0.4,0.2-0.5,0.5-0.5,0.9c0,0.4,0.1,0.7,0.3,1c0.2,0.4,0.5,0.7,0.8,1.1
			c0.4,0.1,1,0,1.8-0.2c0.4-0.1,0.6-0.3,0.7-0.6c0.1-0.3,0.2-0.5,0.2-0.6c0.1-0.1,0.2-0.2,0.3-0.2c0.1-0.1,0.2-0.2,0.3-0.3
			c0.1-0.2,0.2-0.5,0.3-0.7c0.1-0.2,0.2-0.4,0.3-0.7c0.4-0.7,0.7-1.3,0.9-2c0.2-0.7,0.5-1.4,0.8-2.1c0.4-0.7,0.6-1.2,0.7-1.6
			c0.1-0.4,0.3-0.9,0.5-1.4c0.3-0.7,0.6-1.2,0.7-1.5C60.4,18.9,60.5,18.5,60.6,18.1z M84,39.1c-0.3,0.1-0.5,0.2-0.6,0.2
			c-0.1,0-0.3,0.1-0.5,0.1c-0.2,0-0.6,0.1-1.1,0.2c-0.5,0.1-1.3,0.3-2.3,0.5l-0.8,0.2L78,40.2l-1.8,0.3V40l-0.1-1.3
			c0.1-0.3,0.1-0.9,0-1.6c-0.1-0.7-0.1-1.2-0.2-1.4c0-0.4-0.2-0.8-0.4-1.1c-0.2-0.3-0.6-0.6-1.1-0.8c-0.2,0-0.5,0.2-0.8,0.4
			c-0.3,0.2-0.6,0.4-0.9,0.7c-0.3,0.3-0.6,0.5-0.8,0.8c-0.2,0.3-0.4,0.5-0.5,0.7L71.3,37l-0.4,0.7l-0.2,0.8c0,0.5-0.1,0.9-0.2,1.3
			c-0.1,0.3-0.2,0.7-0.3,1.2c0,0.2-0.1,0.4-0.1,0.6c0,0.2-0.1,0.4-0.1,0.6c0,0.6,0.1,1.1,0.2,1.6c0.2,0.5,0.7,1,1.6,1.3
			c0.4-0.1,0.7-0.2,1-0.3c0.3,0,0.7-0.1,1-0.1c0.4,0,0.8-0.1,1.2-0.1c0.4,0,0.8-0.1,1.3-0.2l1.7-0.6c1-0.2,2.1-0.4,3.3-0.7
			c1.2-0.3,2.1-0.6,2.8-0.8l0.8-0.4l0.1-0.6c0.1-0.4,0.1-0.8,0.1-1.2C85.2,39.5,84.7,39.2,84,39.1z M86.9,8c0-0.3,0-0.6,0.1-0.8
			l-0.2-0.5C87,6.4,87.1,6,87.1,5.5c0-0.1,0-0.3,0-0.5c-0.1-0.2-0.2-0.4-0.2-0.7c-0.1-0.3-0.2-0.6-0.2-0.8c0.1-0.6,0.1-0.9-0.1-1.1
			c-0.2-0.2-0.4-0.4-0.7-0.6l-0.5-0.4c-0.4-0.4-0.8-0.5-1.1-0.2c-0.3,0.3-0.6,0.5-0.8,0.7c-0.4,0-0.8,0.2-1.2,0.5
			c-0.4,0.3-0.7,0.6-0.8,1c0,0.1-0.1,0.3-0.1,0.5v0.6c-0.1,0.2-0.2,0.4-0.2,0.6c0,0.2-0.1,0.3-0.1,0.5c0,0.1,0,0.3,0,0.6
			c0,0.3,0,0.5,0,0.6c0,0.5-0.1,1-0.1,1.4c0,0.4-0.1,0.9-0.2,1.3c-0.1,0.7-0.3,1.5-0.4,2.6c-0.9,0.3-1.9,0.7-2.9,1
			c-1,0.4-1.9,0.7-2.8,1.1c-0.9,0.3-1.7,0.7-2.3,0.9c-0.7,0.3-1.1,0.5-1.3,0.6c-0.1,0.1-0.2,0.2-0.3,0.3c-0.1,0.1-0.2,0.2-0.3,0.3
			l-0.4,0.3c-0.3,0-0.5,0.1-0.8,0.2c-0.2,0.1-0.3,0.4-0.3,0.9c0,0.4,0.2,0.7,0.6,1c0.3,0.3,1,0.4,2,0.4c0.2,0,0.5-0.1,0.8-0.2
			c0.3-0.1,0.6-0.2,0.8-0.3c0.8-0.3,1.8-0.7,3.1-1.2c1.3-0.5,2.6-1.1,3.9-1.6c0,0.1-0.1,0.2,0,0.2c0,0,0,0.1,0,0.2
			c-0.1,0.3-0.3,0.5-0.5,0.6c-0.2,0.1-0.3,0.3-0.3,0.6c0,0.4,0.2,0.7,0.5,0.9l0.1,0.1c-0.6,0.6-0.9,1-0.9,1.3
			c-0.1,0.4-0.1,0.8,0,1.1c0.1,0.3,0.2,0.5,0.2,0.7c-0.1,0.1-0.2,0.2-0.2,0.3c-0.1,0.1-0.1,0.3-0.1,0.5c0,0.7-0.1,1.3-0.1,1.8
			c0,0.6-0.1,1.2-0.1,1.8l-0.4,0.8l0.1,0.5l0.1,0.3v1.1l0.1,1c-0.1,0.1-0.3,0.3-0.6,0.6c-0.2,0.3-0.2,0.5,0.1,0.9l0.1,0.8l0.1,0.4
			l0.1,0.9l0.2,0.3c0.2,0.4,0.5,0.6,0.7,0.8s0.7,0.2,1.4,0.2c0.9-0.2,1.6-0.7,2.1-1.4c0.5-0.7,0.7-1.3,0.7-1.9l0.8-0.6
			c0-0.2,0.1-0.5,0.1-0.7c0-0.2,0.1-0.5,0.1-0.7l0.4-1.2c0-0.4,0.2-0.7,0.4-1.1c0.1-0.2,0.2-0.5,0.3-0.7c0.1-0.3,0.2-0.5,0.3-0.9
			c0.1-1.1,0.2-2.3,0.2-3.6c0-1.3,0.1-2.4,0.2-3.6l0.1-0.4c0-0.1,0.1-0.3,0.1-0.4l-0.1-0.6c0.2-0.4,0.3-0.9,0.3-1.5
			c0-0.7,0-1.2,0.1-1.6l0.4-3.8l-0.3-0.6V8z M132.5,2.7c-0.2-0.5-0.4-1-0.8-1.4c-0.2,0-0.3,0-0.4-0.1c-0.1-0.1-0.2-0.2-0.3-0.2
			c-0.1-0.1-0.3-0.1-0.6-0.2c-0.4,0.1-0.7,0.2-0.9,0.2c-0.2,0.1-0.4,0.2-0.7,0.3c-0.5,0.6-0.7,1-0.8,1.3c-0.1,0.3-0.1,0.6-0.1,0.8
			l-0.7,0.5v0.7c0,0.1,0,0.2-0.1,0.4c-0.3,0.9-0.5,2.1-0.7,3.5c-0.2,1.4-0.4,2.8-0.6,4.3V13c-1,0.3-2.1,0.6-3.4,1
			c-1.3,0.4-2.5,0.7-3.7,1.1c-1.2,0.4-2.2,0.7-3.1,1c-0.9,0.3-1.4,0.5-1.7,0.6c0,0.1-0.2,0.2-0.3,0.3c-0.2,0.1-0.3,0.2-0.4,0.3
			c-0.1,0.1-0.3,0.2-0.4,0.2c-0.3,0.1-0.5,0.2-0.8,0.2c-0.2,0.1-0.4,0.4-0.4,0.9c0,0.4,0.2,0.8,0.5,1.2c0.3,0.4,1,0.6,2,0.6
			c0.2,0,0.5-0.1,0.9-0.2c0.4-0.1,0.6-0.3,0.9-0.5c0.4-0.1,0.9-0.3,1.6-0.6c0.7-0.2,1.4-0.5,2.3-0.8c0.8-0.3,1.7-0.6,2.7-0.8
			c0.9-0.3,1.8-0.6,2.7-0.8c-0.2,0.7-0.3,1.2-0.3,1.6c-0.1,0.4-0.1,0.8-0.1,1.4v2.1c0,0.3-0.1,0.7-0.1,1.1c0,0.4-0.1,0.7-0.2,1.1
			c-0.1,0.9-0.3,1.8-0.3,2.7c-0.1,0.9-0.1,1.9-0.1,2.9c0,0.5,0,0.8,0,1.1c0,0.3-0.1,0.4-0.1,0.5c-0.1,0.1-0.2,0.4-0.2,0.6
			c0,0.4,0,0.8-0.1,1c0,0.3,0,0.5,0.1,0.7c-0.4,1.1-0.6,2.1-0.7,3c-0.1,0.9-0.1,1.8,0,2.5v2.2c0.9,0.1,1.8,0,2.6-0.3
			c0.9-0.3,1.5-0.8,1.9-1.6c0.5-0.3,0.9-0.8,1.3-1.5c0.4-0.7,0.7-1.4,0.9-2.2l-0.1-0.4l0.4-1c0-0.5,0.1-0.9,0.1-1.3
			c0-0.4,0.1-0.8,0.2-1.3c0.1-0.8,0.2-1.6,0.3-2.4c0.1-0.7,0.2-1.4,0.1-2c0-0.1-0.1-0.2-0.1-0.4c0-0.1-0.1-0.3-0.1-0.3
			c0-0.2,0.1-0.4,0.2-0.5c0.1-0.2,0.2-0.4,0.2-0.6c0.1-0.5,0.1-0.9,0.1-1.3c0-0.4,0-0.7,0.1-1c0-0.4,0.1-0.7,0.1-0.9
			c0-0.2,0.1-0.4,0.2-0.6c0.2-0.5,0.4-1,0.4-1.5c0-0.5,0-0.9,0-1.3v-0.6c0-0.2,0-0.4,0.1-0.6c0-0.2,0.1-0.5,0.1-0.8
			c0-0.3,0.1-0.8,0.2-1.4c0-0.4,0-0.7,0-1c0-0.3,0.1-0.6,0.1-0.9c0-0.2,0-0.4,0-0.5c0-0.2,0-0.3,0-0.5c0-0.2,0.1-0.5,0.1-0.7
			c0-0.2,0.1-0.5,0.2-0.8c0.2-0.6,0.3-1.2,0.4-1.7c0.1-0.5,0-1-0.2-1.5c0.2-0.4,0.3-0.7,0.3-1c0-0.3,0-0.5-0.1-0.7l-0.1-0.2
			c0-0.2,0.1-0.4,0.2-0.5c0.1-0.2,0.2-0.4,0.2-0.6L133,4.2C132.9,3.7,132.7,3.2,132.5,2.7z M109.4,10.8c0-0.3,0-0.5-0.1-0.7
			c-0.1-0.1-0.2-0.2-0.4-0.3l-0.6-0.5l-0.4-0.1c-0.3-0.3-0.7-0.3-1-0.2c-0.8,0.2-1.7,0.4-2.7,0.8c-1,0.3-1.9,0.7-2.9,1
			c-1,0.3-1.8,0.7-2.7,1c-0.8,0.3-1.4,0.6-1.9,0.8c-0.1,0-0.2,0.1-0.3,0.2c-0.1,0.1-0.2,0.2-0.2,0.2c-0.1,0.1-0.2,0.1-0.2,0.2
			c-0.3,0.3-0.5,0.6-0.7,0.9c-0.1,0.3-0.2,0.6-0.2,0.9c0,0.6,0.2,1,0.7,1c0.4,0.1,0.7,0.1,0.9,0.1c0.3,0,0.5,0,0.6-0.1
			c0.1-0.1,0.3-0.2,0.4-0.4l2.9-1c0.1,0,0.2-0.1,0.5-0.2c0.2-0.1,0.4-0.2,0.7-0.2l2.4-0.8c-0.1,0.6-0.2,1.1-0.2,1.6
			c0,0.5-0.1,1.1-0.3,1.6c-0.1,0.5-0.2,1-0.2,1.5c0,0.5-0.2,1-0.4,1.6c0,0.1,0,0.2-0.1,0.3c-0.1,0.3-0.1,0.5-0.1,0.6
			c0,0.3-0.1,0.7-0.2,1c-0.1,0.4-0.1,0.7-0.2,1.1l-0.4,2.2l-0.3,1.4l-0.1,2c0,0.3,0.1,0.6,0.2,0.7l0.1,0.1v0.3
			c0,0.9,0.3,1.4,0.8,1.5c0.5,0.1,1.1,0.2,1.7,0.1c0.1,0,0.2,0,0.4,0c0.2,0,0.3,0,0.4,0l0.3-0.3c0.1-0.1,0.2-0.2,0.2-0.2
			c0-0.1,0.1-0.2,0.2-0.2c0.2-0.2,0.5-0.5,0.8-0.9c0.3-0.4,0.4-0.7,0.4-0.9c0-0.1,0-0.1,0-0.1c0,0,0-0.1,0-0.2
			c0.1-0.1,0.2-0.3,0.4-0.5c0.3-0.3,0.5-0.7,0.8-1.1c0.2-0.4,0.5-0.8,0.7-1.3c0.2-0.7,0.2-1-0.2-1.2c-0.4-0.1-0.7-0.2-1.2-0.1
			l0.1-0.4c0.1-0.8,0.2-1.7,0.4-2.7c0.2-1,0.4-2,0.6-3l0.6-4.4l0.1-1.4c0-0.4,0-0.7-0.1-0.8C109.4,11.1,109.4,11,109.4,10.8z
			 M147.8,28.9c0,1.3,0.3,2.2,0.8,2.6c0.5,0.4,1.2,0.7,2,0.7c0.3-0.3,0.5-0.6,0.6-0.9c0.1-0.3,0.2-0.5,0.2-0.7
			c0-0.5,0.1-0.9,0.1-1.1c0-0.2,0.1-0.5,0.2-0.7c0.3-0.8,0.5-1.4,0.5-1.8c0-0.4,0-0.8,0.1-1.3c0.1-0.7,0.2-1.5,0.3-2.3
			c0.1-0.8,0.1-1.3,0.1-1.6c0-0.3-0.1-0.6-0.4-0.8c0-0.2,0-0.4,0.1-0.6c0.1-0.1,0.2-0.3,0.2-0.6l-0.2-0.5c-0.1-0.2-0.2-0.5-0.5-0.7
			c-0.2-0.2-0.5-0.3-0.9-0.4c-0.8,0-1.4,0.1-1.8,0.6c-0.5,0.7-0.9,1.5-1.2,2.4c-0.3,1-0.5,1.9-0.6,2.7c-0.1,0.8-0.1,1.5-0.1,2
			c0,0.5,0.1,1,0.1,1.4v0.7C147.7,28.4,147.7,28.7,147.8,28.9z M145.3,18c0.2,0,0.5-0.1,0.8-0.2c0.3-0.1,0.6-0.3,0.8-0.5
			c1-0.4,2.1-0.8,3.4-1.2c1.3-0.4,2.5-0.7,3.6-0.9c0.2-0.1,0.4-0.2,0.5-0.3c0.1-0.1,0.1-0.3,0.1-0.6c0.5-0.1,0.8-0.2,0.9-0.4
			c0.1-0.2,0.1-0.5-0.1-1l-0.6-1h-1.2c-0.4,0-0.8,0-1.2,0.1c-1.6,0.4-3.1,0.8-4.5,1.3c-1.4,0.5-2.3,0.9-2.8,1.1
			c-0.1,0.1-0.2,0.3-0.5,0.5c-0.2,0.2-0.4,0.3-0.5,0.3c-0.3,0.1-0.5,0.2-0.7,0.2c-0.2,0.1-0.3,0.4-0.3,0.9c0,0.3,0.1,0.7,0.4,1
			C143.7,17.8,144.3,18,145.3,18z M145.8,8.5l0.4,0.1l0.1,0.1c0.6,0,1.3-0.1,2-0.4c0.4-0.1,0.9-0.3,1.5-0.5c0.6-0.2,1.2-0.4,1.9-0.6
			c0.7-0.2,1.3-0.4,2-0.6c0.7-0.2,1.3-0.4,1.9-0.5l1-0.3l-0.1,0.9c0,0.2-0.1,0.5-0.1,0.7c0,0.3,0,0.5,0,0.7c0,0.7,0,1.9,0,3.6
			c0,1.8-0.1,3.6-0.1,5.5c0,1.3-0.1,2.6-0.1,3.9c0,1.3,0,2.2,0,2.7c0.1,0,0.2,0.1,0.3,0.1c0.1,0,0.2,0.1,0.2,0.1s0.2,0,0.2,0.1
			l0.1,0.1c0,0,0.1,0.1,0.2,0.1c0.1,0,0.2,0.1,0.2,0.2l0.3,0.3h0.5l1-0.1c0.4,0,0.7-0.2,1.1-0.3c0.3-0.2,0.6-0.6,0.7-1.3
			c0-0.6,0.2-1.2,0.4-1.7c0.1-0.4,0.2-0.6,0.2-0.8c0-0.2,0.1-0.3,0.1-0.4c0-0.3,0.1-1,0.2-1.9c0.1-0.9,0.2-2,0.2-3.1
			c0.1-1.1,0.2-2.3,0.2-3.5c0.1-1.2,0.2-2.2,0.2-3.1c0-0.6,0.1-1,0.1-1.4c0-0.4,0-0.6,0-0.8c0.1-0.5,0.2-0.9,0.2-1.3
			c0-0.3-0.1-0.7-0.3-1.1c-0.2-0.7-0.5-1.4-0.9-1.9c-0.4-0.5-0.9-0.8-1.7-0.8c-0.7-0.1-1.1-0.2-1.3-0.2c-0.2,0-0.4,0-0.6,0.1
			c-0.5,0.1-1,0.2-1.6,0.5s-1.2,0.4-1.6,0.6l-0.7,0.3l-0.5,0.1c-0.1,0-0.2,0.1-0.3,0.2c-0.1,0.1-0.3,0.2-0.5,0.2
			c-0.9,0.3-2,0.7-3.1,1.1c-1.2,0.4-2.1,0.8-2.9,1.2l-0.4,0.2c-0.1,0.1-0.3,0.2-0.6,0.5c-0.3,0.2-0.5,0.5-0.8,0.9
			c-0.1,0.2-0.1,0.4-0.1,0.6C144.9,8,145.2,8.3,145.8,8.5z M166,30.6c-0.3-0.1-0.6-0.1-1,0c-1.5,0.2-3.2,0.4-5,0.7s-3.7,0.6-5.6,1
			c-1.9,0.4-3.8,0.8-5.6,1.2c-1.8,0.4-3.6,0.8-5.1,1.2c-0.8,0.2-1.5,0.6-2.2,1c-0.7,0.4-1.1,0.8-1.2,1.1c-0.1,0.5,0,0.9,0.3,1.2
			c0.3,0.3,0.6,0.5,0.8,0.6c0.4,0.1,0.8,0.1,1.2,0c0.1,0,0.3-0.1,0.5-0.1c0.2,0,0.4,0,0.6,0.1c0.3,0.1,0.6,0.2,0.9,0.2l6-1.5
			c0.4-0.1,0.8-0.3,1.3-0.4c0.5-0.1,1-0.2,1.8-0.1c0.5,0.1,0.9,0.1,1-0.1c0.2-0.2,0.3-0.3,0.5-0.4c0.1,0,0.2-0.1,0.2-0.1
			c0,0,0.1-0.1,0.1-0.1c0.1,0.1,0.2,0.1,0.4,0.1c0.2,0,0.4,0,0.6,0l0.2-0.3c1.2-0.2,2.3-0.4,3.4-0.5c1.1-0.2,2.2-0.3,3.3-0.5
			c0.1,0,0.2,0,0.3,0c0.1,0,0.3,0.1,0.5,0.1c0.2,0,0.5,0.1,0.7,0.1h0.7l0.6-0.3c0.1-0.1,0.3-0.3,0.5-0.5c0.2-0.2,0.4-0.3,0.5-0.4
			c0-0.1,0.1-0.3,0.1-0.5c0-0.2,0.1-0.4,0.1-0.5c0.1-0.4,0.1-0.7,0.1-0.9c0-0.3-0.2-0.6-0.6-1.1C166.6,30.7,166.3,30.6,166,30.6z
			 M183.8,14.2c-0.1,0.1-0.2,0.2-0.3,0.3c-0.1,0.1-0.1,0.3-0.1,0.5c-0.1,0.5-0.1,0.9,0.1,1c0.1,0.2,0.3,0.3,0.6,0.4
			c0.5,0.3,0.9,0.4,1.3,0.4l0.8,0.1c0.7,0.2,1.8,0.4,3.2,0.5c1.4,0.2,2.7,0.3,3.8,0.4c0,0,0.1,0,0.2-0.1c0.1,0,0.2-0.1,0.4-0.1
			c0.2,0.1,0.3,0.1,0.5,0.1c0.1,0,0.3-0.1,0.5-0.1c0.5-0.1,0.9-0.2,1.2-0.4c0.3-0.2,0.4-0.6,0.3-1.1c0-0.3-0.1-0.6-0.3-1
			c-0.2-0.4-0.5-0.6-0.8-0.8c-0.2-0.1-0.5-0.2-0.9-0.3c-0.4-0.1-0.7-0.2-1.1-0.4c-0.4-0.2-0.7-0.3-0.9-0.3h-0.6c-0.1,0-0.2,0-0.3,0
			c0,0-0.1,0-0.1,0c-0.3-0.1-0.5-0.1-0.8-0.1c-0.2,0-0.6,0-1,0c-0.4,0-0.9-0.1-1.4-0.1h-2.5c-0.3,0-0.5,0.1-0.8,0.3
			c-0.3,0.2-0.5,0.3-0.7,0.5L183.8,14.2z M172.4,27.1c0.2,0.1,0.5,0.2,0.8,0.1c0.3,0,0.6-0.1,0.9-0.2c0.3-0.1,0.6-0.2,0.8-0.4
			c0.2-0.2,0.4-0.4,0.5-0.7c0-0.1,0.2-0.2,0.3-0.5c0.2-0.2,0.3-0.4,0.4-0.7c0-0.1,0.1-0.2,0.2-0.3c0.1-0.1,0.1-0.2,0.2-0.3
			c0.2-0.6,0.5-1.3,0.9-2.1c0.4-0.8,1-1.8,1.8-3.2c0.2-0.3,0.4-0.7,0.6-1c0.2-0.4,0.4-0.7,0.6-1.1l2.6-4.9c0-0.1,0.1-0.2,0.1-0.4
			c0-0.2,0.1-0.3,0.1-0.5l0.8-1.2c0-0.2,0-0.4,0.1-0.6c0-0.3,0-0.7,0-1.3c0-0.3,0-0.5-0.1-0.8c0-0.3-0.4-0.4-1.2-0.5l-1.5,0.3
			c-0.1,0.1-0.3,0.2-0.3,0.2c-0.5,0.3-0.9,0.7-1.2,1c-0.3,0.4-0.6,0.8-0.9,1.3c-0.1,0.2-0.2,0.5-0.5,0.8c-0.2,0.3-0.7,1.2-1.4,2.5
			l-2.2,3.9c-0.7,1.3-1.3,2.5-1.9,3.7c-0.6,1.2-0.9,2-1,2.5c0,0,0,0.1,0,0.3c0,0.1,0,0.3,0,0.4v0.5c0,0.2,0,0.3-0.1,0.5v0.4
			c0,0.1,0,0.3-0.1,0.6c0,0.2-0.1,0.5-0.1,0.7c0,0.2,0,0.4,0.1,0.6C172,26.8,172.2,26.9,172.4,27.1z M198.3,30
			c-0.2,0-0.5-0.1-0.8-0.2c-0.3-0.1-0.6-0.1-1,0c-1.5,0.2-3.2,0.4-5,0.7c-1.8,0.3-3.7,0.6-5.6,1c-1.9,0.4-3.8,0.8-5.6,1.2
			c-1.8,0.4-3.6,0.8-5.1,1.2c-0.8,0.2-1.5,0.6-2.2,1c-0.7,0.4-1.1,0.8-1.2,1.1c-0.1,0.5,0,0.9,0.3,1.2c0.3,0.3,0.6,0.5,0.8,0.6
			c0.4,0.1,0.8,0.1,1.2,0c0.1,0,0.3-0.1,0.5-0.1c0.2,0,0.4,0,0.6,0.1c0.3,0.1,0.6,0.2,0.9,0.2l6-1.5c0.4-0.1,0.8-0.3,1.3-0.4
			c0.5-0.1,1-0.2,1.8-0.1c0.5,0.1,0.9,0.1,1-0.1c0.2-0.2,0.3-0.3,0.5-0.4c0.1,0,0.2-0.1,0.2-0.1c0,0,0.1-0.1,0.1-0.1
			c0.1,0.1,0.2,0.1,0.4,0.1c0.2,0,0.4,0,0.6,0l0.2-0.3c1.2-0.2,2.3-0.4,3.4-0.5c1.1-0.2,2.2-0.3,3.3-0.5c0.1,0,0.2,0,0.3,0
			c0.1,0,0.3,0.1,0.5,0.1c0.2,0,0.5,0.1,0.7,0.1h0.7l0.6-0.3c0.1-0.1,0.3-0.3,0.5-0.5c0.2-0.2,0.4-0.3,0.5-0.4
			c0-0.1,0.1-0.3,0.1-0.5c0-0.2,0.1-0.4,0.1-0.5c0.1-0.4,0.1-0.7,0.1-0.9C198.9,30.9,198.7,30.5,198.3,30z"/>
	</g>
</g>
</svg>
