<?xml version="1.0" encoding="utf-8"?>
<!-- Generator: Adobe Illustrator 22.1.0, SVG Export Plug-In . SVG Version: 6.00 Build 0)  -->
<svg version="1.1" id="레이어_1" xmlns="http://www.w3.org/2000/svg" xmlns:xlink="http://www.w3.org/1999/xlink" x="0px"
	 y="0px" viewBox="0 0 314 57" style="enable-background:new 0 0 314 57;" xml:space="preserve">
<style type="text/css">
	.st0{fill:#FFFFFF;}
</style>
<g>
	<g>
		<path class="st0" d="M23.7,30.8l0.1-0.5c-0.3-0.3-0.5-0.4-0.8-0.5c-0.2,0-0.5-0.1-0.7-0.1c-0.7,0.1-1.6,0.2-2.6,0.3l-0.9,0.1
			c0-0.2,0.1-0.5,0.1-0.7c0-0.2,0.1-0.5,0.1-0.7c0.2-1.3,0.5-2.7,0.7-4.1c0.2-1.4,0.4-2.8,0.6-4.3c0-0.2,0-0.4-0.1-0.7
			c0-0.3-0.1-0.5-0.1-0.7l0.5-1.9c0-0.8,0-1.6-0.1-2.4c0-0.8-0.1-1.3-0.1-1.6l0.2-0.3v-1l0.1-2.4l-0.2-0.2l0.1-0.4
			c0-0.7,0-1.3-0.1-1.7c-0.1-0.4-0.2-0.7-0.3-0.9C20.2,6.2,20,6,19.8,6c-0.2,0-0.3,0-0.5,0c-0.7,0-1.1,0.3-1.3,0.9
			c-0.2,0.6-0.4,1.2-0.6,1.7l-0.6,1c-0.1,0.4-0.1,0.8-0.1,1.3l-0.1,0.9l-0.5,2.1c-0.1,0.5-0.2,1.1-0.3,1.8c-0.1,0.7-0.3,1.5-0.5,2.4
			l-0.5,2.1c-0.1,1-0.2,1.9-0.4,2.8c-0.2,0.9-0.3,1.7-0.5,2.4c-0.1,0.3-0.2,0.6-0.2,0.9c0,0.3-0.1,0.6-0.1,0.9
			c-0.1,0.5-0.2,1-0.3,1.6c-0.1,0.6-0.2,1.3-0.3,2.1c-0.4,0-0.8,0.1-1.3,0.1c-0.4,0-0.9,0-1.4,0c-0.6,0-0.9-0.2-1.1-0.6
			c-0.2-0.3-0.2-0.9-0.2-1.6L9,22.9c0-0.9,0-1.7,0-2.4c0-0.7,0-1.2,0.1-1.6l0.1-2l0.2-2c0-0.5,0-1,0.1-1.5c0-0.5,0.1-1,0.2-1.4
			c0-0.2,0.1-0.4,0.1-0.5c0-0.1,0-0.3,0-0.7c0-0.2-0.1-0.4-0.3-0.6l0.1-0.3l0.1-0.5L9.4,8.4c0-0.3-0.1-0.5-0.1-0.8
			c0-0.2-0.3-0.3-0.7-0.3H8.1c-0.4,0-0.7,0.1-1,0.4C6.7,8,6.5,8.3,6.3,8.5L6.1,9.1c0,0-0.1,0-0.1,0.1c0,0-0.1,0.1-0.1,0.1
			c0,0,0,0.1-0.1,0.1c-0.2,0.3-0.4,0.6-0.6,1.1c-0.1,0.4-0.2,1.1-0.2,2c0,0.1-0.1,0.3-0.1,0.5c0,0.2-0.1,0.3-0.1,0.5
			c-0.2,0.7-0.4,1.4-0.5,2.1c-0.2,0.8-0.2,1.5-0.2,2.3L4,18c0,0.1-0.1,0.3-0.1,0.5c0,0.2-0.1,0.3-0.1,0.4c-0.1,1.2-0.2,2.5-0.3,3.8
			c0,1.3-0.1,2.7-0.1,4.3c0,0.3,0,0.7,0.1,1c0,0.3,0.1,0.6,0.1,0.7L3.4,29l-0.1,0.4c0.1,0.2,0.2,0.5,0.4,0.9
			c0.2,0.3,0.3,0.6,0.4,0.9C4,31.3,4,31.4,4,31.6c0,0.3,0.1,0.6,0.2,0.7c0.1,0.2,0.2,0.3,0.3,0.5c0.1,0.1,0.2,0.2,0.2,0.4
			c0,0.2,0.3,0.4,0.6,0.7l0.5,0.3l0.3,0.2L6.6,35h0.7l0.3-0.1l0.6,0.6l1.2,0.1c0.2,0,0.4-0.1,0.6-0.1c0.2,0,0.3,0,0.5,0
			c0.3,0,0.6,0,0.9,0s0.7,0,1.1-0.1c-0.1,0.7-0.2,1.3-0.3,2c-0.1,0.7-0.2,1.3-0.3,2c-0.1,0.3-0.2,0.7-0.2,1.1c0,0.4-0.1,0.8-0.1,1.2
			c0,0.4-0.1,0.8-0.1,1.2c0,0.4-0.1,0.7-0.1,1v0.8c-0.5,1.4-0.7,2.8-0.7,4.3l0.1,0.4l-0.1,0.2c-0.1,0.7-0.1,1.3-0.1,2
			c0,0.7,0.1,1.3,0.1,2c0.4,0.1,0.6,0.3,0.8,0.4c0.2,0.1,0.3,0.3,0.5,0.4c0.4,0.3,0.7,0.5,1,0.7c0.3,0.2,0.7,0.3,1.3,0.3
			s1-0.2,1.3-0.7c0.3-0.5,0.5-1,0.7-1.7c0.2-0.7,0.3-1.3,0.3-2c0-0.7,0.1-1.3,0.1-1.7c0-0.3-0.1-0.7-0.3-1.2l0.3-0.2
			c0.2-2,0.4-4.1,0.7-6.3c0.3-2.3,0.5-4.6,0.8-6.9c0.8-0.1,1.5-0.3,2.3-0.4c0.7-0.1,1.4-0.3,2-0.4c0.4-0.1,0.7-0.2,0.9-0.2
			c0.2-0.1,0.5-0.2,0.7-0.3c0.2-0.2,0.4-0.4,0.4-0.6c0-0.2,0.1-0.4,0.1-0.6c0-0.5-0.1-0.8-0.2-0.9C24.1,31,23.9,30.9,23.7,30.8z
			 M33.9,42.5l-0.4-0.3c-0.5-0.1-0.9-0.2-1.3-0.2c-0.3,0-0.6,0-0.9,0.1c-0.1,0-0.2,0-0.3,0c-0.1,0-0.2,0-0.3,0c-0.2,0-0.4,0-0.6,0
			c-0.2,0-0.5,0.1-0.7,0.2c-0.3,0.2-0.6,0.4-0.8,0.8l-0.3,0.5c-0.2,0.4-0.5,0.8-0.7,1.3c-0.2,0.4-0.2,1.1,0,2c0.4,0.5,0.8,1,1.3,1.4
			c0.5,0.4,1,0.7,1.7,0.9c0.6,0.2,1.1,0.2,1.5,0c0.2-0.1,0.4-0.3,0.6-0.4c0.2-0.1,0.4-0.3,0.6-0.6c0.1-0.1,0.2-0.2,0.4-0.3
			c0.2-0.1,0.2-0.3,0.2-0.7c0-0.3,0.1-0.5,0.2-0.6c0.5-0.4,0.7-0.8,0.7-1.3c0-0.2-0.1-0.6-0.3-1.2C34.4,43.5,34.2,43,33.9,42.5z
			 M56.2,4.6C56,4,56,3.8,56,3.9c0.1-0.3,0.1-0.7-0.1-1c-0.1-0.3-0.3-0.6-0.6-0.8c-0.7-0.4-1.4-0.7-2.2-0.7h-0.4c-0.1,0-0.2,0-0.3,0
			c-0.1,0-0.2,0-0.4,0c-0.2,0-0.5,0-1,0.1c-0.3,0.1-0.6,0.2-0.8,0.2c-0.3,0-0.5,0.1-0.6,0.1C49.5,2,49.4,2,49.4,2c0,0-0.1,0-0.3,0.1
			c-0.1,0-0.3,0.1-0.7,0.2c-0.4,0.1-0.6,0.2-0.7,0.2c-0.2,0.1-0.5,0.2-0.8,0.4c-0.4,0.2-0.6,0.3-0.8,0.4c-0.2,0.1-0.6,0.4-1.2,0.8
			c-0.6,0.5-1,0.9-1.2,1.2c-0.1,0.1-0.3,0.3-0.5,0.5c-0.2,0.2-0.4,0.4-0.5,0.6c-0.5,0.6-0.6,1-0.5,1.4c0.1,0.4,0.3,0.8,0.6,1.2
			c0.3,0.4,0.8,0.5,1.4,0.3c0.2-0.1,0.4-0.2,0.6-0.3c0.2-0.1,0.4-0.3,0.5-0.5c0.3-0.4,0.6-0.7,0.9-0.9c0.3-0.3,0.4-0.4,0.5-0.5
			c0.1-0.1,0.2-0.2,0.5-0.3c0.2-0.1,0.4-0.3,0.5-0.3c0.2-0.1,0.4-0.2,0.6-0.3c0.1,0,0.3-0.1,0.3-0.1c0.4-0.1,0.7-0.3,1-0.5L50,5.4
			c0,0,0.1,0,0.1-0.1c0,0,0.1,0,0.1,0c0,0,0,0,0.1,0c0.2,0,0.5-0.1,0.7-0.1c0.2,0,0.4,0,0.7,0v0.4l-0.1,0.3
			c-0.1,0.2-0.2,0.4-0.2,0.6c0,0.2-0.1,0.3-0.1,0.5c0,0.2-0.1,0.3-0.1,0.4C51.1,7.4,51,7.5,51,7.6c0,0.1-0.1,0.2-0.2,0.4
			c-0.1,0.3-0.3,0.6-0.4,0.9C50.3,9.2,50.1,9.6,50,10l-0.1,0.1l-0.3,0.9l-0.6,1.5L48.5,13l-0.2,0.6l-0.1,0.1l-0.5,0.3
			c-0.1,0.4-0.2,0.7-0.3,0.8c0,0.1-0.1,0.3-0.1,0.3c0,0.3,0,0.5-0.1,0.6C47.1,16,47,16.2,47,16.4c-0.3,0.2-0.6,0.6-0.7,1
			c0,0.1-0.1,0.2-0.1,0.3c0,0.1,0,0.2-0.1,0.3l-0.2,0.3l-1.1,2c0,0.1-0.1,0.3-0.2,0.5c-0.1,0.2-0.1,0.4-0.2,0.5l-0.3,0.4
			c-0.1,0.2-0.2,0.4-0.3,0.7c-0.1,0.3-0.1,0.5-0.1,0.8l-0.6,0.7l0.1,0.5c0,0.2,0,0.4-0.1,0.7c0,0.6,0.2,1,0.5,1.2
			c0,0,0.1,0.1,0.3,0.1c0.1,0,0.4,0.1,0.8,0.2c0.2,0,0.3,0.1,0.5,0c0.1,0,0.3,0,0.5,0c0.2,0,0.4,0,0.6,0c0.2,0,0.4,0,0.6,0.1
			c0.4,0.1,0.7,0.1,0.9,0.1c0.2,0,0.5,0.1,0.7,0.2l0.5,0.2c0.5,0.2,0.9,0.5,1,0.8c0.2,0.3,0.3,0.5,0.3,0.6c0.1,0.2,0.2,0.6,0.2,1.2
			c0,0.6,0,1.3-0.2,2.1c-0.1,0.2-0.2,0.5-0.2,0.7c0,0.3-0.1,0.5-0.1,0.7c0,0.4-0.2,0.8-0.3,1.4c-0.2,0.6-0.4,1.1-0.6,1.6
			c0,0.1-0.1,0.2-0.2,0.5c-0.1,0.2-0.1,0.5,0,0.7c-0.3,0.8-0.6,1.7-0.9,2.7c-0.3,0.9-0.4,1.7-0.5,2.4c0,0.1,0,0.2-0.1,0.4
			c0,0.2-0.1,0.3-0.1,0.5c-0.3,0.2-0.6,0.5-0.8,0.8c-0.2,0.4-0.4,0.7-0.5,0.9c-0.1,0.3-0.2,0.7-0.3,1c-0.1,0.3-0.2,0.7-0.2,1
			l-0.4,1.9c0,0.2,0,0.5-0.1,0.8c0,0.1-0.1,0.3-0.1,0.5c-0.1,0.1-0.2,0.3-0.2,0.4s0,0.4-0.1,0.8c0,0.2-0.1,0.3-0.1,0.5
			c0,0.1-0.1,0.3-0.1,0.6c0,1,0.5,1.5,1.6,1.5c0.3,0,0.8-0.1,1.5-0.2c0.4,0,0.8-0.2,1.2-0.6c0.2-0.1,0.4-0.3,0.6-0.4
			c0.2-0.1,0.4-0.3,0.6-0.5c0.2-0.4,0.4-0.7,0.4-1c0-0.3,0-0.6,0-1c-0.1-0.2-0.1-0.4-0.1-0.5c0-0.1,0.1-0.2,0.2-0.4
			c0.1-0.2,0.2-0.4,0.3-0.6c0.1-0.2,0.3-0.5,0.5-0.7v-1.2l0.6-0.8l0.1-0.8l0.4-1.1c0-0.3,0.1-0.5,0.1-0.7c0-0.2,0-0.4,0.1-0.5
			c0.3-0.4,0.5-0.7,0.6-0.9c0.1-0.2,0.2-0.5,0.4-0.9v-0.3c0-0.1,0-0.2,0-0.3c0-0.1,0-0.2,0-0.3c0-0.1,0-0.3,0.1-0.6
			c0.1-0.3,0.2-0.7,0.5-1.4c0.1-0.2,0.2-0.4,0.2-0.5c0.1-0.2,0.1-0.3,0.2-0.5c0.3-0.7,0.6-1.5,0.8-2.3c0.3-0.8,0.5-1.5,0.6-2.3
			c0-0.2,0.1-0.5,0.1-0.8c0-0.3,0-0.6,0-0.8c0-0.3,0-0.7-0.1-1c-0.1-0.3-0.2-0.7-0.2-0.9l0.1-0.8l-0.3-0.3v-1.5
			c-0.1-0.1-0.2-0.2-0.3-0.2c-0.1-0.1-0.2-0.2-0.2-0.2c-0.1-0.1-0.2-0.3-0.3-0.4c-0.1-0.1-0.3-0.3-0.5-0.6c-0.2-0.2-0.5-0.4-0.7-0.6
			c-0.2-0.2-0.4-0.3-0.7-0.5c-0.1,0-0.2-0.1-0.3-0.2c-0.1-0.1-0.2-0.1-0.3-0.2c-0.6-0.3-1.2-0.6-1.8-0.8c-0.6-0.2-1.2-0.3-1.8-0.4
			l0.1-0.3c0.1-0.3,0.2-0.6,0.4-1c0.2-0.4,0.3-0.8,0.5-1.1c0-0.1,0.1-0.2,0.1-0.3c0-0.1,0.1-0.2,0.3-0.4c0.1-0.1,0.2-0.4,0.4-1
			c0.2-0.4,0.3-0.6,0.3-0.6l0.1-0.1c0.2-0.2,0.4-0.4,0.6-0.7c0.1-0.2,0.2-0.4,0.3-0.6c0.1-0.2,0.2-0.4,0.3-0.6l0.3-0.4l0.2-0.3
			c0.3-0.4,0.5-0.8,0.6-1.1c0.1-0.3,0.3-0.7,0.3-1c0.1-0.5,0.4-0.9,1-1.3v-0.6c0-0.1,0-0.2,0-0.2c0-0.1,0-0.2,0-0.2
			c0,0,0-0.2,0.1-0.3c0-0.1,0.1-0.2,0.1-0.2c0.2-0.2,0.4-0.4,0.5-0.6c0.1-0.2,0.2-0.4,0.2-0.6c0.1-0.3,0.2-0.5,0.3-0.7
			c0.1-0.2,0.1-0.3,0.1-0.5L56,7.5l0.4-1.2l0.1-0.2V5c0,0,0-0.1-0.1-0.1C56.3,4.8,56.2,4.7,56.2,4.6z M107.2,23.8c0,0-0.1,0-0.3,0
			c-0.1,0-0.3,0-0.3,0c-0.2,0-0.4-0.1-0.7-0.1c-0.3,0-0.6,0-0.8,0.1c-3.6,0.7-7.5,1.5-11.6,2.5c-4.1,1-8,2.1-11.7,3.2
			c-0.8,0.2-1.6,0.6-2.4,1.1c-0.8,0.5-1.3,1-1.4,1.3c0,0.4,0.2,0.8,0.5,1.2s0.6,0.6,0.9,0.7c0.1,0,0.3,0,0.6,0c0.3,0,0.6,0,0.8-0.1
			c0.2,0,0.5-0.1,0.8-0.1c0.3,0,0.5-0.1,0.6-0.1c0.2,0.2,0.6,0.2,1,0.1l5.9-1.7l0.6-0.3c0.5-0.2,1-0.5,1.6-0.7
			c0.6-0.2,1.4-0.3,2.3-0.3c0.4,0,0.8-0.1,1-0.3c0.3-0.1,0.5-0.3,0.8-0.5c0.2-0.1,0.4-0.2,0.6-0.1c0.1,0,0.2,0.1,0.4,0.1
			c0.2,0,0.4,0.1,0.6,0.1l0.1-0.3c1.1-0.3,2.2-0.6,3.3-0.9c1.1-0.3,2.2-0.5,3.2-0.6c0.4,0.2,0.7,0.2,1,0.1c0.5,0.1,0.9,0.1,1.4-0.1
			l0.2-0.1c0.2-0.1,0.4-0.3,0.7-0.5c0.3-0.2,0.6-0.3,0.8-0.5c0-0.1,0-0.3,0-0.6c0-0.3,0-0.5,0-0.6c0-0.4,0-0.7,0-1
			C107.8,24.5,107.6,24.2,107.2,23.8z M92.9,35.9c-0.1-0.2-0.2-0.4-0.2-0.6c0-0.7-0.5-1.2-1.5-1.3c-0.2-0.1-0.5-0.2-0.8-0.1
			c-0.3,0-0.5,0.1-0.7,0.2c-0.6,0.2-1.1,0.6-1.5,1l-0.1,0.8l-0.3,0.3l-0.1,1c0,0.7,0,1.2-0.1,1.6c-0.1,0.4-0.2,0.8-0.2,1.2
			c0,0.2-0.1,0.5-0.1,0.7c0,0.2-0.1,0.5-0.1,0.7v0.8l-0.1,0.6v0.5h-0.1c-0.1,0.1-0.2,0.2-0.3,0.4c-0.1,0.1-0.2,0.3-0.2,0.3
			c0,0.3,0,0.5,0.1,0.6c-0.1,0.2-0.2,0.5-0.2,0.7c-0.1,0.2,0,0.5,0.1,0.7l-0.1,0.1c0,0.5,0,1.1,0,1.6c0,0.6-0.1,1.1-0.4,1.6L85.9,50
			v0.3l0.1,0.5c0,0.2,0,0.4,0,0.5c0,0.2,0,0.3,0,0.3l-0.2,0.8c0,0.2,0,0.4,0.1,0.5c0.1,0.1,0.2,0.2,0.3,0.3l0.4,1
			c0.2,0.1,0.4,0.2,0.6,0.2c0.2,0,0.4,0.1,0.6,0.1c0.1,0,0.3,0,0.7-0.1c0.4,0,0.7-0.1,0.9-0.2c0.2-0.1,0.5-0.4,0.8-0.8
			c0.3-0.4,0.4-0.8,0.5-1.1h0.1c0.5-0.7,0.7-1.4,0.7-2.3c0.1-0.2,0.3-0.4,0.3-0.6c0.1-0.2,0.2-0.4,0.2-0.7c0.1-0.6,0.1-1.2,0.1-1.8
			c0-0.6,0-1.2,0.1-1.7c0-0.2,0-0.5,0-0.7c0-0.2,0-0.4,0-0.6l0.2-0.3v-0.3c0.2-0.1,0.3-0.4,0.3-0.8c0-0.2,0-0.4-0.1-0.6l0.2-2.5
			l-0.2-0.3c0-0.2,0.1-0.4,0.1-0.6c0-0.2,0-0.4,0-0.6l0.1-0.4L93,37L93,36.8l0.1-0.3C93,36.3,93,36.1,92.9,35.9z M84.7,18
			c0,0.2,0.1,0.4,0.1,0.6c0.1,0.6,0.2,1.1,0.4,1.6c0.2,0.5,0.4,1,0.7,1.6c0.1,0.2,0.5,0.5,1.1,1c0.7,0.5,1.4,0.7,2.4,0.7
			c0.3,0,0.7-0.1,1.1-0.2c0.5-0.1,1-0.2,1.4-0.3c0.4-0.1,0.8-0.3,1.2-0.7c2.4-2,3.6-4.8,3.7-8.2c0-2.1-0.3-3.6-1-4.6
			c-0.7-1-1.3-1.4-1.8-1.4c-0.2-0.2-0.4-0.5-0.6-0.8c-0.1-0.3-0.5-0.5-1.2-0.6c-0.1,0-0.2,0-0.4,0c-0.2,0-0.4,0-0.6,0
			c0.3-0.7,0.5-1.1,0.8-1.3c0.3-0.2,0.5-0.4,0.6-0.5c0.1-0.1,0.3-0.2,0.4-0.3c0.4-0.2,0.6-0.4,0.7-0.6c0.1-0.2,0.1-0.4,0-0.7
			c-0.3-0.4-0.6-0.6-1-0.7c-0.4-0.1-0.9,0-1.3,0.2c-1.2,0.4-2.1,0.9-2.8,1.5c-0.7,0.6-1.3,1.4-1.7,2.4c-0.3,0.9-0.7,1.8-1,2.7
			c-0.3,0.9-0.6,1.7-0.8,2.6v0.2c-0.2,0.3-0.2,0.5-0.2,0.7c0.1,0.2,0.1,0.3,0.2,0.4c0,0.1,0,0.3-0.1,0.5c0,0.2-0.1,0.4-0.1,0.5
			c-0.2,0.9-0.2,1.6,0,2l-0.2,0.7C84.6,17.5,84.6,17.8,84.7,18z M89.6,12.9c0-0.8,0.1-1.5,0.2-2.1c0.2-0.1,0.5-0.2,0.8-0.2
			c0.3,0,0.5,0,0.6,0c0.9,0.2,1.5,0.6,1.7,1.2c0.3,0.5,0.4,1.4,0.4,2.5c0,0.9-0.2,1.9-0.6,2.8c-0.4,0.9-0.9,1.6-1.5,2.1
			c-0.1,0.2-0.3,0.3-0.4,0.3c-0.1,0-0.2,0-0.3-0.1c-0.2-0.1-0.3-0.2-0.3-0.2c-0.3-0.4-0.5-0.9-0.6-1.6c-0.1-0.7-0.1-1.5-0.1-2.4
			C89.5,14.4,89.6,13.7,89.6,12.9z M104.9,37.3c0,0,0-0.3,0.1-0.6v-1l-0.1-0.2l0.1-0.6c0.1-0.2,0.1-0.5,0-0.7
			c-0.1-0.3-0.3-0.5-0.5-0.7c-0.1-0.1-0.2-0.3-0.3-0.6c0-0.3-0.4-0.5-1-0.6c-0.5-0.2-0.9-0.3-1.3-0.2c-0.3,0.1-0.6,0.2-0.8,0.3
			c-0.4,0.2-0.8,0.4-1.1,0.6c-0.3,0.2-0.5,0.6-0.7,1.2l-0.3,0.5c0,0.7,0,1.2-0.1,1.6c0,0.4-0.1,0.8-0.1,1c0,0.3-0.1,0.5-0.1,0.7
			c0,0.2-0.1,0.4-0.1,0.7c0,0.2-0.1,0.5-0.1,0.7c0,0.2-0.1,0.5-0.1,0.8c0,0.4,0,0.7,0.1,0.9c0,0.2,0,0.5-0.1,0.7l-0.2,0.6
			c-0.2,0.3-0.3,0.6-0.3,0.8c0,0.2,0.1,0.3,0.2,0.5c-0.2,0.1-0.3,0.3-0.3,0.6c0,0.2,0,0.5,0.1,0.9c-0.2,0.1-0.3,0.4-0.3,0.8
			c0.1,0.4,0.1,0.9,0.1,1.4c0,0.5-0.1,1-0.4,1.3c-0.1,0.5-0.1,0.7-0.1,0.8c0,0.1,0,0.2,0,0.2V51l-0.1,0.4c0,0.1-0.1,0.2-0.1,0.3
			c0,0.1,0,0.2,0,0.3c-0.1,0.4,0,0.7,0.3,0.9l0.4,0.7c0.2,0.2,0.5,0.4,0.7,0.5c0.2,0.1,0.6,0.1,1,0.1c0.1,0,0.3,0,0.7,0
			c0.4,0,0.7,0,0.9-0.1c0.2-0.1,0.5-0.4,0.9-0.8c0.3-0.4,0.6-0.8,0.7-1.2c0.3-0.4,0.5-0.8,0.7-1.2c0.1-0.4,0.2-0.8,0.2-1.2
			c0-0.2,0.1-0.5,0.2-0.7c0.1-0.2,0.2-0.4,0.2-0.7c0.1-0.5,0.2-1.1,0.2-1.6c0-0.6,0.1-1.1,0.1-1.6c0-0.4,0.1-0.7,0.1-1.1
			c0-0.3,0-0.7,0.1-0.9l0.2-0.4v-0.3c0.1-0.2,0.2-0.5,0.2-0.9V41c0-0.6,0.1-1.1,0.1-1.6c0-0.4,0.1-0.9,0.1-1.5l-0.3-0.1
			C104.9,37.5,104.9,37.4,104.9,37.3z M146.5,31.5L146,31c0,0-0.1,0-0.1-0.1c0,0-0.1,0-0.1,0c0,0-0.1,0-0.1,0
			c-0.2-0.2-0.4-0.3-0.6-0.3c-0.1,0-0.3,0-0.3,0.1c-0.4,0.1-0.8,0.2-1.2,0.3c-0.4,0.1-0.9,0.2-1.3,0.4c0,0,0.1-0.2,0.2-0.3l0.7-1.2
			l0.7-1.7c0-0.1,0.2-0.4,0.5-0.9c0.3-0.5,0.5-1,0.7-1.7c0.1-0.9,0.2-1.8,0.3-2.8c0.1-1,0.3-1.9,0.3-2.8l0.1-0.7
			c0.1,0,0.2-0.2,0.2-0.3c0-0.2,0.1-0.4,0.1-0.6c0-0.1,0-0.2,0-0.3c0-0.1,0-0.3,0-0.3v-0.3c0-0.3,0.1-0.5,0.1-0.6
			c0-0.1,0.1-0.2,0.1-0.3c0-0.1,0-0.2,0.1-0.5c0-0.2,0.1-0.6,0.1-1.2l0.3-1.9c0-0.2-0.1-0.3-0.1-0.5c0-0.1-0.1-0.3-0.1-0.5
			c0.1-0.5,0.2-0.8,0.1-1.2c0-0.3,0-0.6,0.1-0.8c0-0.3,0.1-0.5,0.1-0.7c0-0.2,0.1-0.4,0.1-0.7c0-0.5-0.1-1.1-0.3-1.7
			c-0.2-0.5-0.4-0.9-0.6-1.4c-0.1-0.5-0.4-0.7-0.8-0.7c-0.2-0.2-0.4-0.3-0.6-0.3c-0.3,0-0.6,0.1-0.9,0.2s-0.7,0.3-1,0.6
			c-0.3,0.2-0.7,0.5-0.9,0.7c-0.3,0.3-0.4,0.5-0.5,0.7v0.8c-0.2,0.3-0.3,0.6-0.3,1l-0.1,1.2c0,0.7-0.1,1.3-0.2,1.7
			c-0.1,0.5-0.3,1-0.3,1.5l-0.3,1.4c-0.9,0.3-1.9,0.6-2.9,1c-1,0.4-2,0.8-2.9,1.1c-0.9,0.3-1.7,0.7-2.3,0.9
			c-0.7,0.3-1.1,0.5-1.3,0.6c-0.1,0.1-0.2,0.2-0.3,0.3c-0.1,0.1-0.2,0.2-0.3,0.3l-0.4,0.3c-0.3,0-0.5,0.1-0.8,0.2
			c-0.2,0.1-0.3,0.4-0.3,0.9c0,0.4,0.2,0.7,0.6,1c0.3,0.3,1,0.4,2,0.4c0.2,0,0.5-0.1,0.8-0.2c0.3-0.1,0.6-0.2,0.8-0.3
			c0.8-0.3,1.8-0.7,3.1-1.2c1.3-0.5,2.6-1.1,3.9-1.6c-0.2,0.4-0.3,0.6-0.3,0.6v0.1c0,0,0,0.1-0.1,0.1c0,0-0.1,0.1-0.1,0.2
			c-0.4,0.2-0.6,0.5-0.6,0.8c0,0.1,0.1,0.2,0.2,0.4c0.1,0.2,0.2,0.3,0.2,0.5c-0.2,0.3-0.3,0.5-0.5,0.8c-0.1,0.2-0.2,0.5-0.3,0.7
			c-0.1,0.2-0.1,0.4-0.1,0.6c0,0.3,0.1,0.6,0.3,0.8c-0.2,0.4-0.4,0.8-0.5,1.2c-0.1,0.4-0.1,0.8-0.2,1.3l-0.4,0.8
			c0,0.1,0.1,0.2,0.1,0.3c0,0,0,0.1,0,0.2v0.8l-0.5,2.4c0,0.4,0.1,0.7,0.2,0.8c0.1,0.1,0.2,0.3,0.2,0.5l0.1,0.8
			c0.1,0.2,0.2,0.3,0.2,0.3c-1,0.4-1.8,0.7-2.5,1c-0.7,0.3-1.1,0.6-1.3,0.7c-0.4,0.4-0.7,0.7-0.8,1c-0.1,0.3-0.2,0.6-0.2,0.9
			c0,0.6,0.2,1,0.7,1c0.4,0.1,0.7,0.1,0.9,0.1c0.3,0,0.5,0,0.6-0.1c0.1-0.1,0.3-0.2,0.4-0.3l2.9-1c0.5-0.2,1-0.4,1.6-0.6
			c0.6-0.2,1.2-0.4,1.9-0.7c-0.1,0.6-0.2,1-0.2,1.4c-0.1,0.4-0.1,0.7-0.2,1.1c0,0.3-0.1,0.7-0.2,1.1c-0.1,0.4-0.2,0.8-0.2,1.4
			l-0.7,3.6l-0.1,2c0,1.1,0.2,1.8,0.6,2.2c0.4,0.4,0.8,0.6,1.4,0.6c0.2,0,0.5,0,0.8-0.1c0.3,0,0.6-0.1,0.8-0.1l0.6-0.6
			c0.4-0.4,0.7-0.8,1-1.2c0.3-0.4,0.5-0.7,0.5-1c0.2-0.5,0.3-0.8,0.3-1s0-0.3-0.1-0.3c-0.1-0.1-0.2-0.2-0.3-0.3l0.5-0.6
			c0-0.1,0-0.3,0.1-0.5c0-0.2,0.1-0.4,0.1-0.5l0.2-1.4l0.1-0.6c0-0.4,0.1-1,0.2-1.6c0.1-0.7,0.3-1.8,0.6-3.6l0.1-1.4
			c0-0.4-0.1-0.8-0.2-1.4C146.9,31.7,146.7,31.5,146.5,31.5z M129.9,28.3c-0.2-0.4-0.5-0.9-0.8-1.3c-0.3-0.5-0.6-1-0.9-1.5
			c-0.4-0.5-0.7-0.8-0.9-1.1c-0.2-0.3-0.5-0.5-0.7-0.8c-0.2-0.3-0.4-0.4-0.5-0.5l-0.4-0.4c-0.3-0.2-0.5-0.4-0.6-0.4
			c-0.1,0-0.2-0.1-0.4-0.2c-0.2,0-0.4,0-0.6,0.1c-0.2,0-0.4,0.1-0.6,0.1l-0.6,0.6c-0.3,0.3-0.4,0.5-0.5,0.7c0,0.2-0.1,0.4-0.1,0.6
			c0,0.1,0,0.2,0,0.2c0,0,0,0.1,0,0.1v0.9c0,0.1,0,0.3,0.1,0.4c0,0.1,0.1,0.3,0.1,0.5l0.4,0.4c0.1,0.2,0.2,0.5,0.4,0.9
			c0.2,0.3,0.4,0.6,0.6,0.8l0.1,0.3c0.1,0.1,0.3,0.3,0.5,0.6c0.3,0.3,0.4,0.4,0.3,0.4c0.3,0.5,0.6,0.9,1,1.4c0.4,0.4,0.8,0.8,1.2,1
			c0.5,0.3,0.8,0.6,1.1,0.8c0.3,0.2,0.6,0.3,0.8,0.5c0.3,0.1,0.5,0.2,0.6,0.2l0.4-0.2c0.1-0.1,0.3-0.7,0.5-1.7
			c0.1-0.5,0.1-0.9-0.1-1.4C130.4,29.7,130.2,29,129.9,28.3z M124,16.1V16l0.5-0.2c0.1-0.8,0.2-1.5,0.2-2.1c0-0.5-0.2-1.1-0.5-1.7
			c-0.3-0.7-1.1-1-2.1-1c-1,0-1.9,0.1-2.8,0.2c-0.8,0.1-1.8,0.3-2.8,0.6c-0.6,0.2-1.1,0.3-1.6,0.4c-0.5,0.1-1.1,0.2-1.7,0.5h-0.3
			c-0.5,0.1-0.9,0.4-1.3,0.7c-0.3,0.3-0.5,0.8-0.5,1.2c0,0.3,0.1,0.6,0.4,0.9c0.3,0.3,0.8,0.5,1.7,0.5c0.1,0,0.4-0.1,0.7-0.2
			c0.3-0.1,0.6-0.1,0.9-0.2c0.3-0.1,0.6-0.1,0.8-0.2c0.3-0.1,0.4-0.1,0.5-0.1c0.2,0,0.5-0.1,0.9-0.3c0.2-0.1,0.6-0.2,1.1-0.2
			c0.5-0.1,1.1-0.2,1.8-0.3c-0.6,1.7-1.3,3.4-2.1,5c-0.8,1.6-1.6,3.1-2.4,4.6l-0.3,0.3c-0.5,0.8-0.9,1.6-1.3,2.5
			c-0.4,0.9-1,1.5-1.7,2.1l0.1,0.5l-0.7,0.8v0.4c-0.4,0.2-0.6,0.5-0.6,0.8c0,0.5,0.1,0.9,0.3,1.2c0.2,0.3,0.4,0.5,0.7,0.7
			c0.2,0.1,0.5,0.2,0.9,0.3c0.3,0,0.7-0.1,1.2-0.3c0.5-0.2,0.7-0.5,0.8-0.7l0.8-0.6c0.5-0.7,1-1.5,1.5-2.3c0.5-0.8,0.9-1.5,1.3-2.2
			c0.5-0.8,0.9-1.4,1.1-1.7c0.2-0.3,0.3-0.5,0.4-0.8v-0.3l0.6-0.3c0.3-0.3,0.6-0.7,0.7-1c0.1-0.4,0.3-0.7,0.4-1.1
			c0.1-0.3,0.2-0.7,0.4-1c0.1-0.3,0.3-0.7,0.6-0.9c0.8-1.3,1.3-2.3,1.5-3C123.9,16.6,124,16.2,124,16.1z M167.2,22.3l0.1-0.6
			l0.3-0.6c0.2-0.6,0.3-1,0.1-1.3l0.5-0.3c0-1,0-1.8,0-2.6c-0.1-0.6-0.3-1-0.6-1.5c-0.2-0.2-0.4-0.5-0.8-0.7
			c-0.3-0.2-0.7-0.3-1.3-0.2c-0.8,0.1-1.6,0.2-2.2,0.4c-0.6,0.2-1.2,0.4-1.9,0.6c-0.8,0.3-1.4,0.6-1.8,0.7c-0.4,0.2-0.8,0.3-1,0.4
			c-0.4,0.1-0.7,0.3-0.9,0.3c-0.2,0.1-0.4,0.2-0.6,0.2c-0.2,0.1-0.3,0.1-0.3,0.1c-0.6,0.2-1.1,0.7-1.4,1.4c-0.3,0.7-0.1,1.4,0.5,2
			c0.1,0.1,0.3,0.2,0.7,0.3c0.4,0,0.7,0,1-0.1c0.7-0.4,1.6-0.7,2.4-1c0.2,0,0.4-0.2,0.6-0.3c0.1-0.1,0.2-0.2,0.3-0.2
			c0.4-0.2,0.8-0.4,1.2-0.5c0.4-0.1,0.8-0.2,1.2-0.3c-0.2,1.3-0.5,2.5-0.9,3.6c-0.3,1.1-0.6,1.9-0.8,2.3c-0.2,0.6-0.3,1.1-0.5,1.5
			c-0.1,0.4-0.3,0.9-0.6,1.5c-0.1,0.4-0.2,0.7-0.3,1c-0.1,0.3-0.3,0.6-0.3,1v0.3l-0.3,0.5c-0.3,0.7-0.5,1.4-0.8,2
			c-0.2,0.6-0.5,1.3-0.8,2l-0.7,1.1l-0.1,0.8l-0.6,0.9v0.3c-0.4,0.2-0.5,0.5-0.5,0.9c0,0.3,0.1,0.7,0.3,1c0.2,0.4,0.5,0.7,0.8,1.1
			c0.4,0.1,1,0,1.7-0.2c0.4-0.1,0.6-0.3,0.7-0.6c0.1-0.3,0.2-0.5,0.2-0.6c0.1-0.1,0.2-0.2,0.3-0.2c0.1-0.1,0.2-0.2,0.3-0.3
			c0.1-0.2,0.2-0.5,0.3-0.8c0.1-0.3,0.4-0.7,0.7-1.4c0.1-0.1,0.3-0.6,0.6-1.5c0.3-0.9,0.7-1.8,1.1-2.7c0.2-0.5,0.4-0.9,0.5-1.2
			c0.1-0.3,0.1-0.5,0.1-0.8l0.5-0.5c0.2-0.3,0.4-0.5,0.4-0.8c0-0.3,0-0.5,0-0.7c0.3-0.7,0.5-1.2,0.6-1.5c0-0.1,0.1-0.3,0.1-0.5
			c0-0.2,0-0.4,0.1-0.6c0,0,0.1-0.2,0.4-0.5c0.1-0.1,0.2-0.4,0.2-0.7c0.1-0.3,0.2-0.7,0.3-1C167,23,167.1,22.6,167.2,22.3z
			 M171.6,28.5C171.6,28.5,171.6,28.5,171.6,28.5C171.6,28.5,171.6,28.5,171.6,28.5z M189.9,9.3c-0.2-0.5-0.4-1-0.8-1.4
			c-0.2,0-0.3,0-0.4-0.1c-0.1-0.1-0.2-0.2-0.3-0.2c-0.1-0.1-0.3-0.1-0.6-0.2c-0.4,0.1-0.7,0.2-0.9,0.2c-0.2,0.1-0.4,0.2-0.7,0.3
			c-0.5,0.6-0.7,1-0.8,1.3c-0.1,0.3-0.1,0.6-0.1,0.8l-0.7,0.5c0,0.4,0,0.6,0,0.7c0,0.1,0,0.2-0.1,0.4c-0.3,0.9-0.5,2.1-0.7,3.5
			c-0.2,1.4-0.4,2.8-0.6,4.3c0,0.1,0,0.2,0,0.4c0,0.2,0,0.3-0.1,0.4c0,0.2-0.1,0.5-0.2,0.7c-0.1,0.3-0.1,0.6,0,0.9
			c-0.1,0.3-0.2,0.5-0.2,0.7c0,0.2-0.1,0.4-0.2,0.7c-0.3,0.7-0.4,1.3-0.4,1.8c-0.1,0.4-0.1,0.8-0.1,1.4c0,0.5,0,1,0,1.5v0.6
			c0,0.3-0.1,0.7-0.1,1c0,0.4-0.1,0.7-0.2,1.1c-0.1,0.9-0.3,1.8-0.3,2.7c-0.1,0.9-0.1,1.9-0.1,2.9c0,0.5,0,0.8,0,1.1
			c0,0.3-0.1,0.4-0.1,0.5c-0.1,0.1-0.2,0.3-0.2,0.6c0,0.4,0,0.8-0.1,1c0,0.3,0,0.5,0.1,0.7c-0.4,1.1-0.6,2.1-0.7,3
			c-0.1,0.9-0.1,1.8,0,2.5v2.2c0.9,0.1,1.8,0,2.6-0.3c0.9-0.3,1.5-0.8,1.8-1.6c0.5-0.3,0.9-0.8,1.3-1.5c0.4-0.7,0.7-1.4,0.9-2.2
			l-0.1-0.4l0.3-1c0-0.5,0.1-0.9,0.1-1.3c0-0.4,0.1-0.8,0.2-1.3c0.1-0.8,0.2-1.6,0.3-2.4c0.1-0.7,0.2-1.4,0.1-2
			c0-0.1-0.1-0.2-0.1-0.3c0-0.1-0.1-0.3-0.1-0.3c0-0.2,0.1-0.4,0.2-0.5c0.1-0.2,0.2-0.4,0.2-0.6c0.1-0.5,0.1-0.9,0.1-1.3
			c0-0.4,0-0.7,0.1-1c0-0.4,0.1-0.7,0.1-0.9c0-0.2,0.1-0.4,0.2-0.6c0.2-0.5,0.4-1,0.4-1.5c0-0.5,0-0.9,0-1.3v-0.6
			c0-0.2,0-0.4,0.1-0.6c0-0.2,0.1-0.5,0.1-0.8c0-0.3,0.1-0.8,0.2-1.4c0-0.4,0-0.7,0-1c0-0.3,0.1-0.6,0.1-0.9c0-0.2,0-0.4,0-0.5
			c0-0.2,0-0.3,0-0.5c0-0.2,0.1-0.5,0.1-0.7c0-0.2,0.1-0.5,0.2-0.8c0.2-0.6,0.3-1.2,0.4-1.7c0.1-0.5,0-1-0.2-1.5
			c0.2-0.4,0.3-0.7,0.3-1c0-0.3,0-0.5-0.1-0.7l-0.1-0.2c0-0.2,0.1-0.4,0.2-0.5c0.1-0.2,0.2-0.4,0.2-0.6l-0.2-0.6
			C190.3,10.3,190.1,9.8,189.9,9.3z M176.8,35.9c0-0.2,0-0.4,0.1-0.6c-0.1,0-0.3-0.2-0.4-0.3c-0.1-0.2-0.2-0.3-0.3-0.5l-0.6-0.9
			c-0.1-0.2-0.2-0.3-0.2-0.5c-0.1-0.1-0.1-0.2-0.2-0.3l0.1-0.1c-0.3-0.2-0.5-0.5-0.6-0.7c-0.1-0.2-0.2-0.3-0.2-0.5
			c0-0.1-0.2-0.3-0.6-0.4c-0.3-0.1-0.4-0.3-0.4-0.5c-0.3-0.5-0.5-0.7-0.6-0.8c-0.1-0.1-0.2-0.2-0.3-0.2c-0.1-0.2-0.3-0.4-0.6-0.7
			c-0.1-0.1-0.2-0.2-0.3-0.3c-0.2-0.1-0.3-0.2-0.5-0.2c-0.1-0.1-0.2-0.2-0.4-0.2l-0.6-0.5c-0.1-0.1-0.3-0.2-0.3-0.2
			c-0.1,0-0.2-0.1-0.3-0.1l-0.1-0.2c-0.2,0-0.5,0-0.8,0c-0.3,0-0.5-0.1-0.7-0.1c-0.3,0.4-0.6,0.6-0.8,0.7c-0.2,0.1-0.3,0.4-0.3,0.9
			c0.1,0.1,0.1,0.3,0.1,0.3c-0.1,0.2-0.1,0.4-0.1,0.7c0,0.3,0.1,0.6,0.3,1.2l0.3,0.1l0.1,0.3c0.2,0.2,0.5,0.5,0.7,0.7
			c0.2,0.3,0.4,0.5,0.5,0.6l0.1,0.5l0.3,0.1l0.1,0.2c0.1,0.2,0.3,0.4,0.6,0.6c0.2,0.3,0.5,0.6,0.7,0.9c0.2,0.3,0.4,0.5,0.5,0.7
			c0.2,0.2,0.4,0.4,0.6,0.6c0.2,0.2,0.3,0.3,0.5,0.4l0.6,0.2h0.3l0.6,0.4c0.3,0.5,0.8,0.8,1.3,0.9l0.7,0.3c0.2-0.2,0.4-0.3,0.5-0.4
			c0.1-0.1,0.2-0.2,0.2-0.3v-0.1l0.1-0.1c0.1-0.2,0.2-0.4,0.3-0.6c0.1-0.2,0.1-0.5,0.1-0.8L176.8,35.9z M242.5,30.6
			c0,0.4,0.1,0.7,0.2,0.8c0.1,0.1,0.2,0.3,0.2,0.5l0.1,0.8c0.2,0.3,0.4,0.5,0.6,0.8c0.2,0.2,0.5,0.3,0.9,0.3c0.3,0,0.6,0,0.8,0
			c0.3,0,0.6-0.2,1-0.4c0.6-0.2,0.9-0.6,1-1c0.1-0.4,0.3-0.9,0.6-1.3l0.7-1.2l0.7-1.7c0-0.1,0.2-0.4,0.5-0.9c0.3-0.5,0.5-1,0.7-1.7
			c0.1-0.9,0.2-1.8,0.3-2.8c0.1-1,0.3-1.9,0.3-2.8l0.1-0.7c0.1,0,0.2-0.2,0.2-0.3c0-0.2,0.1-0.4,0.1-0.6c0-0.1,0-0.2,0-0.3
			c0-0.1,0-0.3,0-0.3v-0.3c0-0.3,0.1-0.5,0.1-0.6c0-0.1,0.1-0.2,0.1-0.3c0-0.1,0-0.2,0.1-0.5c0-0.2,0.1-0.6,0.1-1.2l0.3-1.9
			c0-0.2-0.1-0.3-0.1-0.5c0-0.1-0.1-0.3-0.1-0.5c0.1-0.5,0.2-0.8,0.1-1.2c0-0.3,0-0.6,0.1-0.8c0-0.3,0.1-0.5,0.1-0.7
			c0-0.2,0.1-0.4,0.1-0.7c0-0.5-0.1-1.1-0.3-1.7c-0.2-0.5-0.4-0.9-0.6-1.4c-0.1-0.5-0.4-0.7-0.8-0.7c-0.2-0.2-0.4-0.3-0.6-0.3
			c-0.3,0-0.6,0.1-0.9,0.2s-0.7,0.3-1,0.6c-0.3,0.2-0.7,0.5-0.9,0.7c-0.3,0.3-0.4,0.5-0.5,0.7v0.8c-0.2,0.3-0.3,0.6-0.3,1l-0.1,1.2
			c0,0.7-0.1,1.3-0.2,1.7c-0.1,0.5-0.3,1-0.3,1.5l-0.6,2.5v1.5l0.1,0.6c0,0.4-0.1,0.6-0.2,0.8c-0.1,0.1-0.2,0.3-0.2,0.4v0.1
			c0,0,0,0.1-0.1,0.1c0,0-0.1,0.1-0.1,0.2c-0.4,0.2-0.6,0.5-0.6,0.8c0,0.1,0.1,0.2,0.2,0.4c0.1,0.2,0.2,0.3,0.2,0.5
			c-0.2,0.3-0.3,0.5-0.5,0.8c-0.1,0.2-0.2,0.5-0.3,0.7c-0.1,0.2-0.1,0.4-0.1,0.6c0,0.3,0.1,0.6,0.3,0.8c-0.2,0.4-0.4,0.8-0.5,1.2
			c-0.1,0.4-0.1,0.8-0.2,1.3l-0.4,0.8c0,0.1,0.1,0.2,0.1,0.3c0,0,0,0.1,0,0.2v0.8L242.5,30.6z M231.5,19.4c-0.8,0.3-1.5,0.7-2,1
			c-0.3,0.2-0.6,0.4-0.7,0.7c-0.1,0.3-0.2,0.5-0.2,0.8c0,0.7,0.2,1.2,0.5,1.3c0.3,0.1,0.5,0.2,0.6,0.2l0.4-0.1l0.4,0.2l2.9-1.2
			c0.5-0.2,1.2-0.5,2.2-0.9c0.9-0.3,1.7-0.6,2.4-0.8c0.3,0.1,0.6,0.2,0.9,0.2l0.6-0.3c0.1-0.2,0.2-0.4,0.2-0.6
			c0.1-0.1,0.1-0.3,0.2-0.3c0.2-0.5,0.3-0.9,0.3-1.3c0-0.3-0.1-0.6-0.3-0.9c-0.2-0.3-0.5-0.5-1-0.5l-0.3,0.1
			c-0.7,0.1-1.4,0.3-2.2,0.6c-0.8,0.2-1.6,0.5-2.4,0.8C233.1,18.8,232.3,19.1,231.5,19.4z M237.1,30c0.2-0.2,0.5-0.3,0.7-0.5
			c0-0.3,0.1-0.6,0.3-0.7c0.1-0.2,0.2-0.5,0.3-0.8c0-0.1-0.1-0.2-0.3-0.3c-0.1-0.1-0.4-0.3-0.8-0.5c-0.4-0.1-0.6-0.1-0.8-0.1
			c-0.2,0-0.5,0.1-0.7,0.2c-0.3,0.1-0.5,0.2-0.7,0.3c-0.7,0.3-1.4,0.7-2.2,1c-0.8,0.3-1.6,0.7-2.3,1c-0.7,0.3-1.4,0.6-2,0.9
			c-0.6,0.3-1,0.5-1.3,0.6c-0.1-1.1-0.2-2.6-0.2-4.7c0-2-0.1-4.5-0.2-7.3l-0.4-0.1c-0.1-0.1-0.3-0.3-0.5-0.5
			c-0.1-0.1-0.3-0.2-0.3-0.3h-1.4c-0.5,0.1-0.9,0.2-1.2,0.4c-0.3,0.2-0.6,0.6-0.7,1.3c0,0.3-0.1,0.5-0.2,0.8
			c-0.1,0.2-0.2,0.5-0.2,0.7c-0.1,0.2-0.2,0.5-0.3,0.7c-0.1,0.3-0.1,0.5-0.2,0.7c-0.1,0.7-0.2,1.6-0.2,2.8c0,1.2-0.1,2.3-0.1,3.1
			c0,0.5-0.1,1-0.1,1.4c0,0.4,0,0.7,0,0.9c-0.1,0.5-0.1,1-0.1,1.3c0,0.4,0.1,0.7,0.3,1c0.3,0.8,0.6,1.4,1,2c0.4,0.5,1,0.8,1.7,0.8
			c0.5,0,0.9-0.1,1.3-0.3c0.4-0.2,0.8-0.3,1-0.4l0.2-0.1c0.2,0,0.5-0.1,0.8-0.2c0.3-0.1,0.7-0.2,1.1-0.4c0.4-0.1,0.7-0.3,1.1-0.4
			c0.3-0.1,0.6-0.3,0.9-0.4c0.1,0,0.2-0.2,0.4-0.3l0.3,0.1c0.1-0.1,0.3-0.2,0.4-0.3c0.1-0.1,0.3-0.3,0.6-0.5
			c0.9-0.4,1.7-0.8,2.3-1.1c0.6-0.3,1.3-0.7,2.1-1C236.7,30.3,236.9,30.1,237.1,30z M263.1,17.9c-0.4,0-0.8,0-1.4,0.1
			c-0.6,0-1.2,0.2-1.7,0.4c-1.2,0.7-2.2,1.3-3,1.6c-0.8,0.3-1.6,0.6-2.4,0.8c-0.3,0-0.8,0.2-1.4,0.6c-0.3,0.1-0.6,0.2-0.8,0.2
			c-0.2,0.1-0.3,0.4-0.3,0.9c0,0.4,0.1,0.7,0.4,0.9c0.3,0.3,0.9,0.4,1.9,0.5c0.7,0,1.3,0,2.1-0.2c0.7-0.2,1.5-0.4,2.2-0.7
			c0.7-0.3,1.4-0.6,2-0.9c0.6-0.3,1.2-0.6,1.6-0.9c0.3-0.1,0.4-0.3,0.5-0.3c0-0.1,0.1-0.3,0.1-0.6c0.5-0.1,0.8-0.2,0.9-0.5
			c0.1-0.2,0.1-0.5,0-1L263.1,17.9z M225.1,15.9c0.5-0.2,0.8-0.3,1.1-0.3c0.3,0,0.5-0.1,0.8-0.1c0.2,0,0.4-0.1,0.6-0.2
			c0.2-0.1,0.3-0.2,0.5-0.4h0.6l0.3-0.3c0.5-0.2,1.1-0.4,1.8-0.6c0.7-0.2,1.3-0.3,1.8-0.4c0.1,0,0.3,0.1,0.4,0.2
			c0.1,0.1,0.3,0.1,0.6,0h0.8l0.6-0.3c0.1-0.2,0.2-0.3,0.3-0.5c0.1-0.1,0.2-0.2,0.3-0.3l0.2-0.8c0-0.3,0.1-0.5,0.1-0.7
			c0-0.2-0.2-0.6-0.6-1.2c0,0-0.1,0-0.2,0c-0.1,0-0.2,0-0.3,0c-0.2-0.1-0.3-0.1-0.5-0.1c-0.1,0-0.3,0.1-0.5,0.1
			c-2.2,0.4-4.6,1-7,1.7c-2.4,0.7-4.9,1.5-7.3,2.4c-0.6,0.2-1.1,0.6-1.6,1c-0.5,0.4-0.8,0.8-0.8,1.1c-0.1,0.4,0,0.7,0.2,0.9
			c0.2,0.2,0.4,0.4,0.6,0.5c0.2,0.2,0.4,0.3,0.6,0.3c0.2,0,0.4,0,0.6-0.1c0.3-0.1,0.5-0.1,0.6-0.1c0.1,0.1,0.2,0.2,0.2,0.2
			c0,0,0.2,0,0.4,0c1.2-0.4,2.2-0.8,2.9-1C224,16.2,224.6,16,225.1,15.9z M242.3,42.5c-0.1-0.1-0.1-0.3-0.1-0.6
			c0-0.3,0.1-0.5,0.2-0.7c0-0.2,0-0.4,0.1-0.6c0-0.2,0.1-0.5,0.1-0.7c0-0.2,0.1-0.5,0.2-0.8c0-0.2,0.1-0.5,0.1-0.7
			c0-0.2,0.1-0.5,0.1-0.7c0-0.3,0.1-0.5,0-0.6c0-0.1-0.1-0.3-0.2-0.5c-0.1-0.2-0.2-0.5-0.3-0.7c-0.1-0.2-0.2-0.4-0.3-0.7l-0.5-1.2
			l-1-0.6h-1.2c-0.8,0.2-1.3,0.5-1.6,1c-0.2,0.4-0.4,0.7-0.4,1c0,0.3-0.1,0.6-0.1,0.8l-0.3,0.3l-0.1,0.8c0,0.1,0,0.3-0.1,0.6
			c0,0.3-0.1,0.5-0.2,0.8c0,0.3-0.1,0.6-0.1,0.9c0,0.3-0.1,0.6-0.1,0.8v0.4l-0.2,0.4l0.1,0.1c-0.1,0.6-0.3,1.2-0.4,1.9
			c-0.1,0.7-0.2,1.4-0.3,2.1c-0.1,0.7-0.2,1.3-0.2,1.8c-0.1,0.6-0.1,1-0.1,1.2c0,0.1,0,0.2,0.1,0.3c0,0.1,0,0.2,0,0.3
			c0,0.1,0,0.2,0,0.3V50c-0.1,0.5-0.1,0.8,0.1,1c0,0.3,0,0.6,0.1,0.8c0.1,0.2,0.2,0.5,0.4,0.7l0.3,0.3c0.2,0.1,0.4,0.1,0.6,0.1
			c0.2,0,0.4-0.1,0.6-0.2c0.3-0.1,0.6-0.4,1-0.8c0.4-0.4,0.7-0.7,1-1.1h-0.2l0.7-0.8c0.1-0.4,0.2-0.7,0.2-1c0-0.3,0.2-0.5,0.4-0.8
			l0.4-0.9c0.1-0.1,0.2-0.3,0.2-0.6c0.1-0.4,0.2-0.7,0.2-0.9c0-0.2,0.1-0.5,0.1-0.7c0.1-0.5,0.2-0.9,0.4-1.3
			C242.4,43.4,242.4,43,242.3,42.5z M255.1,47.6c-0.3-0.2-0.8-0.3-1.4-0.2c-0.3,0.1-0.6,0.2-0.9,0.2c-0.3,0-0.6,0.1-1,0.2
			c0.1-0.2,0.2-0.5,0.3-0.7c0.1-0.2,0.2-0.4,0.3-0.7c0.2-0.7,0.5-1.3,0.7-1.8c0.2-0.6,0.4-1.1,0.6-1.5l1.3-4.5l0.2-1.5v-1.2
			c0-0.4,0-0.6-0.1-0.8s-0.2-0.3-0.4-0.3l-0.7-0.6c-0.4-0.3-0.8-0.4-1.2-0.3c-1.4,0.4-2.7,0.8-4,1.3c-1.3,0.5-2.4,0.9-3.4,1.3
			l-0.8,0.6c-0.8,0.7-1.1,1.3-1,1.9c0,0.6,0.2,0.9,0.6,1c0.5,0.1,0.8,0.1,0.9,0.1c0.4,0,0.8-0.2,1.1-0.5l0.2-0.1
			c0.7-0.2,1.2-0.4,1.6-0.5c0.4-0.1,0.9-0.3,1.6-0.5l-0.1,0.8l-0.3,1c-0.1,0.6-0.2,1-0.3,1.1c-0.1,0.4-0.3,0.8-0.4,1.3
			c-0.1,0.4-0.2,0.7-0.2,1c0,0-0.1,0.1-0.1,0.1c0,0,0,0.1,0,0.1c0,0,0,0.1,0,0.1c-0.1,0.4-0.3,0.9-0.6,1.7c-0.2,0.7-0.6,2-1.1,3.6
			c-0.5,0.2-1,0.4-1.6,0.6c-0.6,0.2-1.1,0.4-1.7,0.6c-0.4,0.1-0.7,0.4-1,0.8c-0.3,0.4-0.4,0.9-0.3,1.5c0.1,0.4,0.3,0.6,0.6,0.7
			c0.2,0.1,0.7,0.1,1.3,0.1c0.2,0,0.4,0,0.6-0.1c0.1-0.1,0.3-0.2,0.5-0.2L245,53c0.9-0.3,1.8-0.5,2.5-0.8c0.7-0.2,1.6-0.4,2.4-0.6
			c0.2,0,0.3,0,0.5,0c0.1,0,0.3-0.1,0.5-0.3c0.2-0.1,0.4-0.2,0.7-0.2c0.3,0,0.5,0,0.7,0c0.1,0,0.3,0,0.3-0.1
			c0.1-0.1,0.2-0.1,0.3-0.1c0.1,0.1,0.4,0.1,0.7,0.1c0.3,0,0.6-0.2,0.8-0.3c0.4-0.3,0.7-0.6,0.9-0.9c0.2-0.3,0.3-0.8,0.2-1.5
			C255.6,48,255.4,47.8,255.1,47.6z M312.3,20.4l-0.6-1.1c-0.4,0-0.8,0-1.4,0.1c-0.6,0-1.2,0.2-1.7,0.4c-1.2,0.7-2.2,1.3-3,1.6
			c-0.8,0.3-1.6,0.6-2.4,0.8c-0.3,0-0.8,0.2-1.4,0.6c-0.3,0.1-0.6,0.2-0.8,0.2c-0.2,0.1-0.3,0.4-0.3,0.9c0,0.4,0.1,0.7,0.4,0.9
			c0.3,0.3,0.9,0.4,1.9,0.5c0.7,0,1.3,0,2.1-0.2c0.7-0.2,1.5-0.4,2.2-0.7c0.7-0.3,1.4-0.6,2-0.9c0.6-0.3,1.2-0.6,1.6-0.9
			c0.3-0.1,0.4-0.3,0.5-0.3c0-0.1,0.1-0.3,0.1-0.6c0.5-0.1,0.8-0.2,0.9-0.5C312.4,21.2,312.4,20.8,312.3,20.4z M300.5,13.9
			c0.1-0.5,0.2-0.9,0.1-1.2c0-0.3,0-0.5,0.1-0.8c0-0.3,0.1-0.6,0.1-0.8c0-0.2,0.1-0.5,0.1-0.7c0-0.5-0.1-1.1-0.3-1.8
			c-0.2-0.5-0.4-1-0.6-1.6c-0.1-0.5-0.4-0.8-0.7-0.8C299.2,6.1,299,6,298.7,6c-0.3,0-0.6,0.1-0.9,0.2c-0.3,0.2-0.7,0.4-1,0.6
			c-0.3,0.3-0.6,0.5-0.9,0.8c-0.3,0.3-0.4,0.5-0.5,0.8v0.9c-0.2,0.3-0.3,0.6-0.3,1l-0.1,1.3c0,0.8-0.1,1.4-0.2,1.8
			c-0.1,0.4-0.2,1-0.3,1.6l-0.6,2.7v1.6l0.1,0.6c0,0.4-0.1,0.6-0.2,0.8c-0.1,0.2-0.2,0.3-0.2,0.5v0.1c0,0,0,0.1-0.1,0.1
			c0,0-0.1,0.1-0.1,0.2c-0.4,0.3-0.6,0.6-0.6,0.9c0,0.1,0.1,0.2,0.2,0.4c0.1,0.2,0.2,0.4,0.2,0.6l-0.4,0.8c-0.1,0.2-0.2,0.5-0.3,0.7
			c-0.1,0.2-0.1,0.5-0.1,0.7c0,0.4,0.1,0.7,0.2,0.8c-0.2,0.4-0.4,0.8-0.4,1.3c0,0.5-0.1,0.9-0.1,1.4l-0.4,0.8c0,0.1,0.1,0.2,0.1,0.3
			c0,0,0,0.1,0,0.2v0.9l-0.5,2.6c0,0.5,0.1,0.8,0.2,0.9c0.1,0.1,0.2,0.3,0.2,0.5l0.1,0.8c0.2,0.3,0.4,0.5,0.6,0.8
			c0.2,0.3,0.5,0.4,0.9,0.4c0.3,0,0.6,0,0.8-0.1c0.3,0,0.6-0.2,0.9-0.4c0.6-0.2,0.9-0.6,1-1c0.1-0.4,0.3-0.9,0.6-1.4l0.7-1.3
			l0.6-1.8c0-0.1,0.2-0.5,0.5-1c0.3-0.5,0.5-1.1,0.7-1.8c0.1-0.9,0.2-1.9,0.3-3c0.1-1.1,0.2-2.1,0.3-3l0.1-0.8
			c0.1,0,0.2-0.2,0.2-0.3c0-0.2,0.1-0.4,0.1-0.6c0-0.1,0-0.3,0-0.4c0-0.1,0-0.3,0-0.3v-0.3c0-0.3,0.1-0.5,0.1-0.6
			c0-0.1,0.1-0.2,0.1-0.3c0-0.1,0-0.3,0.1-0.5c0-0.2,0.1-0.7,0.1-1.3l0.3-2L300.5,13.9z M286.9,9.8c-0.3-0.1-0.7-0.1-1.2,0.1
			c-0.4,0.2-0.8,0.3-1.1,0.5c-0.4,0.1-0.7,0.4-0.9,0.8c-0.2,0.4-0.4,0.8-0.5,1.3s-0.2,1-0.3,1.5c0,0.5-0.1,1-0.1,1.4l-0.1,0.4
			c-0.2,0.2-0.3,0.6-0.3,1c0.1,0.1,0.2,0.3,0.2,0.5c0,0.2-0.1,0.5-0.3,0.8c-0.2,0.3-0.3,0.5-0.4,0.7l0.1,0.6
			c-1.2,0.1-2.4,0.2-3.4,0.3c-1.1,0.1-2,0.2-2.8,0.4c0-0.2-0.1-0.4-0.1-0.6c0-0.2-0.1-0.4-0.1-0.6c0-0.2-0.1-0.5-0.2-1l0.1-1.1
			c0-0.1-0.1-0.2-0.1-0.4c0-0.2-0.1-0.3-0.1-0.4v-0.3c0-0.1,0-0.2,0-0.3c0-0.1,0-0.2,0-0.3c0-0.1,0-0.3-0.1-0.4
			c0-0.1-0.1-0.3-0.2-0.7v-0.8c0-0.1,0-0.3,0-0.4c0-0.1,0-0.2,0-0.3c0,0-0.1-0.1-0.1-0.1l0.2-0.2c0,0,0-0.2,0-0.3c0-0.2,0-0.3,0-0.3
			c-0.1-0.1-0.1-0.2-0.1-0.4c0-0.2,0-0.4-0.1-0.7c0-0.3-0.1-0.6-0.2-0.9c-0.1-0.3-0.3-0.6-0.5-0.9c-0.2-0.3-0.5-0.4-0.8-0.5
			c-0.7-0.1-1.2,0-1.6,0.3c-0.4,0.3-1,0.9-1.6,1.6c0,0.2,0,0.4,0,0.7c0,0.3-0.1,0.5-0.1,0.8l-0.1,0.9c-0.1,0.4-0.2,0.9-0.2,1.5
			c-0.1,0.7-0.1,1.3,0,2c0,0.4,0,0.7,0.1,1.1c0,0.3,0.1,0.6,0.2,0.9l-0.2,0.7l0.2,0.8c0.2,1.5,0.5,2.8,0.8,4
			c0.3,1.2,0.7,2.4,1.3,3.7c0.3,0.7,0.5,1.2,0.7,1.5c0.2,0.3,0.4,0.6,0.7,0.9c0.2,0.2,0.3,0.5,0.4,0.8c0.1,0.3,0.2,0.5,0.3,0.6
			c0.1,0.1,0.2,0.3,0.3,0.5c0,0.2,0.2,0.4,0.3,0.7c0.2,0.5,0.5,0.8,0.9,0.9c0.3,0.2,0.8,0.4,1.3,0.6c0.3,0.2,0.7,0.4,1.1,0.5
			c0.4,0.1,0.8,0.2,1.2,0.3c0.5,0.1,0.9,0.1,1.3,0.1c0.4,0,0.7-0.2,1-0.6c0.2-0.3,0.4-0.5,0.4-0.7c0-0.2,0-0.4-0.1-0.6
			c0-0.2-0.3-0.4-0.9-0.7c-0.1-0.1-0.3-0.2-0.5-0.2c-0.2-0.1-0.4-0.2-0.6-0.3c-0.1-0.1-0.2-0.3-0.4-0.6c-0.2-0.3-0.5-1-1-2
			c0-0.1-0.1-0.3-0.2-0.5c-0.1-0.2-0.2-0.4-0.3-0.6l-0.2-0.6c-0.2-0.5-0.4-1-0.6-1.6c-0.1-0.6-0.3-1.3-0.5-2
			c0.8-0.1,1.6-0.2,2.5-0.3c0.9-0.1,1.8-0.2,2.6-0.2c-0.1,0.8-0.2,1.6-0.2,2.3c0,0.7-0.1,1.5-0.1,2.2c0,0.7,0,1.5,0.3,2.3
			c0.2,0.8,0.7,1.2,1.3,1.3c1,0.1,1.8,0,2.2-0.3c0.5-0.3,0.7-0.6,0.8-0.9c0.1-0.2,0.2-0.4,0.2-0.6c0.1-0.2,0.2-0.5,0.2-0.7
			c0.1-0.7,0.2-1.5,0.3-2.5c0.1-1,0.2-1.8,0.3-2.4c0.1-0.5,0.2-1,0.2-1.4c0-0.4,0.1-0.8,0.1-1.2c0-0.4,0.1-0.8,0.1-1.2
			c0-0.4,0.1-0.8,0.1-1.2c0-0.5,0-0.8-0.1-0.9c-0.1-0.3-0.1-0.7,0.1-1.1c0.2-0.4,0.3-0.7,0.3-1v-0.6c0-0.3,0-0.7,0-1.2
			c0-0.5,0-1,0-1.5c0-0.7-0.1-1.4-0.2-1.9C287.7,10.2,287.4,9.9,286.9,9.8z M298.4,43.1c-0.2-0.6-0.4-1.1-0.7-1.6
			c-0.3-0.5-0.6-0.9-0.9-1.2c-0.3-0.3-0.6-0.5-0.8-0.6c-0.8,0-1.8,0.2-2.9,0.6c-1.1,0.5-2,1.1-2.6,1.9c-0.5,0.6-1,1.5-1.4,2.7
			c-0.4,1.2-0.7,2.5-0.8,3.8c0,0.4,0,0.9,0.2,1.4c0.2,0.5,0.5,1,0.8,1.5c0.3,0.5,0.7,0.9,1.1,1.3c0.4,0.4,0.7,0.6,1,0.6
			c0.1,0,0.2,0,0.4-0.1c0.2,0,0.4-0.1,0.6-0.1c0.4-0.1,0.7-0.2,1-0.2c0.2,0,0.4,0,0.5,0c0.2,0,0.3,0,0.5,0h0.8
			c0.7-0.5,1.3-1,1.8-1.4c0.4-0.4,0.8-1.1,1.2-2c0.3-0.7,0.5-1.5,0.5-2.4c0.1-0.9,0.1-1.8,0-2.7C298.7,44.1,298.6,43.6,298.4,43.1z
			 M295.4,45.8c-0.1,0.5-0.2,0.9-0.3,1.4c-0.1,0.5-0.3,0.9-0.5,1.3c-0.2,0.4-0.3,0.7-0.5,1c-0.3-0.1-0.6-0.3-0.7-0.7
			c-0.1-0.4-0.2-0.6-0.2-0.7c-0.1-0.2-0.1-0.5,0-0.8c0.1-0.3,0.1-0.5,0.1-0.8c-0.1-0.4-0.2-0.7-0.4-0.9c0.2-0.5,0.4-0.9,0.8-1.3
			c0.3-0.3,0.7-0.5,1.2-0.5c0.4,0,0.6,0.2,0.6,0.7C295.5,44.9,295.5,45.3,295.4,45.8z"/>
	</g>
</g>
</svg>
