<?xml version="1.0" encoding="utf-8"?>
<!-- Generator: Adobe Illustrator 22.0.1, SVG Export Plug-In . SVG Version: 6.00 Build 0)  -->
<svg version="1.1" id="레이어_1" xmlns="http://www.w3.org/2000/svg" xmlns:xlink="http://www.w3.org/1999/xlink" x="0px"
	 y="0px" viewBox="0 0 210 60" style="enable-background:new 0 0 210 60;" xml:space="preserve">
<style type="text/css">
	.st0{fill:#FFFFFF;}
</style>
<g>
	<g>
		<path class="st0" d="M2.1,33.8c0.4,0,0.9,0,1.6-0.1c0.6-0.1,1.1-0.4,1.5-0.9c0.6-0.1,1.2-0.6,1.9-1.3c0.7-0.7,1.4-1.6,2.3-2.6
			c0.8-1,1.4-1.7,1.7-2c0.3-0.3,0.6-0.6,0.8-0.8l0.7-0.7c0.3-0.4,0.7-0.8,1.1-1.3c0.4-0.5,0.8-1.1,1.2-1.8l0.3-0.1l0.3-0.1l0.6-0.6
			l0.4-0.7l0.1-0.2l0.6-0.6l0.4-1l0.3-0.8c0-0.3-0.1-0.6-0.2-0.9c-0.1-0.3-0.4-0.8-0.8-1.3c-0.2-0.1-0.5-0.2-0.8-0.2
			c-0.3,0-0.6-0.1-0.9-0.1l-0.5-0.1c-1.7,0.1-3.6,0.4-5.6,0.8c-2,0.5-3.8,1-5.3,1.5c-0.7-0.1-1.2,0.1-1.8,0.6
			c-0.5,0.5-0.8,0.9-0.8,1.4c0,0.2,0,0.4,0.1,0.6c0.1,0.2,0.3,0.3,0.4,0.4c0.1,0.1,0.3,0.2,0.6,0.4c0.2,0.1,0.5,0.2,0.7,0.2
			c0.1,0,0.2,0,0.2,0c0.1,0,0.2,0,0.3,0c1.2-0.4,2.6-0.8,4.3-1.3c1.6-0.5,3.1-0.8,4.5-1c-0.3,0.4-0.6,0.9-1,1.4
			c-0.4,0.5-0.8,1-1.2,1.5c-0.4,0.5-0.8,1-1.3,1.5c-0.4,0.5-0.8,0.9-1.1,1.3c-0.7,0.8-1.3,1.5-1.9,2c-0.5,0.5-1.1,1.1-1.6,1.8
			L3,29.3v0.6l-0.9,0.8C2,30.9,1.8,31,1.6,31.2c-0.3,0.1-0.4,0.4-0.5,0.6c0,0.2,0,0.5,0.1,0.7c0.1,0.2,0.2,0.4,0.4,0.7
			C1.8,33.4,2,33.6,2.1,33.8z M27.4,31.3c-0.1,0-0.2,0-0.3,0c-0.2,0-0.4-0.1-0.6-0.1c-0.2,0-0.5,0-0.7,0.1c-1.6,0.2-3.4,0.4-5.2,0.8
			c-1.8,0.3-3.7,0.7-5.5,1.1c-1.8,0.4-3.6,0.9-5.4,1.3c-1.8,0.4-3.4,0.9-4.9,1.4c-0.7,0.2-1.3,0.5-2,0.8c-0.7,0.4-1,0.8-1.1,1.2
			c-0.2,0.5-0.1,0.9,0.3,1.3c0.4,0.4,0.7,0.5,0.8,0.5h0.5c0.2,0,0.3,0,0.4-0.1c0.1,0,0.3-0.1,0.5-0.1c0.2,0,0.4,0,0.6,0.1
			c0.2,0.1,0.5,0.2,1,0.2l4.9-1.3l0.9-0.3c0.3-0.1,0.7-0.3,1.1-0.4c0.4-0.1,0.9-0.2,1.4-0.1c0.5,0,0.9-0.1,1.2-0.4
			c-0.3,0.9-0.5,1.9-0.8,2.9c-0.2,1-0.3,2-0.2,2.8c-0.1,0.4-0.2,0.7-0.2,1v0.6c0,0.1,0.1,0.3,0.2,0.6c0.1,0.3,0.3,0.6,0.5,0.8
			c0.1,0.1,0.4,0.3,0.9,0.5c0.4,0.2,0.8,0.2,1.2,0.1c0.6-0.1,1.1-0.4,1.6-0.7c0.4-0.3,0.7-1.1,0.7-2.1c0-0.6,0.2-1.3,0.4-2.2
			c0.1-0.3,0.2-0.6,0.2-0.9c0-0.3,0.1-0.7,0.1-1c0-0.3,0.1-0.7,0.1-1.3c0-0.5,0-1,0-1.5c0-0.1,0-0.4-0.1-0.8
			c0.5-0.1,1.1-0.2,1.6-0.3c0.6-0.1,1.1-0.2,1.6-0.3l1.3-0.1c0.3,0,0.6,0,0.9,0.1c0.3,0.1,0.6,0.1,0.9,0l0.4-0.3
			c0.2-0.3,0.5-0.5,0.9-0.5c0.1-0.5,0.2-0.8,0.2-0.9c0-0.1,0.1-0.2,0.1-0.3c0.2-0.6,0.1-1.3-0.3-2C27.5,31.4,27.5,31.4,27.4,31.3z
			 M23.4,54.4v-1c0.2-0.5,0.3-1,0.3-1.4c0-0.4,0-0.8-0.1-1.2c0-0.3-0.1-0.5-0.1-0.8v-1.2c0-0.5-0.1-0.9-0.2-1.2
			c-0.1-0.3-0.5-0.6-1.2-1c-1.5,0.1-2.4,0.2-2.7,0.3c-0.4,0.1-0.7,0.2-0.8,0.2l-1.1,0.3l-0.9,0.3l-0.4,0.1c-1,0.2-2,0.4-2.9,0.8
			c-0.9,0.3-1.7,0.6-2.4,0.8l-1.1,0.3l-0.7,0.7c0,0.2,0,0.4-0.1,0.5c-0.1,0.5-0.1,0.9-0.1,1.4c0,0.5,0.5,0.8,1.3,0.9
			c0.5-0.2,1.1-0.4,1.8-0.6c0.7-0.2,1.3-0.4,1.9-0.6l1-0.1l0.8-0.2h0.5l0.9-0.2c0.1,0.3,0.1,0.5,0.1,0.6v0.2c0,0.4,0,0.7,0,0.9
			c0,0.2,0.1,0.4,0.1,0.6c0,0.4,0,0.7,0,0.9c0,0.1-0.1,0.3-0.1,0.5c0,0.3,0,0.5,0.1,0.9c0,0.3,0.1,0.6,0.1,0.9
			c0,0.3,0.1,0.5,0.1,0.7c-0.1,0.3,0,0.7,0.1,1c0.2,0.3,0.8,0.6,1.8,0.8c0.1,0,0.2-0.1,0.4-0.1c0.2,0,0.5-0.1,0.9-0.2
			c0.5-0.1,1-0.2,1.5-0.5c0.5-0.2,0.8-0.5,0.9-0.9l0.3-0.3c-0.1-1-0.2-1.7-0.2-2c0-0.4-0.1-0.6-0.1-0.7l0.1-0.4L23.4,54.4z M16.3,23
			c-0.2,0.1-0.4,0.2-0.7,0.3c-0.3,0.1-0.4,0.4-0.5,0.8c0,0.2,0.1,0.5,0.3,0.7c0.2,0.2,0.4,0.4,0.7,0.6l0.7,0.4
			c0.8,0.5,1.8,1,2.9,1.6c1.1,0.5,2.2,1,3.3,1.5c0.1,0,0.2,0.1,0.3,0.1c0.1,0,0.2,0.1,0.2,0.1c0,0,0.2,0,0.4,0.1l0.6,0.1
			c0.2,0.1,0.4,0.2,0.6,0.2c0.2,0,0.5,0,0.9-0.1l0.8,0.1c0-0.4,0-0.8,0.1-1.2c0.1-0.4,0.1-0.8,0-1.2l-1-0.8l-0.3-0.3
			c-0.1-0.1-0.2-0.2-0.3-0.2c-0.1-0.1-0.2-0.2-0.3-0.2c-0.1-0.1-0.3-0.3-0.5-0.4c-0.3-0.1-0.5-0.3-0.8-0.4c-0.3-0.1-0.6-0.3-0.9-0.5
			l-0.9-0.6l-0.5-0.1c-0.9-0.4-1.6-0.7-2.2-0.8L18.7,23l-1.4-0.1L16.3,23z M9,11.4v0.9c0,0.5,0.1,1,0.4,1.3L9.7,14
			c0.5,0,1-0.1,1.5-0.4c0.5-0.3,1-0.7,1.5-1.3l0.3-0.6c0.1-0.2,0.2-0.5,0.4-0.9c0.2-0.4,0.4-0.9,0.6-1.5c0-0.1,0-0.2,0-0.3
			c0-0.1,0-0.2,0-0.3C14,8.3,14.1,8,14.2,8c0.1-0.1,0.2-0.3,0.2-0.6c0-0.2,0-0.5-0.1-0.7c0-0.2-0.1-0.4-0.1-0.5c0,0,0-0.2,0-0.4
			c0-0.2,0.1-0.5,0.2-0.8c0-0.2,0.1-0.4,0.1-0.6c0-0.2,0.1-0.5,0.1-0.7c0-0.2,0-0.5-0.1-0.9c-0.1-0.4-0.3-0.8-0.5-1.1
			c-0.2-0.4-0.5-0.7-0.8-0.9c-0.3-0.3-0.7-0.4-1.1-0.5c-0.4,0-0.8,0.1-1,0.2c-0.3,0.2-0.5,0.3-0.6,0.6c-0.1,0.2-0.2,0.4-0.3,0.6
			C10.1,1.8,10,1.9,10,2L10,2.4L9.7,3.2c-0.1,0.6-0.2,1-0.2,1.3c0,0.2-0.1,0.4-0.1,0.6L9.4,5.6v0.6C9.3,6.6,9.2,7,9.1,7.6
			C9,8.1,9,8.7,8.9,9.2c0,0.5,0,0.9,0,1.2C9,10.6,9,11,9,11.4z M69.1,14.1c-0.1-0.2-0.2-0.5-0.3-0.7c-0.1-0.2-0.3-0.5-0.5-0.9
			l-0.3-0.4c-0.1-0.2-0.3-0.4-0.3-0.5c-0.1-0.2-0.4-0.3-0.8-0.5c-0.4,0.1-0.7,0.2-0.8,0.4c-0.2,0.2-0.4,0.3-0.5,0.5L65,12.5
			c-0.4,0.5-0.6,0.9-0.7,1.2c-0.1,0.3-0.1,0.5-0.1,0.8l-0.6,0.6l-0.2,1c-0.3,0.9-0.6,2.1-0.7,3.5c-0.2,1.4-0.3,2.8-0.5,4.2
			c-0.1,0.2-0.2,0.5-0.2,0.8c-0.1,0.3-0.1,0.7-0.2,1.1c-1.8,0.4-3.4,0.8-4.8,1.2c-1.4,0.4-2.5,0.7-3,1c-0.2,0.1-0.3,0.2-0.5,0.3
			c-0.1,0.1-0.2,0.2-0.3,0.3c0,0-0.2,0.1-0.3,0.1c-0.3,0-0.6,0.1-0.9,0.2c-0.3,0.1-0.4,0.5-0.4,1.1c0,0.4,0.1,0.8,0.4,1.2
			c0.2,0.4,0.9,0.7,2,0.9c0.3,0,0.7,0,1.1-0.2c0.4-0.2,0.7-0.3,0.8-0.5c0.7-0.2,1.5-0.5,2.4-0.7c0.9-0.2,1.8-0.5,2.8-0.7v0.1
			c0,0.3-0.1,0.6-0.1,1v2.5c0,0.3-0.1,0.6-0.1,0.9c0,0.3-0.1,0.6-0.1,0.9c-0.1,0.9-0.2,1.8-0.3,2.8c-0.1,1-0.1,2,0,3.1
			c0,0.4-0.1,0.8-0.1,1.3c0,0.4-0.1,0.8-0.1,1.2c0,0.2-0.1,0.4-0.1,0.7c0,0.3,0,0.6,0,0.9c-0.5,1.7-0.7,2.9-0.7,3.6
			c0,0.7,0,1.5,0,2.2v2c1,0.1,2,0,2.8-0.3c0.9-0.3,1.5-0.8,1.9-1.6c0.4-0.3,0.8-0.8,1.2-1.5c0.4-0.7,0.8-1.3,1.1-2l-0.1-0.3l0.2-0.2
			l-0.1-0.8c0.2-1.3,0.4-2.6,0.6-4c0.2-1.4,0.2-2.5,0.2-3.4c0,0-0.1-0.1-0.1-0.2c0-0.1-0.1-0.2-0.1-0.3l0.6-1c0-0.5,0.1-1,0.1-1.5
			v-2.1c0-0.3,0-0.5,0.1-0.7c0.3-0.5,0.5-1.1,0.5-1.6c0-0.6,0-1,0-1.4v-0.3l0.1-0.3c0-0.2,0.1-0.5,0.1-0.9c0-0.4,0.1-1,0.1-1.8
			c0-0.5,0.1-1,0.1-1.6c0-0.6,0.1-1.1,0.2-1.6c0-0.3,0.1-0.6,0.1-0.9c0-0.3,0.1-0.6,0.2-0.9c0.1-0.7,0.2-1.2,0.2-1.7s0-1-0.3-1.4
			c0.2-0.4,0.3-0.8,0.3-1c0-0.3-0.1-0.5-0.2-0.8c0.2-0.2,0.3-0.4,0.4-0.5c0.1-0.1,0.1-0.3,0.1-0.5l-0.4-0.8
			C69.3,15,69.2,14.6,69.1,14.1z M46.9,26.5v-0.1l0.5-0.2c0.1-0.8,0.2-1.5,0.2-2.1c0-0.5-0.2-1.1-0.5-1.8c-0.4-0.7-1.1-1-2.1-1
			c-1,0-1.9,0.1-2.8,0.2c-0.8,0.1-1.8,0.3-2.8,0.6c-0.6,0.2-1.1,0.3-1.6,0.4c-0.5,0.1-1.1,0.2-1.7,0.5h-0.3
			c-0.5,0.1-0.9,0.4-1.3,0.7c-0.3,0.3-0.5,0.8-0.5,1.2c0,0.3,0.1,0.6,0.4,0.9c0.3,0.3,0.8,0.5,1.7,0.5c0.1,0,0.4-0.1,0.7-0.2
			c0.3-0.1,0.6-0.1,0.9-0.2c0.3-0.1,0.6-0.1,0.8-0.2c0.3-0.1,0.4-0.1,0.5-0.1c0.2,0,0.5-0.1,0.9-0.3c0.2-0.1,0.6-0.2,1.1-0.2
			s1.1-0.2,1.8-0.3c-0.6,1.7-1.3,3.4-2.1,5c-0.8,1.6-1.6,3.1-2.4,4.6l-0.4,0.3c-0.5,0.8-0.9,1.6-1.3,2.5c-0.4,0.9-1,1.6-1.7,2.1
			l0.1,0.5L34,40.5V41c-0.4,0.2-0.6,0.5-0.6,0.8c0,0.5,0.1,0.9,0.3,1.2c0.2,0.3,0.4,0.5,0.7,0.7c0.2,0.1,0.5,0.2,0.9,0.3
			c0.3,0,0.7-0.1,1.2-0.3c0.5-0.2,0.7-0.5,0.8-0.7l0.8-0.6c0.5-0.7,1-1.5,1.5-2.3c0.5-0.8,0.9-1.5,1.3-2.2c0.5-0.8,0.9-1.4,1.1-1.7
			c0.2-0.3,0.3-0.5,0.4-0.8v-0.3l0.6-0.3c0.3-0.3,0.6-0.7,0.7-1c0.1-0.4,0.3-0.7,0.4-1.1c0.1-0.3,0.2-0.7,0.4-1
			c0.1-0.3,0.3-0.7,0.6-0.9c0.8-1.4,1.3-2.4,1.5-3C46.8,27,46.9,26.6,46.9,26.5z M78.8,17.4c0-0.1-0.1-0.3-0.1-0.5
			c0.1-0.7,0-1-0.2-1.2c-0.2-0.1-0.5-0.3-0.7-0.4l-0.3-0.1c-0.3-0.4-0.6-0.5-0.9-0.3c-0.3,0.2-0.6,0.4-0.8,0.6l-0.2,0.2
			c-0.3,0.2-0.6,0.5-0.8,0.7c-0.3,0.3-0.5,0.5-0.6,0.7v0.8L74,18.5c-0.3,0.7-0.4,1.3-0.4,1.8c0,1.4-0.1,2.4-0.2,3.3
			c-0.1,0.8-0.2,1.6-0.3,2.4c-0.1,0.4-0.2,0.7-0.2,1.1c0,0.3-0.1,0.7-0.2,1.2c0,0.9,0,1.5,0,1.7c0,0.3-0.1,0.6-0.1,0.9
			c0,0.2,0,0.5-0.1,0.7c-0.1,0.2-0.2,0.4-0.4,0.6c-0.1,0.2-0.2,0.4-0.2,0.6c0,0.3,0.1,0.6,0.3,0.8c0,0.4-0.1,0.6-0.2,0.8
			c-0.1,0.1-0.2,0.3-0.2,0.6c0,0.4,0,0.7,0,0.9c0,0.3,0.1,0.5,0.1,0.6c-0.2,0.1-0.4,0.2-0.5,0.3c-0.1,0.1-0.1,0.3,0.1,0.7
			c0,0.7,0,1.6,0,2.4c0,0.9-0.3,1.7-0.6,2.4c0,0.1,0,0.2,0,0.4c0,0.2,0,0.4,0,0.8v2.1c0,0.5,0,0.8-0.1,0.9c-0.2,0.2-0.3,0.5-0.3,0.7
			c0,0.2,0,0.4,0,0.6c0,0.2,0,0.4,0,0.5c0,0.1,0.1,0.2,0.2,0.5l0.6,1.5c0.2,0.3,0.6,0.6,1.1,0.7c0.1,0,0.4,0,0.8-0.1
			c0.5,0,0.8-0.2,1-0.4c0.2-0.2,0.5-0.5,0.7-1c0.2-0.5,0.4-1.1,0.6-1.9l0.3-0.2c0.2-0.6,0.4-1.2,0.5-1.8c0.1-0.6,0.2-1.2,0.3-1.9
			c0-0.4,0.1-0.7,0.3-1c0.2-0.3,0.3-0.7,0.3-1.1c0.1-1.4,0.2-2.7,0.3-4.1c0.1-1.4,0.2-2.6,0.3-3.7c0-0.2,0-0.4,0.1-0.5
			c0-0.2,0.1-0.3,0.1-0.5c0-0.2,0.1-0.3,0.1-0.4l-0.1-0.6c0.1-0.1,0.2-0.3,0.2-0.5c0-0.2,0.1-0.5,0.1-0.7c0-0.3,0.1-0.6,0.1-1
			c0-0.3,0.1-0.6,0.1-1c0-0.4,0.1-0.7,0.1-1.1c0-0.4,0.1-0.8,0.1-1.4c0-0.6,0.1-1.1,0.1-1.6l-0.3-0.3c0.2-0.8,0.3-1.5,0.2-2
			c0-0.2,0.1-0.4,0.1-0.6c0-0.1,0-0.3,0-0.6c0-0.3,0-0.5,0.1-0.8c0-0.3-0.1-0.5-0.2-0.6c0.1-0.1,0.2-0.3,0.3-0.6
			c0-0.2,0-0.5-0.1-0.8C79,17.9,78.9,17.7,78.8,17.4z M52.8,38.7c-0.2-0.4-0.5-0.9-0.8-1.3c-0.3-0.5-0.6-1-0.9-1.5
			c-0.4-0.5-0.7-0.8-0.9-1.1c-0.2-0.3-0.5-0.5-0.7-0.8c-0.2-0.3-0.4-0.4-0.5-0.5l-0.4-0.4c-0.3-0.2-0.5-0.4-0.6-0.4
			c-0.1,0-0.2-0.1-0.4-0.2c-0.2,0-0.4,0-0.6,0.1c-0.2,0-0.4,0.1-0.6,0.1l-0.6,0.6c-0.3,0.3-0.4,0.5-0.5,0.7c0,0.2-0.1,0.4-0.1,0.6
			c0,0.1,0,0.2,0,0.2c0,0,0,0.1,0,0.1v0.9c0,0.1,0,0.3,0.1,0.4c0,0.1,0.1,0.3,0.1,0.5l0.4,0.4c0.1,0.2,0.2,0.5,0.4,0.9
			c0.2,0.4,0.4,0.6,0.6,0.8l0.1,0.3c0.1,0.1,0.3,0.3,0.5,0.6c0.3,0.3,0.4,0.4,0.3,0.4c0.3,0.5,0.6,0.9,1,1.4c0.4,0.4,0.8,0.8,1.2,1
			c0.5,0.3,0.8,0.6,1.1,0.8c0.3,0.2,0.6,0.3,0.8,0.5c0.3,0.1,0.5,0.2,0.6,0.2l0.4-0.2c0.1-0.1,0.3-0.7,0.5-1.8
			c0.1-0.5,0.1-0.9-0.1-1.4C53.4,40.1,53.1,39.5,52.8,38.7z M102.9,11.6c-0.1-0.3-0.4-0.6-0.7-0.9c-0.4,0.1-0.7,0.3-0.9,0.5
			c-0.2,0.2-0.4,0.3-0.5,0.5l-0.5,0.5c-0.4,0.4-0.7,0.8-0.8,1.2c-0.1,0.3-0.2,0.7-0.3,1l-0.6,0.1c-0.2,0.5-0.4,0.9-0.4,1
			c0,0.2-0.1,0.4-0.1,0.6c-0.7,1.5-1.2,2.9-1.6,4.3c-0.4,1.4-0.9,2.8-1.4,4.1c-0.2,0.3-0.5,0.8-0.8,1.4c-0.3,0.6-0.5,1.3-0.6,2.1
			c-0.1,0.4-0.3,0.7-0.4,1c-0.1,0.3-0.2,0.6-0.4,0.8c-0.1,0.2-0.2,0.5-0.3,0.8c-0.1,0.3-0.3,0.6-0.4,0.8c-0.1,0.3-0.3,0.7-0.4,1
			c-0.1,0.4-0.2,0.7-0.3,1.1c-0.1,0.5-0.2,0.8-0.2,1.1c0,0.3-0.1,0.4-0.1,0.5c-0.1,0.4-0.3,0.9-0.5,1.4c-0.2,0.6-0.4,1.1-0.5,1.5
			c-0.4,1-0.7,2-1,3c-0.3,1-0.5,2-0.7,3c-0.4,1.4-0.6,2.2-0.7,2.4c-0.4,0.7-0.7,1.4-0.8,2c-0.7,1.5-1.1,2.7-1.4,3.7
			c-0.3,1-0.5,1.9-0.7,2.8c-0.1,0.3-0.2,0.7-0.3,1.2c-0.1,0.5-0.2,0.9-0.3,1.3c0.8,0.4,1.6,0.5,2.5,0.3c0.8-0.1,1.5-0.6,2.1-1.5
			c0.4-0.2,0.9-0.7,1.4-1.3c0.5-0.7,1-1.4,1.4-2.2l0.3-0.1l0.1-1.5c0.1-0.2,0.2-0.5,0.3-0.8c0.1-0.3,0.2-0.6,0.3-0.9
			c0.5-1.2,1-2.3,1.3-3.4c0.4-1.1,0.7-2,0.8-2.8l-0.2-0.6c0.1-0.1,0.2-0.3,0.4-0.5c0.1-0.1,0.2-0.3,0.3-0.4c0.1-0.1,0.2-0.3,0.3-0.3
			c0.1-0.5,0.3-0.9,0.3-1.3c0.1-0.4,0.2-0.8,0.3-1.1c0.1-0.5,0.3-1,0.4-1.4c0.1-0.4,0.3-0.8,0.4-0.9c0.4-0.5,0.6-1.1,0.8-1.6
			c0.1-0.6,0.3-1.1,0.3-1.4c0.2-0.7,0.5-1.4,0.7-2c0.2-0.6,0.4-1.2,0.6-1.9c0.2-0.9,0.5-1.7,0.7-2.5c0.3-0.7,0.5-1.3,0.6-1.7
			c0.1-0.6,0.3-1.2,0.5-1.7c0.2-0.5,0.3-1.1,0.4-1.7v-1.6l0.6-2.4l0.7-1l-0.1-1.1c0-0.3,0.1-0.8,0.4-1.4c0.1-0.2,0.2-0.5,0.2-0.7
			c0.1-0.2,0.1-0.5,0.1-0.9c-0.2-0.1-0.3-0.3-0.3-0.6C103.1,12.3,103,12,102.9,11.6z M117.2,17.4c0,0.1,0.1,0.4,0.1,0.8
			c0,0.4,0.1,0.7,0.2,0.9c0.1,0.3,0.2,0.5,0.5,0.7l0.3,0.3c0.5,0,1-0.2,1.6-0.6c0.6-0.4,1-0.8,1.2-1.2c0.2-0.2,0.4-0.5,0.5-0.8
			c0.1-0.3,0.2-0.7,0.3-1c0-0.1,0-0.2,0-0.2c0-0.1,0.1-0.2,0.2-0.5c0-0.4-0.1-0.7,0-0.7c0-0.1,0.1-0.2,0.1-0.2
			c0-0.1,0.1-0.3,0.1-0.4c0-0.1,0.1-0.3,0.1-0.5c-0.1-0.3-0.2-0.6-0.2-0.9c0,0,0-0.2,0-0.4c0-0.2,0.1-0.5,0.1-0.7
			c0.1-0.5,0.1-0.9,0.1-1.2c0-0.2,0-0.4-0.1-0.5c0-0.1-0.1-0.2-0.2-0.3l-0.1-0.1l-0.2-0.6c-0.1-0.2-0.4-0.5-0.8-0.8
			c-0.4-0.3-0.9-0.5-1.2-0.5c-0.9,0-1.4,0.2-1.6,0.7c-0.2,0.5-0.3,0.9-0.3,1c-0.1,0.8-0.2,1.4-0.2,1.7c0,0.3-0.1,0.8-0.2,1.3v0.7
			c-0.1,0.3-0.2,0.7-0.2,1.1c0,0.4-0.1,0.9-0.1,1.4c0,0.5,0,0.8,0,1C117.1,17.1,117.1,17.2,117.2,17.4z M153.3,17.2
			c0-0.1,0-0.3-0.1-0.5c-0.1-0.2-0.2-0.5-0.3-0.9c0-0.5-0.2-0.9-0.6-1.2c-0.3-0.3-0.7-0.4-1.2-0.4c-0.4,0-0.8,0.2-1.2,0.5
			c-0.4,0.3-0.7,0.5-0.9,0.8l-0.3,0.3c-0.1,0.2-0.1,0.4-0.1,0.5v0.4c-0.2,0.6-0.3,1.1-0.3,1.5l-0.1,0.2c-0.1,1.2-0.2,2.2-0.2,2.8
			c-0.1,0.7-0.2,1.4-0.3,2.1c0,0.2-0.1,0.4-0.1,0.6c0,0.2-0.1,0.4-0.1,0.6v1c0,0.3,0,0.7-0.1,1.1c-1.5,0.3-2.9,0.6-4.2,0.9
			c-1.3,0.3-2.4,0.6-3.3,0.9c0-0.2,0.1-0.4,0.1-0.5v-0.4l0.1-0.7c0-0.2,0.1-0.4,0.1-0.7c0-0.3,0-0.7,0-1.2c0-0.3,0.1-0.6,0.1-1
			c0-0.4,0.1-0.8,0.2-1.2c0-0.5,0.1-1,0.2-1.3c0.1-0.4,0.2-0.8,0.2-1.2c0-0.4,0-0.8-0.1-1.1c0.2-0.5,0.2-0.9,0.1-1.3l0.3-1l-0.4-0.6
			c-0.1-0.1-0.2-0.2-0.2-0.4c0-0.2-0.1-0.3-0.1-0.4c-0.1-0.4-0.3-0.9-0.6-1.3l-0.3-0.2c-0.1-0.1-0.3-0.3-0.5-0.5
			c-0.2-0.2-0.4-0.3-0.8-0.4c-0.6,0.1-1,0.4-1.3,0.7l-0.3,0.3c-0.4,0.4-0.6,0.7-0.7,0.9s-0.1,0.4,0,0.6l-0.6,0.3
			c-0.1,0.2-0.1,0.4-0.1,0.5v0.5c-0.3,0.8-0.5,1.7-0.7,2.6c-0.1,0.9-0.2,1.9-0.3,2.9c-0.1,0.2-0.2,0.6-0.3,1c-0.1,0.5-0.2,1-0.1,1.5
			c0,0.2-0.1,0.3-0.1,0.4c0,0.1,0,0.2-0.1,0.3c-0.2,0.6-0.3,1.1-0.4,1.6c-0.1,0.5-0.1,1-0.1,1.6v0.8l-0.2,1.4
			c-0.1,0.6-0.2,1.2-0.2,1.8c-0.1,0.6-0.1,1.3,0,2c0,0.4,0,0.8-0.1,1V36c-0.1,0.2-0.2,0.5-0.2,0.8c0,0.3,0,0.6,0.1,0.8
			c-0.4,1.1-0.6,1.9-0.6,2.5c0,0.5,0,1,0.1,1.4v1.8c0.9,0.1,1.8,0,2.6-0.1c0.8-0.2,1.3-0.6,1.7-1.3c0.4-0.2,0.7-0.6,1.1-1
			c0.4-0.4,0.6-0.9,0.9-1.4l0.1-1.1c0-0.2,0.1-0.5,0.1-0.7c0-0.2,0.1-0.5,0.1-0.7c0.1-0.8,0.3-1.5,0.4-2c0.1-0.6,0.1-1.1,0.1-1.7
			l-0.3-0.3l0.1-0.1c0.3,0,0.7-0.1,1-0.2c0.3-0.1,0.6-0.2,0.7-0.4c0.8-0.3,1.7-0.6,2.8-0.8c1.1-0.3,2.2-0.5,3.3-0.8v0.1l-0.4,0.9
			c0,0.5,0,1.1,0,1.8c0,0.7-0.2,1.3-0.4,1.8c0,0.2-0.1,0.3-0.1,0.5c0,0.1,0,0.3,0,0.4v1.8c0,0.2,0,0.4-0.1,0.4
			c-0.1,0.3-0.2,0.5-0.2,0.5c0,0.1,0,0.2,0,0.3c0,0.2,0,0.5,0.2,1l0.6,1.1c0.1,0.1,0.2,0.3,0.4,0.4c0.1,0.1,0.4,0.2,0.8,0.2
			c0.1,0,0.4,0,0.8-0.1s0.7-0.2,0.9-0.2c0.2-0.1,0.4-0.5,0.7-0.9c0.3-0.5,0.4-0.9,0.4-1.3l0.2-0.2c0.3-0.8,0.5-1.3,0.5-1.6
			c0-0.3,0.1-0.5,0.2-0.9c0.1-0.5,0.2-0.9,0.3-1.3c0.1-0.3,0.2-0.6,0.3-0.7c0.1-0.6,0.2-1.2,0.2-1.9c0-0.6,0.1-1.2,0.1-1.9
			c0-0.5,0.1-1,0.2-1.6c0.1-0.5,0.2-1.2,0.2-2c0.1-0.1,0.2-0.2,0.3-0.4c0-0.2,0.1-0.4,0.1-0.6v-0.8c0-0.4,0.1-0.9,0.1-1.4
			c0-0.5,0.2-1.3,0.3-2.3c0,0-0.1-0.1-0.1-0.2c0-0.1-0.1-0.2-0.2-0.2c0.1-0.5,0.2-0.9,0.2-1.3c0-0.3,0-0.6,0-0.8
			c0-0.2,0.1-0.4,0.2-0.7c0-0.2-0.1-0.4-0.3-0.6c0-0.1,0.1-0.2,0.1-0.3C153.2,17.4,153.2,17.3,153.3,17.2z M126.2,21.2
			c-0.2,0-0.5,0-0.8,0c-2.2,0.3-4.6,0.8-7.1,1.4c-2.5,0.6-4.9,1.3-7.4,2.1c-0.6,0.3-1.1,0.6-1.6,1c-0.5,0.4-0.9,0.7-0.9,1
			c0,0.4,0,0.7,0.2,0.9c0.2,0.3,0.4,0.4,0.5,0.5c0.4,0.3,0.8,0.3,1.3,0.2c0.2-0.1,0.4-0.2,0.6-0.1c0.1,0.1,0.2,0.2,0.2,0.2
			c0,0,0.2,0,0.4,0c1.2-0.4,2.2-0.7,3-0.9c0.8-0.2,1.4-0.4,1.9-0.6c0.5-0.1,0.8-0.2,1.1-0.3c0.3,0,0.5-0.1,0.8-0.1
			c0.2,0,0.4-0.1,0.6-0.2c0.2-0.1,0.3-0.2,0.5-0.4h0.7l0.6-0.5c1-0.2,1.8-0.4,2.5-0.5c0.7-0.1,1.3-0.1,2-0.1l1.1,0.1
			c0.4-0.3,0.6-0.6,0.8-0.9c0.1-0.3,0.3-0.6,0.3-0.8c0.1-0.3,0.1-0.5,0.1-0.7c0-0.2-0.2-0.6-0.6-1.2
			C126.7,21.3,126.5,21.2,126.2,21.2z M124.6,31.8c-0.2-0.5-0.5-1-0.8-1.4c-0.3-0.4-0.6-0.8-0.9-1.1c-0.3-0.3-0.6-0.5-0.9-0.5
			c-0.4,0-0.9,0-1.4,0.1c-0.5,0.1-1,0.2-1.6,0.4c-0.5,0.2-1,0.4-1.5,0.7c-0.5,0.3-0.9,0.5-1.2,0.9c-0.5,0.6-1,1.4-1.5,2.4
			c-0.5,1-0.8,2.2-0.9,3.3c0,0.4,0,0.8,0.3,1.3c0.2,0.5,0.5,1,0.9,1.4c0.4,0.4,0.7,0.8,1.1,1.1c0.4,0.3,0.8,0.4,1.1,0.4
			c0.3,0,0.5,0,0.5,0c0.1,0,0.2-0.1,0.5-0.1c0.2,0,0.4,0,0.7-0.1c0.1,0,0.3-0.1,0.4-0.1h1.9c0.7-0.4,1.4-0.8,1.9-1.2
			c0.5-0.4,0.9-1,1.3-1.9c0.3-0.7,0.5-1.3,0.6-2c0.1-0.7,0.1-1.5,0-2.4C124.9,32.8,124.8,32.3,124.6,31.8z M121.4,34.1
			c-0.1,0.4-0.3,0.8-0.4,1.2c-0.2,0.4-0.3,0.8-0.5,1.2c-0.2,0.4-0.3,0.7-0.5,0.8c-0.4-0.1-0.6-0.3-0.8-0.6c-0.2-0.3-0.2-0.5-0.2-0.6
			v-0.4c0.1-0.4,0.1-0.7,0.1-0.9c-0.1-0.4-0.2-0.7-0.4-0.8c0.2-0.4,0.5-0.7,0.9-1c0.4-0.3,0.8-0.4,1.3-0.4c0.4,0,0.6,0.2,0.6,0.6
			C121.5,33.4,121.5,33.7,121.4,34.1z M145.3,46.9c-0.2-0.6-0.4-1.1-0.7-1.6c-0.3-0.5-0.6-0.9-0.9-1.2c-0.3-0.3-0.6-0.5-0.8-0.6
			c-0.8,0-1.8,0.2-2.9,0.6c-1.1,0.5-2,1.1-2.6,1.9c-0.5,0.6-1,1.5-1.4,2.7c-0.4,1.2-0.7,2.5-0.8,3.8c0,0.4,0,0.9,0.2,1.4
			c0.2,0.5,0.5,1.1,0.8,1.5c0.3,0.5,0.7,0.9,1.1,1.3c0.4,0.4,0.7,0.6,1,0.6c0.1,0,0.2,0,0.4-0.1c0.2,0,0.4-0.1,0.6-0.1
			c0.4-0.1,0.7-0.2,1-0.2c0.2,0,0.4,0,0.5,0c0.2,0,0.3,0,0.5,0h0.8c0.7-0.5,1.3-1,1.8-1.4c0.4-0.4,0.9-1.1,1.2-2
			c0.3-0.7,0.5-1.6,0.5-2.4c0.1-0.9,0.1-1.8,0-2.7C145.6,48,145.5,47.5,145.3,46.9z M142.2,49.6c-0.1,0.5-0.2,0.9-0.3,1.4
			c-0.1,0.5-0.3,0.9-0.5,1.3c-0.2,0.4-0.3,0.7-0.5,1c-0.3-0.1-0.6-0.3-0.7-0.7c-0.1-0.4-0.2-0.6-0.2-0.7c-0.1-0.2-0.1-0.5,0-0.8
			c0.1-0.3,0.1-0.5,0.1-0.8c-0.1-0.4-0.2-0.7-0.4-0.9c0.2-0.5,0.4-0.9,0.8-1.3c0.3-0.4,0.7-0.5,1.2-0.5c0.4,0,0.6,0.2,0.6,0.7
			C142.3,48.8,142.3,49.2,142.2,49.6z M209.5,29.8l-0.6-1.1c-0.4,0-0.9,0-1.4,0.1c-0.6,0-1.2,0.2-1.7,0.4c-1.3,0.7-2.4,1.3-3.4,1.8
			c-1,0.5-1.9,0.7-2.7,0.8c-0.2,0-0.4,0-0.6,0.1c-0.2,0.1-0.4,0.2-0.5,0.3l-0.3,0.1c-0.3,0.1-0.6,0.2-0.8,0.2
			c-0.2,0.1-0.3,0.4-0.3,0.9c0,0.4,0.2,0.7,0.5,1.1c0.3,0.4,0.9,0.6,1.9,0.7c0.7,0,1.4,0,2.2-0.2c0.8-0.2,1.6-0.5,2.4-0.8
			c0.8-0.3,1.6-0.6,2.3-1c0.7-0.4,1.3-0.7,1.8-1c0.3,0,0.5-0.1,0.5-0.3c0-0.1,0-0.3,0-0.6c0.5-0.1,0.9-0.2,1-0.4
			C209.8,30.8,209.7,30.4,209.5,29.8z M197.5,22.1c0.1-0.3,0.1-0.7,0.1-1c0-0.4-0.1-0.8-0.3-1.1c0.2-0.4,0.3-0.8,0.3-1.2
			c0-0.2,0-0.3-0.1-0.5c0-0.1-0.1-0.2-0.1-0.3c0-0.2,0.1-0.3,0.2-0.3c0.1,0,0.1-0.3,0.1-0.8c-0.1-0.3-0.3-0.7-0.4-1.1
			c-0.1-0.4-0.3-0.8-0.5-1.3c-0.2-0.4-0.4-0.8-0.7-1.1c-0.3-0.3-0.7-0.5-1.2-0.6c-0.7,0.1-1.2,0.3-1.5,0.6c-0.3,0.3-0.6,0.6-0.7,0.8
			c-0.1,0.3-0.2,0.5-0.2,0.8c0,0.3,0,0.4,0,0.5l-0.7,0.5v0.7c0,0.1,0,0.2-0.1,0.4c-0.3,0.9-0.5,2.1-0.7,3.5
			c-0.2,1.4-0.4,2.8-0.6,4.3c0,0.4,0,0.7-0.1,1c-0.1,0.3-0.1,0.6-0.1,1l0.1,0.5c-0.2,0.7-0.3,1.4-0.5,1.9c-0.1,0.5-0.2,1-0.3,1.4
			c-0.1,0.4-0.1,0.9-0.1,1.3c0,0.4,0,0.9,0,1.5v0.6c-0.1,1.1-0.2,2.2-0.5,3.3c-0.2,1.1-0.3,2.4-0.3,3.7v1.3c0,0.7-0.1,1-0.2,1.1
			c-0.1,0.1-0.2,0.3-0.2,0.7v0.4c0,0.1,0,0.3,0,0.5c0,0.2,0,0.3,0,0.5c0,0.1,0,0.3,0.1,0.4c-0.3,0.9-0.5,1.7-0.6,2.5
			c-0.1,0.8-0.1,1.5-0.1,2.2v3h0.6c1.5,0,2.7-0.5,3.7-1.4c1-1,1.8-2.3,2.3-4.1l-0.1-0.4l0.1-0.1l0.3-0.8c0.1-1.1,0.2-2.2,0.5-3.3
			c0.2-1.1,0.3-2.1,0.3-3c0-0.2,0-0.4-0.1-0.6c0-0.2-0.1-0.4-0.2-0.6c0.3-0.4,0.5-0.9,0.6-1.4c0.1-0.5,0.2-1,0.2-1.4
			c0-0.5,0-0.9,0-1.3c0-0.4,0-0.7,0.1-0.9c0.2-0.5,0.3-1,0.3-1.5c0-0.5,0-0.9,0.1-1.3v-0.6c0-0.2,0-0.6,0.1-1.1
			c0-0.6,0.2-1.8,0.4-3.6c0-0.4,0-0.8,0.1-1.2c0.1-0.3,0.2-0.8,0.3-1.4C197.3,22.7,197.4,22.4,197.5,22.1z M171.7,24.7
			c0.1-0.5,0.2-1,0.4-1.5c0.1-0.5,0.2-0.9,0.2-1.4v-1c-0.1-0.2-0.1-0.5-0.1-0.7s-0.1-0.5-0.4-0.9c0.1,0-0.1-0.1-0.7-0.4
			c-0.5-0.3-0.9-0.4-1.2-0.5c-0.9,0-1.5,0.2-1.8,0.9c-0.3,0.6-0.4,1.2-0.5,1.9l-0.1,0.3l-0.6,1.2c-0.1,0.4-0.3,0.8-0.4,1.2
			c-0.1,0.4-0.3,0.7-0.3,0.9c-0.2,0.4-0.3,0.7-0.5,1.1c-0.1,0.3-0.2,0.6-0.3,0.7l-0.6,1c0,0.2,0.1,0.5,0.2,0.9
			c-0.5,1.3-1,2.6-1.5,4.1c-0.5,1.5-0.9,2.7-1.2,3.6c-0.1,0.3-0.2,0.5-0.2,0.8c0,0.3-0.1,0.4-0.1,0.5v0.6c0,0.2-0.1,0.4-0.3,0.8
			l-0.1,0.1c0,0.2,0,0.4,0,0.4c0,0,0,0.1,0,0.1c-0.2,0.3-0.2,0.6,0,0.8c-0.2,0.4-0.4,0.9-0.5,1.3V44h0.5c0.2,0,0.4,0,0.5-0.1
			c0,0,0.1,0,0.2,0c0.1,0,0.2,0,0.5,0c0.2,0,0.4,0,0.6-0.1c0.2,0,0.4-0.1,0.5-0.1c0.2,0,0.3,0,0.5-0.1c0.1,0,0.2-0.2,0.3-0.5
			c0.1-0.3,0.2-0.5,0.3-0.7c0,0,0.1,0,0.1-0.1l0.2-0.2c0.3-0.3,0.5-0.5,0.6-0.6c0.1-0.2,0.2-0.4,0.3-0.6c0-0.2,0.1-0.4,0.1-0.6
			c0-0.1,0.1-0.3,0.1-0.5c0-0.2,0.1-0.4,0.1-0.5c0.4-0.4,0.6-0.7,0.8-0.8l0.3-0.1c0.1-0.2,0.2-0.5,0.3-0.8c0.1-0.4,0.2-0.7,0.3-0.8
			c0.1-0.2,0.2-0.4,0.2-0.6c0.1-0.2,0.2-0.3,0.2-0.4c0.1-0.4,0.2-0.7,0.2-1c0.1-0.3,0.2-0.5,0.2-0.8l0.3-1c0.2-0.5,0.4-1.2,0.7-1.9
			c0.3-0.8,0.5-1.5,0.8-2.3c0.3-0.8,0.5-1.5,0.7-2.1c0.2-0.6,0.4-1.1,0.5-1.3V24.7z M182.2,39c-0.1-0.1-0.2-0.2-0.2-0.3
			c-0.1-0.1-0.2-0.3-0.2-0.5c-0.4-0.5-0.7-0.9-0.9-1.1c-0.2-0.2-0.4-0.4-0.5-0.5l-0.1-0.1c0-0.1-0.1-0.2-0.2-0.3l-0.3-0.4
			c-0.1-0.2-0.4-0.5-0.9-0.7l-0.3-0.5c-0.2-0.1-0.6-0.4-1-0.7c-0.4-0.3-0.9-0.7-1.4-1c-0.2-0.1-0.4-0.2-0.5-0.2
			c-0.1,0-0.2-0.1-0.2-0.1c-0.1,0-0.2-0.1-0.3-0.2c-0.1-0.1-0.2-0.2-0.3-0.2c-0.1,0-0.3-0.1-0.5-0.2c-0.3-0.1-0.4-0.1-0.5-0.2
			c-0.4,0-0.8,0-1.2,0.1c-0.4,0.1-0.7,0.2-0.8,0.3c-0.4,0.5-0.5,0.9-0.4,1.3c0.1,0.2,0.1,0.4,0.1,0.5c0,0.1,0,0.2,0,0.3
			c0,0.1,0,0.2,0.1,0.4c0.1,0.2,0.2,0.5,0.4,1.1l0.4,0.1c0.2,0.2,0.4,0.5,0.7,0.8c0.3,0.3,0.5,0.5,0.7,0.7l0.2,0.3l0.7,0.4l2.2,2.2
			c0.2,0.2,0.4,0.4,0.6,0.4c0.2,0,0.3,0.1,0.5,0.2c0.3,0.1,0.6,0.2,0.9,0.3c0.3,0.1,0.6,0.3,0.8,0.5c0.3,0.2,0.6,0.4,0.8,0.5
			c0.2,0.1,0.4,0.1,0.8,0.2c0.3,0,0.6,0,0.7-0.1c0.2-0.1,0.3-0.3,0.5-0.6c0.2-0.3,0.2-0.6,0.1-1C182.3,40,182.2,39.5,182.2,39z"/>
	</g>
</g>
</svg>
