<?xml version="1.0" encoding="utf-8"?>
<!-- Generator: Adobe Illustrator 22.0.1, SVG Export Plug-In . SVG Version: 6.00 Build 0)  -->
<svg version="1.1" id="레이어_1" xmlns="http://www.w3.org/2000/svg" xmlns:xlink="http://www.w3.org/1999/xlink" x="0px"
	 y="0px" viewBox="0 0 170 57" style="enable-background:new 0 0 170 57;" xml:space="preserve">
<style type="text/css">
	.st0{fill:#FFFFFF;}
</style>
<g>
	<g>
		<path class="st0" d="M36.4,9.2c-0.2-0.5-0.4-1-0.8-1.4c-0.2,0-0.3,0-0.4-0.1c-0.1-0.1-0.2-0.2-0.3-0.2c-0.1-0.1-0.3-0.1-0.6-0.2
			c-0.4,0.1-0.7,0.2-0.9,0.2c-0.2,0.1-0.4,0.2-0.7,0.3c-0.5,0.6-0.7,1-0.8,1.3c-0.1,0.3-0.1,0.6-0.1,0.8l-0.7,0.5V11
			c0,0.1,0,0.2-0.1,0.4c-0.3,0.9-0.5,2.1-0.7,3.5c-0.2,1.4-0.4,2.8-0.6,4.3v0.4c0,0.2,0,0.3-0.1,0.4c0,0.2-0.1,0.5-0.2,0.7
			c-0.1,0.3-0.1,0.6,0,0.9c-0.1,0.3-0.2,0.5-0.2,0.7c0,0.2-0.1,0.4-0.2,0.7c-0.2,0.5-0.4,0.9-0.4,1.3c-0.8,0-1.5,0.1-2.1,0.3
			c-1.1,0.3-2.1,0.6-3.2,0.9c-1,0.3-2,0.7-2.9,1s-1.7,0.7-2.4,0.9c-0.7,0.3-1.2,0.5-1.5,0.6c-0.3,0.1-0.5,0.3-0.6,0.5
			c-0.1,0.2-0.4,0.4-0.8,0.5c-0.3,0.1-0.5,0.2-0.8,0.4c-0.3,0.2-0.4,0.5-0.3,0.9c0,0.3,0.3,0.6,0.8,0.9c0.5,0.3,1.3,0.4,2.4,0.2
			c0.4,0,0.8-0.1,1.2-0.3c0.4-0.1,0.7-0.3,0.9-0.6c1.3-0.5,2.9-1,4.5-1.5c1.7-0.5,3.3-1,4.7-1.4v0.4c0,0.3-0.1,0.7-0.1,1
			c0,0.4-0.1,0.7-0.2,1.1c-0.1,0.9-0.3,1.8-0.3,2.7c-0.1,0.9-0.1,1.9-0.1,2.9c0,0.5,0,0.8,0,1.1c0,0.3-0.1,0.4-0.1,0.5
			c-0.1,0.1-0.2,0.3-0.2,0.6c0,0.4,0,0.8-0.1,1c0,0.3,0,0.5,0.1,0.7c-0.4,1.1-0.6,2.1-0.7,3c-0.1,0.9-0.1,1.8,0,2.5v2.2
			c0.9,0.1,1.8,0,2.6-0.3c0.9-0.3,1.5-0.8,1.8-1.6c0.5-0.3,0.9-0.8,1.3-1.5c0.4-0.7,0.7-1.4,0.9-2.2l-0.1-0.4l0.3-1
			c0-0.5,0.1-0.9,0.1-1.3c0-0.4,0.1-0.8,0.2-1.3c0.1-0.8,0.2-1.6,0.3-2.4c0.1-0.7,0.2-1.4,0.1-2c0-0.1-0.1-0.2-0.1-0.3
			c0-0.1-0.1-0.3-0.1-0.3c0-0.2,0.1-0.4,0.2-0.5c0.1-0.2,0.2-0.4,0.2-0.6c0.1-0.5,0.1-0.9,0.1-1.3c0-0.4,0-0.7,0.1-1
			c0-0.4,0.1-0.7,0.1-0.9c0-0.2,0.1-0.4,0.2-0.6c0.2-0.5,0.4-1,0.4-1.5c0-0.5,0-0.9,0-1.3v-0.6c0-0.2,0-0.4,0.1-0.6
			c0-0.2,0.1-0.5,0.1-0.8c0-0.3,0.1-0.8,0.2-1.4c0-0.4,0-0.7,0-1c0-0.3,0.1-0.6,0.1-0.9c0-0.2,0-0.4,0-0.5c0-0.2,0-0.3,0-0.5
			c0-0.2,0.1-0.5,0.1-0.7c0-0.2,0.1-0.5,0.2-0.8c0.2-0.6,0.3-1.2,0.4-1.7c0.1-0.5,0-1-0.2-1.5c0.2-0.4,0.3-0.7,0.3-1
			c0-0.3,0-0.5-0.1-0.7l-0.1-0.2c0-0.2,0.1-0.4,0.2-0.5c0.1-0.2,0.2-0.4,0.2-0.6l-0.2-0.6C36.7,10.2,36.6,9.7,36.4,9.2z M16.1,23.7
			c0.4,0.1,0.8,0.1,1.3,0c0.6-0.1,1.1-0.3,1.5-0.6c0.3,0,0.5,0,0.6-0.1c0.1-0.1,0.2-0.2,0.4-0.3c0.2-0.2,0.3-0.3,0.5-0.3l1.1-0.4
			c0.6-0.2,1.2-0.5,1.8-0.8c0.7-0.3,1.3-0.5,1.8-0.6c0.1,0.2,0.2,0.5,0.3,0.7c0.1,0.2,0.4,0.3,0.9,0.3c0.1,0,0.3,0,0.5-0.1
			c0.2,0,0.4-0.2,0.6-0.4c0.1-0.1,0.2-0.4,0.3-0.7c0.1-0.3,0.2-0.6,0.3-1c0.1-0.3,0.2-0.7,0.2-1c0-0.3,0.1-0.5,0.1-0.5
			c0-0.1-0.1-0.2-0.3-0.5c-0.2-0.2-0.5-0.4-0.8-0.6c-0.3-0.2-0.6-0.4-0.9-0.5c-0.3-0.1-0.6-0.2-0.7-0.1c-0.9,0.3-1.8,0.6-2.9,1
			c-1,0.4-2.1,0.8-3,1.3c-1,0.4-1.9,0.9-2.7,1.3c-0.8,0.4-1.4,0.7-1.8,1c-0.2,0.3-0.3,0.6-0.3,0.9c0,0.3,0.1,0.6,0.3,0.9
			C15.3,23.2,15.7,23.6,16.1,23.7z M10.9,24.1c-0.3-0.5-0.6-0.8-0.9-1.1c-0.3-0.2-0.6-0.3-0.8-0.3c-0.2-0.2-0.4-0.5-0.5-0.8
			c-0.1-0.3-0.5-0.5-1.1-0.6c-0.1,0-0.2,0-0.4,0c-0.2,0-0.4,0-0.6,0c0.2-0.7,0.5-1.2,0.7-1.4c0.2-0.2,0.4-0.4,0.6-0.5
			c0.1-0.1,0.3-0.2,0.4-0.3c0.3-0.2,0.5-0.4,0.7-0.6c0.1-0.2,0.1-0.4,0-0.7c-0.2-0.4-0.5-0.6-0.9-0.7c-0.4-0.1-0.8,0-1.3,0.2
			c-2,0.7-3.4,2.1-4.1,4c-0.3,0.9-0.6,1.8-0.9,2.8c-0.3,0.9-0.5,1.8-0.7,2.7V27c-0.2,0.3-0.2,0.5-0.2,0.7c0.1,0.2,0.1,0.3,0.2,0.4
			c0,0.1,0,0.3-0.1,0.5c0,0.2-0.1,0.4-0.1,0.5c-0.2,0.8-0.2,1.5,0,2.1l-0.2,0.7c0,0.4,0,0.7,0.1,0.9c0,0.2,0.1,0.5,0.1,0.7
			C0.7,34,0.8,34.6,1,35.1c0.2,0.5,0.4,1.1,0.7,1.7c0.1,0.2,0.4,0.5,1,1c0.6,0.5,1.3,0.8,2.2,0.8c0.3,0,0.7-0.1,1-0.2
			c0.5-0.1,1-0.3,1.4-0.3C7.6,38,8,37.7,8.4,37.4c2.2-2.1,3.3-5,3.4-8.6c0-1.1-0.1-2-0.2-2.8C11.4,25.2,11.2,24.6,10.9,24.1z
			 M7.8,31.5c-0.3,0.9-0.7,1.6-1.2,2.1c-0.1,0.1-0.3,0.2-0.4,0.2c0,0-0.1,0-0.1-0.1c0,0-0.1-0.1-0.1-0.1c-0.2-0.4-0.4-0.9-0.5-1.6
			c-0.1-0.7-0.1-1.4-0.1-2.3c0-1.3,0.1-2.7,0.2-4c0.2-0.1,0.4-0.1,0.6-0.1h0.3c0.7,0.2,1.2,0.5,1.4,1c0.2,0.5,0.3,1.3,0.3,2.4
			C8.3,29.8,8.1,30.6,7.8,31.5z M60.8,14.8c-0.2,0-0.5,0-0.8,0c-2.2,0.3-4.6,0.8-7,1.4c-2.5,0.6-4.9,1.3-7.4,2.1
			c-0.6,0.3-1.1,0.6-1.6,1c-0.5,0.4-0.8,0.7-0.9,1c0,0.4,0,0.7,0.2,0.9c0.2,0.3,0.4,0.4,0.5,0.5c0.4,0.3,0.8,0.3,1.3,0.2
			c0.2-0.1,0.4-0.2,0.6-0.1c0.1,0.1,0.2,0.2,0.2,0.2c0,0,0.2,0,0.4,0c1.2-0.4,2.2-0.7,3-0.9c0.8-0.2,1.4-0.4,1.8-0.6
			c0.5-0.1,0.8-0.2,1.1-0.3c0.3,0,0.5-0.1,0.8-0.1c0.2,0,0.4-0.1,0.6-0.2c0.2-0.1,0.3-0.2,0.5-0.4h0.7l0.6-0.5
			c1-0.2,1.8-0.4,2.4-0.5c0.7-0.1,1.3-0.1,2-0.1l1.1,0.1c0.4-0.3,0.6-0.6,0.8-0.9c0.1-0.3,0.3-0.6,0.3-0.8c0.1-0.3,0.1-0.5,0.1-0.7
			c0-0.2-0.2-0.6-0.6-1.2C61.3,14.9,61.1,14.9,60.8,14.8z M51.8,11.1c0,0.1,0.1,0.4,0.1,0.8c0,0.4,0.1,0.7,0.2,0.9
			c0.1,0.3,0.2,0.5,0.5,0.7l0.3,0.3c0.5,0,1-0.2,1.6-0.6c0.6-0.4,1-0.8,1.2-1.2c0.2-0.2,0.3-0.5,0.5-0.8c0.1-0.3,0.2-0.7,0.3-1
			c0-0.1,0-0.2,0-0.2c0-0.1,0.1-0.2,0.2-0.5c0-0.4-0.1-0.7,0-0.7c0-0.1,0.1-0.2,0.1-0.2c0-0.1,0.1-0.3,0.1-0.4
			c0-0.1,0.1-0.3,0.1-0.5c-0.1-0.3-0.2-0.6-0.2-0.9c0,0,0-0.2,0-0.4c0-0.2,0.1-0.5,0.1-0.7c0.1-0.5,0.1-0.9,0.1-1.2
			c0-0.2,0-0.4-0.1-0.5c0-0.1-0.1-0.2-0.2-0.3l-0.1-0.1l-0.2-0.6c-0.1-0.2-0.4-0.5-0.8-0.8c-0.4-0.3-0.8-0.5-1.2-0.5
			c-0.9,0-1.4,0.2-1.6,0.7c-0.2,0.5-0.3,0.9-0.3,1c-0.1,0.8-0.2,1.4-0.2,1.7c0,0.3-0.1,0.8-0.2,1.3V7c-0.1,0.3-0.2,0.7-0.2,1.1
			c0,0.4-0.1,0.9-0.1,1.4c0,0.5,0,0.8,0,1C51.7,10.7,51.8,10.9,51.8,11.1z M59.2,25.4c-0.2-0.5-0.5-1-0.8-1.4
			c-0.3-0.4-0.6-0.8-0.9-1.1c-0.3-0.3-0.6-0.5-0.9-0.5c-0.4,0-0.9,0-1.4,0.1c-0.5,0.1-1,0.2-1.6,0.4c-0.5,0.2-1,0.4-1.5,0.7
			c-0.5,0.3-0.9,0.5-1.2,0.9c-0.5,0.6-1,1.4-1.5,2.4c-0.5,1-0.8,2.2-0.9,3.3c0,0.4,0,0.8,0.3,1.3c0.2,0.5,0.5,1,0.9,1.4
			c0.3,0.4,0.7,0.8,1.1,1.1c0.4,0.3,0.8,0.4,1.1,0.4c0.3,0,0.5,0,0.5,0c0.1,0,0.2-0.1,0.5-0.1c0.2,0,0.4,0,0.7-0.1
			c0.1,0,0.3-0.1,0.4-0.1h1.9c0.7-0.4,1.4-0.8,1.8-1.2c0.5-0.4,0.9-1,1.3-1.8c0.3-0.7,0.5-1.3,0.6-2c0.1-0.7,0.1-1.5,0-2.4
			C59.5,26.4,59.4,25.9,59.2,25.4z M56,27.8c-0.1,0.4-0.3,0.8-0.4,1.2c-0.2,0.4-0.3,0.8-0.5,1.2c-0.2,0.4-0.3,0.7-0.5,0.8
			c-0.4-0.1-0.6-0.3-0.8-0.6c-0.2-0.3-0.2-0.5-0.2-0.6v-0.4c0.1-0.4,0.1-0.7,0.1-0.9c-0.1-0.4-0.2-0.7-0.4-0.8
			c0.2-0.4,0.5-0.7,0.9-1c0.3-0.3,0.8-0.4,1.3-0.4c0.4,0,0.6,0.2,0.6,0.6C56.1,27,56.1,27.4,56,27.8z M87.8,10.8
			c0-0.1,0-0.3-0.1-0.5c-0.1-0.2-0.2-0.5-0.3-0.9c0-0.5-0.2-0.9-0.6-1.2c-0.3-0.3-0.7-0.4-1.2-0.4c-0.4,0-0.8,0.2-1.2,0.5
			c-0.4,0.3-0.7,0.5-0.9,0.8l-0.3,0.3c-0.1,0.2-0.1,0.4-0.1,0.5v0.4c-0.2,0.6-0.3,1-0.3,1.5L82.6,12c-0.1,1.2-0.2,2.2-0.2,2.8
			c-0.1,0.7-0.2,1.4-0.3,2.1c0,0.2-0.1,0.4-0.1,0.6c0,0.2-0.1,0.4-0.1,0.6v1c0,0.3,0,0.7-0.1,1c-1.5,0.3-2.9,0.6-4.2,0.9
			c-1.3,0.3-2.4,0.6-3.2,0.9c0-0.2,0.1-0.4,0.1-0.5V21l0.1-0.7c0-0.2,0.1-0.4,0.1-0.7c0-0.3,0-0.7,0-1.2c0-0.3,0.1-0.6,0.1-1
			c0-0.4,0.1-0.8,0.2-1.2c0-0.5,0.1-1,0.2-1.3c0.1-0.4,0.2-0.8,0.2-1.2c0-0.4,0-0.8-0.1-1.1c0.2-0.5,0.2-0.9,0.1-1.3l0.3-1l-0.4-0.6
			C75,9.7,75,9.6,75,9.4c0-0.2-0.1-0.3-0.1-0.4c-0.1-0.4-0.3-0.9-0.6-1.3l-0.3-0.2c-0.1-0.1-0.3-0.3-0.5-0.5
			c-0.2-0.2-0.4-0.3-0.8-0.4c-0.6,0.1-1,0.4-1.3,0.7l-0.3,0.3c-0.4,0.4-0.6,0.7-0.7,0.9c-0.1,0.2-0.1,0.4,0,0.6l-0.6,0.3
			c-0.1,0.2-0.1,0.4-0.1,0.5v0.5c-0.3,0.8-0.5,1.7-0.7,2.6c-0.1,0.9-0.2,1.9-0.3,2.9c-0.1,0.2-0.2,0.6-0.3,1c-0.1,0.5-0.2,1-0.1,1.5
			c0,0.2-0.1,0.3-0.1,0.4c0,0.1,0,0.2-0.1,0.3c-0.2,0.6-0.3,1.1-0.4,1.6c-0.1,0.5-0.1,1-0.1,1.6V23l-0.2,1.4
			c-0.1,0.6-0.2,1.2-0.2,1.8c-0.1,0.6-0.1,1.3,0,2c0,0.4,0,0.8-0.1,1v0.3c-0.1,0.2-0.2,0.5-0.2,0.8c0,0.3,0,0.6,0.1,0.8
			c-0.4,1.1-0.6,1.9-0.6,2.5c0,0.5,0,1,0.1,1.4v1.7c0.9,0.1,1.8,0,2.5-0.1c0.8-0.2,1.3-0.6,1.7-1.3c0.4-0.2,0.7-0.6,1.1-1
			c0.3-0.4,0.6-0.9,0.9-1.4l0.1-1.1c0-0.2,0.1-0.5,0.1-0.7c0-0.2,0.1-0.5,0.1-0.7c0.1-0.8,0.3-1.5,0.3-2c0.1-0.6,0.1-1.1,0.1-1.7
			l-0.3-0.3l0.1-0.1c0.3,0,0.7-0.1,1-0.2c0.3-0.1,0.6-0.2,0.7-0.4c0.8-0.3,1.7-0.6,2.8-0.8c1.1-0.3,2.2-0.5,3.3-0.8v0.1l-0.3,0.9
			c0,0.5,0,1.1,0,1.8c0,0.7-0.2,1.3-0.4,1.8c0,0.2-0.1,0.3-0.1,0.5c0,0.1,0,0.3,0,0.4v1.7c0,0.2,0,0.4-0.1,0.4
			c-0.1,0.3-0.2,0.5-0.2,0.5c0,0.1,0,0.2,0,0.3c0,0.2,0,0.5,0.2,1l0.6,1.1c0.1,0.1,0.2,0.3,0.3,0.3c0.1,0.1,0.4,0.2,0.8,0.2
			c0.1,0,0.4,0,0.8-0.1c0.4-0.1,0.7-0.2,0.9-0.2c0.2-0.1,0.4-0.5,0.7-0.9c0.3-0.5,0.4-0.9,0.4-1.3l0.2-0.2c0.3-0.8,0.5-1.3,0.5-1.6
			c0-0.3,0.1-0.5,0.2-0.9c0.1-0.5,0.2-0.9,0.3-1.3c0.1-0.3,0.2-0.6,0.3-0.7c0.1-0.6,0.2-1.2,0.2-1.8c0-0.6,0.1-1.2,0.1-1.8
			c0-0.5,0.1-1,0.2-1.6c0.1-0.5,0.2-1.2,0.2-2c0.1-0.1,0.2-0.2,0.3-0.4c0-0.2,0.1-0.4,0.1-0.6V19c0-0.4,0.1-0.9,0.1-1.4
			c0-0.5,0.2-1.3,0.3-2.3c0,0-0.1-0.1-0.1-0.2c0-0.1-0.1-0.2-0.2-0.2c0.1-0.5,0.2-0.9,0.2-1.3c0-0.3,0-0.6,0-0.8
			c0-0.2,0.1-0.4,0.2-0.7c0-0.2-0.1-0.4-0.3-0.6c0-0.1,0.1-0.2,0.1-0.3C87.7,11.1,87.7,11,87.8,10.8z M79.8,40.5
			c-0.2-0.6-0.4-1.1-0.7-1.6c-0.3-0.5-0.6-0.9-0.9-1.2c-0.3-0.3-0.6-0.5-0.8-0.6c-0.8,0-1.8,0.2-2.9,0.6c-1.1,0.5-2,1.1-2.6,1.9
			c-0.5,0.6-1,1.5-1.4,2.7c-0.4,1.2-0.7,2.5-0.8,3.8c0,0.4,0,0.9,0.2,1.4c0.2,0.5,0.5,1,0.8,1.5c0.3,0.5,0.7,0.9,1.1,1.3
			c0.4,0.4,0.7,0.6,1,0.6c0.1,0,0.2,0,0.4-0.1c0.2,0,0.4-0.1,0.6-0.1c0.4-0.1,0.7-0.2,1-0.2c0.2,0,0.4,0,0.5,0c0.2,0,0.3,0,0.5,0
			h0.8c0.7-0.5,1.3-1,1.8-1.4c0.4-0.4,0.8-1.1,1.2-2c0.3-0.7,0.5-1.5,0.5-2.4c0.1-0.9,0.1-1.8,0-2.7C80.1,41.6,80,41.1,79.8,40.5z
			 M76.7,43.2c-0.1,0.5-0.2,0.9-0.3,1.4c-0.1,0.5-0.3,0.9-0.5,1.3c-0.2,0.4-0.3,0.7-0.5,1c-0.3-0.1-0.6-0.3-0.7-0.7
			c-0.1-0.4-0.2-0.6-0.2-0.7c-0.1-0.2-0.1-0.5,0-0.8c0.1-0.3,0.1-0.5,0.1-0.8c-0.1-0.4-0.2-0.7-0.4-0.9c0.2-0.5,0.4-0.9,0.8-1.3
			c0.3-0.3,0.7-0.5,1.2-0.5c0.4,0,0.6,0.2,0.6,0.7C76.8,42.3,76.8,42.8,76.7,43.2z M130.7,47.6l-1.5,0.3c-0.2,0.1-0.5,0.2-0.9,0.3
			c-0.3,0.1-0.6,0.3-0.9,0.3l-0.8,0.1c-1.4,0.5-2.7,1-4.1,1.6c-1.4,0.5-2.6,1-3.7,1.3c0.7-0.9,1.2-1.6,1.5-2
			c0.3-0.4,0.7-0.8,1.1-1.3c0.1-0.2,0.3-0.4,0.5-0.6c0.2-0.2,0.3-0.4,0.5-0.6l1.2-1.2c0.2-0.2,0.3-0.6,0.3-1c0-0.4,0-0.8-0.2-1.2
			c-0.3-0.3-0.6-0.5-0.9-0.6c-0.1,0-0.2,0-0.3,0.1c-0.3,0.1-0.5,0.1-0.6,0.1c-0.2,0.1-0.5,0.2-0.8,0.3c-0.3,0.1-0.5,0.3-0.8,0.7
			c-0.1,0.1-0.3,0.2-0.4,0.3c-0.1,0.1-0.3,0.3-0.5,0.6c-0.3,0.5-0.9,1.2-1.7,2.2c-0.8,1-1.7,1.9-2.4,2.9c-0.4,0.5-0.7,0.9-1.1,1.3
			c-0.3,0.4-0.7,0.9-1.1,1.3l-0.3,0.6c-0.1,0.2-0.2,0.3-0.2,0.5c0,0.1-0.1,0.2-0.1,0.3c-0.2,0.5-0.2,0.9,0,1.1s0.5,0.4,0.7,0.7
			c0.3,0.2,0.7,0.4,1.3,0.6c0.6,0.1,1.1,0.1,1.4,0c0.4-0.1,0.8-0.2,1.1-0.2c0.3,0,0.5-0.1,0.7-0.2c0.1-0.1,0.3-0.2,0.5-0.3
			c0,0,0.1-0.1,0.3-0.1c0.1,0,0.4-0.1,0.9-0.3l2.2-0.9c0.1,0,0.5-0.2,1-0.3c0.5-0.2,1.1-0.4,1.7-0.7c0.7-0.3,1.3-0.5,2-0.8
			c0.7-0.3,1.3-0.5,1.8-0.7c0.2-0.1,0.4-0.2,0.6-0.3c0.1-0.1,0.3-0.2,0.6-0.3l1-0.2c0.4-0.1,0.7-0.3,1.1-0.5
			c0.3-0.3,0.5-0.6,0.6-0.9c0.1-0.3,0-0.6-0.3-1C131.4,48.4,131.1,48,130.7,47.6z M105.2,12.3c-0.2-0.1-0.5-0.2-0.9-0.3
			c-0.4-0.1-0.8-0.1-1.3,0l0.2-0.6c0.3-0.9,0.1-1.4-0.6-1.6c-0.3-0.1-0.9,0-1.6,0.4l-1.5,1.4c-0.1,0.1-0.2,0.3-0.3,0.5
			c-0.1,0.2-0.2,0.3-0.3,0.5c-0.2,0.4-0.5,0.8-0.8,1.1c-0.4,1.1-0.8,2.2-1.1,3.2c-0.3,1-0.6,2.1-0.9,3.2c-0.1,0.4-0.1,0.9,0,1.4
			c0.1,0.5,0.2,1,0.5,1.4c0.3,0.4,0.6,0.8,1,1.1c0.4,0.3,0.9,0.5,1.4,0.5c0.1,0,0.2,0,0.4,0c0.2,0,0.4,0,0.6,0
			c0.2,0,0.5-0.1,0.8-0.1c0.1,0,0.3,0,0.4,0c0.1,0,0.3,0,0.4,0h0.7c0.9,0,1.6-0.4,2-0.9c0.5-0.6,0.9-1.3,1.3-2.1
			c0.4-0.8,0.7-1.6,0.8-2.4c0.2-0.8,0.3-1.6,0.3-2.5c0-0.9-0.1-1.8-0.5-2.7C106.2,13,105.7,12.5,105.2,12.3z M103,18.8
			c-0.4,0.8-0.8,1.5-1.2,2c-0.6-0.2-0.9-0.5-1-0.9v-0.6c0-0.2,0-0.5-0.1-1c0-0.2-0.1-0.4-0.1-0.6c0.4-0.7,0.8-1.1,1.3-1.4
			c0.5-0.3,0.9-0.5,1.4-0.5c0.3,0,0.4,0.2,0.4,0.5C103.7,17.1,103.5,18,103,18.8z M115.7,32.4l1.3-0.3c0.2-0.1,0.5-0.2,0.7-0.2
			c0.2,0,0.5-0.1,0.7-0.2c0.3-0.1,0.6-0.2,0.9-0.2c0.3-0.1,0.6-0.2,0.9-0.2c0,0.1-0.1,0.2-0.1,0.3c0,0.1-0.1,0.2-0.1,0.3
			c-0.1,0.2-0.2,0.4-0.3,0.5c-0.1,0.2-0.2,0.3-0.3,0.4c-1,1.4-1.8,2.5-2.3,3c-0.5,0.6-0.9,1.1-1.2,1.4c-0.1,0.1-0.3,0.3-0.3,0.5
			c-0.1,0.2-0.2,0.3-0.3,0.4l-0.8,1c-0.1,0.1-0.2,0.3-0.3,0.6c-0.1,0.3-0.2,0.5-0.3,0.6c-0.1,0.2-0.2,0.4-0.3,0.7
			c-0.1,0.3-0.1,0.6,0,0.8c0.1,0.4,0.2,0.6,0.4,0.8c0.2,0.1,0.5,0.3,0.9,0.6c0.1,0.1,0.3,0.3,0.4,0.4c0.1,0.1,0.3,0.2,0.6,0.1h1
			l0.3,0.1c0.3,0.1,0.8,0,1.5-0.2c0.6-0.2,1.2-0.5,1.8-0.7c0.6-0.2,1.3-0.5,1.9-0.7c0.9-0.4,1.7-0.7,2.4-1c0.7-0.3,1.4-0.6,2.2-0.8
			c0.1,0,0.2,0,0.4-0.1c0.2-0.1,0.4-0.2,0.6-0.4c0.4-0.1,0.7-0.3,0.7-0.3c0-0.1,0.2-0.3,0.3-0.5c0.1-0.2,0.2-0.4,0.2-0.6
			c0-0.2,0.1-0.4,0.1-0.5v-0.4c-0.1-0.2-0.2-0.5-0.3-0.8c-0.1-0.3-0.5-0.5-1.1-0.5l-1.3,0.5l-1.4,0.6l-0.7,0.3l-1.3,0.5
			c-0.6,0.2-1.1,0.4-1.6,0.6c-0.5,0.2-0.9,0.3-1.4,0.5c-0.2,0.1-0.5,0.2-0.7,0.2c-0.3,0.1-0.5,0.2-0.7,0.2l0.3-0.6
			c0-0.2,0.2-0.3,0.5-0.4c0.2-0.1,0.4-0.2,0.6-0.4c0-0.1,0.2-0.3,0.5-0.6c0.2-0.2,0.4-0.4,0.5-0.6c0.1-0.1,0.2-0.3,0.3-0.4
			c0.1-0.1,0.2-0.2,0.2-0.2c0.4-0.6,0.7-1,1-1.2c0.7-0.9,1.2-1.5,1.4-1.7c0.2-0.3,0.4-0.5,0.5-0.7c0.2-0.2,0.4-0.5,0.5-0.7
			c0.2-0.2,0.3-0.4,0.4-0.6c0-0.1,0-0.2,0.1-0.3c0,0,0.1-0.1,0.1-0.1c0.1-0.2,0.2-0.4,0.4-0.6c0.2-0.2,0.3-0.4,0.4-0.6l0.3-0.4
			l0.4-0.5l0.1-1c0-0.6-0.1-0.9-0.2-1c-0.1-0.1-0.2-0.2-0.5-0.4l-0.2-0.1c-0.1-0.1-0.3-0.3-0.4-0.4c-0.1-0.1-0.3-0.2-0.6-0.1
			c-0.5,0-0.9,0-1.3,0.1l-0.2,0.1c-0.2,0.1-0.5,0.2-0.8,0.3l0.6-1l0.7-1.7c0-0.1,0.2-0.4,0.5-0.9c0.3-0.5,0.5-1,0.7-1.7
			c0.1-0.9,0.2-1.8,0.3-2.8c0.1-1,0.3-1.9,0.3-2.8l0.1-0.7c0.1,0,0.2-0.2,0.2-0.3c0-0.2,0.1-0.4,0.1-0.6c0-0.1,0-0.2,0-0.3
			c0-0.1,0-0.3,0-0.3v-0.3c0-0.3,0.1-0.5,0.1-0.6c0-0.1,0.1-0.2,0.1-0.3c0-0.1,0-0.2,0.1-0.5c0-0.2,0.1-0.6,0.1-1.2l0.3-1.9
			c0-0.2-0.1-0.3-0.1-0.5c0-0.1-0.1-0.3-0.1-0.5c0.1-0.5,0.2-0.8,0.1-1.2c0-0.3,0-0.6,0.1-0.8c0-0.3,0.1-0.5,0.1-0.7
			c0-0.2,0.1-0.4,0.1-0.7c0-0.5-0.1-1.1-0.3-1.7c-0.2-0.5-0.4-0.9-0.6-1.4c-0.1-0.5-0.4-0.7-0.8-0.7c-0.2-0.2-0.4-0.3-0.6-0.3
			c-0.3,0-0.6,0.1-0.9,0.2c-0.3,0.1-0.7,0.3-1,0.6c-0.3,0.2-0.7,0.5-0.9,0.7c-0.3,0.3-0.4,0.5-0.5,0.7v0.8c-0.2,0.3-0.3,0.6-0.3,1
			l-0.1,1.2c0,0.7-0.1,1.3-0.2,1.7c-0.1,0.5-0.3,1-0.3,1.5l-0.6,2.5v1.5l0.1,0.6c0,0.4-0.1,0.6-0.2,0.8c-0.1,0.1-0.2,0.3-0.2,0.4
			v0.1c0,0,0,0.1-0.1,0.1c0,0-0.1,0.1-0.1,0.2c-0.4,0.2-0.6,0.5-0.6,0.8c0,0.1,0.1,0.2,0.2,0.4c0.1,0.2,0.2,0.3,0.2,0.5
			c-0.2,0.3-0.3,0.5-0.5,0.8c-0.1,0.2-0.2,0.5-0.3,0.7c-0.1,0.2-0.1,0.4-0.1,0.6c0,0.3,0.1,0.6,0.3,0.8c-0.2,0.4-0.4,0.8-0.5,1.2
			c-0.1,0.4-0.1,0.8-0.2,1.3l-0.4,0.8c0,0.1,0.1,0.2,0.1,0.3c0,0,0,0.1,0,0.2v0.8l-0.5,2.4c0,0.4,0.1,0.7,0.2,0.8
			c0.1,0.1,0.2,0.3,0.2,0.5v0.4c-0.4,0.1-0.7,0.2-1.1,0.3c-0.3,0.1-0.7,0.2-1.1,0.3c-0.3,0.1-0.7,0.2-1,0.3
			c-0.4,0.1-0.9,0.3-1.7,0.6c-0.2,0-0.5,0.1-0.9,0.2c-0.4,0.1-0.7,0.2-1,0.3l-0.6,0.2c-0.4,0.1-0.6,0.2-0.8,0.3
			c-0.2,0.1-0.3,0.3-0.5,0.5c-0.1,0.4-0.1,0.7-0.1,0.8c0,0.1,0.1,0.2,0.2,0.3c0.1,0.1,0.1,0.3,0.1,0.5c0.1,0.2,0.3,0.5,0.7,0.7
			c0.3,0.3,0.7,0.4,1,0.4c0,0,0.1,0,0.1,0c0,0,0.1,0,0.2,0h0.2l0.1,0.1c0,0.1,0,0.1,0.1,0.1c0.2-0.1,0.4-0.2,0.7-0.3
			c0.3-0.1,0.7-0.2,1.1-0.4L115.7,32.4z M166.7,42.3c-0.2-0.6-0.4-1.1-0.7-1.6c-0.3-0.5-0.6-0.9-0.9-1.2c-0.3-0.3-0.6-0.5-0.8-0.6
			c-0.8,0-1.8,0.2-2.9,0.6c-1.1,0.5-2,1.1-2.6,1.9c-0.5,0.6-1,1.5-1.4,2.7c-0.4,1.2-0.7,2.5-0.8,3.8c0,0.4,0,0.9,0.2,1.4
			c0.2,0.5,0.5,1,0.8,1.5c0.3,0.5,0.7,0.9,1.1,1.3c0.4,0.4,0.7,0.6,1,0.6c0.1,0,0.2,0,0.4-0.1c0.2,0,0.4-0.1,0.6-0.1
			c0.4-0.1,0.7-0.2,1-0.2c0.2,0,0.4,0,0.5,0c0.2,0,0.3,0,0.5,0h0.8c0.7-0.5,1.3-1,1.8-1.4c0.4-0.4,0.8-1.1,1.2-2
			c0.3-0.7,0.5-1.5,0.5-2.4c0.1-0.9,0.1-1.8,0-2.7C167,43.3,166.9,42.8,166.7,42.3z M163.6,45c-0.1,0.5-0.2,0.9-0.3,1.4
			c-0.1,0.5-0.3,0.9-0.5,1.3c-0.2,0.4-0.3,0.7-0.5,1c-0.3-0.1-0.6-0.3-0.7-0.7c-0.1-0.4-0.2-0.6-0.2-0.7c-0.1-0.2-0.1-0.5,0-0.8
			c0.1-0.3,0.1-0.5,0.1-0.8c-0.1-0.4-0.2-0.7-0.4-0.9c0.2-0.5,0.4-0.9,0.8-1.3c0.3-0.3,0.7-0.5,1.2-0.5c0.4,0,0.6,0.2,0.6,0.7
			C163.7,44.1,163.7,44.5,163.6,45z M168.9,7.8c-0.2-0.5-0.4-1-0.6-1.6c-0.1-0.5-0.4-0.8-0.7-0.8c-0.2-0.2-0.4-0.3-0.6-0.3
			c-0.3,0-0.6,0.1-0.9,0.2c-0.3,0.2-0.7,0.4-1,0.6c-0.3,0.3-0.6,0.5-0.9,0.8c-0.3,0.3-0.4,0.5-0.5,0.8v0.9c-0.2,0.3-0.3,0.6-0.3,1
			l-0.1,1.3c0,0.8-0.1,1.4-0.2,1.8c-0.1,0.4-0.2,1-0.3,1.6l-0.5,2.2c-0.9,0.3-1.9,0.6-2.9,1c-1,0.4-1.9,0.7-2.8,1.1
			c-0.9,0.3-1.6,0.7-2.3,0.9c-0.7,0.3-1.1,0.5-1.3,0.6l-0.3,0.3c-0.1,0.1-0.2,0.2-0.3,0.3l-0.4,0.3c-0.3,0-0.5,0.1-0.8,0.2
			c-0.2,0.1-0.3,0.4-0.3,0.9c0,0.4,0.2,0.7,0.6,1c0.3,0.3,1,0.4,2,0.4c0.2,0,0.5-0.1,0.8-0.2c0.3-0.1,0.6-0.2,0.8-0.3
			c0.7-0.3,1.7-0.7,3-1.2c1.2-0.5,2.5-1,3.7-1.5c0,0-0.1,0.1-0.1,0.3v0.1c0,0,0,0.1-0.1,0.1c0,0-0.1,0.1-0.1,0.2
			c-0.4,0.3-0.6,0.6-0.6,0.9c0,0.1,0.1,0.2,0.2,0.4c0.1,0.2,0.2,0.4,0.2,0.6l-0.4,0.8c-0.1,0.2-0.2,0.5-0.3,0.7
			c-0.1,0.2-0.1,0.5-0.1,0.7c0,0.4,0.1,0.7,0.2,0.8c-0.2,0.4-0.4,0.8-0.4,1.3c0,0.5-0.1,0.9-0.1,1.4l-0.4,0.8c0,0.1,0.1,0.2,0.1,0.3
			c0,0,0,0.1,0,0.2v0.9l-0.5,2.6c0,0.5,0.1,0.8,0.2,0.9c0.1,0.1,0.2,0.3,0.2,0.5l0.1,0.8c0.2,0.3,0.4,0.5,0.6,0.8
			c0.2,0.3,0.5,0.4,0.9,0.4c0.3,0,0.6,0,0.8-0.1c0.3,0,0.6-0.2,0.9-0.4c0.6-0.2,0.9-0.6,1-1c0.1-0.4,0.3-0.9,0.6-1.4l0.7-1.3
			l0.6-1.8c0-0.1,0.2-0.5,0.5-1c0.3-0.5,0.5-1.1,0.7-1.8c0.1-0.9,0.2-1.9,0.3-3c0.1-1.1,0.2-2.1,0.3-3l0.1-0.8
			c0.1,0,0.2-0.2,0.2-0.3c0-0.2,0.1-0.4,0.1-0.6c0-0.1,0-0.3,0-0.4c0-0.1,0-0.3,0-0.3V19c0-0.3,0.1-0.5,0.1-0.6
			c0-0.1,0.1-0.2,0.1-0.3c0-0.1,0-0.3,0.1-0.5c0-0.2,0.1-0.7,0.1-1.3l0.3-2l-0.2-1c0.1-0.5,0.2-0.9,0.1-1.2c0-0.3,0-0.5,0.1-0.8
			c0-0.3,0.1-0.6,0.1-0.8c0-0.2,0.1-0.5,0.1-0.7C169.2,9.1,169.1,8.5,168.9,7.8z M152.5,30.2c-0.2-0.4-0.5-0.9-0.8-1.3
			c-0.3-0.5-0.6-1-0.9-1.5c-0.4-0.5-0.7-0.8-0.9-1.1c-0.2-0.3-0.5-0.5-0.7-0.8c-0.2-0.3-0.4-0.4-0.5-0.5l-0.4-0.4
			c-0.3-0.2-0.5-0.4-0.6-0.4c-0.1,0-0.2-0.1-0.4-0.2c-0.2,0-0.4,0-0.6,0.1c-0.2,0-0.4,0.1-0.6,0.1l-0.6,0.6
			c-0.3,0.3-0.4,0.5-0.5,0.7c0,0.2-0.1,0.4-0.1,0.6c0,0.1,0,0.2,0,0.2c0,0,0,0.1,0,0.1v0.9c0,0.1,0,0.3,0.1,0.4
			c0,0.1,0.1,0.3,0.1,0.5l0.4,0.4c0.1,0.2,0.2,0.5,0.4,0.9c0.2,0.3,0.4,0.6,0.6,0.8l0.1,0.3c0.1,0.1,0.3,0.3,0.5,0.6
			c0.3,0.3,0.4,0.4,0.3,0.4c0.3,0.5,0.6,0.9,1,1.4c0.4,0.4,0.8,0.8,1.2,1c0.5,0.3,0.8,0.6,1.1,0.8c0.3,0.2,0.6,0.3,0.8,0.5
			c0.3,0.1,0.5,0.2,0.6,0.2l0.4-0.2c0.1-0.1,0.3-0.7,0.5-1.7c0.1-0.5,0.1-0.9-0.1-1.4C153.1,31.7,152.9,31,152.5,30.2z M146.7,18.1
			V18l0.5-0.2c0.1-0.8,0.2-1.5,0.2-2.1c0-0.5-0.2-1.1-0.5-1.7c-0.3-0.7-1.1-1-2.1-1c-1,0-1.9,0.1-2.8,0.2c-0.8,0.1-1.8,0.3-2.8,0.6
			c-0.6,0.2-1.1,0.3-1.6,0.4c-0.5,0.1-1.1,0.2-1.7,0.5h-0.3c-0.5,0.1-0.9,0.4-1.3,0.7c-0.3,0.3-0.5,0.8-0.5,1.2
			c0,0.3,0.1,0.6,0.4,0.9c0.3,0.3,0.8,0.5,1.7,0.5c0.1,0,0.4-0.1,0.7-0.2c0.3-0.1,0.6-0.1,0.9-0.2c0.3-0.1,0.6-0.1,0.8-0.2
			c0.3-0.1,0.4-0.1,0.5-0.1c0.2,0,0.5-0.1,0.9-0.3c0.2-0.1,0.6-0.2,1.1-0.2c0.5-0.1,1.1-0.2,1.8-0.3c-0.6,1.7-1.3,3.4-2.1,5
			c-0.8,1.6-1.6,3.1-2.4,4.6l-0.3,0.3c-0.5,0.8-0.9,1.6-1.3,2.5c-0.4,0.9-1,1.5-1.7,2.1l0.1,0.5l-0.7,0.8v0.4
			c-0.4,0.2-0.6,0.5-0.6,0.8c0,0.5,0.1,0.9,0.3,1.2c0.2,0.3,0.4,0.5,0.7,0.7c0.2,0.1,0.5,0.2,0.9,0.3c0.3,0,0.7-0.1,1.2-0.3
			c0.5-0.2,0.7-0.5,0.8-0.7l0.8-0.6c0.5-0.7,1-1.5,1.5-2.3c0.5-0.8,0.9-1.5,1.3-2.2c0.5-0.8,0.9-1.4,1.1-1.7
			c0.2-0.3,0.3-0.5,0.4-0.8v-0.3l0.6-0.3c0.3-0.3,0.6-0.7,0.7-1c0.1-0.4,0.3-0.7,0.4-1.1c0.1-0.3,0.2-0.7,0.4-1
			c0.1-0.3,0.3-0.7,0.6-0.9c0.8-1.3,1.3-2.3,1.5-3C146.6,18.6,146.7,18.2,146.7,18.1z"/>
	</g>
</g>
</svg>
