<?xml version="1.0" encoding="utf-8"?>
<!-- Generator: Adobe Illustrator 22.0.1, SVG Export Plug-In . SVG Version: 6.00 Build 0)  -->
<svg version="1.1" id="레이어_1" xmlns="http://www.w3.org/2000/svg" xmlns:xlink="http://www.w3.org/1999/xlink" x="0px"
	 y="0px" viewBox="0 0 220 52" style="enable-background:new 0 0 220 52;" xml:space="preserve">
<style type="text/css">
	.st0{fill:#FFFFFF;}
</style>
<g>
	<g>
		<path class="st0" d="M49.1,21.7c-0.4,0-0.8,0.1-1.4,0.1c-0.6,0.1-1.2,0.2-1.7,0.4c-1.3,0.7-2.4,1.3-3.4,1.7c-1,0.5-2,0.8-2.7,0.8
			c-0.2,0-0.4,0.1-0.6,0.1l-0.6,0.3l-0.3,0.1c-0.3,0.1-0.6,0.2-0.8,0.2c-0.3,0.1-0.3,0.4-0.3,1c0,0.4,0.1,0.8,0.5,1
			c0.3,0.4,0.9,0.6,1.9,0.7c0.6,0.1,1.3,0,2.2-0.3c0.8-0.1,1.6-0.4,2.4-0.8c0.8-0.3,1.5-0.6,2.2-1c0.7-0.3,1.3-0.7,1.7-1
			c0.3,0,0.5-0.1,0.6-0.3v-0.6c0.5-0.1,0.8-0.2,1-0.4c0.1-0.1,0.1-0.5-0.2-1L49.1,21.7z M37.7,15.1c0.1-0.3,0.1-0.6,0.1-1
			c0-0.4-0.1-0.8-0.3-1.1c0.1-0.3,0.3-0.8,0.3-1.2c0-0.1-0.1-0.3-0.1-0.5c-0.1-0.1-0.1-0.1-0.1-0.3s0.1-0.3,0.2-0.3
			c0.1,0,0.1-0.2,0.1-0.8c-0.1-0.3-0.3-0.7-0.4-1.1c-0.1-0.4-0.3-0.8-0.5-1.3c-0.2-0.4-0.4-0.8-0.7-1.1c-0.3-0.3-0.8-0.4-1.2-0.6
			c-0.7,0.1-1.2,0.3-1.5,0.6C33.4,6.7,33.2,7,33,7.3c-0.1,0.3-0.2,0.6-0.2,0.8c-0.1,0.3-0.1,0.5-0.1,0.5L32.1,9v0.6
			c0,0.1-0.1,0.3-0.1,0.4c-0.3,1-0.6,2.1-0.7,3.4c-0.2,1.4-0.4,2.9-0.6,4.3c0,0.4-0.1,0.7-0.1,1c-0.1,0.3-0.1,0.6-0.1,1l0.1,0.5
			c-0.2,0.8-0.3,1.4-0.4,1.9c-0.1,0.6-0.3,1-0.3,1.4c-0.1,0.5-0.1,0.9-0.1,1.3c-0.1,0.4-0.1,0.9-0.1,1.5v0.6l-0.4,3.3
			c-0.3,1.2-0.3,2.4-0.3,3.7v1.3c0,0.7-0.1,1-0.1,1c-0.1,0.1-0.2,0.3-0.2,0.7v0.8c-0.1,0.2-0.1,0.3-0.1,0.5c0,0.1,0,0.3,0.1,0.3
			c-0.3,0.9-0.5,1.7-0.6,2.5c-0.1,0.8-0.1,1.5-0.1,2.2v3h0.6c1.5,0,2.7-0.5,3.8-1.5c1-0.9,1.7-2.2,2.3-4.1l-0.1-0.4l0.1-0.1l0.3-0.8
			c0.1-1,0.2-2.2,0.5-3.4c0.1-1.1,0.3-2.1,0.3-2.9c0-0.2-0.1-0.4-0.1-0.6c-0.1-0.1-0.1-0.3-0.2-0.6c0.3-0.4,0.5-0.8,0.6-1.4
			c0.1-0.4,0.1-0.9,0.2-1.4v-1.3c0-0.3,0-0.6,0.1-0.9c0.2-0.5,0.3-1,0.3-1.5c0-0.4,0-0.8,0.1-1.3v-0.6c0-0.1,0-0.6,0.1-1.1
			c0-0.6,0.1-1.7,0.4-3.6c0-0.4,0-0.8,0.1-1.2c0-0.3,0.1-0.8,0.3-1.4C37.5,15.8,37.6,15.4,37.7,15.1z M25.4,28.8
			c-0.4-0.1-0.9-0.1-1.6,0c-0.4,0.1-0.8,0.2-1.2,0.3c-0.5,0.1-1,0.3-1.4,0.5c0.2-1.2,0.4-2.4,0.7-3.6c0.1-1.1,0.3-2,0.5-2.5l0.8-4.9
			l0.1-1.4c0-0.3-0.1-0.8-0.2-1.4c-0.1-0.5-0.3-0.8-0.6-0.8L22,14.6l-0.4-0.1c-0.3-0.1-0.6-0.3-0.7-0.3h-0.2
			c-0.1,0.1-0.1,0.1-0.1,0.1l-2,0.8c-0.8,0.3-1.5,0.7-2.2,1c-0.8,0.4-1.5,0.8-2,1l-1.5,0.8L12.7,18l-0.5,0.5
			c-0.3,0.3-0.6,0.6-0.6,0.8c-0.1,0.3-0.2,0.6-0.2,0.9c0,0.6,0.2,1,0.7,1c0.4,0.1,0.7,0.1,0.8,0.1c0.3,0,0.6-0.1,0.8-0.2
			c0.1-0.1,0.3-0.2,0.7-0.5l3.1-1.5L17.3,21c0,0.4-0.1,0.8-0.2,1.3c-0.2,0.6-0.3,1.1-0.3,1.7v0.3c0,0.2-0.1,0.4-0.1,0.6
			c-0.1,0.2-0.1,0.3-0.1,0.5l-0.1,0.8c-0.1,0.3-0.1,0.5-0.1,0.6c-0.1,0.2-0.1,0.3-0.1,0.4l-0.6,4.5l-3.4,1.5
			c-0.3,0.2-0.6,0.5-0.7,0.8c-0.1,0.4-0.1,0.9,0.2,1.5c0.2,0.6,0.7,0.8,1.4,0.6c0.1,0,0.2,0,0.3-0.1h0.3c0.2,0,0.4-0.1,0.6-0.3
			c0.1-0.1,0.3-0.2,0.6-0.3c0.3-0.1,0.8-0.3,1.5-0.6c0.6-0.2,1.3-0.4,1.9-0.7c0.4-0.1,0.8-0.3,1.2-0.4c0.3-0.1,0.6-0.1,0.8-0.3
			c0.2,0,0.4,0,0.7-0.1c0.1,0,0.3-0.1,0.6-0.3c0.1-0.1,0.4-0.1,0.8-0.2c0.3,0,0.6-0.1,0.8-0.1l0.7-0.2c0.3-0.1,0.5-0.1,0.8-0.1
			c0.2,0.1,0.4,0,0.7-0.3c0.2-0.2,0.4-0.6,0.6-1c0.1-0.3,0.1-0.8,0-1.4C25.9,29.3,25.7,29,25.4,28.8z M10.5,24.2
			c0-0.3-0.1-0.6-0.3-1c-0.3-0.3-0.4-0.7-0.6-1.3c0-2-0.1-3.4-0.3-4.2C9,17,8.7,16.6,8.6,16.4L7.3,15l-0.4-0.6
			c-0.3-0.1-0.5-0.4-0.6-0.8H6.2l-1-0.4l-0.5,0.4c-0.7,0-1.2,0.1-1.5,0.2c-0.4,0.2-0.7,0.4-0.9,0.6c-0.3,0.3-0.4,0.5-0.5,0.8
			c-0.1,0.2-0.1,0.3-0.1,0.5v0.5c0,0.5,0.1,0.9,0.2,1.2l-0.1,1.2C2,18.9,2,19.5,2,20.3c-0.1,0.8,0,1.5,0.2,2l-0.1,0.5l0.5,2
			c0.1,0.9,0.3,1.8,0.4,2.7c0.1,1,0.2,1.8,0.3,2.5c0.1,0.8,0.1,1.3,0.2,1.5c0.1,0.1,0.1,0.3,0.3,0.5c0.1,0.4,0.3,0.6,0.3,0.7v0.5
			c0,0.4,0.2,0.8,0.6,1.3C5.2,35,5.5,35.4,6,35.6c0.3,0.1,0.4,0.2,0.6,0.2c0.3,0,0.8-0.2,1.6-0.8c0.7-0.5,1.4-1,2-1.6
			c-0.1,0-0.3,0-0.3-0.1c-0.1,0-0.3-0.1-0.5-0.2c0.3-0.3,0.6-1,0.8-2c0.1-0.8,0.2-1.5,0.2-2.1l0.2-0.1c0-0.2,0.1-0.4,0.1-0.6V28
			c0-0.4-0.1-0.8-0.1-1.1c-0.1-0.3-0.1-0.5-0.1-0.8c0-0.3,0-0.7,0.1-1C10.4,24.8,10.5,24.4,10.5,24.2z M63.5,24.1
			c-0.3-0.4-0.6-0.8-0.9-1c-0.3-0.2-0.6-0.3-0.8-0.3c-0.3-0.2-0.4-0.5-0.5-0.8c-0.1-0.3-0.6-0.4-1.1-0.6c-0.1,0-0.2,0-0.3-0.1
			c-0.2,0-0.4,0.1-0.6,0.1c0.2-0.7,0.4-1.1,0.7-1.4c0.2-0.2,0.4-0.3,0.6-0.5c0.1-0.1,0.3-0.1,0.4-0.3c0.3-0.2,0.6-0.4,0.7-0.6
			c0.1-0.1,0.1-0.3-0.1-0.7c-0.3-0.3-0.6-0.6-0.9-0.7c-0.4,0-0.9,0.1-1.3,0.2c-2,0.8-3.4,2.1-4.1,4.1c-0.3,1-0.6,1.9-0.9,2.7
			c-0.3,1-0.6,1.9-0.8,2.7V27c-0.2,0.3-0.3,0.5-0.1,0.6c0,0.2,0.1,0.3,0.1,0.4c0,0.1-0.1,0.3-0.1,0.5c-0.1,0.3-0.1,0.4-0.1,0.6
			c-0.3,0.8-0.3,1.5,0,2.1l-0.2,0.7c0,0.4,0,0.7,0.1,0.9c0,0.3,0.1,0.5,0.1,0.7c0.1,0.6,0.2,1.1,0.4,1.6c0.1,0.6,0.3,1.2,0.6,1.7
			c0.1,0.2,0.4,0.6,1,1c0.6,0.6,1.3,0.8,2.2,0.8c0.3,0,0.6-0.1,1-0.2c0.5-0.1,1-0.2,1.4-0.3c0.3-0.1,0.7-0.3,1.1-0.7
			c2.2-2.1,3.3-5,3.4-8.6c0-1-0.1-2-0.2-2.8C64,25.3,63.8,24.6,63.5,24.1z M60.5,31.6c-0.3,0.9-0.8,1.6-1.3,2.1
			c-0.1,0.1-0.3,0.2-0.4,0.2c-0.1,0-0.1,0-0.1-0.1c-0.1,0-0.1-0.1-0.1-0.1c-0.3-0.3-0.4-0.9-0.5-1.6C58,31.4,58,30.6,58,29.8
			c0-1.3,0.1-2.7,0.2-4.1c0.2-0.1,0.4-0.1,0.6-0.1h0.3c0.7,0.2,1.2,0.6,1.5,1c0.1,0.6,0.3,1.3,0.3,2.4
			C60.9,29.9,60.7,30.7,60.5,31.6z M84.8,9.2c-0.2-0.4-0.5-0.9-0.8-1.4c-0.2,0-0.3,0-0.4-0.1c-0.1-0.1-0.2-0.1-0.3-0.3
			c-0.1,0-0.3-0.1-0.6-0.1c-0.4,0.1-0.8,0.2-0.9,0.2c-0.3,0.1-0.5,0.2-0.7,0.3c-0.5,0.6-0.8,1-0.8,1.3c-0.1,0.3-0.1,0.6-0.1,0.8
			l-0.7,0.5V11c0,0.1-0.1,0.3-0.1,0.4c-0.3,1-0.6,2.1-0.7,3.4c-0.2,1.4-0.4,2.9-0.6,4.3v0.3c0,0.2-0.1,0.3-0.1,0.4
			c-0.1,0.3-0.1,0.5-0.1,0.7c-0.1,0.3-0.1,0.6,0,1c-0.1,0.3-0.1,0.6-0.1,0.7c-0.1,0.3-0.1,0.5-0.2,0.7c-0.3,0.7-0.4,1.3-0.4,1.8
			c-0.1,0.4-0.1,0.8-0.1,1.3v2.1c-0.1,0.3-0.1,0.7-0.1,1c-0.1,0.4-0.1,0.8-0.2,1.1c-0.1,0.9-0.3,1.8-0.3,2.7
			C76.2,34,76.2,35,76.3,36v1c-0.1,0.3-0.1,0.5-0.1,0.6C76,37.8,76,38,76,38.3c0,0.4-0.1,0.8-0.1,1c-0.1,0.3-0.1,0.6,0.1,0.7
			c-0.4,1.1-0.6,2.1-0.6,3c-0.1,1-0.1,1.8-0.1,2.5v2.2c0.8,0.1,1.7,0,2.7-0.3c0.8-0.3,1.4-0.8,1.8-1.6c0.4-0.3,0.8-0.8,1.3-1.5
			c0.3-0.6,0.6-1.3,0.9-2.2l-0.1-0.4l0.3-1c0-0.4,0.1-0.8,0.1-1.3c0-0.3,0.1-0.8,0.2-1.3c0.1-0.8,0.2-1.6,0.3-2.4
			c0.1-0.7,0.1-1.4,0.1-2c-0.1-0.1-0.1-0.2-0.1-0.3c-0.1-0.1-0.1-0.2-0.1-0.3s0.1-0.3,0.3-0.6c0.1-0.1,0.1-0.3,0.2-0.6
			c0.1-0.4,0.1-0.9,0.1-1.3c0-0.3,0-0.7,0.1-1c0-0.3,0.1-0.6,0.1-0.9c0-0.2,0-0.4,0.1-0.6c0.2-0.5,0.3-1,0.4-1.5v-1.9
			c0-0.1,0-0.3,0.1-0.6c0-0.2,0.1-0.5,0.1-0.8c0-0.3,0-0.7,0.1-1.4c0-0.3,0-0.7,0.1-1c0-0.3,0-0.6,0.1-0.9c0-0.1,0-0.3,0.1-0.6v-0.5
			c0-0.2,0.1-0.4,0.1-0.7c0-0.2,0.1-0.5,0.2-0.8l0.4-1.7c0-0.5-0.1-1-0.3-1.5c0.1-0.3,0.3-0.7,0.3-1c0-0.3-0.1-0.5-0.1-0.7l-0.1-0.2
			c0-0.1,0.1-0.3,0.2-0.6c0.1-0.1,0.1-0.3,0.1-0.6l-0.2-0.6C85.2,10.3,85,9.8,84.8,9.2z M100.8,25.5c0-0.2,0-0.5,0.1-0.8
			c0.1-0.3,0.1-0.6,0.2-0.9c0-0.3,0.1-0.5,0.1-0.8c0-0.3,0-0.7-0.1-1c-0.1-0.1-0.1-0.2-0.1-0.5c-0.1-0.1-0.2-0.3-0.2-0.5
			c0-0.3-0.2-0.6-0.6-1c-0.4-0.3-0.8-0.5-1-0.6h-0.1c-0.4,0-0.8,0-1,0.1c-0.3,0.2-0.5,0.4-0.6,0.6c-0.1,0.3-0.3,0.5-0.3,0.7
			c-0.1,0.3-0.1,0.4-0.1,0.5v0.3L97,22.1L97,22.6c-0.1,0.3-0.1,0.5-0.1,0.6c-0.1,0.2-0.1,0.4-0.1,0.6c-0.1,0.1-0.1,0.3-0.1,0.5
			c-0.1,0.3-0.1,0.5-0.1,0.7l-0.3,0.5c0,0.1,0,0.3,0.1,0.6c-0.1,0.3-0.1,0.7-0.1,1c-0.1,0.4-0.1,0.8-0.2,1.2
			C96,28.5,96,28.7,96,28.8c-0.1,0.3-0.1,0.4-0.1,0.6c-0.1,0.6-0.1,0.9-0.1,1.2c0,0.3,0,0.6,0.1,0.7v0.6l-0.1,0.3v0.4
			c0,0.1,0,0.2,0.1,0.2V33c-0.1,0.3-0.1,0.6,0.1,0.8c0.1,0.3,0.1,0.5,0.3,0.6l0.3,0.4c0.1,0.1,0.4,0,0.7-0.1
			c0.3-0.1,0.6-0.3,0.8-0.5c0.3-0.1,0.5-0.3,0.7-0.6c0.1-0.2,0.3-0.4,0.3-0.6c0.4-1,0.8-1.8,1-2.6c0.1-0.3,0.2-0.5,0.3-0.8v-1
			c0-0.1,0.1-0.3,0.2-0.6c0-0.1,0.1-0.2,0.1-0.4c0-0.1,0-0.3,0.1-0.4c-0.1-0.1-0.1-0.3-0.1-0.6c-0.1-0.1-0.1-0.3,0-0.6V25.5z
			 M95.1,19.3c0.3-0.1,0.7-0.2,1.3-0.4l3.5-0.7l2.2-1.1c0.3,0,0.7,0,1.1-0.1c0.3,0,0.7-0.2,1.1-0.5c0.4-0.1,1.1-0.3,2-0.6
			c0.8-0.1,1.5-0.2,2-0.3c0.1,0,0.3-0.1,0.5-0.2c0.1-0.1,0.3-0.1,0.6-0.1c0.2,0.1,0.6,0.1,1,0c0.3,0,0.7-0.1,1-0.3
			c0.5-0.2,0.9-0.6,1.3-1.2c0.3-0.5,0.2-1.1-0.1-2c-0.1-0.3-0.4-0.5-0.8-0.6c-0.4-0.1-1.2-0.1-2.2,0.1c-1.4,0.3-2.7,0.6-3.9,0.8
			l-3.9,1l-4.2,1.3l-4.7,1.5c-0.7,0.4-1.2,0.8-1.5,1.2c-0.4,0.5-0.4,1.1,0.1,1.9c0.3,0.3,0.6,0.5,0.9,0.5c0.2,0.1,0.6,0.1,1,0
			c0.4-0.1,0.8-0.1,1.2-0.1C94.7,19.5,94.9,19.4,95.1,19.3z M137.3,11.2c-0.1-0.3-0.2-0.6-0.3-0.8c-0.1-0.1-0.1-0.3-0.1-0.5
			c0.1-0.6,0-1-0.2-1.2c-0.3-0.1-0.5-0.3-0.7-0.4l-0.3-0.1c-0.3-0.3-0.6-0.5-0.9-0.3c-0.3,0.2-0.6,0.4-0.8,0.6l-0.2,0.2
			c-0.3,0.3-0.6,0.5-0.8,0.7c-0.3,0.3-0.5,0.6-0.6,0.8V11l-0.1,0.6c-0.3,0.7-0.4,1.3-0.4,1.8c-0.1,1.4-0.1,2.4-0.2,3.2
			c-0.1,0.8-0.2,1.7-0.3,2.4c-0.1,0.4-0.1,0.8-0.1,1c-0.1,0.4-0.1,0.8-0.2,1.2v1.7c-0.1,0.3-0.1,0.6-0.1,1c0,0.3-0.1,0.5-0.1,0.7
			c-0.1,0.3-0.2,0.5-0.3,0.6c-0.1,0.2-0.2,0.4-0.2,0.6c0,0.3,0.1,0.6,0.3,0.8c-0.1,0.4-0.1,0.6-0.2,0.8c-0.1,0.1-0.2,0.3-0.2,0.6
			c-0.1,0.4-0.1,0.7,0,0.9c0,0.3,0.1,0.5,0.1,0.6c-0.3,0.1-0.4,0.2-0.5,0.3c-0.1,0.1-0.1,0.4,0.1,0.7V33c-0.1,0.9-0.3,1.7-0.6,2.4
			v0.4c-0.1,0.2-0.1,0.5-0.1,0.8v2c0,0.6-0.1,0.9-0.1,0.9c-0.3,0.3-0.3,0.5-0.3,0.6v0.6c0,0.3,0,0.4,0.1,0.4c0,0.1,0,0.3,0.1,0.5
			l0.6,1.5c0.1,0.3,0.6,0.6,1.1,0.7c0.1,0,0.3,0,0.8-0.1c0.4,0,0.8-0.1,1-0.3c0.2-0.1,0.4-0.5,0.7-1c0.2-0.5,0.4-1.1,0.6-1.9
			l0.3-0.2c0.2-0.6,0.3-1.2,0.5-1.7c0.1-0.6,0.1-1.2,0.3-1.9c0-0.3,0.1-0.7,0.3-1c0.1-0.3,0.3-0.7,0.3-1.1c0.1-1.3,0.1-2.7,0.3-4.1
			c0.1-1.4,0.1-2.6,0.3-3.7c0-0.1,0-0.3,0.1-0.6c0-0.1,0.1-0.3,0.1-0.4c0-0.1,0.1-0.3,0.1-0.4l-0.1-0.6c0.1-0.1,0.1-0.2,0.2-0.5
			c0-0.2,0-0.4,0.1-0.7c0-0.3,0.1-0.6,0.1-1c0-0.3,0.1-0.6,0.1-1c0-0.3,0-0.7,0.1-1.1c0-0.3,0.1-0.8,0.1-1.4c0-0.6,0-1,0.1-1.6
			l-0.3-0.3c0.1-0.8,0.2-1.5,0.2-2c0-0.2,0.1-0.4,0.1-0.6V14c0-0.3,0-0.5,0.1-0.8c0-0.3-0.1-0.5-0.2-0.6c0.1-0.1,0.1-0.3,0.3-0.6
			C137.3,11.8,137.3,11.5,137.3,11.2z M113.2,30.7c-0.2,0-0.5,0.1-0.8,0.1c-0.7,0.1-1.3,0.3-2,0.5l-2.2,0.6c0.1-0.2,0.2-0.5,0.3-0.8
			c0.1-0.3,0.2-0.6,0.3-1l0.3-0.8v-0.8l0.2-0.8c0,0,0-0.2,0.1-0.6c0-0.1,0.1-0.3,0.1-0.5c-0.1-0.3-0.1-0.7-0.1-1.1
			c0-0.1,0-0.4,0.1-0.8c0.1-0.3,0.1-0.8,0.2-1.3c0-0.4,0.1-0.8,0.1-1.1c0-0.2,0.1-0.3,0.1-0.5c-0.1-0.1-0.1-0.2-0.2-0.4
			c-0.1-0.1-0.2-0.3-0.2-0.6c-0.1-0.1-0.1-0.3-0.2-0.6c-0.1-0.5-0.3-0.9-0.6-1.3c-0.4-0.3-0.8-0.5-1.2-0.5c-0.8,0-1.3,0.3-1.6,0.8
			c-0.3,0.6-0.6,0.9-0.6,1.2l-0.3,1.5l-0.1,0.2c-0.1,0.1-0.1,0.3-0.1,0.5c0,0.3-0.1,0.4-0.1,0.6c-0.1,0.1-0.1,0.2-0.1,0.3
			c-0.1,0.2-0.1,0.6-0.1,1l-0.1,0.6l-0.1,0.8c-0.1,0.5-0.2,0.9-0.2,1.3c-0.1,0.4-0.1,0.9-0.2,1.4c-0.1,0.8-0.2,1.5-0.2,1.9
			s0,0.8,0.1,1v0.6l-0.1,0.3v0.5l0.1,0.3v0.3c-1.5,0.5-2.9,1-4.3,1.5l-4.2,1.5c-0.6,0.4-1,0.8-1.5,1.2c-0.6,0.4-0.8,0.8-0.9,1
			c-0.1,0.3-0.1,0.4,0.1,0.6c0.1,0.1,0.1,0.3,0.3,0.4c0.2,0.3,0.5,0.5,0.8,0.5c0.3,0.1,0.6,0.1,0.8,0l0.7-0.1
			c0.1,0.1,0.3,0.1,0.5,0.1c0.1,0.1,0.2,0.1,0.3,0.1l6.2-2.4c0.5-0.2,1-0.4,1.5-0.7c0.5-0.2,1-0.3,1.5-0.5l1.4-0.9h0.7l0.6-0.3
			c0.7-0.2,1.3-0.3,1.7-0.5c0.3,0,0.8-0.1,1.5-0.3l0.3,0.1c0.1,0,0.2-0.1,0.4-0.1c0.1,0,0.2-0.1,0.3-0.1l0.6-0.4l0.6-0.8v-0.3
			c0-0.1,0-0.3,0.1-0.6c0-0.2,0.1-0.4,0.1-0.6c-0.1-0.1-0.3-0.3-0.6-0.8C113.7,30.8,113.3,30.7,113.2,30.7z M127.3,7.1
			c-0.1-0.2-0.2-0.4-0.3-0.7c-0.1-0.2-0.3-0.5-0.5-0.9l-0.3-0.4c-0.1-0.1-0.3-0.3-0.3-0.6c-0.1-0.1-0.4-0.3-0.8-0.4
			c-0.4,0.1-0.7,0.2-0.8,0.3c-0.2,0.2-0.3,0.4-0.5,0.6l-0.5,0.5c-0.4,0.6-0.6,0.9-0.7,1.2c-0.1,0.3-0.1,0.6-0.1,0.8L122,8.1l-0.2,1
			c-0.3,1-0.6,2.1-0.7,3.5c-0.2,1.5-0.3,2.9-0.5,4.3c-0.1,0.3-0.2,0.7-0.3,1.2c-0.1,0.6-0.2,1.1-0.1,1.7c-1.3,0.3-2.4,0.6-3.4,0.8
			c-1,0.3-1.7,0.6-2.2,0.8c-0.2,0.1-0.3,0.2-0.4,0.3l-0.3,0.3c-0.1,0.1-0.2,0.1-0.3,0.1c-0.3,0-0.6,0.1-0.8,0.2
			c-0.3,0.1-0.4,0.5-0.4,1c0,0.4,0.1,0.8,0.3,1.1c0.2,0.4,0.8,0.8,2,0.9c0.3,0.1,0.7,0,1.1-0.2c0.4-0.1,0.7-0.3,0.8-0.4
			c0.3-0.1,0.8-0.3,1.3-0.4c0.5-0.1,1-0.3,1.5-0.4v2.6c-0.1,0.3-0.1,0.6-0.1,0.9c-0.1,0.3-0.1,0.6-0.1,0.9c-0.1,0.9-0.3,1.8-0.3,2.8
			c-0.1,1-0.1,2,0,3.1c-0.1,0.4-0.1,0.8-0.1,1.3c-0.1,0.4-0.1,0.8-0.1,1.2c-0.1,0.2-0.1,0.4-0.1,0.7c-0.1,0.3-0.1,0.6,0,0.9
			c-0.5,1.7-0.7,2.9-0.7,3.6c-0.1,0.8-0.1,1.5-0.1,2.2v2c1,0.1,2,0,2.9-0.3c0.8-0.3,1.4-0.8,1.8-1.6c0.3-0.3,0.8-0.8,1.3-1.5
			c0.4-0.6,0.8-1.3,1-2l-0.1-0.3l0.2-0.2l-0.1-0.8c0.2-1.3,0.4-2.6,0.6-4c0.1-1.3,0.2-2.4,0.2-3.4c-0.1,0-0.1-0.1-0.1-0.2
			c-0.1-0.1-0.1-0.1-0.1-0.3l0.6-1c0-0.5,0.1-1,0.1-1.5v-2.1c0-0.2,0-0.4,0.1-0.6c0.3-0.5,0.5-1,0.6-1.6v-1.7l0.1-0.3
			c0-0.2,0.1-0.5,0.1-0.9c0-0.3,0.1-0.9,0.1-1.7c0-0.4,0.1-1,0.1-1.6c0-0.6,0.1-1.1,0.2-1.6c0-0.3,0.1-0.6,0.1-1
			c0-0.3,0-0.6,0.1-0.8c0.1-0.6,0.1-1.2,0.3-1.7c0-0.4-0.1-0.9-0.3-1.4c0.2-0.4,0.3-0.8,0.3-1c-0.1-0.3-0.1-0.5-0.2-0.8
			c0.1-0.2,0.3-0.4,0.4-0.6c0.1-0.1,0.1-0.2,0.1-0.5l-0.4-0.8C127.5,8.1,127.3,7.7,127.3,7.1z M155,24.1c-0.3-0.4-0.6-0.8-0.9-1
			c-0.3-0.2-0.6-0.3-0.8-0.3c-0.3-0.2-0.4-0.5-0.5-0.8c-0.1-0.3-0.6-0.4-1.1-0.6c-0.1,0-0.2,0-0.3-0.1c-0.2,0-0.4,0.1-0.6,0.1
			c0.2-0.7,0.4-1.1,0.7-1.4c0.2-0.2,0.4-0.3,0.6-0.5c0.1-0.1,0.3-0.1,0.4-0.3c0.3-0.2,0.6-0.4,0.7-0.6c0.1-0.1,0.1-0.3-0.1-0.7
			c-0.3-0.3-0.6-0.6-0.9-0.7c-0.4,0-0.9,0.1-1.3,0.2c-2,0.8-3.4,2.1-4.1,4.1c-0.3,1-0.6,1.9-0.9,2.7c-0.3,1-0.6,1.9-0.8,2.7V27
			c-0.2,0.3-0.3,0.5-0.1,0.6c0,0.2,0.1,0.3,0.1,0.4c0,0.1-0.1,0.3-0.1,0.5c-0.1,0.3-0.1,0.4-0.1,0.6c-0.3,0.8-0.3,1.5,0,2.1
			l-0.2,0.7c0,0.4,0,0.7,0.1,0.9c0,0.3,0.1,0.5,0.1,0.7c0.1,0.6,0.2,1.1,0.4,1.6c0.1,0.6,0.3,1.2,0.6,1.7c0.1,0.2,0.4,0.6,1,1
			c0.6,0.6,1.3,0.8,2.2,0.8c0.3,0,0.6-0.1,1-0.2c0.5-0.1,1-0.2,1.4-0.3c0.3-0.1,0.7-0.3,1.1-0.7c2.2-2.1,3.3-5,3.4-8.6
			c0-1-0.1-2-0.2-2.8C155.5,25.3,155.2,24.6,155,24.1z M151.9,31.6c-0.3,0.9-0.8,1.6-1.3,2.1c-0.1,0.1-0.3,0.2-0.4,0.2
			c-0.1,0-0.1,0-0.1-0.1c-0.1,0-0.1-0.1-0.1-0.1c-0.3-0.3-0.4-0.9-0.5-1.6c-0.1-0.6-0.1-1.4-0.1-2.2c0-1.3,0.1-2.7,0.2-4.1
			c0.2-0.1,0.4-0.1,0.6-0.1h0.3c0.7,0.2,1.2,0.6,1.5,1c0.1,0.6,0.3,1.3,0.3,2.4C152.3,29.9,152.2,30.7,151.9,31.6z M176.3,9.2
			c-0.2-0.4-0.5-0.9-0.8-1.4c-0.2,0-0.3,0-0.4-0.1c-0.1-0.1-0.2-0.1-0.3-0.3c-0.1,0-0.3-0.1-0.6-0.1c-0.4,0.1-0.8,0.2-0.9,0.2
			c-0.3,0.1-0.5,0.2-0.7,0.3c-0.5,0.6-0.8,1-0.8,1.3c-0.1,0.3-0.1,0.6-0.1,0.8l-0.7,0.5V11c0,0.1-0.1,0.3-0.1,0.4
			c-0.3,1-0.6,2.1-0.7,3.4c-0.2,1.4-0.4,2.9-0.6,4.3v0.3c0,0.2-0.1,0.3-0.1,0.4c-0.1,0.3-0.1,0.5-0.1,0.7c-0.1,0.3-0.1,0.6,0,1
			c-0.1,0.3-0.1,0.6-0.1,0.7c-0.1,0.3-0.1,0.5-0.2,0.7c-0.3,0.7-0.4,1.3-0.4,1.8c-0.1,0.4-0.1,0.8-0.1,1.3v2.1
			c-0.1,0.3-0.1,0.7-0.1,1c-0.1,0.4-0.1,0.8-0.2,1.1c-0.1,0.9-0.3,1.8-0.3,2.7c-0.1,0.9-0.1,1.9-0.1,2.9v1c-0.1,0.3-0.1,0.5-0.1,0.6
			c-0.1,0.1-0.2,0.3-0.2,0.6c0,0.4-0.1,0.8-0.1,1c-0.1,0.3-0.1,0.6,0.1,0.7c-0.4,1.1-0.6,2.1-0.6,3c-0.1,1-0.1,1.8-0.1,2.5v2.2
			c0.8,0.1,1.7,0,2.7-0.3c0.8-0.3,1.4-0.8,1.8-1.6c0.4-0.3,0.8-0.8,1.3-1.5c0.3-0.6,0.6-1.3,0.9-2.2l-0.1-0.4l0.3-1
			c0-0.4,0.1-0.8,0.1-1.3c0-0.3,0.1-0.8,0.2-1.3c0.1-0.8,0.2-1.6,0.3-2.4c0.1-0.7,0.1-1.4,0.1-2c-0.1-0.1-0.1-0.2-0.1-0.3
			c-0.1-0.1-0.1-0.2-0.1-0.3s0.1-0.3,0.3-0.6c0.1-0.1,0.1-0.3,0.2-0.6c0.1-0.4,0.1-0.9,0.1-1.3c0-0.3,0-0.7,0.1-1
			c0-0.3,0.1-0.6,0.1-0.9c0-0.2,0-0.4,0.1-0.6c0.2-0.5,0.3-1,0.4-1.5v-1.9c0-0.1,0-0.3,0.1-0.6c0-0.2,0.1-0.5,0.1-0.8
			c0-0.3,0-0.7,0.1-1.4c0-0.3,0-0.7,0.1-1c0-0.3,0-0.6,0.1-0.9c0-0.1,0-0.3,0.1-0.6v-0.5c0-0.2,0.1-0.4,0.1-0.7
			c0-0.2,0.1-0.5,0.2-0.8l0.4-1.7c0-0.5-0.1-1-0.3-1.5c0.1-0.3,0.3-0.7,0.3-1c0-0.3-0.1-0.5-0.1-0.7l-0.1-0.2c0-0.1,0.1-0.3,0.2-0.6
			c0.1-0.1,0.1-0.3,0.1-0.6l-0.2-0.6C176.6,10.3,176.4,9.8,176.3,9.2z M205.1,33.8c-0.1,0-0.3-0.1-0.3-0.3c-0.1-0.1-0.3-0.3-0.3-0.4
			l-0.6-0.9c-0.1-0.1-0.2-0.3-0.2-0.5c-0.1-0.1-0.2-0.1-0.2-0.3l0.1-0.1c-0.3-0.2-0.6-0.4-0.6-0.7c-0.1-0.1-0.2-0.3-0.2-0.5
			c-0.1-0.1-0.3-0.3-0.6-0.4c-0.3-0.1-0.4-0.3-0.4-0.5c-0.3-0.4-0.6-0.7-0.6-0.8c-0.1,0-0.2-0.1-0.3-0.2c-0.1-0.1-0.3-0.4-0.6-0.7
			c-0.2-0.2-0.3-0.3-0.3-0.3c-0.2-0.1-0.3-0.1-0.4-0.3c-0.1,0-0.3-0.1-0.4-0.2l-0.6-0.5c-0.1-0.1-0.3-0.1-0.3-0.2
			c-0.1,0-0.2,0-0.3-0.1l-0.1-0.2c-0.3,0-0.5,0-0.8-0.1c-0.3,0-0.6,0-0.7-0.1c-0.3,0.4-0.6,0.6-0.8,0.7c-0.3,0.1-0.3,0.4-0.3,0.9
			c0.1,0.1,0.1,0.3,0.1,0.3c-0.1,0.2-0.1,0.4-0.1,0.6c0,0.3,0.1,0.7,0.3,1.2l0.3,0.1l0.1,0.3c0.2,0.3,0.4,0.5,0.7,0.7
			c0.1,0.3,0.3,0.5,0.5,0.6l0.1,0.5l0.3,0.1l0.1,0.2c0.1,0.3,0.3,0.5,0.6,0.6c0.2,0.3,0.4,0.6,0.7,0.9c0.1,0.3,0.3,0.6,0.5,0.7
			c0.2,0.3,0.4,0.5,0.6,0.6c0.1,0.2,0.3,0.3,0.5,0.4l0.6,0.2h0.3l0.6,0.4c0.3,0.5,0.8,0.8,1.3,0.9l0.7,0.3c0.2-0.1,0.3-0.3,0.5-0.4
			c0-0.1,0.1-0.1,0.2-0.3V36l0.1-0.1c0.1-0.1,0.1-0.3,0.3-0.6c0.1-0.1,0.1-0.4,0.1-0.8l-0.1-0.1C205,34.2,205,34,205.1,33.8z
			 M195.4,20.8l0.1-0.6l0.3-0.6c0.2-0.6,0.3-1,0.1-1.3l0.5-0.3v-2.6c-0.1-0.6-0.3-1-0.6-1.5c-0.2-0.2-0.5-0.4-0.8-0.7
			c-0.3-0.1-0.8-0.2-1.3-0.2c-0.8,0.1-1.6,0.2-2.2,0.3l-1.9,0.6c-0.8,0.3-1.4,0.6-1.8,0.7c-0.4,0.2-0.8,0.3-1,0.4
			c-0.4,0.1-0.7,0.3-0.9,0.3c-0.3,0.1-0.4,0.2-0.6,0.2c-0.2,0.1-0.3,0.1-0.3,0.1c-0.6,0.3-1,0.7-1.3,1.4c-0.3,0.7-0.2,1.4,0.5,2
			c0.1,0.1,0.3,0.3,0.7,0.3c0.3,0.1,0.7,0.1,1-0.1c0.7-0.4,1.5-0.7,2.4-1c0.1,0,0.3-0.1,0.6-0.3c0.1-0.1,0.2-0.1,0.3-0.2
			c0.3-0.2,0.8-0.4,1.3-0.6c0.4-0.1,0.8-0.1,1.1-0.3c-0.3,1.3-0.6,2.4-0.8,3.6c-0.4,1.2-0.7,2-0.8,2.3l-0.5,1.5
			c-0.1,0.4-0.3,1-0.6,1.5c-0.1,0.4-0.2,0.7-0.3,1c-0.1,0.3-0.3,0.7-0.3,1v0.3l-0.3,0.5l-0.8,2c-0.3,0.6-0.5,1.3-0.8,2l-0.7,1.1
			l-0.1,0.8l-0.6,0.9V36c-0.4,0.3-0.6,0.6-0.5,0.8c0,0.4,0.1,0.8,0.3,1c0.1,0.4,0.4,0.8,0.8,1.1c0.4,0.1,1,0.1,1.7-0.2
			c0.3-0.1,0.6-0.3,0.8-0.6c0.1-0.3,0.1-0.4,0.2-0.6c0.1-0.1,0.2-0.1,0.3-0.3c0.1,0,0.1-0.1,0.3-0.3c0.1-0.2,0.2-0.5,0.3-0.8
			l0.7-1.4c0.1-0.1,0.3-0.6,0.6-1.5c0.3-0.8,0.7-1.7,1.1-2.7c0.2-0.5,0.3-0.9,0.5-1.2c0.1-0.3,0.1-0.5,0.1-0.8l0.5-0.5
			c0.2-0.3,0.3-0.6,0.4-0.8v-0.7c0.3-0.7,0.5-1.2,0.6-1.5c0-0.1,0.1-0.3,0.1-0.5c0-0.1,0-0.3,0.1-0.6c0,0,0.1-0.2,0.4-0.5
			c0.1-0.1,0.2-0.3,0.2-0.7c0.1-0.3,0.2-0.6,0.3-1C195.2,21.6,195.2,21.2,195.4,20.8z M218.8,9.9l-0.2-0.6c-0.1-0.5-0.3-1-0.5-1.5
			c-0.2-0.4-0.5-0.9-0.8-1.4c-0.2,0-0.3,0-0.4-0.1c-0.1-0.1-0.2-0.1-0.3-0.3c-0.1,0-0.3-0.1-0.6-0.1c-0.4,0.1-0.8,0.2-0.9,0.2
			c-0.3,0.1-0.5,0.2-0.7,0.3c-0.5,0.6-0.8,1-0.8,1.3c-0.1,0.3-0.1,0.6-0.1,0.8L212.8,9v0.6c0,0.1-0.1,0.3-0.1,0.4
			c-0.3,1-0.6,2.1-0.7,3.4c-0.2,1.4-0.4,2.9-0.6,4.3v0.3c0,0.2-0.1,0.3-0.1,0.4c-0.1,0.3-0.1,0.5-0.1,0.7c-0.1,0.3-0.1,0.6,0,1
			c-0.1,0.3-0.1,0.6-0.1,0.7c-0.1,0.3-0.1,0.5-0.2,0.7c-0.3,0.7-0.4,1.3-0.4,1.8c-0.1,0.4-0.1,0.8-0.1,1.3v2.1
			c-0.1,0.3-0.1,0.7-0.1,1c-0.1,0.4-0.1,0.8-0.2,1.1c-0.1,0.9-0.3,1.8-0.3,2.7c-0.1,0.9-0.1,1.9-0.1,2.9v1c-0.1,0.3-0.1,0.5-0.1,0.6
			c-0.1,0.1-0.2,0.3-0.2,0.6c0,0.4-0.1,0.8-0.1,1c-0.1,0.3-0.1,0.6,0.1,0.7c-0.4,1.1-0.6,2.1-0.6,3c-0.1,1-0.1,1.8-0.1,2.5v2.2
			c0.8,0.1,1.7,0,2.7-0.3c0.8-0.3,1.4-0.8,1.8-1.6c0.4-0.3,0.8-0.8,1.3-1.5c0.3-0.6,0.6-1.3,0.9-2.2l-0.1-0.4l0.3-1
			c0-0.4,0.1-0.8,0.1-1.3c0-0.3,0.1-0.8,0.2-1.3c0.1-0.8,0.2-1.6,0.3-2.4c0.1-0.7,0.1-1.4,0.1-2c-0.1-0.1-0.1-0.2-0.1-0.3
			c-0.1-0.1-0.1-0.2-0.1-0.3c0-0.1,0.1-0.3,0.3-0.6c0.1-0.1,0.1-0.3,0.2-0.6c0.1-0.4,0.1-0.9,0.1-1.3c0-0.3,0-0.7,0.1-1
			c0-0.3,0.1-0.6,0.1-0.9c0-0.2,0-0.4,0.1-0.6c0.2-0.5,0.3-1,0.4-1.5v-1.9c0-0.1,0-0.3,0.1-0.6c0-0.2,0.1-0.5,0.1-0.8
			c0-0.3,0-0.7,0.1-1.4c0-0.3,0-0.7,0.1-1c0-0.3,0-0.6,0.1-0.9c0-0.1,0-0.3,0.1-0.6v-0.5c0-0.2,0.1-0.4,0.1-0.7
			c0-0.2,0.1-0.5,0.2-0.8l0.4-1.7c0-0.5-0.1-1-0.3-1.5c0.1-0.3,0.3-0.7,0.3-1c0-0.3-0.1-0.5-0.1-0.7l-0.1-0.2c0-0.1,0.1-0.3,0.2-0.6
			C218.8,10.3,218.8,10.2,218.8,9.9z"/>
	</g>
</g>
</svg>
