<?xml version="1.0" encoding="utf-8"?>
<!-- Generator: Adobe Illustrator 22.0.1, SVG Export Plug-In . SVG Version: 6.00 Build 0)  -->
<svg version="1.1" id="레이어_1" xmlns="http://www.w3.org/2000/svg" xmlns:xlink="http://www.w3.org/1999/xlink" x="0px"
	 y="0px" viewBox="0 0 164.4 62.4" style="enable-background:new 0 0 164.4 62.4;" xml:space="preserve">
<style type="text/css">
	.st0{fill:#FFFFFF;}
</style>
<g>
	<g>
		<path class="st0" d="M15.5,23.3v-0.1L16,23c0.1-0.8,0.2-1.5,0.2-2.1c0-0.5-0.2-1.1-0.5-1.8c-0.4-0.6-1.1-1-2.2-1
			c-1.1,0.1-2,0.1-2.7,0.2C10,18.5,9,18.6,8,18.9c-0.6,0.2-1.1,0.4-1.6,0.4c-0.6,0.1-1.2,0.3-1.8,0.5H4.3c-0.6,0.1-1,0.4-1.3,0.7
			c-0.4,0.4-0.6,0.8-0.6,1.3c0,0.4,0.1,0.6,0.4,0.9c0.3,0.4,0.8,0.5,1.7,0.5c0.1,0,0.4-0.1,0.7-0.2c0.3,0,0.6-0.1,0.9-0.2
			c0.3,0,0.6-0.1,0.8-0.2c0.2,0,0.4-0.1,0.4-0.1c0.1,0,0.5-0.1,0.9-0.3C8.5,22,8.9,22,9.5,21.8c0.4,0,1.1-0.1,1.8-0.3
			c-0.6,1.8-1.3,3.4-2.1,5l-2.5,4.6l-0.4,0.4c-0.5,0.8-0.9,1.6-1.3,2.5c-0.4,0.9-1,1.6-1.7,2.1l0.1,0.5l-0.7,0.8v0.4
			C2.2,37.9,2,38.2,2,38.6c0,0.6,0.1,0.9,0.4,1.2c0.1,0.4,0.4,0.6,0.6,0.7c0.2,0.1,0.4,0.2,0.6,0.2c0.1,0.1,0.3,0.1,0.3,0.1
			c0.3,0,0.7-0.1,1.2-0.4C5.5,40.2,5.8,40,6,39.7l0.8-0.6c0.5-0.7,1-1.5,1.5-2.3l1.3-2.2c0.5-0.8,0.8-1.4,1.1-1.7
			c0.1-0.3,0.3-0.5,0.4-0.8v-0.3l0.6-0.3c0.3-0.3,0.6-0.6,0.7-1.1c0.1-0.4,0.3-0.7,0.4-1.1c0.1-0.3,0.2-0.6,0.4-1.1
			c0.1-0.3,0.4-0.6,0.6-0.9c0.8-1.3,1.3-2.3,1.5-3C15.4,23.8,15.5,23.4,15.5,23.3z M37.7,10.8c-0.1-0.2-0.2-0.4-0.3-0.7
			c-0.1-0.2-0.3-0.5-0.5-0.9l-0.3-0.4c-0.1-0.1-0.3-0.4-0.4-0.6c-0.1-0.1-0.4-0.3-0.8-0.4C35.1,8,34.8,8,34.7,8.2
			c-0.2,0.2-0.4,0.4-0.5,0.6l-0.5,0.5c-0.4,0.6-0.6,0.9-0.7,1.2c-0.1,0.3-0.1,0.6-0.1,0.8l-0.6,0.6l-0.2,1c-0.4,1-0.6,2.1-0.7,3.5
			c-0.2,1.5-0.4,2.9-0.5,4.3c-0.1,0.3-0.2,0.6-0.2,0.8c-0.1,0.4-0.2,0.7-0.2,1.1c-1.8,0.4-3.4,0.8-4.8,1.2c-1.5,0.4-2.5,0.8-3,1
			c-0.2,0.1-0.4,0.2-0.4,0.3l-0.4,0.4c-0.1,0.1-0.2,0.1-0.4,0.1c-0.4,0-0.6,0.1-0.8,0.2c-0.3,0.1-0.4,0.5-0.4,1.1
			c0,0.4,0.1,0.8,0.4,1.1c0.2,0.4,0.8,0.8,2,0.9c0.3,0.1,0.7,0,1.1-0.2c0.4-0.1,0.7-0.3,0.8-0.4l2.5-0.7c0.8-0.2,1.8-0.4,2.7-0.7
			v0.1c-0.1,0.3-0.1,0.6-0.1,1v2.5c-0.1,0.4-0.1,0.6-0.1,0.9c-0.1,0.4-0.1,0.6-0.1,0.9c-0.1,0.9-0.3,1.8-0.3,2.8c-0.1,1-0.1,2,0,3.1
			c-0.1,0.4-0.1,0.8-0.1,1.3c-0.1,0.4-0.1,0.8-0.1,1.2c-0.1,0.2-0.1,0.4-0.1,0.7c-0.1,0.4-0.1,0.6,0,0.9c-0.5,1.7-0.7,2.9-0.7,3.6
			c-0.1,0.8-0.1,1.5-0.1,2.2v2c1,0.1,2,0,2.9-0.3c0.8-0.3,1.4-0.8,1.8-1.6c0.4-0.3,0.8-0.8,1.3-1.5c0.4-0.6,0.8-1.3,1.1-2l-0.1-0.3
			l0.2-0.2l-0.1-0.8c0.2-1.3,0.4-2.6,0.6-4c0.1-1.3,0.2-2.5,0.2-3.4c-0.1,0-0.1-0.1-0.1-0.2c-0.1-0.1-0.1-0.1-0.1-0.3l0.6-1
			c0-0.5,0.1-1,0.1-1.5v-2.1c0-0.2,0-0.4,0.1-0.6c0.3-0.5,0.5-1.1,0.6-1.6v-1.7l0.1-0.3c0-0.2,0.1-0.5,0.1-0.9
			c0-0.4,0.1-0.9,0.1-1.8c0-0.4,0.1-1,0.1-1.6c0-0.6,0.1-1.1,0.2-1.6c0-0.3,0.1-0.6,0.1-1c0-0.3,0-0.6,0.1-0.8
			c0.1-0.6,0.1-1.2,0.3-1.8c0-0.4-0.1-0.9-0.4-1.4c0.2-0.4,0.3-0.8,0.3-1.1C38.1,14.5,38,14.3,38,14c0.1-0.2,0.3-0.4,0.4-0.6
			c0.1-0.1,0.1-0.2,0.1-0.5l-0.4-0.8C37.9,11.8,37.7,11.4,37.7,10.8z M47.7,15c-0.1-0.3-0.2-0.6-0.3-0.8c-0.1-0.1-0.1-0.3-0.1-0.5
			c0.1-0.6,0-1.1-0.2-1.2c-0.3-0.1-0.5-0.3-0.7-0.4l-0.3-0.1c-0.3-0.4-0.6-0.5-0.9-0.4c-0.4,0.2-0.6,0.4-0.8,0.6l-0.2,0.2
			c-0.3,0.3-0.6,0.5-0.8,0.7c-0.3,0.3-0.5,0.6-0.6,0.8v0.8l-0.1,0.6c-0.3,0.7-0.4,1.3-0.4,1.8c-0.1,1.4-0.1,2.5-0.2,3.2
			c-0.1,0.8-0.2,1.7-0.4,2.5c-0.1,0.4-0.1,0.8-0.1,1.1c-0.1,0.4-0.1,0.8-0.2,1.2v1.7c-0.1,0.3-0.1,0.6-0.1,1c0,0.3-0.1,0.5-0.1,0.7
			c-0.1,0.3-0.2,0.5-0.4,0.6c-0.1,0.2-0.2,0.4-0.2,0.6c0,0.4,0.1,0.6,0.3,0.8c-0.1,0.4-0.1,0.6-0.2,0.8c-0.1,0.1-0.2,0.4-0.2,0.6
			c-0.1,0.4-0.1,0.7,0,0.9c0,0.3,0.1,0.5,0.1,0.6c-0.3,0.1-0.4,0.2-0.5,0.3c-0.1,0.1-0.1,0.4,0.1,0.7v2.5c-0.1,0.9-0.3,1.7-0.6,2.4
			v0.4c-0.1,0.2-0.1,0.5-0.1,0.8v2c0,0.6-0.1,0.9-0.1,0.9c-0.3,0.3-0.4,0.5-0.3,0.6v0.6c0,0.3,0,0.4,0.1,0.4c0,0.1,0,0.3,0.1,0.5
			l0.6,1.5c0.1,0.4,0.6,0.6,1.1,0.7c0.1,0,0.4,0,0.8-0.1c0.4,0,0.8-0.1,1.1-0.4c0.2-0.1,0.4-0.5,0.7-1.1c0.2-0.5,0.4-1.1,0.6-1.9
			l0.3-0.2c0.2-0.6,0.4-1.2,0.5-1.8c0.1-0.6,0.1-1.2,0.3-1.9c0-0.4,0.1-0.7,0.3-1.1c0.1-0.3,0.3-0.7,0.4-1.1
			c0.1-1.3,0.1-2.7,0.3-4.1c0.1-1.4,0.1-2.6,0.3-3.7c0-0.1,0-0.4,0.1-0.6c0-0.1,0.1-0.3,0.1-0.4c0-0.1,0.1-0.3,0.1-0.4l-0.1-0.6
			c0.1-0.1,0.1-0.2,0.2-0.5c0-0.2,0-0.4,0.1-0.7c0-0.3,0.1-0.6,0.1-1c0-0.3,0.1-0.6,0.1-1c0-0.4,0-0.7,0.1-1.1
			c0-0.4,0.1-0.8,0.1-1.4c0-0.6,0-1.1,0.1-1.6l-0.3-0.3c0.1-0.8,0.2-1.5,0.2-2c0-0.2,0.1-0.4,0.1-0.6v-0.6c0-0.3,0-0.5,0.1-0.8
			c0-0.3-0.1-0.5-0.2-0.6c0.1-0.1,0.1-0.3,0.3-0.6C47.8,15.5,47.8,15.3,47.7,15z M21.4,35.5c-0.3-0.4-0.5-0.8-0.8-1.3
			c-0.4-0.4-0.6-0.9-0.9-1.5c0,0-0.1-0.1-0.3-0.4c-0.2-0.2-0.4-0.5-0.6-0.8c-0.3-0.3-0.5-0.6-0.7-0.8c-0.3-0.2-0.4-0.4-0.5-0.4
			l-0.4-0.4c-0.3-0.2-0.5-0.4-0.6-0.4c-0.1,0-0.3,0-0.4-0.1c-0.3,0-0.4,0.1-0.6,0.1c-0.2,0.1-0.4,0.1-0.6,0.1L14.5,30
			c-0.3,0.3-0.5,0.6-0.5,0.7c-0.1,0.2-0.1,0.4-0.1,0.6c0,0.1,0,0.2,0.1,0.2v1.1c0,0.1,0,0.3,0.1,0.4c0,0.1,0.1,0.4,0.1,0.5l0.4,0.4
			c0.1,0.3,0.2,0.6,0.4,0.8c0.1,0.4,0.3,0.7,0.6,0.8l0.1,0.3c0.1,0.1,0.3,0.3,0.6,0.6c0.2,0.4,0.3,0.5,0.3,0.4
			c0.3,0.5,0.6,0.9,1.1,1.3c0.4,0.5,0.7,0.8,1.1,1.1c0,0,0.1,0.1,0.4,0.2c0.2,0.2,0.5,0.4,0.8,0.6c0.3,0.2,0.6,0.4,0.8,0.5
			c0.3,0.1,0.5,0.2,0.6,0.2l0.4-0.2c0.1-0.1,0.2-0.6,0.5-1.8c0.1-0.4,0.1-0.9-0.1-1.4C22,36.9,21.7,36.3,21.4,35.5z M74.4,37.1
			c0-0.5-0.1-1.1-0.6-1.7c0-0.4-0.1-0.8-0.3-1c-0.3-0.1-0.7-0.2-1.2-0.4c-0.4-0.1-0.7-0.2-1-0.1c-0.4,0.1-0.6,0.2-0.8,0.3l-0.3,0.2
			c-0.3,0.2-0.6,0.4-0.8,0.5c-0.3,0.2-0.5,0.5-0.6,0.8c-0.1,0.2-0.1,0.4-0.1,0.4v0.2c-0.1,0.1-0.2,0.3-0.2,0.4
			c-0.1,0.3-0.2,0.6-0.2,1.1c0,0.9-0.1,1.6-0.1,2c-0.1,0.5-0.2,1-0.3,1.5c-0.1,0.3-0.1,0.5-0.1,0.8c-0.1,0.3-0.1,0.6-0.1,0.9
			c0,0.4,0,0.8,0.1,1.1c0,0.4,0,0.8-0.1,1.3l-0.3,0.2c-0.1,0.6-0.1,0.9-0.1,1.2c-0.1,0.4-0.1,0.6-0.3,0.7c-0.1,0.1-0.1,0.4,0,0.5
			c0.1,0.2,0.1,0.4,0.1,0.5c-0.1,0.2-0.2,0.4-0.2,0.5c-0.1,0.1-0.1,0.4,0,0.5C67,50,67,50.5,67,51c-0.1,0.6-0.2,1.1-0.4,1.5
			l-0.1,0.6l0.1,0.4v1.6c-0.1,0.1-0.1,0.2-0.1,0.4c-0.1,0.1-0.1,0.2-0.1,0.4v0.3c-0.1,0.2-0.1,0.4,0,0.6c0,0.1,0.1,0.2,0.4,0.4
			l0.4,0.8l0.3,0.1c0.1,0.1,0.2,0.1,0.4,0.3c0.1,0.1,0.5,0.1,0.9,0.3c0.1,0,0.4-0.1,0.8-0.1c0.4-0.1,0.7-0.2,1-0.3s0.6-0.4,1-0.8
			c0.3-0.6,0.4-1,0.4-1.3H72c0.5-0.8,0.8-1.7,0.8-2.6c0-0.1,0.1-0.2,0.1-0.2c0-0.1,0-0.2,0.1-0.2c0.1-0.4,0.2-0.7,0.4-1.1
			c0.1-0.5,0.1-1.1,0.2-1.8c0-0.6,0-1.2,0.1-1.8c0-0.4,0.1-0.8,0.1-1.2c0-0.4,0-0.7,0.1-1.1l0.2-0.4v-0.4c0.1,0,0.1-0.1,0.2-0.4
			v-1.3c0.1-0.6,0.1-1.2,0.1-1.8c0-0.4,0-1,0.1-1.5L74.1,40c0.1-0.6,0.2-1.3,0.2-2.1l-0.1-0.2c0.1-0.1,0.1-0.1,0.1-0.3
			C74.3,37.3,74.3,37.2,74.4,37.1z M82.7,26h-0.4c-0.2,0-0.4-0.1-0.7-0.1c-0.3,0-0.6,0.1-0.8,0.1c-3.6,0.7-7.6,1.5-11.6,2.5
			c-4.1,1.1-8.1,2.1-11.7,3.2c-0.8,0.3-1.6,0.6-2.4,1.1c-0.8,0.6-1.3,1-1.4,1.3c0,0.4,0.1,0.8,0.6,1.1c0.3,0.4,0.6,0.6,0.8,0.7h0.6
			c0.3,0,0.5,0,0.8-0.1c0.2,0,0.5-0.1,0.8-0.1c0.3,0,0.4-0.1,0.6-0.1c0.2,0.2,0.6,0.3,1.1,0.1l6-1.7l0.6-0.3c0.4-0.2,1-0.4,1.7-0.7
			c0.6-0.1,1.3-0.3,2.2-0.3c0.4,0,0.8-0.1,1.1-0.3c0.3-0.1,0.5-0.3,0.8-0.5c0.1-0.1,0.4-0.1,0.6-0.1c0.1,0.1,0.2,0.1,0.4,0.1
			c0.1,0.1,0.3,0.1,0.6,0.1l0.1-0.4c1.1-0.3,2.2-0.6,3.4-0.9c1.1-0.3,2.1-0.5,3.2-0.6c0.4,0.2,0.7,0.2,1.1,0.1
			c0.4,0.1,0.9,0.1,1.4-0.1l0.2-0.1c0.1-0.1,0.4-0.3,0.7-0.5l0.8-0.4c0-0.1,0-0.4,0.1-0.6v-1.6c-0.1-0.3-0.4-0.6-0.7-1
			C83,26.1,82.9,26.1,82.7,26z M71.3,16.2L71,16.2c-0.1,0.1-0.3,0.2-0.4,0.4c-0.2,0.1-0.3,0.3-0.3,0.4c-0.3,0.4-0.2,0.9,0.1,1.3
			c0.3,0.5,0.6,0.8,0.9,0.9l0.6,0.6c0.1,0.1,0.3,0.4,0.6,0.5c0.2,0.3,0.4,0.4,0.6,0.5h0.3c0.3,0.3,0.6,0.5,1,0.8
			c0.3,0.3,0.6,0.6,1,0.8c0.3,0.3,0.6,0.5,0.9,0.6c0.3,0.3,0.5,0.4,0.6,0.4h0.3c0.1,0.1,0.4,0.3,0.6,0.3c0.1,0.1,0.2,0.1,0.4,0.2
			c0.2,0.1,0.4,0.2,0.6,0.2c0.1,0,0.4,0,0.6-0.1l0.4-0.6c0.1-0.2,0.2-0.6,0.3-1.1v-1.1h-0.1v-0.3c-0.4-0.3-0.6-0.5-0.6-0.6
			C79.1,20.2,79,20,79,19.9l-0.2-0.2l-0.2-0.1l-0.9-0.8c-0.1-0.1-0.2-0.1-0.2-0.2c-0.1,0-0.1-0.1-0.1-0.1c-0.1-0.1-0.2-0.3-0.4-0.4
			c-0.1-0.1-0.4-0.2-0.8-0.4c-0.1-0.1-0.5-0.4-0.9-0.6c-0.5-0.3-0.9-0.4-1.2-0.6c-0.3-0.1-0.4-0.1-0.4-0.2h-0.3l-1.1-0.1l-0.6,0.1
			H71.3z M55.9,27.4c0.1,0.1,0.2,0.1,0.4,0.1c0.4,0.1,0.6,0.1,0.8,0.1l0.5,0.1c0.3,0,0.5-0.1,0.8-0.3c0.1-0.1,0.3-0.4,0.4-0.5
			c0.3,0,0.6-0.1,0.9-0.5l0.7-0.7c0.1-0.1,0.2-0.3,0.4-0.4l0.5-0.5c0.3-0.2,0.6-0.6,1.1-1.2c0.4-0.5,0.7-0.9,1-1.3
			c0.6-0.7,1.1-1.2,1.5-1.6c0.3-0.4,0.5-0.6,0.6-0.7l0.2-0.5l0.9-0.5c0,0,0.1-0.1,0.2-0.3c0.1-0.1,0.1-0.3,0.3-0.6
			c0,0,0.1-0.1,0.1-0.2c0-0.1,0.1-0.1,0.1-0.3l0.2-0.2c0.1-0.2,0.2-0.4,0.4-0.5c0-0.1,0.1-0.2,0.2-0.4c0.1-0.1,0.1-0.2,0.3-0.4
			c0-0.1,0.1-0.3,0.4-0.6c0.1-0.1,0.2-0.2,0.4-0.3c0.1,0,0.2-0.1,0.4-0.3l0.8-1.1L70.2,14l0.7-0.6c0.1-0.2,0.1-0.4,0.2-0.5
			c0,0,0-0.1,0.1-0.2c0.1-0.2,0.1-0.4,0.3-0.7c0.1-0.1,0.1-0.4,0.2-0.6l0.2-0.8c0-0.2-0.2-0.5-0.5-0.8c-0.1-0.4-0.4-0.8-0.8-1.2
			c-0.4-0.4-0.9-0.6-1.3-0.7c-1,0-1.8,0.1-2.7,0.1c-0.9,0.1-1.7,0.2-2.4,0.4l-0.9,0.2c-0.3,0.1-0.5,0.2-0.6,0.2
			c-0.3,0.1-0.5,0.1-0.7,0.1l-2.2,0.6c-0.5,0.1-0.9,0.4-1.3,0.8c-0.4,0.4-0.6,0.9-0.5,1.3c0.1,0.4,0.2,0.7,0.5,0.9
			c0.1,0.3,0.4,0.4,0.8,0.5c0.3,0.1,0.6,0.2,0.9,0.1c0.3-0.1,0.6-0.2,1.1-0.3c0.4,0,0.6-0.1,0.9-0.2c0.1,0,0.1,0,0.3-0.1h0.2
			c0.2,0,0.4-0.1,0.7-0.4c0.4-0.1,1-0.3,1.6-0.4c0.6,0,1.1-0.1,1.7-0.2c-0.6,1-1.3,1.8-1.9,2.6c-0.7,0.8-1.3,1.7-2,2.5
			c-0.2,0.2-0.4,0.4-0.4,0.6c-0.1,0.2-0.4,0.4-0.5,0.6l-0.2,0.4l-0.4,0.2c-0.6,0.6-1.1,1.2-1.5,1.8c-0.6,0.6-1.1,1.2-1.5,1.8l-1,0.7
			c0,0.1-0.1,0.4-0.1,0.6l-0.8,0.8l-0.1,0.4h-0.1c-0.4,0.1-0.7,0.4-0.8,0.6c-0.1,0.4-0.1,0.7,0,1.1C55.4,26.4,55.6,26.9,55.9,27.4z
			 M95.5,24.8c0.1,0.4,0.2,0.7,0.4,0.7c0.1,0.1,0.4,0.1,0.8,0.1c0.4,0.1,0.7,0.1,1-0.1c0.3-0.1,0.5-0.2,0.6-0.4
			c0.1,0,0.5-0.1,0.9-0.3c0.4-0.1,0.8-0.3,1.4-0.4c0.4-0.1,0.9-0.2,1.5-0.4c0.4-0.1,0.8-0.1,1.1-0.2h0.6c0.1,0.1,0.4,0,0.5-0.2
			c0.1-0.1,0.4-0.1,0.7-0.1c0.2,0,0.5,0,0.9-0.1c0.2,0.1,0.4,0.2,0.7,0.2c0.2,0.1,0.4,0,0.7-0.3c0.3-0.2,0.6-0.6,0.8-1
			c0.1-0.4,0.2-0.9,0.2-1.6c0-0.3-0.1-0.6-0.4-0.8c-0.4-0.2-0.8-0.3-1.3-0.2l-1.1,0.2c0.2-0.8,0.5-1.8,0.9-3.1
			c0.4-1.1,0.8-2.7,1.3-4.6l0.2-1.6v-0.4c0-0.1-0.1-0.2-0.1-0.5c-0.1,0-0.1-0.2-0.1-0.5V8.5c-0.1,0-0.3-0.1-0.5-0.3
			c-0.1-0.1-0.3-0.2-0.4-0.4c-0.1-0.1-0.4-0.3-0.5-0.4c-0.3-0.2-0.7-0.3-1.1-0.2c-1.2,0.4-2.5,0.9-3.9,1.5c-1.5,0.7-2.6,1.2-3.3,1.5
			l-0.6,0.6c-0.7,0.6-1,1.3-1,1.9c-0.1,0.6,0.1,1,0.6,1.1c0.4,0.1,0.7,0.2,0.9,0.2c0.3,0.1,0.4,0.1,0.6-0.1c0.1,0,0.2-0.1,0.4-0.2
			c0.1-0.1,0.2-0.1,0.5-0.3c0.6-0.3,1.1-0.5,1.5-0.8c0.4-0.1,0.8-0.4,1.5-0.7l-0.4,2.2c-0.1,0.5-0.2,1-0.4,1.5
			c-0.1,0.3-0.2,0.6-0.3,0.9c-0.1,0.4-0.2,0.8-0.1,1.1c0,0.2-0.1,0.4-0.1,0.5c-0.1,0.4-0.2,0.9-0.3,1.3c-0.1,0.6-0.3,1.1-0.4,1.5
			c-0.7,0.3-1.3,0.5-2,0.6c-0.7,0.2-1.4,0.4-2,0.6c-0.4,0.2-0.7,0.5-0.9,0.8C95.5,23.4,95.3,24,95.5,24.8z M89,21.6
			c0,0.2,0.1,0.4,0.1,0.5c0,0.1-0.1,0.4-0.1,0.5v0.1C89,22.7,89,22.8,89,22.8c0,0.7,0.1,1.1,0.3,1.1c0,0.5,0.1,0.8,0.2,1.1
			c0.1,0.3,0.3,0.6,0.6,0.8l0.6,0.2c0.2,0.1,0.7-0.1,1.5-0.4c0.7-0.3,1.2-0.5,1.5-0.8v-0.3c0-0.1-0.1-0.4-0.2-0.7
			c0.3-0.6,0.6-1.3,0.9-1.9c0.3-0.6,0.4-1.3,0.5-2.1c0.1-0.2,0.2-0.4,0.3-0.6c0-0.1,0-0.2,0.1-0.4v-0.4c-0.1-0.1-0.1-0.4,0-0.6
			c0-0.4,0.1-1.1,0.6-2.2c-0.1,0-0.1-0.1-0.1-0.2v-0.2c-0.1,0-0.1-0.1-0.1-0.2c-0.1-0.1-0.2-0.3-0.2-0.6c-0.1-0.1-0.1-0.4,0-0.6
			c0-0.1,0-0.4,0.1-0.6c0-0.3,0.1-0.5,0.1-0.8c0.1-0.4,0.1-0.8,0.2-1.3V10c0-0.1-0.1-0.4-0.1-0.8l-0.2-0.8l-0.2-0.8
			c-0.1-0.4-0.4-0.8-0.7-1.2c-0.4-0.4-0.8-0.6-1.4-0.8h-0.5c-0.6,0-1.1,0.1-1.3,0.2c-0.4,0.2-0.7,0.4-0.8,0.6
			c-0.2,0.3-0.4,0.5-0.4,0.8c-0.1,0.3-0.1,0.6-0.1,0.7l-0.1,0.6l-0.1,0.2l-0.1,1c0,0.5-0.1,1-0.2,1.4c-0.1,0.3-0.1,0.5-0.1,0.8
			c-0.1,0.4-0.1,0.6-0.1,0.7V13L89,13.6c0,0.1,0.1,0.3,0.1,0.4c0,0.2,0,0.4,0.1,0.4c0,0.4,0.1,0.6,0.1,0.9c-0.1,0.3-0.1,0.6-0.1,1
			c-0.1,0.5-0.2,1-0.2,1.4c-0.1,0.5-0.1,0.9-0.1,1.3c-0.1,0.7-0.1,1.3,0,1.6C88.8,21.1,88.9,21.4,89,21.6z M108.6,49l-1.1,0.4
			l-1.8,0.5c-0.4,0.1-0.8,0.2-1.2,0.4c-0.5,0.2-0.9,0.4-1.3,0.4l-1,0.2c-0.1,0.1-0.3,0.1-0.4,0.1c-0.3,0.1-0.6,0.2-0.9,0.3l-0.1-0.8
			c-0.1-0.7-0.2-1.4-0.2-2.2c-0.1-0.7-0.1-1.6-0.1-2.7c0-0.4-0.1-0.7-0.3-1.1c-0.2-0.3-0.8-0.4-1.6-0.6l-1.2,0.5
			c-0.6,0.4-0.9,0.8-1.1,1.4c-0.3,0.6-0.4,1.1-0.5,1.3c-0.1,0.3-0.1,0.5-0.1,0.6c-0.1,0.2-0.1,0.4-0.1,0.5c-0.3,0.4-0.4,0.8-0.4,1.1
			c-0.3,0.8-0.5,1.3-0.5,1.6c-0.1,0.3-0.1,0.7-0.1,1.1c0,0.5,0,1.1,0.1,1.6c0,0.6,0.1,1.1,0.4,1.7c0.1,0.5,0.4,0.9,0.8,1.3
			c0.3,0.4,0.6,0.6,1.1,0.7c0.6-0.2,1.2-0.4,1.8-0.6c0.6-0.3,1.1-0.6,1.5-1c0.3-0.3,0.5-0.5,0.6-0.5c0.2-0.1,0.5-0.2,0.8-0.2
			c0.3-0.1,0.5-0.1,0.8-0.1c1-0.4,2.1-0.7,3.2-1.1c1.1-0.4,2-0.8,2.8-1.1l0.6-0.3c0.1-0.1,0.2-0.1,0.4-0.2c0.1-0.1,0.1-0.2,0.3-0.4
			l0.2-0.2l0.7-0.4c-0.1-0.6-0.2-1.2-0.4-1.8C110,49.4,109.5,49.1,108.6,49z M113.3,26.7H113c-0.2,0-0.4-0.1-0.6-0.1
			c-0.3,0-0.5,0.1-0.7,0.1c-1.7,0.2-3.4,0.5-5.2,0.8c-1.9,0.4-3.7,0.7-5.5,1.1c-1.9,0.4-3.7,0.8-5.4,1.3l-5,1.4
			c-0.7,0.2-1.3,0.5-2,0.8c-0.7,0.4-1.1,0.8-1.1,1.2c-0.2,0.6-0.1,1,0.3,1.3c0.4,0.4,0.6,0.6,0.8,0.6h0.5c0.1,0,0.3,0,0.4-0.1
			c0.1,0,0.3-0.1,0.5-0.1c0.1,0,0.3,0,0.6,0.1c0.1,0.1,0.5,0.2,1,0.2l4.9-1.3l0.9-0.4c0.3-0.1,0.7-0.3,1.1-0.4
			c0.4-0.1,0.8-0.1,1.4-0.1c0.4,0,0.6-0.1,0.9-0.2l0.6-0.4l0.1-0.1h0.1c-0.1,0.4-0.4,1-0.5,1.5c-0.3,0.6-0.4,1.3-0.6,2
			c-0.2,0.7-0.4,1.4-0.4,2.1c-0.1,0.7-0.2,1.3-0.1,1.9c-0.1,0.4-0.2,0.7-0.2,1v0.6c0,0.1,0.1,0.4,0.2,0.6c0.1,0.4,0.3,0.6,0.5,0.8
			c0.1,0.1,0.4,0.4,0.9,0.5c0.4,0.2,0.8,0.3,1.1,0.1c0.6-0.1,1.1-0.4,1.6-0.8c0.4-0.3,0.6-1,0.7-2.1c0-0.6,0.1-1.3,0.4-2.2
			c0.1-0.3,0.1-0.6,0.2-0.9c0-0.3,0.1-0.6,0.1-1.1c0-0.3,0.1-0.7,0.1-1.3v-1.5c0-0.4-0.1-0.7-0.3-1.1c-0.1,0-0.2-0.4-0.4-1
			c0.6-0.1,1.2-0.2,1.9-0.4c0.6-0.1,1.3-0.1,1.9-0.3l1.3-0.1c0.3,0,0.6,0.1,0.9,0.1c0.3,0.1,0.6,0.1,0.9,0l0.4-0.3
			c0.2-0.3,0.5-0.5,0.9-0.5c0.1-0.5,0.1-0.8,0.2-1c0-0.1,0-0.1,0.1-0.3c0.1-0.6,0.1-1.3-0.3-2C113.4,26.7,113.3,26.7,113.3,26.7z
			 M126.4,13.2c0,0.1,0.1,0.4,0.1,0.8c0,0.4,0.1,0.7,0.2,0.9c0,0.3,0.1,0.6,0.4,0.8l0.3,0.3c0.5,0,1.1-0.2,1.6-0.6
			c0.6-0.4,0.9-0.8,1.2-1.2c0.1-0.2,0.4-0.5,0.5-0.8c0.1-0.3,0.2-0.6,0.3-1.1c0-0.1,0-0.1,0.1-0.3c0,0,0-0.1,0.1-0.4
			c-0.1-0.4-0.1-0.6,0-0.8c0,0,0-0.1,0.1-0.2c0-0.1,0.1-0.3,0.1-0.4c0-0.1,0.1-0.2,0.1-0.4c-0.1-0.3-0.2-0.6-0.2-0.9
			c0,0,0-0.1,0.1-0.4c0-0.1,0-0.4,0.1-0.7c0.1-0.4,0.1-0.8,0.1-1.2c0-0.2-0.1-0.4-0.1-0.5c-0.1-0.1-0.1-0.2-0.2-0.4L131,5.5L130.8,5
			c-0.1-0.2-0.4-0.5-0.8-0.8c-0.5-0.3-0.9-0.5-1.3-0.5c-0.9,0-1.5,0.2-1.6,0.7c-0.3,0.6-0.4,0.9-0.4,1.1c-0.1,0.8-0.1,1.4-0.1,1.7
			c-0.1,0.4-0.1,0.8-0.2,1.3v0.7c-0.1,0.4-0.1,0.7-0.1,1.1c-0.1,0.4-0.1,0.9-0.1,1.4c0,0.5,0,0.8,0.1,1
			C126.3,12.9,126.3,13,126.4,13.2z M162.5,28.1l-0.6-1.1c-0.4,0-0.8,0.1-1.4,0.1c-0.6,0.1-1.2,0.2-1.8,0.4c-1.3,0.7-2.2,1.1-3,1.4
			c-0.8,0.3-1.5,0.5-2,0.6c-0.2,0.1-0.4,0.1-0.6,0.1l-0.6,0.3l-0.3,0.1c-0.4,0.1-0.6,0.2-0.8,0.2c-0.3,0.1-0.4,0.4-0.4,1
			c0,0.4,0.1,0.8,0.4,1.2c0.1,0.4,0.8,0.6,1.8,0.6c1.3-0.1,2.7-0.4,4.3-0.8c1.4-0.4,2.6-1,3.6-1.6c0.4-0.3,0.6-0.6,0.6-0.9
			c0.5-0.1,0.8-0.2,1.1-0.4C162.8,29,162.8,28.7,162.5,28.1z M140,41.1c-0.5-0.1-0.9-0.1-1.2-0.1c-1,0.3-2,0.5-3,0.7l-3.4,0.8
			c0-0.1,0.1-0.2,0.1-0.4c0-0.1,0.1-0.2,0.1-0.4c-0.1-0.1-0.1-0.2-0.1-0.4c-0.1-0.1-0.1-0.2-0.1-0.4c0-0.1,0-0.4,0.1-1
			c0-0.6,0.1-1.1,0.1-1.5c0-0.1-0.1-0.4-0.2-0.8c-0.1-0.3-0.4-0.6-0.6-0.8c-0.3-0.3-0.6-0.5-0.8-0.8c-0.4-0.1-0.7-0.3-1-0.3h-0.1
			c-0.6,0-0.9,0.1-1.2,0.2c-0.3,0.2-0.5,0.4-0.6,0.6c-0.1,0.2-0.2,0.4-0.2,0.6c-0.1,0.2-0.1,0.3-0.1,0.3l-0.2,0.6v1.2
			c-0.1,0.2-0.1,0.4-0.1,0.6v0.9c-0.1,0.6-0.1,1.1-0.1,1.5c-0.1,0.6-0.1,1.1-0.1,1.5c-0.8,0.3-1.5,0.5-2.1,0.7
			c-0.7,0.3-1.4,0.5-2,0.7c-0.6,0.3-1.1,0.5-1.5,0.6c-0.5,0.2-0.8,0.6-0.8,1.1c-0.1,0.6-0.1,0.9,0.2,1.2c0.2,0.3,0.4,0.5,0.6,0.6
			c0.2,0.1,0.4,0.1,0.6,0.1c0.1,0,0.3,0,0.6-0.1c0.2-0.1,0.4-0.1,0.6-0.1c0.1,0.2,0.5,0.3,0.9,0.3l4.1-1.4c0,0,0.1-0.1,0.2-0.1
			c0,0,0.1,0,0.1-0.1c0.3-0.1,0.6-0.4,1-0.5c0.3-0.1,0.7-0.2,1.3-0.2c0.3,0,0.6-0.1,0.8-0.2c0.2-0.1,0.4-0.3,0.6-0.5l0.8-0.2
			c1.5-0.6,2.9-0.9,4.2-1.2c0.1,0.1,0.2,0.2,0.4,0.3c0.1,0.1,0.4,0.2,0.6,0.1h0.8l0.6-0.4c0.2-0.1,0.4-0.4,0.6-0.6l0.3-0.3
			c0.1-0.6,0.1-0.9,0.2-1c0.1-0.2,0.1-0.4,0.1-0.6c-0.1-0.1-0.2-0.5-0.5-1.1H140z M151.6,19.5c0.1-0.3,0.1-0.6,0.1-1
			c0-0.4-0.1-0.8-0.3-1.1c0.1-0.4,0.3-0.8,0.3-1.2c0-0.1-0.1-0.4-0.1-0.5c-0.1-0.1-0.1-0.1-0.1-0.3c0-0.1,0.1-0.3,0.2-0.4
			c0.1,0,0.1-0.2,0.1-0.8c-0.1-0.3-0.3-0.7-0.4-1.1c-0.1-0.4-0.4-0.8-0.5-1.3c-0.2-0.4-0.4-0.8-0.7-1.1c-0.4-0.3-0.8-0.4-1.2-0.6
			c-0.7,0.1-1.2,0.3-1.5,0.6c-0.4,0.3-0.6,0.6-0.8,0.8c-0.1,0.3-0.2,0.6-0.2,0.8c-0.1,0.3-0.1,0.5-0.1,0.5l-0.7,0.5v0.6
			c0,0.1-0.1,0.3-0.1,0.4c-0.3,1-0.6,2.1-0.7,3.4c-0.2,1.4-0.4,2.9-0.6,4.3c0,0.4-0.1,0.7-0.1,1c-0.1,0.3-0.1,0.6-0.1,1l0.1,0.5
			c-0.2,0.8-0.4,1.4-0.4,1.9c-0.1,0.6-0.3,1-0.3,1.4c-0.1,0.5-0.1,0.9-0.1,1.3c-0.1,0.4-0.1,0.9-0.1,1.5v0.6l-0.4,3.3
			c-0.3,1.2-0.4,2.5-0.4,3.7v1.3c0,0.7-0.1,1.1-0.1,1.1c-0.1,0.1-0.2,0.4-0.2,0.7v0.4c0,0.1-0.1,0.5-0.1,0.9
			c-0.1,0.5-0.1,0.8-0.1,0.9c0,0.1,0,0.3,0.1,0.4c-0.3,0.9-0.5,1.8-0.6,2.5c-0.1,0.8-0.1,1.5-0.1,2.2v3h0.6c1.5,0,2.7-0.5,3.8-1.5
			c1-0.9,1.8-2.2,2.3-4.1l-0.1-0.4l0.1-0.1l0.3-0.8c0-0.4,0.1-1,0.2-1.7c0.1-0.6,0.1-1.3,0.3-2c0.1-0.6,0.1-1.3,0.3-2
			c0-0.6,0.1-1.1,0.1-1.5c0-0.2-0.1-0.4-0.1-0.6c-0.1-0.1-0.1-0.4-0.2-0.6c0.3-0.4,0.5-0.8,0.6-1.4c0.1-0.4,0.1-0.9,0.2-1.4v-1.3
			c0-0.4,0-0.6,0.1-0.9c0.2-0.5,0.4-1,0.4-1.5c0-0.4,0-0.8,0.1-1.3v-0.6c0-0.1,0-0.6,0.1-1.1c0-0.6,0.1-1.8,0.4-3.6
			c0-0.4,0-0.8,0.1-1.2c0-0.3,0.1-0.8,0.3-1.4C151.3,20.2,151.4,19.9,151.6,19.5z M124,22.7c0.7-0.2,1.3-0.4,1.8-0.6
			c0.4-0.1,0.8-0.2,1.1-0.3c0.2,0,0.5-0.1,0.8-0.1c0.2,0,0.4-0.1,0.6-0.2c0.1-0.1,0.4-0.2,0.5-0.4h0.7l0.6-0.5
			c1-0.2,1.8-0.4,2.5-0.5c0.6-0.1,1.3-0.1,2-0.1l1.1,0.1c0.4-0.3,0.6-0.6,0.8-1c0.1-0.3,0.2-0.5,0.4-0.8c0.1-0.3,0.1-0.5,0.1-0.8
			c0-0.1-0.2-0.6-0.6-1.2c-0.3,0-0.6-0.1-0.8-0.1h-0.8c-2.2,0.4-4.6,0.8-7.1,1.3c-2.5,0.6-5,1.3-7.4,2.1c-0.6,0.3-1.1,0.6-1.6,1
			c-0.6,0.4-0.9,0.8-1,1.1c-0.1,0.4,0,0.7,0.3,0.9c0.1,0.3,0.4,0.5,0.5,0.6c0.4,0.3,0.8,0.4,1.3,0.2c0.2-0.1,0.4-0.1,0.6-0.1
			c0.1,0.1,0.1,0.1,0.2,0.1c0,0.1,0.1,0.1,0.4,0.1C122.2,23.3,123.1,23,124,22.7z M132.8,24.6c-0.3-0.4-0.6-0.8-0.9-1.1
			c-0.4-0.3-0.6-0.4-0.9-0.4c-0.8,0-1.8,0.1-2.9,0.5c-1.1,0.4-2,0.9-2.6,1.5c-0.6,0.6-1,1.3-1.4,2.2c-0.5,1.1-0.8,2.1-0.8,3.2
			c-0.1,0.4,0,0.8,0.3,1.3c0.1,0.5,0.4,0.9,0.8,1.3c0.3,0.4,0.6,0.8,1.1,1.1c0.4,0.3,0.7,0.4,1.1,0.4c0.3,0,0.4,0,0.6-0.1
			c0,0,0.1,0,0.4-0.1l1.1-0.2h1.8c0.7-0.4,1.3-0.7,1.8-1.1c0.4-0.4,0.8-0.9,1.3-1.8c0.5-1.1,0.7-2.5,0.6-4.2
			c-0.1-0.4-0.2-0.8-0.4-1.3C133.3,25.5,133.1,25,132.8,24.6z M130.7,28c-0.1,0.5-0.4,0.9-0.5,1.3c-0.2,0.5-0.4,0.9-0.6,1.3
			c-0.2,0.4-0.4,0.7-0.5,0.9c-0.4-0.1-0.7-0.3-0.8-0.6c-0.3-0.3-0.4-0.5-0.4-0.6v-0.5c0-0.1,0.1-0.4,0.1-0.5v-0.5
			c0-0.4-0.1-0.7-0.4-1c0.2-0.4,0.5-0.8,0.9-1.1c0.4-0.3,0.8-0.4,1.5-0.4c0.4,0,0.7,0.2,0.7,0.6S130.8,27.6,130.7,28z"/>
	</g>
</g>
</svg>
