<?xml version="1.0" encoding="utf-8"?>
<!-- Generator: Adobe Illustrator 22.0.1, SVG Export Plug-In . SVG Version: 6.00 Build 0)  -->
<svg version="1.1" id="레이어_1" xmlns="http://www.w3.org/2000/svg" xmlns:xlink="http://www.w3.org/1999/xlink" x="0px"
	 y="0px" viewBox="0 0 182 66" style="enable-background:new 0 0 182 66;" xml:space="preserve">
<style type="text/css">
	.st0{fill:#FFFFFF;}
</style>
<g>
	<g>
		<path class="st0" d="M38,9.8c-0.2-0.4-0.5-0.9-0.8-1.4c-0.2,0-0.3,0-0.4-0.1c-0.1-0.1-0.2-0.1-0.3-0.3c-0.1,0-0.3-0.1-0.6-0.1
			C35.5,8,35.1,8,35,8c-0.3,0.1-0.5,0.2-0.7,0.3c-0.5,0.6-0.8,1-0.8,1.3c-0.1,0.3-0.1,0.6-0.1,0.8L32.7,11v0.6
			c0,0.1-0.1,0.3-0.1,0.4c-0.3,1-0.6,2.1-0.7,3.4c-0.2,1.4-0.4,2.9-0.6,4.3v0.3c0,0.2-0.1,0.3-0.1,0.4c-0.1,0.3-0.1,0.5-0.1,0.7
			c-0.1,0.3-0.1,0.6,0,1C31,22.5,31,22.8,31,22.9c-0.1,0.3-0.1,0.5-0.2,0.7c-0.3,0.6-0.4,1-0.4,1.3c-0.8,0-1.5,0.1-2.1,0.3
			c-1.1,0.3-2.2,0.6-3.1,0.9c-1.1,0.4-2.1,0.8-2.9,1c-1,0.4-1.7,0.7-2.4,1c-0.7,0.3-1.3,0.5-1.5,0.6c-0.3,0.1-0.5,0.3-0.6,0.5
			c-0.1,0.3-0.4,0.4-0.8,0.5c-0.3,0.1-0.6,0.2-0.8,0.3c-0.3,0.2-0.4,0.6-0.3,1c0,0.3,0.3,0.6,0.8,0.8c0.5,0.3,1.3,0.4,2.4,0.3
			c0.3,0,0.8-0.1,1.2-0.3c0.3-0.1,0.6-0.3,0.8-0.6c1.3-0.5,2.9-1,4.5-1.5c1.7-0.5,3.2-1,4.7-1.4v0.4c-0.1,0.3-0.1,0.7-0.1,1
			C30,30.3,30,30.7,29.9,31c-0.1,0.9-0.3,1.8-0.3,2.7c-0.1,0.9-0.1,1.9-0.1,2.9v1c-0.1,0.3-0.1,0.5-0.1,0.6
			c-0.1,0.1-0.2,0.3-0.2,0.6c0,0.4-0.1,0.8-0.1,1c-0.1,0.3-0.1,0.6,0.1,0.7c-0.4,1.1-0.6,2.1-0.6,3c-0.1,1-0.1,1.8-0.1,2.5v2.2
			c0.8,0.1,1.7,0,2.7-0.3c0.8-0.3,1.4-0.8,1.8-1.6c0.4-0.3,0.8-0.8,1.3-1.5c0.3-0.6,0.6-1.3,0.9-2.2l-0.1-0.4l0.3-1
			c0-0.4,0.1-0.8,0.1-1.3c0-0.3,0.1-0.8,0.2-1.3c0.1-0.8,0.2-1.6,0.3-2.4c0.1-0.7,0.1-1.4,0.1-2c-0.1-0.1-0.1-0.2-0.1-0.3
			c-0.1-0.1-0.1-0.2-0.1-0.3s0.1-0.3,0.3-0.6c0.1-0.1,0.1-0.3,0.2-0.6c0.1-0.4,0.1-0.9,0.1-1.3c0-0.3,0-0.7,0.1-1
			c0-0.3,0.1-0.6,0.1-0.9c0-0.2,0-0.4,0.1-0.6c0.2-0.5,0.3-1,0.4-1.5v-1.9c0-0.1,0-0.3,0.1-0.6c0-0.2,0.1-0.5,0.1-0.8
			c0-0.3,0-0.7,0.1-1.4c0-0.3,0-0.7,0.1-1c0-0.3,0-0.6,0.1-0.9c0-0.1,0-0.3,0.1-0.6v-0.5c0-0.2,0.1-0.4,0.1-0.7
			c0-0.2,0.1-0.5,0.2-0.8l0.4-1.7c0-0.5-0.1-1-0.3-1.5c0.1-0.3,0.3-0.7,0.3-1c0-0.3-0.1-0.5-0.1-0.7L38.4,13c0-0.1,0.1-0.3,0.2-0.6
			c0.1-0.1,0.1-0.3,0.1-0.6l-0.2-0.6C38.4,10.8,38.1,10.3,38,9.8z M12.5,24.7c-0.3-0.4-0.6-0.8-0.9-1c-0.3-0.2-0.6-0.3-0.8-0.3
			c-0.3-0.2-0.4-0.5-0.5-0.8c-0.1-0.3-0.6-0.4-1.1-0.6c-0.1,0-0.2,0-0.3-0.1c-0.2,0-0.4,0.1-0.6,0.1c0.2-0.7,0.4-1.1,0.7-1.4
			c0.2-0.2,0.4-0.3,0.6-0.5c0.1-0.1,0.3-0.1,0.4-0.3c0.3-0.2,0.6-0.4,0.7-0.6c0.1-0.1,0.1-0.3-0.1-0.7c-0.3-0.3-0.6-0.6-0.9-0.7
			c-0.4,0-0.9,0.1-1.3,0.2c-2,0.8-3.4,2.1-4.1,4.1c-0.3,1-0.6,1.9-0.9,2.7c-0.3,1-0.6,1.9-0.8,2.7v0.2c-0.2,0.3-0.3,0.5-0.1,0.6
			c0,0.2,0.1,0.3,0.1,0.4c0,0.1-0.1,0.3-0.1,0.5c-0.1,0.3-0.1,0.4-0.1,0.6c-0.3,0.8-0.3,1.5,0,2.1L2,32.5c0,0.4,0,0.7,0.1,0.9
			c0,0.3,0.1,0.5,0.1,0.7c0.1,0.6,0.2,1.1,0.4,1.6c0.1,0.6,0.3,1.2,0.6,1.7c0.1,0.2,0.4,0.6,1,1c0.6,0.6,1.3,0.8,2.2,0.8
			c0.3,0,0.6-0.1,1-0.2c0.5-0.1,1-0.2,1.4-0.3c0.3-0.1,0.7-0.3,1.1-0.7c2.2-2.1,3.3-5,3.4-8.6c0-1-0.1-2-0.2-2.8
			C13,25.8,12.8,25.2,12.5,24.7z M9.4,32.1c-0.3,0.9-0.8,1.6-1.3,2.1c-0.1,0.1-0.3,0.2-0.4,0.2c-0.1,0-0.1,0-0.1-0.1
			c-0.1,0-0.1-0.1-0.1-0.1c-0.3-0.3-0.4-0.9-0.5-1.6C7,32,7,31.2,7,30.4c0-1.3,0.1-2.7,0.2-4.1c0.2-0.1,0.4-0.1,0.6-0.1h0.3
			c0.7,0.2,1.2,0.6,1.5,1c0.1,0.6,0.3,1.3,0.3,2.4C9.9,30.5,9.7,31.3,9.4,32.1z M16.6,23.1c0.3,0.7,0.6,1.1,1,1.1
			c0.4,0.1,0.8,0.1,1.3,0c0.6-0.1,1-0.3,1.5-0.6c0.3,0.1,0.5,0.1,0.6-0.1l0.3-0.3c0.1-0.1,0.3-0.3,0.5-0.3l1.1-0.4
			c0.6-0.2,1.2-0.5,1.9-0.8c0.6-0.3,1.3-0.4,1.8-0.6c0.1,0.3,0.2,0.5,0.3,0.7c0.1,0.3,0.4,0.3,0.9,0.3c0.1,0,0.3,0,0.5-0.1
			c0.1,0,0.3-0.1,0.6-0.4c0.1-0.1,0.2-0.3,0.3-0.7c0.1-0.3,0.1-0.6,0.3-1c0.1-0.3,0.1-0.6,0.2-1c0-0.3,0.1-0.4,0.1-0.5
			c0-0.1-0.1-0.2-0.3-0.5c-0.3-0.1-0.5-0.3-0.8-0.6c-0.3-0.1-0.7-0.3-1-0.5c-0.3-0.1-0.6-0.1-0.7-0.1c-0.9,0.3-1.9,0.6-2.9,1
			c-1.1,0.4-2.1,0.8-3.1,1.3c-1,0.5-1.9,0.9-2.7,1.3l-1.9,1c-0.3,0.3-0.3,0.6-0.3,0.9C16.4,22.6,16.5,22.9,16.6,23.1z M52.3,11.7
			c0,0.1,0.1,0.4,0.1,0.8s0.1,0.7,0.2,0.9c0,0.3,0.1,0.6,0.4,0.8l0.3,0.3c0.5,0,1-0.2,1.6-0.6c0.6-0.4,0.9-0.8,1.2-1.2
			c0.1-0.2,0.3-0.5,0.5-0.8c0.1-0.3,0.2-0.6,0.3-1c0-0.1,0-0.1,0.1-0.3c0,0,0-0.1,0.1-0.4C57,9.6,57,9.4,57,9.3c0,0,0-0.1,0.1-0.2
			c0-0.1,0.1-0.3,0.1-0.4c0-0.1,0.1-0.2,0.1-0.4c-0.1-0.3-0.2-0.6-0.2-0.9c0,0,0-0.1,0.1-0.4c0-0.1,0-0.4,0.1-0.7
			c0.1-0.4,0.1-0.8,0.1-1.2c0-0.2-0.1-0.3-0.1-0.5c-0.1-0.1-0.1-0.2-0.2-0.3L57,4.1l-0.2-0.6C56.6,3.3,56.4,3,56,2.7
			c-0.5-0.3-0.9-0.5-1.3-0.5c-0.9,0-1.5,0.2-1.6,0.7c-0.3,0.6-0.3,0.9-0.3,1c-0.1,0.8-0.1,1.4-0.1,1.7c-0.1,0.4-0.1,0.8-0.2,1.3v0.7
			c-0.1,0.3-0.1,0.7-0.1,1.1c-0.1,0.4-0.1,0.9-0.1,1.4c0,0.5,0,0.8,0.1,1C52.2,11.4,52.2,11.5,52.3,11.7z M59.7,26.1
			c-0.3-0.5-0.5-1-0.8-1.4c-0.3-0.4-0.7-0.8-1-1.1c-0.3-0.3-0.6-0.4-0.9-0.4c-0.4,0-0.9,0.1-1.4,0.1c-0.6,0.1-1,0.3-1.5,0.4
			c-0.6,0.2-1.1,0.4-1.5,0.6c-0.6,0.3-1,0.6-1.3,0.9c-0.6,0.6-1,1.4-1.5,2.4c-0.6,1.1-0.8,2.2-0.9,3.4c-0.1,0.4,0,0.8,0.3,1.3
			c0.2,0.6,0.5,1,0.9,1.4c0.3,0.5,0.7,0.8,1.1,1.1c0.3,0.3,0.7,0.4,1,0.4c0.3,0,0.4,0,0.6-0.1c0,0,0.1,0,0.4-0.1
			c0.1,0,0.4,0,0.7-0.1c0.1,0,0.3-0.1,0.4-0.1h1.9c0.7-0.3,1.3-0.8,1.9-1.2c0.4-0.3,0.8-1,1.3-1.8c0.3-0.6,0.5-1.3,0.6-2
			c0.1-0.7,0.1-1.5,0-2.4C60,27,59.8,26.6,59.7,26.1z M56.5,28.4c-0.1,0.4-0.3,0.8-0.4,1.2c-0.2,0.4-0.3,0.8-0.5,1.2
			c-0.2,0.4-0.3,0.7-0.5,0.8c-0.4-0.1-0.6-0.3-0.8-0.6c-0.2-0.3-0.3-0.5-0.3-0.6V30c0.1-0.3,0.1-0.6,0.1-0.9
			c-0.1-0.3-0.3-0.6-0.4-0.8c0.2-0.3,0.5-0.7,0.9-1c0.3-0.3,0.7-0.4,1.3-0.4c0.4,0,0.6,0.2,0.6,0.6C56.6,27.7,56.6,28,56.5,28.4z
			 M61.3,15.4h-0.8c-2.2,0.3-4.6,0.8-7.1,1.3c-2.5,0.6-5,1.3-7.4,2.1c-0.6,0.3-1.1,0.6-1.6,1c-0.6,0.4-0.9,0.8-1,1
			c-0.1,0.4,0,0.7,0.3,0.9c0.1,0.3,0.3,0.5,0.5,0.6c0.4,0.3,0.8,0.3,1.3,0.2c0.2-0.1,0.4-0.1,0.6-0.1c0.1,0.1,0.1,0.1,0.2,0.1
			c0,0.1,0.1,0.1,0.4,0.1c1.2-0.3,2.2-0.6,3-0.9c0.7-0.2,1.3-0.4,1.8-0.6c0.4-0.1,0.8-0.2,1.1-0.3c0.2,0,0.5-0.1,0.8-0.1
			c0.2,0,0.4-0.1,0.6-0.2c0.1-0.1,0.3-0.2,0.5-0.3h0.7l0.6-0.5c1-0.2,1.7-0.3,2.4-0.5c0.6-0.1,1.3-0.1,2-0.1l1.1,0.1
			c0.3-0.3,0.6-0.6,0.8-1c0.1-0.3,0.2-0.5,0.3-0.8c0.1-0.3,0.1-0.5,0.1-0.8c0-0.1-0.2-0.6-0.6-1.2C61.8,15.6,61.5,15.5,61.3,15.4z
			 M79.6,39.5c-0.3-0.4-0.6-0.8-0.8-1.2c-0.3-0.3-0.6-0.5-0.8-0.6c-0.8,0-1.7,0.2-2.9,0.6c-1.2,0.5-2.1,1.1-2.7,1.9
			c-0.6,0.6-1,1.5-1.4,2.7c-0.4,1.3-0.7,2.5-0.8,3.8c-0.1,0.4,0,0.9,0.3,1.4c0.1,0.6,0.4,1.1,0.8,1.6c0.3,0.4,0.7,0.8,1.1,1.3
			c0.3,0.3,0.7,0.6,1,0.6c0.1,0,0.2-0.1,0.4-0.1c0.1-0.1,0.3-0.1,0.6-0.1c0.4-0.1,0.7-0.2,1-0.2h0.6c0.1-0.1,0.3-0.1,0.4-0.1h0.8
			c0.7-0.6,1.3-1,1.8-1.4c0.4-0.4,0.8-1,1.2-2c0.3-0.7,0.4-1.5,0.6-2.4v-2.7c-0.1-0.5-0.2-1-0.3-1.6C80.1,40.6,79.9,40.1,79.6,39.5z
			 M77.2,43.9c-0.1,0.5-0.2,1-0.3,1.4c-0.1,0.5-0.3,0.9-0.4,1.3c-0.2,0.4-0.3,0.8-0.5,1c-0.3-0.1-0.6-0.3-0.7-0.7
			c-0.1-0.3-0.2-0.6-0.2-0.7c-0.1-0.2-0.1-0.5,0-0.8c0.1-0.3,0.1-0.5,0.1-0.8c-0.1-0.4-0.3-0.7-0.4-0.9c0.1-0.5,0.4-0.9,0.8-1.3
			c0.3-0.3,0.7-0.5,1.2-0.5c0.3,0,0.6,0.3,0.6,0.7C77.3,43,77.3,43.4,77.2,43.9z M88.3,11.5c0-0.1-0.1-0.2-0.1-0.5
			c-0.1-0.2-0.2-0.5-0.3-0.9c-0.1-0.5-0.3-0.9-0.6-1.2c-0.3-0.3-0.8-0.4-1.2-0.4c-0.4,0.1-0.8,0.2-1.2,0.5c-0.4,0.3-0.8,0.6-1,0.8
			L83.7,10c-0.1,0.3-0.1,0.4-0.1,0.5v0.4c-0.3,0.6-0.3,1-0.3,1.5l-0.1,0.2c-0.1,1.3-0.2,2.2-0.2,2.8c-0.1,0.7-0.2,1.4-0.3,2.1
			c-0.1,0.2-0.1,0.4-0.1,0.6c-0.1,0.2-0.1,0.4-0.1,0.6v1c0,0.3-0.1,0.7-0.1,1c-1.5,0.3-2.9,0.6-4.2,0.8c-1.4,0.3-2.4,0.7-3.3,1
			c0-0.1,0.1-0.3,0.1-0.6v-0.3l0.1-0.7c0-0.1,0.1-0.4,0.1-0.7V19c0-0.3,0.1-0.6,0.1-1c0-0.3,0.1-0.7,0.2-1.1c0-0.5,0.1-0.9,0.2-1.3
			c0.1-0.3,0.1-0.8,0.2-1.2c0-0.4,0-0.8-0.1-1.1c0.1-0.4,0.2-0.8,0.1-1.3l0.3-1l-0.4-0.6c-0.1-0.1-0.1-0.2-0.1-0.4
			c-0.1-0.1-0.1-0.2-0.1-0.3c-0.1-0.4-0.3-0.8-0.6-1.3l-0.3-0.2C74.3,8,74.2,7.8,74,7.6c-0.2-0.1-0.5-0.2-0.8-0.3
			c-0.6,0.1-1,0.4-1.3,0.7l-0.3,0.3c-0.4,0.4-0.6,0.7-0.6,0.8c-0.1,0.3-0.1,0.5-0.1,0.6L70.2,10c-0.1,0.3-0.1,0.4-0.1,0.5V11
			c-0.3,0.8-0.6,1.7-0.6,2.6c-0.1,1-0.3,1.9-0.3,2.9c-0.1,0.3-0.2,0.6-0.3,1c-0.1,0.5-0.2,1-0.1,1.5c-0.1,0.2-0.1,0.3-0.1,0.4
			c0,0.1-0.1,0.2-0.1,0.3c-0.2,0.6-0.3,1.1-0.4,1.5c-0.1,0.6-0.1,1-0.1,1.6v0.8L67.7,25c-0.1,0.6-0.2,1.3-0.2,1.8
			c-0.1,0.6-0.1,1.3,0,2c0,0.4-0.1,0.8-0.1,1v0.3c-0.1,0.3-0.2,0.5-0.2,0.8c0,0.3,0,0.6,0.1,0.8c-0.4,1.1-0.6,2-0.6,2.4
			c0,0.6,0,1,0.1,1.4v1.7c0.9,0.1,1.7,0.1,2.6-0.1c0.7-0.1,1.3-0.6,1.7-1.3c0.3-0.2,0.7-0.6,1.1-1c0.3-0.4,0.6-0.8,0.8-1.3l0.1-1.1
			c0-0.2,0.1-0.4,0.1-0.7c0-0.2,0.1-0.4,0.1-0.7c0.1-0.8,0.2-1.5,0.3-2c0.1-0.6,0.1-1.1,0.1-1.7l-0.3-0.3l0.1-0.1
			c0.3,0,0.6-0.1,1-0.3c0.3-0.1,0.6-0.2,0.7-0.3c0.8-0.3,1.7-0.6,2.9-0.8c1-0.3,2.2-0.5,3.3-0.8v0.1l-0.3,0.9v1.8
			c-0.1,0.7-0.2,1.3-0.4,1.8c-0.1,0.2-0.1,0.3-0.1,0.5c-0.1,0.1-0.1,0.3-0.1,0.4v1.7c0,0.3-0.1,0.4-0.1,0.4
			c-0.1,0.3-0.1,0.5-0.1,0.5c-0.1,0.1-0.1,0.2-0.1,0.3c-0.1,0.2,0,0.6,0.2,1l0.6,1.1c0.1,0.1,0.2,0.3,0.3,0.3
			c0.1,0.1,0.3,0.2,0.8,0.2c0.1,0,0.4,0,0.8-0.1c0.4,0,0.7-0.1,0.9-0.2c0.1-0.1,0.4-0.4,0.8-1c0.3-0.4,0.3-0.8,0.3-1.3l0.2-0.2
			c0.3-0.8,0.5-1.3,0.6-1.6c0-0.2,0-0.5,0.1-0.8c0.1-0.5,0.2-0.9,0.3-1.3c0.1-0.3,0.2-0.6,0.3-0.7c0.1-0.6,0.1-1.2,0.2-1.9
			c0-0.6,0.1-1.2,0.1-1.8c0-0.5,0.1-1,0.2-1.6c0-0.5,0.1-1.1,0.2-2c0.1-0.1,0.2-0.2,0.3-0.4c0-0.1,0.1-0.3,0.1-0.6v-0.8
			c0-0.4,0.1-0.9,0.1-1.5c0-0.5,0.1-1.3,0.3-2.3c-0.1,0-0.1-0.1-0.1-0.2c-0.1,0-0.1-0.1-0.2-0.2c0.1-0.4,0.2-0.8,0.2-1.3
			c0-0.3,0-0.6,0.1-0.8c0-0.1,0.1-0.4,0.2-0.7c-0.1-0.2-0.1-0.4-0.3-0.6c0-0.1,0.1-0.1,0.1-0.3C88.2,11.7,88.2,11.6,88.3,11.5z
			 M136.3,10.7l-3.4,0.6c-1.2,0.3-2.4,0.5-3.6,0.8l-1.3,0.1c-0.1,0.1-0.3,0.1-0.6,0.2c-0.3,0.1-0.6,0.3-0.8,0.3
			c-0.1,0.1-0.3,0.2-0.6,0.2c-0.3,0.1-0.5,0.1-0.6,0.1c-1.6,0.4-3.1,0.8-4.5,1.1l-4.5,1.3c-0.8,0.4-1.6,0.8-2.4,1.1
			c-0.8,0.4-1.3,0.7-1.4,0.9c0,0.5,0.1,0.9,0.5,1.3c0.3,0.4,0.5,0.7,0.6,0.8c0.3,0.1,0.5,0.1,0.8,0c0.2,0,0.5,0,0.8-0.1
			c0.1,0,0.5-0.1,1-0.2c0.1,0.1,0.3,0.1,0.5,0.1c0.1,0.1,0.2,0.1,0.3,0.1l5.3-1.4c0.3-0.2,0.9-0.4,1.6-0.7c0.7-0.2,1.4-0.3,2.2-0.3
			c0.6-0.1,1.2-0.3,1.6-0.6l0.3-0.3c0.1,0.1,0.2,0.1,0.3,0.1h0.3c0.1,0.1,0.1,0.1,0.3,0c0.1,0,0.3-0.1,0.6-0.1
			c0.1,0,0.4-0.1,0.7-0.2c0.5-0.1,1-0.3,1.7-0.4c0.6-0.1,1.3-0.3,1.8-0.5c0.2,0,0.4-0.1,0.6-0.1c0.1,0,0.3,0,0.6-0.1
			c0.1,0.1,0.3,0.1,0.4,0h0.3c0.5,0.1,0.9,0.1,1.3-0.1l0.3-0.1l0.6-0.4c0.1-0.1,0.3-0.2,0.3-0.2c0-0.1,0.1-0.3,0.1-0.5
			c0-0.1,0-0.3,0.1-0.4c0.1-0.3,0.1-0.7,0.2-1c0-0.3-0.1-0.7-0.6-1.3H136.3z M127.6,40.9v-0.6c-0.1-0.1-0.1-0.2-0.1-0.5
			c0-0.4,0-0.7,0.1-1c0-0.2,0.1-0.4,0.1-0.7c0-0.3-0.1-0.6-0.1-0.8c-0.1-0.2-0.2-0.5-0.2-0.8c0-0.3,0.1-0.5,0.1-0.7
			c0-0.1,0.1-0.3,0.1-0.6s-0.1-0.6-0.1-0.8c-0.1-0.1-0.1-0.3-0.1-0.6c0-0.3,0.1-0.7,0.2-1c0.1-0.2,0.1-0.4,0.1-0.6
			c0-0.4-0.1-0.8-0.1-1.2c-0.1-0.3-0.1-0.6-0.2-0.9l0.3-0.6l-0.1-0.3c0.1-1.5,0.2-2.5,0.2-2.9c0-0.3,0.1-0.7,0.1-1.2v-1.3
			c0-0.3,0-0.7,0.1-1c0-0.3,0.1-0.5,0.1-0.8v-1c-0.1-0.1-0.1-0.3-0.1-0.4v-0.4l0.1-0.6c-0.1-0.3-0.4-0.5-0.8-0.6s-0.8-0.1-1.2-0.1
			c-0.1,0.1-0.2,0.2-0.3,0.3c-0.2,0.1-0.3,0.2-0.4,0.3l-0.5,0.4c-0.6,0.8-1,1.5-1.4,2.2c-0.4,0.8-0.7,1.5-0.8,2.1v0.6l-0.1,0.5
			l0.1,0.5l-0.5,0.1v0.8c-0.1,0.3-0.1,0.6-0.1,0.6c-0.1,0.3-0.1,0.5-0.1,0.6c-0.1,0.3-0.1,0.5-0.1,0.7c-0.1,0.7-0.2,1.4-0.2,2.2
			c-0.1,0.8-0.2,1.6-0.2,2.3c-0.1,0.6-0.1,1-0.1,1.3c0,0.4-0.1,0.8-0.1,1.2c-0.1,0.4-0.1,0.7-0.1,1c-0.1,0.3-0.1,0.6-0.1,0.8
			l0.1,0.5l-0.3,0.7v3.3c-0.1,0.9-0.1,1.6,0,2V45l-0.1,0.4l0.1,0.6l-0.1,0.6c0,0.1,0.1,0.2,0.1,0.2c0,0.1,0.1,0.1,0.1,0.2v0.8
			c0,0.3,0,0.7,0.1,1.4c0.3,0.1,0.6,0.3,0.9,0.5l0.5,0.5c0.2,0.3,0.5,0.6,0.8,0.8c0.3,0.2,0.8,0.3,1.5,0.3c0.1-0.1,0.2-0.3,0.4-0.5
			c0.1-0.3,0.3-0.6,0.5-0.9c0.3-0.6,0.7-1.3,1.3-2c0.4-0.7,0.8-1.1,1-1.3c0-0.3-0.1-0.6-0.1-0.8c-0.1-0.3-0.1-0.5-0.1-0.7l0.1-1.3
			c-0.1-0.1-0.1-0.3-0.1-0.3c0-0.2,0.1-0.5,0.1-0.8V42c0-0.2-0.1-0.4-0.1-0.6C127.7,41.3,127.6,41.1,127.6,40.9z M153.8,8.5
			c-0.3-0.1-0.6-0.2-0.8-0.2l-0.3,0.1L152,8.5l-0.3,0.3c-0.1,0.1-0.3,0.2-0.4,0.3c-0.4,0.1-0.9,0.3-1.5,0.6
			c-0.3,0.1-0.5,0.3-0.7,0.5c-0.3,0.2-0.6,0.4-0.8,0.6c-0.3,0.3-0.7,0.5-1.1,0.7c-0.5,0.3-0.8,0.5-0.8,0.5l-1.1,0.3
			c-0.6,0.6-1.2,1.1-1.9,1.7c-0.8,0.7-1.3,1.2-1.7,1.5l-0.2,0.3c-0.1,0.3-0.1,0.7,0,1c0.1,0.3,0.2,0.6,0.3,0.8
			c0.1,0.2,0.3,0.4,0.6,0.6c0.2,0.2,0.5,0.3,0.8,0.3c0.3,0,0.7-0.1,1.1-0.2c0.3,0,0.8-0.2,1.3-0.6c0.1-0.1,0.1-0.2,0.3-0.4l0.9-0.8
			c0,0,0-0.1,0.1-0.2c0-0.1,0.1-0.1,0.1-0.2c0.1,0,0.1-0.1,0.3-0.2c0-0.1,0.1-0.1,0.2-0.3l0.8-0.6l0.1-0.1c0,0,0-0.1,0.1-0.1
			c0.1,0,0.5-0.1,1-0.4l4.1-2.8c0.1-0.1,0.3-0.2,0.6-0.3c0.1-0.1,0.3-0.2,0.5-0.4c0.1-0.1,0.1-0.3,0.1-0.6c0-0.1-0.1-0.4-0.3-0.8
			C154.3,8.9,154.1,8.7,153.8,8.5z M152.1,21.9c-0.3-0.3-0.6-0.5-1-0.8c-0.3-0.1-0.6-0.1-0.9-0.1c-0.4,0.1-0.8,0.2-1,0.4l-0.5,0.5
			c-0.2,0.3-0.4,0.5-0.6,0.7c-0.1,0.3-0.3,0.4-0.3,0.6l-0.3,0.3c-0.2,0.1-0.4,0.3-0.6,0.4c-0.2,0.2-0.4,0.3-0.6,0.5l-3.6,2.7
			c-0.3,0.3-0.6,0.6-0.8,1c-0.3,0.4-0.4,0.9-0.3,1.3c0.1,0.5,0.3,0.8,0.6,0.9c0.4,0.3,0.9,0.3,1.5,0l2.5-1.7c-0.1,1-0.3,2.1-0.4,3.2
			c-0.2,1.2-0.3,2.3-0.5,3.3c-0.1,1.1-0.3,2.1-0.3,2.9c-0.1,1-0.2,1.7-0.3,2.2c-0.1,0.6-0.1,1-0.1,1.5c-0.1,0.6-0.1,1.1-0.1,1.6
			c0,1.4,0.1,2.6,0.3,3.7c0.1,1.2,0.3,2,0.5,2.5h0.3c0.1,0.1,0.1,0.1,0.3,0.1c0.3,0.1,0.6,0.1,1,0c0.3-0.1,0.5-0.1,0.8-0.3
			c0.1-0.1,0.4-0.1,0.8-0.1l0.8-0.8V48l0.8-1.1v-1.7l0.3-0.3v-1.3c0.2-0.2,0.4-0.6,0.6-1.1c-0.1-0.2-0.2-0.5-0.1-0.9
			c0-0.3,0-0.6,0.1-0.8c0-0.1,0.1-0.4,0.1-0.7c0-0.3,0.1-0.4,0.1-0.6c0.1-0.3,0.1-0.6,0.3-1c0.1-0.3,0.1-0.6,0.1-1
			c-0.1-0.6,0-1.1,0.1-1.7c0.1-0.4,0.2-0.8,0.3-1.3c0.2-0.6,0.2-1.3,0.1-2.1c-0.2-0.5-0.3-1-0.1-1.6c0.1-0.6,0.1-1,0.3-1.5
			c0.1-0.8,0.1-1.6,0.1-2.4c-0.1-0.7,0-1.5,0.1-2.3c0.1-0.3,0.1-0.6,0.1-0.8c0-0.2-0.1-0.6-0.1-1C152.4,22.5,152.2,22.2,152.1,21.9z
			 M179.8,24.4c-0.1-0.1-0.1-0.3-0.1-0.6c-0.1-0.1-0.1-0.3-0.1-0.5c-0.1-0.2-0.1-0.5-0.1-0.9c-0.1-0.3-0.2-0.7-0.3-1.1
			c-0.1,0-0.1-0.1-0.3-0.4c-0.2-0.2-0.4-0.7-0.7-1.4c-0.2-0.1-0.4-0.3-0.6-0.6c-0.2-0.1-0.3-0.3-0.5-0.6l-0.6-0.7l-0.4-0.4l-0.6-0.5
			l-0.8-0.8c-0.1-0.1-0.3-0.1-0.3-0.1c-0.1,0-0.3,0-0.4-0.1c-0.3-0.1-0.5-0.2-0.8-0.4c-0.3-0.1-0.8-0.3-1.3-0.4l-1.3-0.4h-0.4
			c-0.2-0.1-0.4-0.1-0.6-0.3c-0.2,0-0.4-0.1-0.6-0.1h-1.2l-0.3,0.1L167,14c-0.6,0-1,0.1-1.6,0.1c-0.6,0.1-1.1,0.2-1.5,0.3
			c-0.1,0.1-0.3,0.1-0.6,0.1c-0.3,0.1-0.5,0.2-0.6,0.3c-0.6,0.2-0.9,0.5-0.9,0.8c-0.1,0.4-0.1,0.8,0,1.2c0.1,0.4,0.3,0.7,0.6,0.9
			c0.3,0.3,0.6,0.4,1,0.3l2-0.6c0.5,0,1-0.1,1.4-0.1h1l0.2-0.1l0.1,0.1c0.5,0.1,0.9,0.2,1.3,0.2c0.3,0.1,0.6,0.3,1,0.4l0.6,0.1
			l0.3,0.4l0.7,0.3c0.1,0.1,0.3,0.2,0.4,0.3c0.1,0.1,0.3,0.4,0.6,0.7c0.2,0.4,0.4,0.8,0.6,1c0.1,0.3,0.2,0.6,0.3,0.7
			c0.1,0.3,0.2,0.4,0.3,0.6c0.1,0.1,0.1,0.3,0.3,0.6c0,0.1,0.1,0.3,0.1,0.5c0.1,0.5,0.1,0.9,0.2,1.2c0,0.4,0.1,0.7,0.1,0.9
			c0,0.3-0.1,0.5-0.1,0.8c-0.1,0.3-0.1,0.6-0.2,1c-0.1,0.3-0.2,0.5-0.2,0.6c-0.1,0.2-0.1,0.4-0.1,0.6c-0.1,0.3-0.1,0.6-0.1,0.7
			c-0.1,0.3-0.1,0.4-0.1,0.4c-0.3,0.6-0.6,1.3-1,1.8l-1.5,1.9l-0.8,0.6c-0.1,0.1-0.2,0.2-0.3,0.3c-0.1,0.2-0.2,0.4-0.3,0.6l-0.7,0.3
			c-0.1,0.2-0.2,0.4-0.3,0.6c-0.2,0.3-0.4,0.4-0.6,0.5l-0.7,0.2c-0.4,0.3-0.8,0.6-1.1,0.8c-0.4,0.3-0.8,0.5-1.2,0.6
			c0.1-0.7,0.1-1.5,0.1-2.4c0-0.8-0.1-1.5-0.1-2.2v-3.4c0-0.3,0-0.6,0.1-1v-0.6c0-0.3,0-0.7,0.1-1.2c0-0.4-0.1-0.8-0.1-1.3v-1.5
			l-0.3-0.3c-0.3-1-0.6-1.7-1-2s-0.8-0.3-1.2-0.3c-0.6,0.1-1,0.4-1.3,0.9c-0.4,0.6-0.7,1.2-0.9,1.7c-0.2,0.6-0.3,1.2-0.5,2
			c-0.1,0.3-0.1,0.4-0.2,0.6c-0.1,0.2-0.1,0.3-0.1,0.5l0.1,0.6c0,0.4-0.1,0.7-0.1,0.8c-0.1,0.1-0.2,0.3-0.2,0.3
			c-0.1,0.1-0.1,0.3-0.1,0.5c0,0.1,0,0.3,0.1,0.5c0.1,0.3,0.1,0.5,0.1,0.7c0,0.1-0.1,0.3-0.1,0.3c-0.1,0.1-0.2,0.3-0.2,0.4
			c-0.1,1-0.1,1.7-0.1,2.4c-0.1,0.7-0.1,1.3-0.2,1.7c-0.1,0.3-0.1,0.8-0.1,1.2c-0.1,0.5-0.1,0.8-0.1,0.8v1.5c-0.1,0.6-0.1,1-0.1,1.5
			l-0.2,1.7v0.3c-0.1,0.1-0.1,0.2-0.1,0.3c-0.1,0.5-0.1,0.9-0.1,1.3c-0.1,0.5-0.1,1-0.1,1.5c-0.1,1-0.2,2-0.2,2.9
			c-0.1,0.9-0.3,1.5-0.4,2.1c0,0.5,0,1,0.1,1.6v1.9l-0.2,0.5l0.1,1.3l-0.1,0.5V57c0,0.1-0.1,0.3-0.1,0.6c-0.1,0.3-0.1,0.5-0.1,0.6
			l0.1,0.8l-0.1,0.6l-0.1,0.8l0.3,1.5l0.7,1.2c0.1,0.1,0.3,0.3,0.6,0.5c0.1,0.1,0.3,0.1,0.6,0.2c0.3,0,0.6,0,1-0.1
			c0.3-0.1,0.6-0.2,0.9-0.3l0.6-0.8c0.2-0.3,0.3-0.7,0.5-1c0-0.2,0.1-0.4,0.2-0.6c0.1-0.3,0.1-0.4,0.2-0.6c0-0.1,0.1-0.3,0.1-0.4
			c0-0.2,0.1-0.4,0.1-0.6c0-0.3,0.1-0.5,0.1-0.6c0.1-0.1,0.1-0.2,0.3-0.3c0-0.2,0.1-0.5,0.2-0.9l-0.1-0.2l0.2-0.5v-0.4l0.1-0.5
			c0-0.4,0.1-0.8,0.1-1.2c0-0.4,0-0.8,0.1-1.2l0.2-1.9c0-0.6,0.1-1,0.1-1.6c0-0.6,0-1,0.1-1.5l0.3-1.5l0.1-1.5c0-0.1,0-0.4,0.1-0.8
			c0-0.3,0.1-0.7,0.1-1c0-0.1,0.1-0.3,0.1-0.5v-1.3c0.8-0.3,1.5-0.6,2.2-1c0.1-0.1,0.3-0.3,0.5-0.4h0.3c0.3-0.2,0.8-0.6,1.5-1
			c0.6-0.4,1.5-1.1,2.9-2.2c0.2-0.1,0.6-0.5,1-0.9c0.4-0.3,0.8-0.7,1-1l0.6-0.8c0.1-0.1,0.1-0.2,0.3-0.3c0-0.1,0.1-0.1,0.2-0.3
			c0,0,0-0.1,0.1-0.3c0-0.1,0.1-0.1,0.1-0.2c0.1-0.1,0.1-0.2,0.3-0.3c0-0.1,0.1-0.1,0.2-0.3c0.1-0.3,0.3-0.4,0.4-0.6
			c0-0.1,0.1-0.2,0.2-0.3c0-0.1,0.1-0.2,0.1-0.3c0.1-0.1,0.2-0.2,0.4-0.5c0.1-0.1,0.3-0.3,0.5-0.6c0.1-0.5,0.3-1,0.5-1.4
			c0.1-0.4,0.2-0.7,0.3-1l0.3-0.8l0.3-2L179.8,24.4z"/>
	</g>
</g>
</svg>
