<?xml version="1.0" encoding="utf-8"?>
<!-- Generator: Adobe Illustrator 22.0.1, SVG Export Plug-In . SVG Version: 6.00 Build 0)  -->
<svg version="1.1" id="레이어_1" xmlns="http://www.w3.org/2000/svg" xmlns:xlink="http://www.w3.org/1999/xlink" x="0px"
	 y="0px" viewBox="0 0 178.6 62.4" style="enable-background:new 0 0 178.6 62.4;" xml:space="preserve">
<style type="text/css">
	.st0{fill:#FFFFFF;}
</style>
<g>
	<g>
		<path class="st0" d="M47,15.6c-0.1-0.3-0.2-0.6-0.3-0.8c-0.1-0.1-0.1-0.3-0.1-0.5c0.1-0.6,0-1.1-0.2-1.2c-0.3-0.1-0.5-0.3-0.7-0.4
			l-0.3-0.1c-0.3-0.4-0.6-0.5-0.9-0.4c-0.4,0.2-0.6,0.4-0.8,0.6L43.5,13c-0.3,0.3-0.6,0.5-0.8,0.7c-0.3,0.3-0.5,0.6-0.6,0.8v0.8
			L42,15.8c-0.3,0.7-0.4,1.3-0.4,1.8c-0.1,1.4-0.1,2.5-0.2,3.2c-0.1,0.8-0.2,1.7-0.4,2.5c-0.1,0.4-0.1,0.8-0.1,1.1
			c-0.1,0.4-0.1,0.8-0.2,1.2v1.7c-0.1,0.3-0.1,0.6-0.1,1c0,0.3-0.1,0.5-0.1,0.7c-0.1,0.3-0.2,0.5-0.4,0.6c-0.1,0.2-0.2,0.4-0.2,0.6
			c0,0.4,0.1,0.6,0.3,0.8c-0.1,0.4-0.1,0.6-0.2,0.8c-0.1,0.1-0.2,0.4-0.2,0.6c-0.1,0.4-0.1,0.7,0,0.9c0,0.3,0.1,0.5,0.1,0.6
			c-0.3,0.1-0.4,0.2-0.5,0.3c-0.1,0.1-0.1,0.4,0.1,0.7v2.5c-0.1,0.9-0.3,1.7-0.6,2.4v0.4c-0.1,0.2-0.1,0.5-0.1,0.8v2
			c0,0.6-0.1,0.9-0.1,0.9c-0.3,0.3-0.4,0.5-0.3,0.6v0.6c0,0.3,0,0.4,0.1,0.4c0,0.1,0,0.3,0.1,0.5l0.6,1.5c0.1,0.4,0.6,0.6,1.1,0.7
			c0.1,0,0.4,0,0.8-0.1c0.4,0,0.8-0.1,1.1-0.4c0.2-0.1,0.4-0.5,0.7-1.1c0.2-0.5,0.4-1.1,0.6-1.9l0.3-0.2c0.2-0.6,0.4-1.2,0.5-1.8
			c0.1-0.6,0.1-1.2,0.3-1.9c0-0.4,0.1-0.7,0.3-1.1c0.1-0.3,0.3-0.7,0.4-1.1c0.1-1.3,0.1-2.7,0.3-4.1c0.1-1.4,0.1-2.6,0.3-3.7
			c0-0.1,0-0.4,0.1-0.6c0-0.1,0.1-0.3,0.1-0.4c0-0.1,0.1-0.3,0.1-0.4L46,29c0.1-0.1,0.1-0.2,0.2-0.5c0-0.2,0-0.4,0.1-0.7
			c0-0.3,0.1-0.6,0.1-1c0-0.3,0.1-0.6,0.1-1c0-0.4,0-0.7,0.1-1.1c0-0.4,0.1-0.8,0.1-1.4c0-0.6,0-1.1,0.1-1.6l-0.3-0.3
			c0.1-0.8,0.2-1.5,0.2-2c0-0.2,0.1-0.4,0.1-0.6v-0.6c0-0.3,0-0.5,0.1-0.8c0-0.3-0.1-0.5-0.2-0.6c0.1-0.1,0.1-0.3,0.3-0.6
			C47.1,16.1,47.1,15.8,47,15.6z M37.1,11.4c-0.1-0.2-0.2-0.4-0.3-0.7c-0.1-0.2-0.3-0.5-0.5-0.9L36,9.4c-0.1-0.1-0.3-0.4-0.4-0.6
			c-0.1-0.1-0.4-0.3-0.8-0.4c-0.4,0.1-0.7,0.2-0.8,0.4c-0.2,0.2-0.4,0.4-0.5,0.6L33,9.8c-0.4,0.6-0.6,0.9-0.7,1.2
			c-0.1,0.3-0.1,0.6-0.1,0.8l-0.6,0.6l-0.2,1c-0.4,1-0.6,2.1-0.7,3.5c-0.2,1.5-0.4,2.9-0.5,4.3c-0.1,0.3-0.2,0.6-0.2,0.8
			c-0.1,0.4-0.2,0.7-0.2,1.1c-1.8,0.4-3.4,0.8-4.8,1.2c-1.5,0.4-2.5,0.8-3,1c-0.2,0.1-0.4,0.2-0.4,0.3l-0.4,0.4
			c-0.1,0.1-0.2,0.1-0.4,0.1c-0.4,0-0.6,0.1-0.8,0.2c-0.3,0.1-0.4,0.5-0.4,1.1c0,0.4,0.1,0.8,0.4,1.1c0.2,0.4,0.8,0.8,2,0.9
			c0.3,0.1,0.7,0,1.1-0.2c0.4-0.1,0.7-0.3,0.8-0.4l2.5-0.7c0.8-0.2,1.8-0.4,2.7-0.7v0.1c-0.1,0.3-0.1,0.6-0.1,1V31
			c-0.1,0.4-0.1,0.6-0.1,0.9c-0.1,0.4-0.1,0.6-0.1,0.9c-0.1,0.9-0.3,1.8-0.3,2.8c-0.1,1-0.1,2,0,3.1c-0.1,0.4-0.1,0.8-0.1,1.3
			c-0.1,0.4-0.1,0.8-0.1,1.2c-0.1,0.2-0.1,0.4-0.1,0.7c-0.1,0.4-0.1,0.6,0,0.9c-0.5,1.7-0.7,2.9-0.7,3.6c-0.1,0.8-0.1,1.5-0.1,2.2v2
			c1,0.1,2,0,2.9-0.3c0.8-0.3,1.4-0.8,1.8-1.6c0.4-0.3,0.8-0.8,1.3-1.5c0.4-0.6,0.8-1.3,1.1-2l-0.1-0.3l0.2-0.2l-0.1-0.8
			c0.2-1.3,0.4-2.6,0.6-4c0.1-1.3,0.2-2.5,0.2-3.4c-0.1,0-0.1-0.1-0.1-0.2C35,36.2,35,36.2,35,36l0.6-1c0-0.5,0.1-1,0.1-1.5v-2.1
			c0-0.2,0-0.4,0.1-0.6c0.3-0.5,0.5-1.1,0.6-1.6v-1.7l0.1-0.3c0-0.2,0.1-0.5,0.1-0.9c0-0.4,0.1-0.9,0.1-1.8c0-0.4,0.1-1,0.1-1.6
			c0-0.6,0.1-1.1,0.2-1.6c0-0.3,0.1-0.6,0.1-1c0-0.3,0-0.6,0.1-0.8c0.1-0.6,0.1-1.2,0.3-1.8c0-0.4-0.1-0.9-0.4-1.4
			c0.2-0.4,0.3-0.8,0.3-1.1c-0.1-0.3-0.1-0.5-0.2-0.8c0.1-0.2,0.3-0.4,0.4-0.6c0.1-0.1,0.1-0.2,0.1-0.5l-0.4-0.8
			C37.2,12.4,37.1,12,37.1,11.4z M14.9,23.9v-0.1l0.5-0.2c0.1-0.8,0.2-1.5,0.2-2.1c0-0.5-0.2-1.1-0.5-1.8c-0.4-0.6-1.1-1-2.2-1
			c-1.1,0.1-2,0.1-2.7,0.2c-0.8,0.1-1.8,0.3-2.9,0.6c-0.6,0.2-1.1,0.4-1.6,0.4C5.1,20,4.5,20.1,4,20.3H3.6c-0.6,0.1-1,0.4-1.3,0.7
			c-0.4,0.4-0.6,0.8-0.6,1.3c0,0.4,0.1,0.6,0.4,0.9c0.3,0.4,0.8,0.5,1.7,0.5c0.1,0,0.4-0.1,0.7-0.2c0.3,0,0.6-0.1,0.9-0.2
			c0.3,0,0.6-0.1,0.8-0.2c0.2,0,0.4-0.1,0.4-0.1c0.1,0,0.5-0.1,0.9-0.3c0.2-0.1,0.6-0.1,1.1-0.3c0.4,0,1.1-0.1,1.8-0.3
			c-0.6,1.8-1.3,3.4-2.1,5L6,31.7l-0.4,0.4c-0.5,0.8-0.9,1.6-1.3,2.5c-0.4,0.9-1,1.6-1.7,2.1l0.1,0.5L2,37.9v0.4
			c-0.4,0.2-0.6,0.5-0.6,0.8c0,0.6,0.1,0.9,0.4,1.2c0.1,0.4,0.4,0.6,0.6,0.7c0.2,0.1,0.4,0.2,0.6,0.2c0.1,0.1,0.3,0.1,0.3,0.1
			c0.3,0,0.7-0.1,1.2-0.4c0.4-0.1,0.7-0.4,0.8-0.7l0.8-0.6c0.5-0.7,1-1.5,1.5-2.3l1.3-2.2c0.5-0.8,0.8-1.4,1.1-1.7
			c0.1-0.3,0.3-0.5,0.4-0.8v-0.3l0.6-0.3c0.3-0.3,0.6-0.6,0.7-1.1c0.1-0.4,0.3-0.7,0.4-1.1c0.1-0.3,0.2-0.6,0.4-1.1
			c0.1-0.3,0.4-0.6,0.6-0.9c0.8-1.3,1.3-2.3,1.5-3C14.7,24.4,14.9,24,14.9,23.9z M20.8,36.1c-0.3-0.4-0.5-0.8-0.8-1.3
			c-0.4-0.4-0.6-0.9-0.9-1.5c0,0-0.1-0.1-0.3-0.4c-0.2-0.2-0.4-0.5-0.6-0.8c-0.3-0.3-0.5-0.6-0.7-0.8C17.2,31.1,17,31,17,30.9
			l-0.4-0.4c-0.3-0.2-0.5-0.4-0.6-0.4c-0.1,0-0.3,0-0.4-0.1c-0.3,0-0.4,0.1-0.6,0.1c-0.2,0.1-0.4,0.1-0.6,0.1l-0.6,0.6
			c-0.3,0.3-0.5,0.6-0.5,0.7c-0.1,0.2-0.1,0.4-0.1,0.6c0,0.1,0,0.2,0.1,0.2v1.1c0,0.1,0,0.3,0.1,0.4c0,0.1,0.1,0.4,0.1,0.5l0.4,0.4
			c0.1,0.3,0.2,0.6,0.4,0.8c0.1,0.4,0.3,0.7,0.6,0.8l0.1,0.3c0.1,0.1,0.3,0.3,0.6,0.6c0.2,0.4,0.3,0.5,0.3,0.4
			c0.3,0.5,0.6,0.9,1.1,1.3c0.4,0.5,0.7,0.8,1.1,1.1c0,0,0.1,0.1,0.4,0.2c0.2,0.2,0.5,0.4,0.8,0.6c0.3,0.2,0.6,0.4,0.8,0.5
			c0.3,0.1,0.5,0.2,0.6,0.2l0.4-0.2c0.1-0.1,0.2-0.6,0.5-1.8c0.1-0.4,0.1-0.9-0.1-1.4C21.3,37.5,21,36.9,20.8,36.1z M73.8,37.7
			c0-0.5-0.1-1.1-0.6-1.7c0-0.4-0.1-0.8-0.3-1c-0.3-0.1-0.7-0.2-1.2-0.4c-0.4-0.1-0.7-0.2-1-0.1c-0.4,0.1-0.6,0.2-0.8,0.3L69.7,35
			c-0.3,0.2-0.6,0.4-0.8,0.5c-0.3,0.2-0.5,0.5-0.6,0.8c-0.1,0.2-0.1,0.4-0.1,0.4v0.2c-0.1,0.1-0.2,0.3-0.2,0.4
			c-0.1,0.3-0.2,0.6-0.2,1.1c0,0.9-0.1,1.6-0.1,2c-0.1,0.5-0.2,1-0.3,1.5c-0.1,0.3-0.1,0.5-0.1,0.8c-0.1,0.3-0.1,0.6-0.1,0.9
			c0,0.4,0,0.8,0.1,1.1c0,0.4,0,0.8-0.1,1.3l-0.3,0.2c-0.1,0.6-0.1,0.9-0.1,1.2c-0.1,0.4-0.1,0.6-0.3,0.7c-0.1,0.1-0.1,0.4,0,0.5
			c0.1,0.2,0.1,0.4,0.1,0.5c-0.1,0.2-0.2,0.4-0.2,0.5c-0.1,0.1-0.1,0.4,0,0.5c0.1,0.6,0.1,1.1,0.1,1.6c-0.1,0.6-0.2,1.1-0.4,1.5
			l-0.1,0.6l0.1,0.4v1.6c-0.1,0.1-0.1,0.2-0.1,0.4c-0.1,0.1-0.1,0.2-0.1,0.4v0.3c-0.1,0.2-0.1,0.4,0,0.6c0,0.1,0.1,0.2,0.4,0.4
			l0.4,0.8l0.3,0.1c0.1,0.1,0.2,0.1,0.4,0.3c0.1,0.1,0.5,0.1,0.9,0.3c0.1,0,0.4-0.1,0.8-0.1c0.4-0.1,0.7-0.2,1-0.3
			c0.3-0.1,0.6-0.4,1-0.8c0.3-0.6,0.4-1,0.4-1.3h0.1c0.5-0.8,0.8-1.7,0.8-2.6c0-0.1,0.1-0.2,0.1-0.2c0-0.1,0-0.2,0.1-0.2
			c0.1-0.4,0.2-0.7,0.4-1.1c0.1-0.5,0.1-1.1,0.2-1.8c0-0.6,0-1.2,0.1-1.8c0-0.4,0.1-0.8,0.1-1.2c0-0.4,0-0.7,0.1-1.1l0.2-0.4v-0.4
			c0.1,0,0.1-0.1,0.2-0.4v-1.3c0.1-0.6,0.1-1.2,0.1-1.8c0-0.4,0-1,0.1-1.5l-0.3-0.6c0.1-0.6,0.2-1.3,0.2-2.1l-0.1-0.2
			c0.1-0.1,0.1-0.1,0.1-0.3C73.7,37.9,73.7,37.8,73.8,37.7z M82.1,26.6h-0.4c-0.2,0-0.4-0.1-0.7-0.1c-0.3,0-0.6,0.1-0.8,0.1
			c-3.6,0.7-7.6,1.5-11.6,2.5c-4.1,1.1-8.1,2.1-11.7,3.2c-0.8,0.3-1.6,0.6-2.4,1.1c-0.8,0.6-1.3,1-1.4,1.3c0,0.4,0.1,0.8,0.6,1.1
			c0.3,0.4,0.6,0.6,0.8,0.7h0.6c0.3,0,0.5,0,0.8-0.1c0.2,0,0.5-0.1,0.8-0.1c0.3,0,0.4-0.1,0.6-0.1c0.2,0.2,0.6,0.3,1.1,0.1l6-1.7
			l0.6-0.3c0.4-0.2,1-0.4,1.7-0.7c0.6-0.1,1.3-0.3,2.2-0.3c0.4,0,0.8-0.1,1.1-0.3c0.3-0.1,0.5-0.3,0.8-0.5c0.1-0.1,0.4-0.1,0.6-0.1
			c0.1,0.1,0.2,0.1,0.4,0.1c0.1,0.1,0.3,0.1,0.6,0.1l0.1-0.4c1.1-0.3,2.2-0.6,3.4-0.9c1.1-0.3,2.1-0.5,3.2-0.6
			c0.4,0.2,0.7,0.2,1.1,0.1c0.4,0.1,0.9,0.1,1.4-0.1l0.2-0.1c0.1-0.1,0.4-0.3,0.7-0.5l0.8-0.4c0-0.1,0-0.4,0.1-0.6v-1.6
			c-0.1-0.3-0.4-0.6-0.7-1C82.3,26.7,82.2,26.7,82.1,26.6z M55.2,28c0.1,0.1,0.2,0.1,0.4,0.1c0.4,0.1,0.6,0.1,0.8,0.1l0.5,0.1
			c0.3,0,0.5-0.1,0.8-0.3c0.1-0.1,0.3-0.4,0.4-0.5c0.3,0,0.6-0.1,0.9-0.5l0.7-0.7c0.1-0.1,0.2-0.3,0.4-0.4l0.5-0.5
			c0.3-0.2,0.6-0.6,1.1-1.2c0.4-0.5,0.7-0.9,1-1.3c0.6-0.7,1.1-1.2,1.5-1.6c0.3-0.4,0.5-0.6,0.6-0.7l0.2-0.5l0.9-0.5
			c0,0,0.1-0.1,0.2-0.3c0.1-0.1,0.1-0.3,0.3-0.6c0,0,0.1-0.1,0.1-0.2c0-0.1,0.1-0.1,0.1-0.3l0.2-0.2c0.1-0.2,0.2-0.4,0.4-0.5
			c0-0.1,0.1-0.2,0.2-0.4c0.1-0.1,0.1-0.2,0.3-0.4c0-0.1,0.1-0.3,0.4-0.6c0.1-0.1,0.2-0.2,0.4-0.3c0.1,0,0.2-0.1,0.4-0.3l0.8-1.1
			l-0.1-0.1l0.7-0.6c0.1-0.2,0.1-0.4,0.2-0.5c0,0,0-0.1,0.1-0.2c0.1-0.2,0.1-0.4,0.3-0.7c0.1-0.1,0.1-0.4,0.2-0.6l0.2-0.8
			c0-0.2-0.2-0.5-0.5-0.8c-0.1-0.4-0.4-0.8-0.8-1.2c-0.4-0.4-0.9-0.6-1.3-0.7c-1,0-1.8,0.1-2.7,0.1c-0.9,0.1-1.7,0.2-2.4,0.4
			l-0.9,0.2c-0.3,0.1-0.5,0.2-0.6,0.2c-0.3,0.1-0.5,0.1-0.7,0.1L59,10c-0.5,0.1-0.9,0.4-1.3,0.8c-0.4,0.4-0.6,0.9-0.5,1.3
			c0.1,0.4,0.2,0.7,0.5,0.9c0.1,0.3,0.4,0.4,0.8,0.5c0.3,0.1,0.6,0.2,0.9,0.1c0.3-0.1,0.6-0.2,1.1-0.3c0.4,0,0.6-0.1,0.9-0.2
			c0.1,0,0.1,0,0.3-0.1h0.2c0.2,0,0.4-0.1,0.7-0.4c0.4-0.1,1-0.3,1.6-0.4c0.6,0,1.1-0.1,1.7-0.2c-0.6,1-1.3,1.8-1.9,2.6
			c-0.7,0.8-1.3,1.7-2,2.5c-0.2,0.2-0.4,0.4-0.4,0.6c-0.1,0.2-0.4,0.4-0.5,0.6l-0.2,0.4l-0.4,0.2c-0.6,0.6-1.1,1.2-1.5,1.8
			c-0.6,0.6-1.1,1.2-1.5,1.8l-1,0.7c0,0.1-0.1,0.4-0.1,0.6l-0.8,0.8l-0.1,0.4h-0.1c-0.4,0.1-0.7,0.4-0.8,0.6c-0.1,0.4-0.1,0.7,0,1.1
			C54.8,27,54.9,27.5,55.2,28z M70.7,16.8l-0.4,0.1C70.2,17,70,17,69.9,17.2c-0.2,0.1-0.3,0.3-0.3,0.4c-0.3,0.4-0.2,0.9,0.1,1.3
			c0.3,0.5,0.6,0.8,0.9,0.9l0.6,0.6c0.1,0.1,0.3,0.4,0.6,0.5c0.2,0.3,0.4,0.4,0.6,0.5h0.3c0.3,0.3,0.6,0.5,1,0.8
			c0.3,0.3,0.6,0.6,1,0.8c0.3,0.3,0.6,0.5,0.9,0.6c0.3,0.3,0.5,0.4,0.6,0.4h0.3c0.1,0.1,0.4,0.3,0.6,0.3c0.1,0.1,0.2,0.1,0.4,0.2
			c0.2,0.1,0.4,0.2,0.6,0.2c0.1,0,0.4,0,0.6-0.1l0.4-0.6c0.1-0.2,0.2-0.6,0.3-1.1v-1.1h-0.1v-0.3c-0.4-0.3-0.6-0.5-0.6-0.6
			c-0.1-0.1-0.1-0.2-0.2-0.4l-0.2-0.2l-0.2-0.1L77,19.3c-0.1-0.1-0.2-0.1-0.2-0.2c-0.1,0-0.1-0.1-0.1-0.1c-0.1-0.1-0.2-0.3-0.4-0.4
			c-0.1-0.1-0.4-0.2-0.8-0.4c-0.1-0.1-0.5-0.4-0.9-0.6c-0.5-0.3-0.9-0.4-1.2-0.6c-0.3-0.1-0.4-0.1-0.4-0.2h-0.3l-1.1-0.1L71,16.8
			H70.7z M100.8,25.8c0.2-0.5,0.3-0.8,0.1-1.1l0.5-0.4c0-0.5,0.1-0.9,0.1-1.3c0-0.3-0.1-0.6-0.1-1.1c-0.1-0.6-0.4-1.2-0.8-1.7
			c-0.6-0.4-1.1-0.6-1.8-0.6c-1,0.1-1.8,0.2-2.4,0.4c-0.7,0.2-1.4,0.4-2.1,0.7c-1.1,0.4-2,0.8-2.7,1c-0.7,0.3-1.3,0.4-1.6,0.6
			c-0.4,0.1-0.6,0.3-0.8,0.3c-0.1,0.1-0.3,0.1-0.4,0.1l-0.1,0.1l-0.4,0.1c-0.6,0.3-1.1,0.8-1.2,1.5c-0.3,0.8-0.1,1.4,0.4,2
			c0.4,0.2,0.9,0.3,1.5,0.1c0.7-0.3,1.8-0.7,3.2-1.1c0.1,0,0.3-0.1,0.5-0.3c0.1-0.1,1.4-0.6,3.9-1.3c-0.3,0.8-0.6,1.8-0.8,2.7
			c-0.4,1-0.6,1.7-0.7,2c-0.3,0.7-0.5,1.3-0.6,1.9l-0.6,1.6c-0.1,0.3-0.2,0.6-0.4,0.8c-0.1,0.4-0.3,0.6-0.4,0.8v0.3l-0.3,0.5
			c-0.3,0.7-0.6,1.3-0.8,1.8c-0.3,0.6-0.5,1.2-0.8,1.8c-0.2,0.3-0.4,0.4-0.4,0.6c-0.1,0.1-0.3,0.4-0.4,0.6c0,0.1,0,0.2,0.1,0.3v0.4
			L90,40.5v0.3c-0.4,0.3-0.6,0.6-0.5,0.8c0,0.4,0.1,0.7,0.3,1c0.1,0.4,0.5,0.8,0.9,1.1c0.4,0.1,1,0.1,1.7-0.2
			c0.3-0.1,0.5-0.2,0.6-0.5c0.1-0.2,0.2-0.4,0.3-0.5c0.1-0.1,0.2-0.1,0.4-0.3c0.1,0,0.3-0.2,0.4-0.5c0.1-0.2,0.1-0.4,0.3-0.6
			c0-0.1,0.1-0.2,0.2-0.5c0.1-0.1,0.2-0.4,0.4-0.8c0.1-0.3,0.4-0.8,0.7-1.5c0.3-0.7,0.6-1.4,0.9-2.1c0.2-0.5,0.4-0.9,0.6-1.2
			c0.1-0.3,0.2-0.6,0.4-1c0.3-0.3,0.4-0.5,0.6-0.8c0.1-0.2,0.1-0.6,0.3-1l0.2-0.7l0.6-1.6l0.2-0.4c0.4-0.9,0.6-1.6,0.8-2
			c0.1-0.4,0.3-0.8,0.4-1.2L100.8,25.8z M122.5,11.4c-0.1-0.2-0.2-0.4-0.3-0.7c-0.1-0.2-0.3-0.5-0.5-0.9l-0.3-0.4
			c-0.1-0.1-0.3-0.4-0.4-0.6c-0.1-0.1-0.4-0.3-0.8-0.4c-0.4,0.1-0.7,0.2-0.8,0.4c-0.2,0.2-0.4,0.4-0.5,0.6l-0.5,0.5
			c-0.4,0.6-0.6,0.9-0.7,1.2c-0.1,0.3-0.1,0.6-0.1,0.8l-0.6,0.6l-0.2,1c-0.4,1-0.6,2.1-0.7,3.5c-0.2,1.5-0.4,2.9-0.5,4.3
			c-0.1,0.3-0.2,0.6-0.3,1.1c-0.1,0.5-0.1,1-0.1,1.5c-1.8,0.4-3.4,0.8-4.8,1.2c-1.5,0.4-2.5,0.8-3,1c-0.2,0.1-0.4,0.2-0.4,0.3
			l-0.4,0.4c-0.1,0.1-0.2,0.1-0.4,0.1c-0.4,0-0.6,0.1-0.8,0.2c-0.3,0.1-0.4,0.5-0.4,1.1c0,0.4,0.1,0.8,0.4,1.1
			c0.2,0.4,0.8,0.8,2,0.9c0.3,0.1,0.7,0,1.1-0.2c0.4-0.1,0.7-0.3,0.8-0.4c0.6-0.2,1.4-0.4,2.3-0.7c0.8-0.1,1.8-0.4,2.7-0.6
			c-0.1,0.3-0.1,0.5,0,0.8V31c-0.1,0.4-0.1,0.6-0.1,0.9c-0.1,0.4-0.1,0.6-0.1,0.9c-0.1,0.9-0.3,1.8-0.3,2.8c-0.1,1-0.1,2,0,3.1
			c-0.1,0.4-0.1,0.8-0.1,1.3c-0.1,0.4-0.1,0.8-0.1,1.2c-0.1,0.2-0.1,0.4-0.1,0.7c-0.1,0.4-0.1,0.6,0,0.9c-0.5,1.7-0.7,2.9-0.7,3.6
			c-0.1,0.8-0.1,1.5-0.1,2.2v2c1,0.1,2,0,2.9-0.3c0.8-0.3,1.4-0.8,1.8-1.6c0.4-0.3,0.8-0.8,1.3-1.5c0.4-0.6,0.8-1.3,1.1-2l-0.1-0.3
			l0.2-0.2l-0.1-0.8c0.2-1.3,0.4-2.6,0.6-4c0.1-1.3,0.2-2.5,0.2-3.4c-0.1,0-0.1-0.1-0.1-0.2c-0.1-0.1-0.1-0.1-0.1-0.3l0.6-1
			c0-0.5,0.1-1,0.1-1.5v-2.1c0-0.2,0-0.4,0.1-0.6c0.3-0.5,0.5-1.1,0.6-1.6v-1.7l0.1-0.3c0-0.2,0.1-0.5,0.1-0.9
			c0-0.4,0.1-0.9,0.1-1.8c0-0.4,0.1-1,0.1-1.6c0-0.6,0.1-1.1,0.2-1.6c0-0.3,0.1-0.6,0.1-1c0-0.3,0-0.6,0.1-0.8
			c0.1-0.6,0.1-1.2,0.3-1.8c0-0.4-0.1-0.9-0.4-1.4c0.2-0.4,0.3-0.8,0.3-1.1c-0.1-0.3-0.1-0.5-0.2-0.8c0.1-0.2,0.3-0.4,0.4-0.6
			c0.1-0.1,0.1-0.2,0.1-0.5l-0.4-0.8C122.6,12.4,122.5,12,122.5,11.4z M92.2,15.9c0.1,0.4,0.1,0.6,0.1,0.6v0.6c0,0.1,0,0.2,0.1,0.3
			c0,0.4,0.1,0.7,0.3,0.9c0.1,0.3,0.2,0.5,0.4,0.6l0.3,0.3c0.4,0,1-0.1,1.5-0.6c0.6-0.3,1.1-0.7,1.6-1.3l-0.1-0.1l0.3-0.6
			c0.1-0.1,0.2-0.4,0.4-0.8c0.1-0.3,0.1-0.6,0.2-1c0.1-0.1,0.2-0.4,0.4-0.8c0-0.2-0.1-0.4-0.1-0.6c-0.1-0.1-0.1-0.3,0.1-0.6l0.1-1.2
			c0,0,0-0.1,0.1-0.4c0-0.2,0-0.4,0.1-0.7c0-0.3,0.1-0.6,0.1-0.8c0-0.2,0-0.4,0.1-0.7c0-0.3-0.1-0.5-0.1-0.6
			c-0.1-0.1-0.2-0.2-0.3-0.4c-0.1-0.1-0.2-0.3-0.2-0.4c-0.1-0.1-0.1-0.2-0.2-0.4c-0.1-0.4-0.4-0.7-0.8-1.1c-0.4-0.3-0.9-0.5-1.4-0.5
			c-0.5,0-0.8,0.1-1.1,0.2c-0.3,0.2-0.5,0.4-0.6,0.6C93,6.8,92.9,7,92.9,7.2c-0.1,0.3-0.1,0.4-0.1,0.4l-0.1,0.5l-0.2,1
			c-0.1,0.4-0.1,0.6-0.1,0.8c-0.1,0.1-0.1,0.4-0.1,0.6V11l-0.1,0.5l0.1,0.6c-0.1,0.4-0.1,0.7-0.1,0.8c-0.1,0.3-0.1,0.7-0.2,1.3
			c-0.1,0.4-0.1,0.8-0.1,1C92.1,15.5,92.1,15.8,92.2,15.9z M132.4,15.6c-0.1-0.3-0.2-0.6-0.3-0.8c-0.1-0.1-0.1-0.3-0.1-0.5
			c0.1-0.6,0-1.1-0.2-1.2c-0.3-0.1-0.5-0.3-0.7-0.4l-0.3-0.1c-0.3-0.4-0.6-0.5-0.9-0.4c-0.4,0.2-0.6,0.4-0.8,0.6l-0.2,0.2
			c-0.3,0.3-0.6,0.5-0.8,0.7c-0.3,0.3-0.5,0.6-0.6,0.8v0.8l-0.1,0.6c-0.3,0.7-0.4,1.3-0.4,1.8c-0.1,1.4-0.1,2.5-0.2,3.2
			c-0.1,0.8-0.2,1.7-0.4,2.5c-0.1,0.4-0.1,0.8-0.1,1.1c-0.1,0.4-0.1,0.8-0.2,1.2v1.7c-0.1,0.3-0.1,0.6-0.1,1c0,0.3-0.1,0.5-0.1,0.7
			c-0.1,0.3-0.2,0.5-0.4,0.6c-0.1,0.2-0.2,0.4-0.2,0.6c0,0.4,0.1,0.6,0.3,0.8c-0.1,0.4-0.1,0.6-0.2,0.8c-0.1,0.1-0.2,0.4-0.2,0.6
			c-0.1,0.4-0.1,0.7,0,0.9c0,0.3,0.1,0.5,0.1,0.6c-0.3,0.1-0.4,0.2-0.5,0.3c-0.1,0.1-0.1,0.4,0.1,0.7v2.5c-0.1,0.9-0.3,1.7-0.6,2.4
			v0.4c-0.1,0.2-0.1,0.5-0.1,0.8v2c0,0.6-0.1,0.9-0.1,0.9c-0.3,0.3-0.4,0.5-0.3,0.6v0.6c0,0.3,0,0.4,0.1,0.4c0,0.1,0,0.3,0.1,0.5
			l0.6,1.5c0.1,0.4,0.6,0.6,1.1,0.7c0.1,0,0.4,0,0.8-0.1c0.4,0,0.8-0.1,1.1-0.4c0.2-0.1,0.4-0.5,0.7-1.1c0.2-0.5,0.4-1.1,0.6-1.9
			l0.3-0.2c0.2-0.6,0.4-1.2,0.5-1.8c0.1-0.6,0.1-1.2,0.3-1.9c0-0.4,0.1-0.7,0.3-1.1c0.1-0.3,0.3-0.7,0.4-1.1
			c0.1-1.3,0.1-2.7,0.3-4.1c0.1-1.4,0.1-2.6,0.3-3.7c0-0.1,0-0.4,0.1-0.6c0-0.1,0.1-0.3,0.1-0.4c0-0.1,0.1-0.3,0.1-0.4l-0.1-0.6
			c0.1-0.1,0.1-0.2,0.2-0.5c0-0.2,0-0.4,0.1-0.7c0-0.3,0.1-0.6,0.1-1c0-0.3,0.1-0.6,0.1-1c0-0.4,0-0.7,0.1-1.1
			c0-0.4,0.1-0.8,0.1-1.4c0-0.6,0-1.1,0.1-1.6l-0.3-0.3c0.1-0.8,0.2-1.5,0.2-2c0-0.2,0.1-0.4,0.1-0.6v-0.6c0-0.3,0-0.5,0.1-0.8
			c0-0.3-0.1-0.5-0.2-0.6c0.1-0.1,0.1-0.3,0.3-0.6C132.5,16.1,132.5,15.8,132.4,15.6z M108.1,38.8c0-0.1-0.1-0.3-0.1-0.5
			c-0.1-0.1-0.1-0.1-0.1-0.2V38c-0.1-0.1-0.2-0.2-0.2-0.4c-0.1-0.1-0.2-0.1-0.2-0.3c-0.1-0.2-0.1-0.4-0.1-0.6
			c-0.1-0.1-0.2-0.2-0.5-0.4c-0.1,0-0.2-0.1-0.2-0.2c-0.1-0.1-0.1-0.1-0.1-0.3c-0.3-0.4-0.4-0.6-0.4-0.8c-0.1,0-0.2-0.1-0.3-0.3
			c-0.1-0.1-0.3-0.4-0.5-0.8c-0.3-0.4-0.4-0.6-0.4-0.7l-0.3-0.3c-0.1,0-0.3-0.1-0.4-0.2l-0.5-0.6l-0.6-0.4l-0.1-0.1
			c-0.3,0-0.5-0.1-0.8-0.1c-0.4,0-0.6-0.1-0.6-0.2c-0.4,0.3-0.7,0.4-0.9,0.4c-0.3,0.1-0.4,0.3-0.5,0.7c0,0.1,0.1,0.1,0.1,0.1
			c-0.1,0.1-0.1,0.1-0.1,0.1c-0.3,0.2-0.4,0.7-0.1,1.5l0.3,0.1l0.1,0.3c0.1,0.3,0.3,0.6,0.6,1c0.2,0.4,0.4,0.8,0.6,0.9l0.1,0.4
			l0.3,0.2l0.1,0.1c0.4,0.8,0.9,1.5,1.4,2.1c0.1,0.3,0.4,0.4,0.6,0.6c0.1,0.1,0.4,0.4,0.7,0.6l0.3,0.1l0.6,0.4l1.4,0.8l0.6-0.1
			l0.2-0.5l0.3-0.7l-0.1-1V38.8z M143.3,10.7c0,0.1,0.1,0.1,0.1,0.2c0,0.1,0,0.3,0.1,0.4c0,0.2,0.1,0.4,0.1,0.6c0,0.1,0,0.4,0.1,0.5
			c0,0.2,0.1,0.4,0.3,0.4c0.1,1.3,0.4,2.1,1.1,2.4c0.6,0.4,1.3,0.6,2.2,0.6c0.3-0.3,0.5-0.6,0.6-1c0.1-0.4,0.1-0.6,0.1-0.9
			s0-0.6,0.1-0.8c0-0.1,0-0.4,0.1-0.7c0.1-0.4,0.2-1,0.3-1.5c0-0.6,0.1-1.2,0.1-1.9V7.1c0-0.7-0.1-1.2-0.1-1.5
			c-0.2-0.4-0.4-0.8-0.6-0.9c0-0.1,0.1-0.2,0.1-0.4V3.5c-0.1-0.2-0.3-0.5-0.6-0.8c-0.4-0.3-0.8-0.4-1.3-0.4c-0.4,0-0.8,0.1-1.1,0.2
			c-0.3,0.2-0.6,0.4-0.7,0.6c-0.6,0.7-0.9,1.5-1.1,2.4c-0.3,1-0.4,1.9-0.4,2.7c0,0.8,0,1.4,0.1,1.8C143,10.2,143.1,10.5,143.3,10.7z
			 M163.3,45.5c-0.1-0.1-0.1-0.3-0.1-0.6c0-0.3,0-0.5,0.1-0.7c0-0.1,0-0.4,0.1-0.6c0-0.2,0.1-0.4,0.1-0.7c0-0.2,0-0.5,0.1-0.8
			c0-0.2,0.1-0.4,0.1-0.7c0-0.2,0-0.4,0.1-0.7c0-0.3,0.1-0.5,0.1-0.6c-0.1-0.1-0.1-0.2-0.2-0.5c-0.1-0.2-0.2-0.4-0.3-0.7
			c-0.1-0.1-0.3-0.4-0.4-0.6l-0.5-1.2l-1-0.6h-1.2c-0.8,0.2-1.3,0.6-1.6,1.1c-0.3,0.4-0.4,0.8-0.4,1.1c-0.1,0.4-0.1,0.6-0.1,0.8
			l-0.3,0.3l-0.1,0.8c0,0.1-0.1,0.4-0.1,0.6l-0.2,0.8c-0.1,0.3-0.1,0.6-0.1,0.8c-0.1,0.4-0.1,0.6-0.1,0.8v0.4l-0.2,0.4l0.1,0.1
			c-0.1,0.6-0.3,1.2-0.4,1.9c-0.1,0.8-0.3,1.5-0.4,2.1c-0.1,0.7-0.2,1.3-0.2,1.9c-0.1,0.6-0.1,1-0.1,1.2c0,0.1,0,0.2,0.1,0.4
			c0,0.1,0,0.2,0.1,0.3c0,0.1-0.1,0.3-0.1,0.4V53c-0.1,0.4-0.1,0.8,0.1,1c-0.1,0.3,0,0.6,0.1,0.8c0.1,0.2,0.2,0.4,0.4,0.7l0.4,0.4
			c0.2,0.1,0.4,0.1,0.6,0.1c0.1-0.1,0.4-0.1,0.6-0.2c0.3-0.1,0.6-0.4,1.1-0.8c0.4-0.4,0.7-0.8,1-1.1h-0.2l0.7-0.8
			c0.1-0.4,0.1-0.7,0.2-1c0-0.3,0.1-0.5,0.4-0.8l0.4-0.9c0.1-0.1,0.2-0.3,0.2-0.6c0.1-0.4,0.2-0.6,0.3-0.9c0-0.1,0-0.4,0.1-0.7
			c0.1-0.4,0.2-0.9,0.4-1.3C163.3,46.4,163.4,46,163.3,45.5z M157.9,25.2c0.3,0.4,0.9,0.6,2,0.6c0.2,0,0.5-0.1,0.9-0.2
			c0.3-0.1,0.6-0.2,0.8-0.5c0.6-0.2,1.3-0.5,2.1-0.8c0.8-0.2,1.6-0.4,2.5-0.7v0.1c-0.2,0.3-0.4,0.6-0.5,0.8
			c-0.1,0.3-0.2,0.5-0.3,0.7c-0.1,0.3-0.1,0.5-0.1,0.6c0,0.4,0.1,0.6,0.3,0.8c-0.3,0.4-0.4,0.8-0.4,1.2c-0.1,0.4-0.2,0.8-0.2,1.3
			l-0.4,0.8c0,0.1,0.1,0.3,0.1,0.3v1.1l-0.5,2.4c0,0.4,0.1,0.7,0.2,0.8c0.1,0.1,0.2,0.4,0.2,0.5l0.1,0.8c0.1,0.3,0.4,0.6,0.6,0.8
			c0.1,0.3,0.5,0.4,0.9,0.4c0.3,0,0.6,0,0.8-0.1c0.3,0,0.6-0.1,1-0.4c0.6-0.2,0.9-0.6,1.1-1c0.1-0.4,0.4-0.8,0.6-1.3l0.7-1.2
			l0.7-1.7c0-0.1,0.2-0.4,0.5-0.9c0.2-0.4,0.4-1,0.7-1.7c0.1-0.8,0.2-1.8,0.4-2.9c0.1-1,0.2-1.9,0.4-2.7l0.1-0.7
			c0.1,0,0.1-0.1,0.2-0.4c0-0.1,0.1-0.3,0.1-0.6v-0.4c-0.1-0.1-0.1-0.2-0.1-0.4v-0.3c0-0.3,0.1-0.5,0.1-0.6c0-0.1,0.1-0.1,0.1-0.3
			c0-0.1,0-0.2,0.1-0.5c0-0.1,0-0.6,0.1-1.2l0.3-1.9c-0.1-0.1-0.1-0.4-0.1-0.5c-0.1-0.1-0.1-0.3-0.1-0.5c0.1-0.4,0.1-0.8,0.1-1.2
			c-0.1-0.3-0.1-0.5,0.1-0.8c0-0.3,0.1-0.5,0.1-0.8c0-0.1,0.1-0.4,0.1-0.6c0-0.5-0.1-1.1-0.4-1.7c-0.3-0.4-0.4-0.9-0.6-1.5
			c-0.1-0.4-0.4-0.7-0.8-0.7c-0.2-0.1-0.4-0.3-0.6-0.3c-0.3,0-0.6,0.1-0.9,0.2c-0.4,0.1-0.8,0.4-1.1,0.6c-0.4,0.3-0.7,0.5-0.9,0.7
			c-0.3,0.3-0.5,0.6-0.5,0.8v0.8c-0.2,0.3-0.4,0.6-0.4,1l-0.1,1.2c0,0.7-0.1,1.3-0.2,1.8c-0.1,0.5-0.3,1-0.4,1.5l-0.6,2.5v1.3
			c-1.5,0.4-3.1,0.9-4.5,1.3c-1.5,0.5-2.5,0.8-2.9,1.1c-0.1,0.1-0.1,0.2-0.3,0.3c-0.2,0.1-0.4,0.3-0.4,0.4c-0.1,0.1-0.3,0.2-0.4,0.2
			c-0.3,0.1-0.6,0.2-0.8,0.2c-0.3,0.1-0.4,0.4-0.4,1C157.4,24.5,157.5,24.8,157.9,25.2z M176.7,51.3c-0.1-0.3-0.2-0.6-0.5-0.8
			c-0.4-0.1-0.8-0.2-1.5-0.1c-0.4,0.1-0.6,0.2-0.9,0.2l-1.1,0.2c0.1-0.2,0.1-0.4,0.3-0.7c0.1-0.1,0.1-0.4,0.3-0.6
			c0.2-0.6,0.4-1.3,0.7-1.8c0.2-0.6,0.4-1.1,0.6-1.5l1.3-4.6l0.2-1.5v-1.2c0-0.4-0.1-0.6-0.1-0.8c-0.1-0.1-0.3-0.2-0.4-0.4l-0.7-0.6
			c-0.4-0.3-0.8-0.4-1.2-0.3c-1.4,0.4-2.7,0.8-4,1.3l-3.4,1.3l-0.8,0.6c-0.8,0.7-1.2,1.3-1.1,1.9c-0.1,0.6,0.1,0.9,0.6,1
			c0.4,0.1,0.8,0.1,0.9,0.1c0.4,0,0.8-0.1,1.1-0.5l0.2-0.1l1.6-0.6c0.4-0.1,0.9-0.2,1.6-0.5l-0.1,0.8l-0.3,1c-0.1,0.6-0.2,1-0.3,1.1
			l-0.4,1.3c-0.1,0.4-0.2,0.8-0.2,1c-0.1,0.1-0.1,0.1-0.1,0.1v0.1c-0.1,0.1-0.1,0.1-0.1,0.1c-0.1,0.4-0.4,1-0.6,1.7
			c-0.3,0.8-0.6,2-1.1,3.6c-0.6,0.2-1.1,0.4-1.6,0.6c-0.6,0.1-1.1,0.4-1.7,0.6c-0.4,0.1-0.7,0.4-1,0.8c-0.3,0.4-0.4,0.8-0.3,1.5
			c0.1,0.4,0.3,0.6,0.6,0.7c0.2,0,0.6,0.1,1.3,0.1c0.2,0,0.4-0.1,0.6-0.1c0.1-0.1,0.3-0.2,0.5-0.3L166,56c0.9-0.3,1.8-0.6,2.5-0.8
			c0.7-0.3,1.5-0.4,2.5-0.6c0.1,0,0.4,0,0.5,0.1c0.1,0,0.2-0.1,0.5-0.4c0.1-0.1,0.4-0.1,0.8-0.1c0.3-0.1,0.5-0.1,0.7,0
			c0.1,0,0.2-0.1,0.4-0.1c0.1-0.1,0.1-0.1,0.3-0.1c0.1,0.1,0.4,0.1,0.7,0.1c0.3-0.1,0.5-0.2,0.8-0.4c0.4-0.3,0.6-0.6,0.9-0.9
			C176.7,52.6,176.7,52,176.7,51.3z M157.2,17.5c0.1-0.3,0.1-0.6,0.3-0.8c0-0.3,0.1-0.5,0.1-0.8c0-0.1-0.2-0.6-0.6-1.1
			c-0.3,0-0.6-0.1-0.8-0.1c-0.3,0-0.5,0.1-0.8,0.1c-2.2,0.4-4.6,1-7,1.7c-2.5,0.7-5,1.5-7.4,2.4c-0.6,0.3-1.1,0.6-1.6,1
			c-0.6,0.5-0.8,0.8-0.8,1.1c-0.1,0.4-0.1,0.7,0.2,0.9c0.2,0.3,0.4,0.4,0.6,0.5c0.2,0.2,0.4,0.3,0.6,0.3c0.1,0,0.4,0,0.6-0.1
			c0.3-0.1,0.5-0.1,0.6-0.1c0.1,0.1,0.1,0.1,0.2,0.1c0,0.1,0.1,0.1,0.4,0.1l2.9-1.1c0.7-0.3,1.3-0.5,1.8-0.7
			c0.4-0.1,0.8-0.2,1.1-0.3c0.2,0,0.5-0.1,0.8-0.1c0.2,0,0.4-0.1,0.6-0.3c0.1-0.1,0.4-0.2,0.5-0.4l0.7-0.1l0.6-0.4
			c0.9-0.3,1.7-0.5,2.4-0.6c0.6-0.1,1.3-0.2,2-0.3l1.1,0.1C156.8,18.2,157,17.9,157.2,17.5z M154,23.6c-0.3-0.4-0.5-0.8-0.8-1.2
			c-0.3-0.3-0.6-0.5-0.8-0.6c-0.4,0-0.8,0.1-1.4,0.1l-1.7,0.4c-0.6,0.3-1.2,0.5-1.7,0.8c-0.6,0.3-1.1,0.6-1.3,1.1
			c-0.6,0.7-1,1.7-1.4,2.9c-0.5,1.4-0.8,2.8-0.8,4.2c-0.1,0.5,0,1,0.2,1.5c0.1,0.6,0.4,1.2,0.6,1.7c0.3,0.6,0.6,1,1.1,1.3
			c0.4,0.4,0.8,0.6,1.4,0.6h0.5c0.1,0,0.4,0,0.6-0.1c0.4-0.1,0.7-0.1,0.8-0.1c0.4,0,0.6,0.1,0.8,0.1h0.5c0.1,0.1,0.4,0.1,0.5,0.1
			c0.8-0.1,1.5-0.5,1.9-1.3c0.4-0.7,0.8-1.6,1.2-2.7c0.3-0.8,0.4-1.7,0.6-2.5v-2.9c-0.1-0.6-0.1-1.1-0.3-1.8
			C154.3,24.6,154.1,24.1,154,23.6z M151.2,28c-0.1,0.6-0.2,1.1-0.4,1.5c-0.2,0.6-0.4,1.1-0.5,1.5c-0.2,0.5-0.4,0.8-0.5,1.1
			c-0.4-0.1-0.8-0.3-1-0.7c-0.3-0.4-0.4-0.6-0.4-0.8c-0.1-0.1-0.1-0.4,0.1-0.8c0-0.1,0.1-0.2,0.1-0.5v-0.5c-0.1-0.3-0.3-0.6-0.4-0.9
			c0.2-0.6,0.6-1.2,1.1-1.6c0.4-0.4,0.9-0.6,1.5-0.6c0.4,0,0.6,0.3,0.6,0.8C151.3,27.1,151.2,27.5,151.2,28z"/>
	</g>
</g>
</svg>
