<?xml version="1.0" encoding="utf-8"?>
<!-- Generator: Adobe Illustrator 22.0.1, SVG Export Plug-In . SVG Version: 6.00 Build 0)  -->
<svg version="1.1" id="레이어_1" xmlns="http://www.w3.org/2000/svg" xmlns:xlink="http://www.w3.org/1999/xlink" x="0px"
	 y="0px" viewBox="0 0 134 52" style="enable-background:new 0 0 134 52;" xml:space="preserve">
<style type="text/css">
	.st0{fill:#FFFFFF;}
</style>
<g>
	<g>
		<path class="st0" d="M9.3,30.7c0,0.4,0,0.8,0.1,1.1c0,1.4,0.3,2.4,0.8,2.8c0.6,0.6,1.3,0.8,2.1,0.8c0.4-0.3,0.6-0.6,0.7-0.9
			c0-0.2,0-0.4,0.1-0.7c0.1-0.8,0.3-1.5,0.5-2.1c0.1-0.3,0.2-0.9,0.3-1.6c0.1-0.7,0.2-1.4,0.3-2.2c0.1-0.6,0.1-1.4,0.3-2.2
			c0-0.8,0.1-1.3,0.1-1.7c0-0.1-0.1-0.3-0.1-0.4c-0.1-0.1-0.2-0.2-0.3-0.4c-0.1-0.1-0.2-0.3-0.1-0.4c0-0.1,0.1-0.2,0.1-0.5
			c0-0.2,0.1-0.3,0.1-0.5l-0.1-0.6c-0.1-0.2-0.3-0.4-0.4-0.7c-0.2-0.2-0.6-0.3-1-0.3c-0.8,0-1.4,0.2-1.7,0.6c-0.6,0.8-1,1.7-1.3,2.7
			c-0.3,1.1-0.6,2.1-0.6,3c-0.1,0.8-0.1,1.5-0.1,2c0,0.6,0,1,0.1,1.4L9.4,30c-0.1,0.1-0.1,0.2-0.1,0.3V30.7z M27.9,34
			c-0.3,0-0.7,0-1,0.1c-1.5,0.2-3.2,0.4-5,0.7c-1.8,0.3-3.7,0.6-5.5,1c-2,0.4-3.8,0.8-5.6,1.1c-1.9,0.4-3.6,0.8-5.2,1.3
			c-0.8,0.3-1.5,0.6-2.2,1S2.2,40,2.2,40.2c-0.1,0.5-0.1,0.9,0.3,1.2C2.7,41.8,3,42,3.3,42.1c0.3,0.1,0.8,0.1,1.2,0
			c0.1,0,0.3-0.1,0.5-0.1c0.1,0,0.3,0,0.6,0.1c0.3,0.1,0.6,0.2,0.9,0.2l5.9-1.5c0.3-0.1,0.8-0.3,1.3-0.4c0.4-0.1,1-0.1,1.7-0.1
			c0.5,0.1,0.8,0.1,1-0.1c0.1-0.1,0.3-0.2,0.5-0.3c0.1,0,0.1-0.1,0.2-0.1c0,0,0.1-0.1,0.1-0.1c0.1,0.1,0.2,0.1,0.4,0.1h0.6l0.2-0.3
			c1.1-0.1,2.3-0.3,3.4-0.6c1-0.1,2.2-0.3,3.3-0.5h0.3c0.1,0.1,0.2,0.1,0.4,0.1c0.2,0.1,0.4,0.1,0.7,0.1h0.6l0.6-0.3
			c0.1-0.1,0.3-0.3,0.6-0.5c0.1-0.1,0.3-0.2,0.5-0.3c0-0.1,0.1-0.3,0.1-0.6c0-0.1,0-0.3,0.1-0.4c0.1-0.3,0.1-0.7,0.1-1
			c0-0.2-0.2-0.6-0.6-1C28.4,34.2,28.2,34.2,27.9,34z M8.4,12.9c0.1,0.1,0.3,0.2,0.5,0.2c0.3,0,0.7,0,1-0.1c0.3,0,0.6-0.1,1-0.3
			c0.8-0.3,1.7-0.7,2.9-1c1-0.3,2-0.5,2.8-0.8l0.8-0.2c-0.1,0.8-0.1,1.3-0.1,1.6V19c0,1.3,0,2.6,0.1,3.9c0,1.4,0,2.4,0.1,3
			c0.1,0.1,0.1,0.1,0.3,0.1c0.1,0.1,0.2,0.1,0.4,0.1c0.1,0.1,0.1,0.2,0.3,0.2c0,0.1,0.1,0.2,0.2,0.3c0.1,0.1,0.2,0.2,0.3,0.3h1.1
			c0.1,0,0.3,0,0.4-0.1c0.3,0,0.7-0.1,1.1-0.3c0.3-0.1,0.5-0.6,0.6-1.3c0-0.3,0-0.7,0.1-1c0.1-0.3,0.1-0.6,0.3-0.8
			c0.1-0.3,0.2-0.6,0.2-0.7c0-0.1,0-0.2,0.1-0.3c0-0.3,0.1-0.8,0.2-1.6c0-0.7,0.1-1.5,0.1-2.3c0-0.8,0.1-1.7,0.1-2.6
			c0-0.8,0-1.6,0.1-2.3c0-0.5,0.1-0.9,0.1-1.3v-0.7c0.1-0.5,0.1-0.9,0.1-1.3c0-0.3-0.1-0.7-0.3-1.1c-0.3-0.7-0.6-1.3-0.9-1.8
			c-0.4-0.4-1-0.7-1.7-0.8l-1.1-0.2c-0.3,0-0.5,0.1-0.7,0.1c-0.5,0.1-1.1,0.3-1.8,0.5c-0.8,0.3-1.5,0.6-2.2,0.9h-0.5l-0.9,0.5
			L11.4,9C10.7,9.3,10,9.6,9.3,9.9C9.2,9.9,9.1,9.9,9.1,9.9C9,10,8.9,10.1,8.9,10.1c-0.1,0.1-0.2,0.1-0.2,0.1
			c-0.1,0.1-0.1,0.1-0.2,0.1c-0.1,0.1-0.2,0.2-0.3,0.2c-0.1,0.3-0.3,0.5-0.4,0.6c-0.1,0.2-0.1,0.4-0.1,0.6C7.6,12,7.5,12,7.5,12.1
			C7.5,12.5,7.8,12.7,8.4,12.9z M38.3,27.7c0.1,0.3,0.3,0.6,0.6,0.8c0.1,0.1,0.4,0,0.7-0.1c0.3-0.1,0.6-0.2,0.8-0.4
			c0.3-0.1,0.5-0.3,0.7-0.6c0.1-0.1,0.3-0.3,0.3-0.5c0.2-0.5,0.4-1,0.6-1.5c0.1-0.4,0.1-0.8,0.3-1.1l0.2-0.8l0.4-2v-0.5
			c0-0.2,0-0.5,0.1-0.8c0.1-0.3,0.1-0.6,0.2-0.9c0-0.3,0.1-0.5,0.1-0.8c0-0.3,0-0.7-0.1-1c-0.1-0.1-0.1-0.2-0.1-0.5
			c-0.1-0.1-0.2-0.3-0.2-0.5c0-0.3-0.2-0.6-0.6-1c-0.4-0.3-0.8-0.5-1-0.6h-0.1c-0.8,0-1.3,0.2-1.5,0.6c-0.3,0.6-0.5,0.9-0.5,1.2v0.5
			l-0.1,0.3l-0.1,0.5C39,18.5,39,18.7,39,18.8c-0.1,0.2-0.1,0.4-0.1,0.6c-0.1,0.1-0.1,0.3-0.1,0.5c-0.1,0.3-0.1,0.5-0.1,0.7L38.4,21
			c0,0.1,0,0.3,0.1,0.6l-0.1,0.6c-0.1,0.2-0.1,0.4-0.1,0.6c-0.1,0.3-0.1,0.4-0.1,0.6c-0.1,0.6-0.1,0.9-0.1,1.2c0,0.3,0,0.6,0.1,0.7
			v0.6l-0.1,0.3v0.4c0,0.1,0,0.2,0.1,0.2v0.1C38.1,27.2,38.2,27.5,38.3,27.7z M37.3,14.8c0.3-0.1,0.7-0.2,1.3-0.4l3.5-0.7l2.2-1.1
			c0.3,0,0.7,0,1.1-0.1c0.3,0,0.7-0.2,1.1-0.5c0.4-0.1,1.1-0.3,2-0.6c0.8-0.1,1.5-0.2,2-0.3c0.1,0,0.3-0.1,0.5-0.2
			c0.1-0.1,0.3-0.1,0.6-0.1c0.2,0.1,0.6,0.1,1,0c0.3,0,0.7-0.1,1-0.3c0.5-0.2,0.9-0.6,1.3-1.2c0.3-0.5,0.2-1.1-0.1-2
			c-0.1-0.3-0.4-0.5-0.8-0.6c-0.4-0.1-1.2-0.1-2.2,0.1c-1.4,0.3-2.7,0.6-3.9,0.8l-3.9,1l-4.2,1.3l-4.7,1.5c-0.7,0.4-1.2,0.8-1.5,1.2
			c-0.4,0.5-0.4,1.1,0.1,1.9c0.3,0.3,0.6,0.5,0.9,0.5c0.2,0.1,0.6,0.1,1,0c0.4-0.1,0.8-0.1,1.2-0.1C36.8,15,37,15,37.3,14.8z
			 M68.1,10.1c0.1-0.5,0.1-0.9,0.1-1.2c-0.1-0.3-0.1-0.5,0.1-0.8c0-0.3,0.1-0.6,0.1-0.8c0-0.1,0.1-0.4,0.1-0.7
			c0-0.5-0.1-1.1-0.3-1.8c-0.3-0.5-0.4-1-0.6-1.6c-0.1-0.5-0.4-0.8-0.7-0.8c-0.2-0.1-0.4-0.3-0.6-0.3c-0.3,0-0.6,0.1-0.9,0.2
			c-0.4,0.2-0.8,0.4-1,0.6c-0.3,0.3-0.6,0.6-0.8,0.8C63.2,4.1,63,4.4,63,4.6v0.9c-0.2,0.3-0.3,0.6-0.3,1l-0.1,1.3
			c0,0.8-0.1,1.4-0.1,1.8c-0.1,0.5-0.3,1-0.3,1.6L61.4,14v1.6l0.1,0.6c0,0.4-0.1,0.6-0.2,0.8c-0.1,0.2-0.2,0.3-0.2,0.5v0.1
			c0,0.1-0.1,0.1-0.1,0.1c-0.1,0.1-0.1,0.1-0.1,0.2c-0.4,0.3-0.6,0.6-0.6,0.9c0,0.1,0.1,0.3,0.2,0.4c0.1,0.2,0.2,0.4,0.2,0.6
			l-0.4,0.8c-0.1,0.3-0.2,0.5-0.3,0.7c-0.1,0.3-0.1,0.5-0.1,0.7c0,0.4,0.1,0.7,0.2,0.8c-0.3,0.4-0.4,0.8-0.4,1.3
			c-0.1,0.5-0.1,1-0.1,1.4l-0.4,0.8c0,0.1,0.1,0.3,0.1,0.3v1.1l-0.5,2.6c0,0.5,0.1,0.8,0.2,0.8c0.1,0.1,0.2,0.3,0.2,0.6l0.1,0.8
			c0.1,0.3,0.3,0.6,0.6,0.8c0.1,0.3,0.4,0.4,0.8,0.4c0.3,0,0.6,0,0.8-0.1c0.3,0,0.6-0.1,0.9-0.4c0.6-0.2,0.9-0.6,1-1
			c0.1-0.4,0.3-0.8,0.6-1.4l0.7-1.3l0.6-1.8c0-0.1,0.2-0.4,0.5-1c0.2-0.5,0.4-1.1,0.7-1.8c0.1-0.9,0.2-1.9,0.3-3c0.1-1,0.1-2,0.3-3
			l0.1-0.8c0.1,0,0.1-0.1,0.2-0.3c0-0.1,0.1-0.3,0.1-0.6v-0.4c-0.1-0.1-0.1-0.2-0.1-0.3V16c0-0.3,0.1-0.5,0.1-0.6
			c0-0.1,0.1-0.2,0.1-0.3c0-0.1,0-0.2,0.1-0.5c0-0.2,0-0.6,0.1-1.3l0.3-2L68.1,10.1z M79.3,15.5c-0.4,0-0.8,0.1-1.4,0.1
			c-0.6,0.1-1.2,0.2-1.7,0.4c-1.3,0.8-2.2,1.3-3,1.6c-0.8,0.4-1.6,0.7-2.4,0.8c-0.3,0.1-0.8,0.3-1.4,0.6c-0.3,0.1-0.6,0.2-0.8,0.2
			c-0.3,0.1-0.3,0.4-0.3,1c0,0.4,0.1,0.7,0.4,0.9c0.3,0.3,0.9,0.5,1.9,0.6c0.6,0.1,1.3,0,2.1-0.2c0.7-0.1,1.5-0.3,2.2-0.6
			c0.7-0.3,1.3-0.6,2-0.9c0.6-0.3,1.1-0.6,1.6-0.9c0.3-0.1,0.4-0.2,0.5-0.3c0-0.1,0.1-0.3,0.1-0.6c0.5-0.1,0.8-0.2,0.9-0.5
			c0-0.1,0-0.5-0.1-1L79.3,15.5z M65.3,37.7c-0.3-0.4-0.6-0.8-0.8-1.2c-0.3-0.3-0.6-0.5-0.8-0.6c-0.8,0-1.7,0.2-2.9,0.6
			c-1.2,0.5-2.1,1.1-2.7,1.9c-0.6,0.6-1,1.5-1.4,2.7c-0.4,1.3-0.7,2.5-0.8,3.8c-0.1,0.4,0,0.9,0.3,1.5c0.1,0.5,0.4,1,0.8,1.5
			c0.3,0.4,0.7,0.8,1.1,1.3c0.3,0.3,0.7,0.6,1,0.6c0.1,0,0.2-0.1,0.4-0.1c0.1-0.1,0.3-0.1,0.6-0.1c0.4-0.1,0.7-0.2,1-0.2h0.6
			c0.1-0.1,0.3-0.1,0.4-0.1h0.8c0.7-0.6,1.3-1,1.8-1.4c0.4-0.4,0.8-1.1,1.2-2c0.3-0.7,0.4-1.5,0.6-2.4v-2.7c-0.1-0.5-0.2-1-0.3-1.6
			C65.8,38.7,65.5,38.2,65.3,37.7z M62.9,42c-0.1,0.5-0.2,1-0.3,1.4c-0.1,0.5-0.3,0.9-0.4,1.3c-0.2,0.4-0.3,0.8-0.5,1
			c-0.3-0.1-0.6-0.3-0.7-0.7c-0.1-0.3-0.2-0.6-0.2-0.7c-0.1-0.2-0.1-0.5,0-0.8c0.1-0.3,0.1-0.5,0.1-0.8c-0.1-0.4-0.3-0.7-0.4-0.9
			c0.1-0.5,0.4-0.9,0.8-1.3c0.3-0.3,0.7-0.5,1.2-0.5c0.3,0,0.6,0.3,0.6,0.7S63,41.6,62.9,42z M56.7,27.9l0.6-0.8v-0.3
			c0-0.1,0-0.3,0.1-0.6c0-0.2,0.1-0.4,0.1-0.6c-0.1-0.1-0.3-0.3-0.6-0.8c-0.4-0.1-0.8-0.2-0.9-0.2c-0.2,0-0.5,0.1-0.8,0.1
			c-0.8,0.2-1.5,0.4-2.3,0.6c-0.8,0.3-1.7,0.5-2.5,0.8l0.1-0.1c0.1-0.2,0.2-0.5,0.4-0.9c0.1-0.3,0.3-0.8,0.4-1.2l0.1-0.8l0.2-0.8
			l0.1-0.8c0-0.1,0-0.2,0.1-0.3v-0.3c0-0.1,0-0.3,0.1-0.4c-0.1-0.1-0.1-0.2,0-0.5c0-0.2,0-0.4,0.1-0.7l0.2-1.7c0-0.1,0-0.2,0.1-0.4
			c0-0.1-0.1-0.3-0.1-0.6c-0.1-0.1-0.2-0.3-0.2-0.6c-0.1-0.1-0.1-0.3-0.2-0.6c-0.1-0.5-0.3-0.9-0.6-1.3c-0.4-0.3-0.8-0.5-1.2-0.5
			c-0.8,0-1.3,0.3-1.6,0.8c-0.3,0.6-0.6,0.9-0.6,1.2l-0.3,1.5l-0.1,0.2c-0.1,0.1-0.1,0.3-0.1,0.5c0,0.3-0.1,0.4-0.1,0.6
			c-0.1,0.1-0.1,0.2-0.1,0.3c-0.1,0.2-0.1,0.6-0.1,1L47,20L47,20.8l-0.2,1.3c-0.1,0.8-0.2,1.5-0.2,1.9s0,0.8,0.1,1v0.6l-0.1,0.3v0.5
			l0.1,0.3c-0.1,0.1-0.1,0.2,0,0.3v0.3c-1.5,0.6-3,1-4.5,1.5l-4.3,1.5c-0.6,0.4-1,0.8-1.5,1.2c-0.6,0.4-0.8,0.8-0.9,1
			c-0.1,0.3-0.1,0.4,0.1,0.6c0.1,0.1,0.1,0.3,0.3,0.4c0.2,0.3,0.5,0.5,0.8,0.5c0.3,0.1,0.6,0.1,0.8,0l0.7-0.1
			c0.1,0.1,0.3,0.1,0.5,0.1c0.1,0.1,0.2,0.1,0.3,0.1l6.2-2.4c0.5-0.2,1-0.4,1.5-0.7c0.5-0.2,1-0.3,1.5-0.5l1.4-0.9h0.7l0.6-0.3
			c0.7-0.2,1.4-0.4,2.1-0.6c0.6-0.1,1.2-0.3,1.9-0.5l0.3,0.1c0.1,0,0.2-0.1,0.4-0.1c0.1,0,0.2-0.1,0.3-0.1L56.7,27.9z M105,7.1
			l-3.4,0.6c-1.2,0.3-2.4,0.5-3.6,0.8l-1.3,0.1c-0.1,0.1-0.3,0.1-0.6,0.2c-0.3,0.1-0.6,0.3-0.8,0.3c-0.1,0.1-0.3,0.2-0.6,0.2
			c-0.3,0.1-0.5,0.1-0.6,0.1c-1.6,0.4-3.1,0.8-4.5,1.1l-4.5,1.3c-0.8,0.4-1.6,0.8-2.4,1.1c-0.8,0.4-1.3,0.7-1.4,0.9
			c0,0.5,0.1,0.9,0.5,1.3c0.3,0.4,0.5,0.7,0.6,0.8c0.3,0.1,0.5,0.1,0.8,0c0.2,0,0.5,0,0.8-0.1c0.1,0,0.5-0.1,1-0.2
			c0.1,0.1,0.3,0.1,0.5,0.1c0.1,0.1,0.2,0.1,0.3,0.1l5.3-1.4c0.3-0.2,0.9-0.4,1.6-0.7c0.7-0.2,1.4-0.3,2.2-0.3
			c0.6-0.1,1.2-0.3,1.6-0.6l0.3-0.3c0.1,0.1,0.2,0.1,0.3,0.1h0.3c0.1,0.1,0.1,0.1,0.3,0c0.1,0,0.3-0.1,0.6-0.1
			c0.1,0,0.4-0.1,0.7-0.2c0.5-0.1,1-0.3,1.7-0.4c0.6-0.1,1.3-0.3,1.8-0.5c0.2,0,0.4-0.1,0.6-0.1c0.1,0,0.3,0,0.6-0.1
			c0.1,0.1,0.3,0.1,0.4,0h0.3c0.5,0.1,0.9,0.1,1.3-0.1l0.3-0.1l0.6-0.4c0.1-0.1,0.3-0.2,0.3-0.2c0-0.1,0.1-0.3,0.1-0.5
			c0-0.1,0-0.3,0.1-0.4c0.1-0.3,0.1-0.7,0.2-1c0-0.3-0.1-0.7-0.6-1.3H105z M96.3,37.2v-0.6c-0.1-0.1-0.1-0.2-0.1-0.5
			c0-0.4,0-0.7,0.1-1c0-0.2,0.1-0.4,0.1-0.7c0-0.3-0.1-0.6-0.1-0.8C96,33.4,96,33.1,96,32.8s0.1-0.5,0.1-0.7c0-0.1,0.1-0.3,0.1-0.6
			s-0.1-0.6-0.1-0.8C96,30.6,96,30.4,96,30.1c0-0.3,0.1-0.7,0.2-1c0.1-0.2,0.1-0.4,0.1-0.6c0-0.4-0.1-0.8-0.1-1.2
			c-0.1-0.3-0.1-0.6-0.2-0.9l0.3-0.6l-0.1-0.3c0.1-1.5,0.2-2.5,0.2-2.9c0-0.3,0.1-0.7,0.1-1.2v-1.3c0-0.3,0-0.7,0.1-1
			c0-0.3,0.1-0.5,0.1-0.8v-1c-0.1-0.1-0.1-0.3-0.1-0.4v-0.4l0.1-0.6c-0.1-0.3-0.4-0.5-0.8-0.6c-0.4-0.1-0.8-0.1-1.2-0.1
			c-0.1,0.1-0.2,0.2-0.3,0.3c-0.2,0.1-0.3,0.2-0.4,0.3l-0.5,0.4c-0.6,0.8-1,1.5-1.4,2.2c-0.4,0.8-0.7,1.5-0.8,2.1V21l-0.1,0.5L91,22
			l-0.5,0.1v0.8c-0.1,0.3-0.1,0.6-0.1,0.6c-0.1,0.3-0.1,0.5-0.1,0.6c-0.1,0.3-0.1,0.5-0.1,0.7C90.1,25.5,90,26.2,90,27
			c-0.1,0.8-0.2,1.6-0.2,2.3c-0.1,0.6-0.1,1-0.1,1.3c0,0.4-0.1,0.8-0.1,1.2c-0.1,0.4-0.1,0.7-0.1,1c-0.1,0.3-0.1,0.6-0.1,0.8
			l0.1,0.5l-0.3,0.7v3.3c-0.1,0.9-0.1,1.6,0,2v1.3l-0.1,0.4l0.1,0.6L89.3,43c0,0.1,0.1,0.2,0.1,0.2c0,0.1,0.1,0.1,0.1,0.2v0.8
			c0,0.3,0,0.7,0.1,1.4c0.3,0.1,0.6,0.3,0.9,0.5l0.5,0.5c0.2,0.3,0.5,0.6,0.8,0.8c0.3,0.2,0.8,0.3,1.5,0.3c0.1-0.1,0.2-0.3,0.4-0.5
			c0.1-0.3,0.3-0.6,0.5-0.9c0.3-0.6,0.7-1.3,1.3-2c0.4-0.7,0.8-1.1,1-1.3c0-0.3-0.1-0.6-0.1-0.8c-0.1-0.3-0.1-0.5-0.1-0.7l0.1-1.3
			c-0.1-0.1-0.1-0.3-0.1-0.3c0-0.2,0.1-0.5,0.1-0.8v-0.7c0-0.2-0.1-0.4-0.1-0.6C96.4,37.7,96.3,37.5,96.3,37.2z M131.7,14
			c-0.1-0.1-0.2-0.3-0.2-0.4l-0.5-1.3c-0.3-0.6-0.8-0.8-1.5-0.6c-0.3,0.1-0.5,0.5-0.6,1c-0.3,0.7-0.4,1.1-0.4,1.3
			c-0.1,0.1-0.1,0.3-0.1,0.4l-0.6,1l-0.2,1c0,0.3-0.1,0.6-0.2,0.8c-0.1,0.3-0.3,0.6-0.4,0.9c-0.1,0.1-0.2,0.4-0.3,0.8
			c0,0.1-0.1,0.3-0.1,0.4c-0.1,0.2-0.1,0.3-0.1,0.5l-0.1,0.1c0,0.1-0.1,0.1-0.1,0.2c-0.1,0.3-0.3,0.5-0.3,0.7
			c-0.1,0.3-0.2,0.6-0.2,0.9c-0.1,0.6-0.4,1.4-0.7,2.4l-1,3.3c-0.4,1.1-0.8,2.2-1,3.1c-0.3,1-0.6,1.7-0.8,2l-1.9,5.8l-2.5-11.8
			l-0.3-2.1l-0.3-0.2v-0.8l-0.6-2.7l-0.4-1.5l-0.3-0.6c-0.4-1-0.7-1.9-0.8-2.6c-0.3-0.6-0.4-1-0.6-1.5c-0.2-0.4-0.3-0.8-0.4-1
			c-0.1-0.1-0.2-0.3-0.2-0.3v-0.6l-0.4-0.5l-0.3-0.8c-0.2,0-0.3,0-0.4-0.1l-0.3-0.4c-0.4,0-0.8,0.3-1.3,0.8
			c-0.1,0.1-0.2,0.2-0.2,0.3c-0.1,0.1-0.1,0.2-0.2,0.3c-0.3,0.1-0.5,0.3-0.5,0.6c-0.1,0.3-0.1,0.5-0.1,0.7v1.9
			c-0.1,0.8-0.1,1.4,0.1,2v1c0,0.2,0,0.4,0.1,0.6c0.1,0.3,0.1,0.6,0.1,0.8c-0.1,0.3-0.1,0.5,0.1,0.8c0.3,1,0.6,1.8,0.7,2.4
			c0.1,0.7,0.1,1.3,0.3,2c0,0.4,0.1,0.8,0.2,1.3c0.1,0.6,0.1,1.1,0.3,1.7c0,0.1,0.1,0.3,0.1,0.5c0,0.2,0.1,0.3,0.2,0.5
			c0.1,0.4,0.1,0.8,0.2,1c0,0.4,0,0.8,0.1,1.1v2.5c0.1,0.1,0.2,0.3,0.4,0.4c0.1,0.3,0.2,0.4,0.3,0.6l-0.1,1.1l0.1,1.5
			c0.1,0.3,0.2,0.5,0.3,0.6l0.2,0.4v0.5c-0.1,0.2-0.1,0.3-0.1,0.4c0.1,0.3,0.1,0.6,0.3,1c0.1,0.4,0.1,0.8,0.3,1l-0.1,1.3
			c0,0.1,0.1,0.2,0.1,0.5c0,0.3,0,0.7,0.1,1v1.6l0.7,0.9l1,0.7l1.1-0.7c0.1-0.1,0.3-0.2,0.6-0.2c0.3,0,0.6-0.1,0.8-0.2
			c0.3-0.1,0.6-0.2,1-0.3c0.3-0.1,0.6-0.2,0.9-0.3c0,0,0-0.1,0.1-0.1c0,0,0.1,0,0.1-0.1l0.2-0.2l0.1-0.3c0-0.1,0-0.1,0.1-0.3
			l0.4-0.4c0-0.1,0.1-0.2,0.3-0.3s0.3-0.4,0.5-1l0.1-0.1l0.3-0.6c0.3-1.2,0.6-2.2,1-3.2c0.3-0.8,0.6-1.7,1-2.5l0.6-1.1l0.2-1.2
			l0.4-1.6c0.2-0.6,0.5-1.2,0.8-2c0.2-0.7,0.4-1.4,0.7-2.1l1-2.9c0.3-0.8,0.4-1.2,0.4-1.2c0.3-1.6,0.7-2.7,1-3.3
			c0.1-0.2,0.1-0.4,0.3-0.6c0.1-0.1,0.1-0.3,0.1-0.4l0.7-2.2l0.7-2l0.2-1.1C131.8,14.3,131.8,14.2,131.7,14z"/>
	</g>
</g>
</svg>
