<?xml version="1.0" encoding="utf-8"?>
<!-- Generator: Adobe Illustrator 22.0.1, SVG Export Plug-In . SVG Version: 6.00 Build 0)  -->
<svg version="1.1" id="레이어_1" xmlns="http://www.w3.org/2000/svg" xmlns:xlink="http://www.w3.org/1999/xlink" x="0px"
	 y="0px" viewBox="0 0 160 52" style="enable-background:new 0 0 160 52;" xml:space="preserve">
<style type="text/css">
	.st0{fill:#FFFFFF;}
</style>
<g>
	<g>
		<path class="st0" d="M36.6,6.2c-0.2-0.4-0.5-0.9-0.8-1.4c-0.2,0-0.3,0-0.4-0.1c-0.1-0.1-0.2-0.1-0.3-0.3c-0.1,0-0.3-0.1-0.6-0.1
			c-0.4,0.1-0.8,0.2-0.9,0.2c-0.3,0.1-0.5,0.2-0.7,0.3c-0.5,0.6-0.8,1-0.8,1.3c-0.1,0.3-0.1,0.6-0.1,0.8l-0.7,0.5v0.6
			c0,0.1-0.1,0.3-0.1,0.4c-0.3,1-0.6,2.1-0.7,3.4c-0.2,1.4-0.4,2.9-0.6,4.3v0.3c0,0.2-0.1,0.3-0.1,0.4c-0.1,0.3-0.1,0.5-0.1,0.7
			c-0.1,0.3-0.1,0.6,0,1c-0.1,0.3-0.1,0.6-0.1,0.7c-0.1,0.3-0.1,0.5-0.2,0.7c-0.3,0.7-0.4,1.3-0.4,1.8c-0.1,0.4-0.1,0.8-0.1,1.3v2.1
			c-0.1,0.3-0.1,0.7-0.1,1c-0.1,0.4-0.1,0.8-0.2,1.1c-0.1,0.9-0.3,1.8-0.3,2.7C28,31,28,32,28,33.1v1c-0.1,0.3-0.1,0.5-0.1,0.6
			c-0.1,0.1-0.2,0.3-0.2,0.6c0,0.4-0.1,0.8-0.1,1c-0.1,0.3-0.1,0.6,0.1,0.7c-0.4,1.1-0.6,2.1-0.6,3c-0.1,1-0.1,1.8-0.1,2.5v2.2
			c0.8,0.1,1.7,0,2.7-0.3c0.8-0.3,1.4-0.8,1.8-1.6c0.4-0.3,0.8-0.8,1.3-1.5c0.3-0.6,0.6-1.3,0.9-2.2l-0.1-0.4l0.3-1
			c0-0.4,0.1-0.8,0.1-1.3c0-0.3,0.1-0.8,0.2-1.3c0.1-0.8,0.2-1.6,0.3-2.4c0.1-0.7,0.1-1.4,0.1-2c-0.1-0.1-0.1-0.2-0.1-0.3
			c-0.1-0.1-0.1-0.2-0.1-0.3c0-0.1,0.1-0.3,0.3-0.6c0.1-0.1,0.1-0.3,0.2-0.6c0.1-0.4,0.1-0.9,0.1-1.3c0-0.3,0-0.7,0.1-1
			c0-0.3,0.1-0.6,0.1-0.9c0-0.2,0-0.4,0.1-0.6c0.2-0.5,0.3-1,0.4-1.5v-1.9c0-0.1,0-0.3,0.1-0.6c0-0.2,0.1-0.5,0.1-0.8
			c0-0.3,0-0.7,0.1-1.4c0-0.3,0-0.7,0.1-1c0-0.3,0-0.6,0.1-0.9c0-0.1,0-0.3,0.1-0.6v-0.5c0-0.2,0.1-0.4,0.1-0.7
			c0-0.2,0.1-0.5,0.2-0.8l0.4-1.7c0-0.5-0.1-1-0.3-1.5c0.1-0.3,0.3-0.7,0.3-1c0-0.3-0.1-0.5-0.1-0.7l-0.1-0.2c0-0.1,0.1-0.3,0.2-0.6
			c0.1-0.1,0.1-0.3,0.1-0.6L37,7.8C36.9,7.3,36.7,6.8,36.6,6.2z M23.5,32.2c-0.1,0-0.3-0.1-0.3-0.3c-0.1-0.1-0.3-0.3-0.3-0.4
			l-0.6-0.9c-0.1-0.1-0.2-0.3-0.2-0.5c-0.1-0.1-0.2-0.1-0.2-0.3l0.1-0.1c-0.3-0.2-0.6-0.4-0.6-0.7c-0.1-0.1-0.2-0.3-0.2-0.5
			c-0.1-0.1-0.3-0.3-0.6-0.4c-0.3-0.1-0.4-0.3-0.4-0.5c-0.3-0.4-0.6-0.7-0.6-0.8c-0.1,0-0.2-0.1-0.3-0.2c-0.1-0.1-0.3-0.4-0.6-0.7
			c-0.2-0.2-0.3-0.3-0.3-0.3c-0.2-0.1-0.3-0.1-0.4-0.3c-0.1,0-0.3-0.1-0.4-0.2l-0.6-0.5c-0.1-0.1-0.3-0.1-0.3-0.2
			c-0.1,0-0.2,0-0.3-0.1L16.1,24c-0.3,0-0.5,0-0.8-0.1c-0.3,0-0.6,0-0.7-0.1c-0.3,0.4-0.6,0.6-0.8,0.7c-0.3,0.1-0.3,0.4-0.3,0.9
			c0.1,0.1,0.1,0.3,0.1,0.3c-0.1,0.2-0.1,0.4-0.1,0.6c0,0.3,0.1,0.7,0.3,1.2l0.3,0.1l0.1,0.3c0.2,0.3,0.4,0.5,0.7,0.7
			c0.1,0.3,0.3,0.5,0.5,0.6l0.1,0.5l0.3,0.1l0.1,0.2c0.1,0.3,0.3,0.5,0.6,0.6c0.2,0.3,0.4,0.6,0.7,0.9c0.1,0.3,0.3,0.6,0.5,0.7
			c0.2,0.3,0.4,0.5,0.6,0.6c0.1,0.2,0.3,0.3,0.5,0.4l0.6,0.2h0.3l0.6,0.4c0.3,0.5,0.8,0.8,1.3,0.9l0.7,0.3c0.2-0.1,0.3-0.3,0.5-0.4
			c0-0.1,0.1-0.1,0.2-0.3v-0.1l0.1-0.1c0.1-0.1,0.1-0.3,0.3-0.6c0.1-0.1,0.1-0.4,0.1-0.8l-0.1-0.1C23.4,32.6,23.4,32.4,23.5,32.2z
			 M13.8,19.2l0.1-0.6l0.3-0.6c0.2-0.6,0.3-1,0.1-1.3l0.5-0.3v-2.6c-0.1-0.6-0.3-1-0.6-1.5c-0.2-0.2-0.5-0.4-0.8-0.7
			c-0.3-0.1-0.8-0.2-1.3-0.2c-0.8,0.1-1.6,0.2-2.2,0.3l-1.9,0.6c-0.8,0.3-1.4,0.6-1.8,0.7c-0.4,0.2-0.8,0.3-1,0.4
			c-0.4,0.1-0.7,0.3-0.9,0.3c-0.3,0.1-0.4,0.2-0.6,0.2c-0.2,0.1-0.3,0.1-0.3,0.1c-0.6,0.3-1,0.7-1.3,1.4c-0.3,0.7-0.2,1.4,0.5,2
			C2.6,17.8,2.8,18,3.2,18c0.3,0.1,0.7,0.1,1-0.1c0.7-0.4,1.5-0.7,2.4-1c0.1,0,0.3-0.1,0.6-0.3c0.1-0.1,0.2-0.1,0.3-0.2
			c0.3-0.2,0.8-0.4,1.3-0.6c0.4-0.1,0.8-0.1,1.1-0.3c-0.3,1.3-0.6,2.4-0.8,3.6c-0.4,1.2-0.7,2-0.8,2.3l-0.5,1.5
			c-0.1,0.4-0.3,1-0.6,1.5c-0.1,0.4-0.2,0.7-0.3,1c-0.1,0.3-0.3,0.7-0.3,1v0.3l-0.3,0.5l-0.8,2c-0.3,0.6-0.5,1.3-0.8,2L4,32.4
			l-0.1,0.8L3.4,34v0.3c-0.4,0.3-0.6,0.6-0.5,0.8c0,0.4,0.1,0.8,0.3,1C3.3,36.7,3.6,37,4,37.4c0.4,0.1,1,0.1,1.7-0.2
			c0.3-0.1,0.6-0.3,0.8-0.6c0.1-0.3,0.1-0.4,0.2-0.6c0.1-0.1,0.2-0.1,0.3-0.3c0.1,0,0.1-0.1,0.3-0.3c0.1-0.2,0.2-0.5,0.3-0.8
			l0.7-1.4c0.1-0.1,0.3-0.6,0.6-1.5c0.3-0.8,0.7-1.7,1.1-2.7c0.2-0.5,0.3-0.9,0.5-1.2c0.1-0.3,0.1-0.5,0.1-0.8l0.5-0.5
			c0.2-0.3,0.3-0.6,0.4-0.8v-0.7c0.3-0.7,0.5-1.2,0.6-1.5c0-0.1,0.1-0.3,0.1-0.5c0-0.1,0-0.3,0.1-0.6c0,0,0.1-0.2,0.4-0.5
			c0.1-0.1,0.2-0.3,0.2-0.7c0.1-0.3,0.2-0.6,0.3-1C13.6,20,13.6,19.6,13.8,19.2z M53.5,14.3c-0.3-0.1-0.6-0.1-0.9-0.3
			c-0.4-0.1-0.9-0.1-1.3,0l0.2-0.6c0.3-0.8,0.1-1.4-0.6-1.6c-0.3-0.1-0.9,0.1-1.6,0.4l-1.5,1.4c-0.1,0.1-0.2,0.3-0.3,0.5
			c-0.1,0.2-0.2,0.3-0.3,0.5c-0.3,0.4-0.6,0.8-0.8,1.1c-0.4,1.1-0.8,2.2-1,3.2C45,20,44.8,21,44.5,22.1c-0.1,0.4-0.1,0.9,0,1.4
			c0,0.6,0.2,1,0.5,1.4c0.2,0.5,0.6,0.8,1,1.1c0.3,0.3,0.8,0.5,1.4,0.5c0.1,0,0.2,0,0.4-0.1h0.6c0.2,0,0.5-0.1,0.8-0.1h0.4
			c0.1,0.1,0.3,0.1,0.4,0.1h0.7c0.8,0,1.5-0.3,2-1c0.4-0.6,0.9-1.2,1.3-2c0.3-0.8,0.6-1.6,0.8-2.4c0.1-0.7,0.3-1.5,0.3-2.5
			c0-0.9-0.1-1.8-0.4-2.7C54.4,15,54,14.5,53.5,14.3z M51.3,20.7l-1.2,2c-0.6-0.2-0.9-0.5-1-0.9v-0.6c0-0.1-0.1-0.5-0.1-1
			c-0.1-0.1-0.1-0.3-0.1-0.6c0.3-0.6,0.8-1.1,1.3-1.5c0.4-0.3,0.9-0.4,1.3-0.4c0.3,0,0.4,0.2,0.4,0.5C52,19.1,51.8,19.9,51.3,20.7z
			 M79.4,28.4L78.9,28c-0.1,0-0.1,0-0.1-0.1c-0.1,0-0.1,0-0.1-0.1h-0.1c-0.2-0.1-0.4-0.3-0.6-0.3c-0.1,0-0.3,0.1-0.3,0.1
			c-0.4,0.1-0.8,0.2-1.2,0.3c-0.4,0.1-0.9,0.3-1.3,0.4c0,0,0.1-0.1,0.2-0.3l0.7-1.2l0.7-1.7c0-0.1,0.2-0.4,0.5-0.9
			c0.2-0.4,0.4-1,0.7-1.7c0.1-0.8,0.2-1.8,0.3-2.9c0.1-1,0.2-1.9,0.3-2.7l0.1-0.7c0.1,0,0.1-0.1,0.2-0.3c0-0.1,0.1-0.3,0.1-0.6V15
			c-0.1-0.1-0.1-0.2-0.1-0.3v-0.3c0-0.3,0.1-0.5,0.1-0.6c0-0.1,0.1-0.1,0.1-0.3c0-0.1,0-0.2,0.1-0.5c0-0.1,0-0.6,0.1-1.2l0.3-1.9
			c-0.1-0.1-0.1-0.3-0.1-0.5c-0.1-0.1-0.1-0.3-0.1-0.5c0.1-0.4,0.1-0.8,0.1-1.2c-0.1-0.3-0.1-0.5,0.1-0.8c0-0.3,0.1-0.5,0.1-0.8
			c0-0.1,0.1-0.3,0.1-0.6c0-0.5-0.1-1-0.3-1.7C79.1,3.4,79,3,78.8,2.4c-0.1-0.4-0.4-0.7-0.8-0.7c-0.2-0.1-0.4-0.3-0.6-0.3
			c-0.3,0-0.6,0.1-0.9,0.2c-0.4,0.1-0.8,0.3-1,0.6c-0.4,0.3-0.7,0.5-0.9,0.7c-0.3,0.3-0.5,0.6-0.5,0.8v0.8c-0.2,0.3-0.3,0.6-0.3,1
			l-0.1,1.2c0,0.7-0.1,1.3-0.2,1.7c-0.1,0.5-0.3,1-0.3,1.5l-0.6,2.5v1.5l0.1,0.6c0,0.4-0.1,0.6-0.2,0.8c-0.1,0.1-0.2,0.3-0.2,0.4
			v0.1c0,0.1-0.1,0.1-0.1,0.1c-0.1,0.1-0.1,0.1-0.1,0.2c-0.4,0.2-0.6,0.5-0.6,0.8c0,0.1,0,0.1,0.1,0.1c0,0.1,0.1,0.2,0.1,0.3
			c-0.6,0.1-1.1,0.2-1.7,0.3c-1.1,0.3-2.2,0.6-3.1,0.9c-1.1,0.4-2.1,0.8-2.9,1c-1,0.4-1.7,0.7-2.4,1c-0.7,0.3-1.3,0.5-1.5,0.6
			c-0.3,0.1-0.5,0.3-0.6,0.5c-0.1,0.3-0.4,0.4-0.8,0.5c-0.3,0.1-0.6,0.2-0.8,0.3c-0.3,0.2-0.4,0.6-0.3,1c0,0.3,0.3,0.6,0.8,0.8
			c0.5,0.3,1.3,0.4,2.4,0.3c0.3,0,0.8-0.1,1.2-0.3c0.3-0.1,0.6-0.3,0.8-0.6c1.2-0.4,2.5-0.8,4.1-1.4l4.3-1.3c-0.1,0.3-0.2,0.7-0.2,1
			c-0.1,0.3-0.1,0.7-0.1,1L70,23.8c0,0.1,0.1,0.3,0.1,0.3v1l-0.5,2.4c0,0.4,0.1,0.7,0.2,0.8c0.1,0.1,0.2,0.3,0.2,0.5l0.1,0.8
			c0.1,0.2,0.1,0.3,0.2,0.3l-2.5,1c-0.7,0.3-1.1,0.6-1.3,0.7c-0.4,0.4-0.7,0.8-0.8,1c-0.1,0.3-0.2,0.6-0.2,0.9c0,0.6,0.2,1,0.7,1
			c0.4,0.1,0.7,0.1,0.8,0.1c0.3,0,0.5,0,0.6-0.1c0.1-0.1,0.3-0.2,0.4-0.3l2.9-1c0.4-0.1,1-0.3,1.6-0.6c0.6-0.1,1.2-0.3,1.9-0.6
			c-0.1,0.6-0.2,1-0.2,1.4c-0.1,0.4-0.2,0.8-0.2,1c-0.1,0.4-0.1,0.8-0.1,1.1c-0.1,0.4-0.2,0.9-0.3,1.4l-0.7,3.6l-0.1,2
			c0,1.1,0.1,1.8,0.6,2.2c0.3,0.4,0.8,0.6,1.4,0.6c0.2,0,0.5,0,0.8-0.1c0.3,0,0.6-0.1,0.8-0.1l0.6-0.6c0.3-0.3,0.7-0.8,1-1.2
			c0.3-0.4,0.5-0.7,0.5-1c0.1-0.5,0.3-0.8,0.3-1c0-0.1-0.1-0.2-0.1-0.3c-0.1-0.1-0.2-0.2-0.3-0.3l0.5-0.6c0-0.1,0-0.3,0.1-0.6
			c0-0.1,0.1-0.3,0.1-0.5l0.2-1.4c0-0.3,0.1-0.6,0.1-0.6s0-0.1,0.1-0.3c0-0.1,0-0.6,0.1-1.3c0.1-0.6,0.3-1.8,0.6-3.6l0.1-1.4
			c0-0.3-0.1-0.8-0.2-1.4C79.8,28.7,79.6,28.4,79.4,28.4z M58.5,15.5c0.3,0.7,0.6,1.1,1,1.1c0.4,0.1,0.8,0.1,1.3,0
			c0.6-0.1,1-0.3,1.5-0.6c0.3,0.1,0.5,0.1,0.6-0.1l0.3-0.3c0.1-0.1,0.3-0.3,0.5-0.3l1.1-0.4c0.6-0.2,1.2-0.5,1.9-0.8
			c0.6-0.3,1.3-0.4,1.8-0.6c0.1,0.3,0.2,0.5,0.3,0.7c0.1,0.3,0.4,0.3,0.9,0.3c0.1,0,0.3,0,0.5-0.1c0.1,0,0.3-0.1,0.6-0.4
			c0.1-0.1,0.2-0.3,0.3-0.7c0.1-0.3,0.1-0.6,0.3-1c0.1-0.3,0.1-0.6,0.2-1c0-0.3,0.1-0.4,0.1-0.5s-0.1-0.2-0.3-0.5
			c-0.3-0.1-0.5-0.3-0.8-0.6c-0.3-0.1-0.7-0.3-1-0.5c-0.3-0.1-0.6-0.1-0.7-0.1c-0.9,0.3-1.9,0.6-2.9,1C65,10.5,64,10.9,63,11.3
			c-1,0.5-1.9,0.9-2.7,1.3l-1.9,1c-0.3,0.3-0.3,0.6-0.3,0.9C58.2,15,58.3,15.2,58.5,15.5z M106.1,28c-0.3-0.4-0.5-0.8-0.8-1.3
			c-0.3-0.4-0.6-0.9-0.9-1.5c0,0-0.1-0.1-0.3-0.3c-0.2-0.2-0.4-0.5-0.6-0.8c-0.3-0.3-0.5-0.6-0.7-0.8c-0.3-0.2-0.4-0.3-0.5-0.4
			l-0.4-0.4c-0.3-0.2-0.5-0.3-0.6-0.4c-0.1,0-0.3,0-0.4-0.1c-0.3,0-0.4,0.1-0.6,0.1c-0.2,0.1-0.4,0.1-0.6,0.1l-0.6,0.6
			c-0.3,0.3-0.5,0.6-0.5,0.7c-0.1,0.2-0.1,0.4-0.1,0.6c0,0.1,0,0.2,0.1,0.2v1c0,0.1,0,0.3,0.1,0.3c0,0.1,0.1,0.3,0.1,0.5l0.4,0.4
			c0.1,0.3,0.2,0.6,0.4,0.8c0.1,0.4,0.3,0.7,0.6,0.8l0.1,0.3c0.1,0.1,0.3,0.3,0.6,0.6c0.2,0.3,0.3,0.5,0.3,0.4
			c0.3,0.5,0.6,0.9,1,1.3c0.3,0.5,0.7,0.8,1.1,1c0,0,0.1,0.1,0.3,0.2c0.2,0.2,0.5,0.4,0.8,0.6c0.3,0.2,0.6,0.3,0.8,0.5
			c0.3,0.1,0.5,0.2,0.6,0.2l0.4-0.2c0.1-0.1,0.2-0.6,0.5-1.7c0.1-0.4,0.1-0.9-0.1-1.4C106.6,29.4,106.3,28.9,106.1,28z M100.2,15.9
			v-0.1l0.5-0.2c0.1-0.8,0.2-1.5,0.2-2.1c0-0.5-0.2-1-0.5-1.7c-0.4-0.6-1.1-1-2.2-1c-1,0.1-2,0.1-2.7,0.2c-0.8,0.1-1.8,0.3-2.9,0.6
			c-0.6,0.2-1.1,0.3-1.6,0.3c-0.6,0.1-1.2,0.3-1.7,0.5h-0.3c-0.6,0.1-1,0.4-1.3,0.7c-0.4,0.4-0.6,0.8-0.6,1.3c0,0.3,0.1,0.6,0.4,0.9
			c0.3,0.3,0.8,0.5,1.7,0.5c0.1,0,0.3-0.1,0.7-0.2c0.3,0,0.6-0.1,0.9-0.2c0.3,0,0.6-0.1,0.8-0.2c0.2,0,0.3-0.1,0.4-0.1
			c0.1,0,0.5-0.1,0.9-0.3c0.2-0.1,0.6-0.1,1.1-0.3c0.4,0,1-0.1,1.7-0.3c-0.6,1.7-1.3,3.4-2.1,5l-2.4,4.6L91,24
			c-0.5,0.8-0.9,1.6-1.3,2.4c-0.4,0.9-1,1.6-1.7,2.1l0.1,0.5l-0.7,0.8v0.4c-0.4,0.2-0.6,0.5-0.6,0.8c0,0.6,0.1,0.9,0.3,1.2
			c0.1,0.3,0.3,0.6,0.6,0.7c0.2,0.1,0.4,0.2,0.6,0.2c0.1,0.1,0.3,0.1,0.3,0.1c0.3,0,0.7-0.1,1.2-0.3c0.4-0.1,0.7-0.4,0.8-0.7
			l0.8-0.6c0.5-0.7,1-1.5,1.5-2.3l1.3-2.2c0.5-0.8,0.8-1.4,1.1-1.7c0.1-0.3,0.3-0.5,0.3-0.8v-0.3l0.6-0.3c0.3-0.3,0.6-0.6,0.7-1
			c0.1-0.3,0.3-0.7,0.4-1.1c0.1-0.3,0.2-0.6,0.3-1c0.1-0.3,0.3-0.6,0.6-0.9c0.8-1.3,1.3-2.3,1.5-3C100.1,16.4,100.2,16,100.2,15.9z
			 M121.8,4c-0.1-0.5-0.4-0.8-0.7-0.8c-0.2-0.1-0.4-0.3-0.6-0.3c-0.3,0-0.6,0.1-0.9,0.2c-0.4,0.2-0.8,0.4-1,0.6
			c-0.3,0.3-0.6,0.6-0.8,0.8c-0.3,0.3-0.5,0.6-0.5,0.8v0.9c-0.2,0.3-0.3,0.6-0.3,1l-0.1,1.3c0,0.8-0.1,1.4-0.1,1.8
			c-0.1,0.5-0.3,1-0.3,1.6l-0.5,2.2c-1,0.3-1.9,0.6-2.9,1c-1,0.4-1.9,0.8-2.7,1c-0.9,0.4-1.7,0.7-2.3,1c-0.7,0.3-1.1,0.5-1.3,0.6
			l-0.3,0.3l-0.3,0.3c-0.3,0.2-0.4,0.3-0.4,0.3c-0.3,0.1-0.6,0.1-0.8,0.1c-0.3,0.1-0.3,0.4-0.3,1c0,0.4,0.2,0.7,0.6,1
			c0.3,0.3,1,0.5,2,0.4c0.2,0,0.5-0.1,0.8-0.3c0.3-0.1,0.6-0.1,0.8-0.3c0.7-0.3,1.7-0.6,3-1.2c1.2-0.4,2.4-0.9,3.7-1.5
			c-0.1,0.1-0.1,0.1-0.1,0.3v0.1c0,0.1-0.1,0.1-0.1,0.1c-0.1,0.1-0.1,0.1-0.1,0.2c-0.4,0.3-0.6,0.6-0.6,0.9c0,0.1,0.1,0.3,0.2,0.4
			c0.1,0.2,0.2,0.4,0.2,0.6l-0.4,0.8c-0.1,0.3-0.2,0.5-0.3,0.7c-0.1,0.3-0.1,0.5-0.1,0.7c0,0.4,0.1,0.7,0.2,0.8
			c-0.3,0.4-0.4,0.8-0.4,1.3c-0.1,0.5-0.1,1-0.1,1.4l-0.4,0.8c0,0.1,0.1,0.3,0.1,0.3v1.1l-0.5,2.6c0,0.5,0.1,0.8,0.2,0.8
			c0.1,0.1,0.2,0.3,0.2,0.6l0.1,0.8c0.1,0.3,0.3,0.6,0.6,0.8c0.1,0.3,0.4,0.4,0.8,0.4c0.3,0,0.6,0,0.8-0.1c0.3,0,0.6-0.1,0.9-0.4
			c0.6-0.2,0.9-0.6,1-1c0.1-0.4,0.3-0.8,0.6-1.4l0.7-1.3l0.6-1.8c0-0.1,0.2-0.4,0.5-1c0.2-0.5,0.4-1.1,0.7-1.8
			c0.1-0.9,0.2-1.9,0.3-3c0.1-1,0.1-2,0.3-3l0.1-0.8c0.1,0,0.1-0.1,0.2-0.3c0-0.1,0.1-0.3,0.1-0.6v-0.4c-0.1-0.1-0.1-0.2-0.1-0.3
			v-0.3c0-0.3,0.1-0.5,0.1-0.6c0-0.1,0.1-0.2,0.1-0.3c0-0.1,0-0.2,0.1-0.5c0-0.2,0-0.6,0.1-1.3l0.3-2l-0.2-1
			c0.1-0.5,0.1-0.9,0.1-1.2c-0.1-0.3-0.1-0.5,0.1-0.8c0-0.3,0.1-0.6,0.1-0.8c0-0.1,0.1-0.4,0.1-0.7c0-0.5-0.1-1.1-0.3-1.8
			C122.1,5.1,122,4.6,121.8,4z M119.5,38.4c-0.3-0.4-0.6-0.8-0.8-1.2c-0.3-0.3-0.6-0.5-0.8-0.6c-0.8,0-1.7,0.2-2.9,0.6
			c-1.2,0.5-2.1,1.1-2.7,1.9c-0.6,0.6-1,1.5-1.4,2.7c-0.4,1.3-0.7,2.5-0.8,3.8c-0.1,0.4,0,0.9,0.3,1.5c0.1,0.5,0.4,1,0.8,1.5
			c0.3,0.4,0.7,0.8,1.1,1.3c0.3,0.3,0.7,0.6,1,0.6c0.1,0,0.2-0.1,0.4-0.1c0.1-0.1,0.3-0.1,0.6-0.1c0.4-0.1,0.7-0.2,1-0.2h0.6
			c0.1-0.1,0.3-0.1,0.4-0.1h0.8c0.7-0.6,1.3-1,1.8-1.4c0.4-0.4,0.8-1.1,1.2-2c0.3-0.7,0.4-1.5,0.6-2.4v-2.7c-0.1-0.5-0.2-1-0.3-1.6
			C120,39.5,119.8,39,119.5,38.4z M117.2,42.8c-0.1,0.5-0.2,1-0.3,1.4c-0.1,0.5-0.3,0.9-0.4,1.3c-0.2,0.4-0.3,0.8-0.5,1
			c-0.3-0.1-0.6-0.3-0.7-0.7c-0.1-0.3-0.2-0.6-0.2-0.7c-0.1-0.2-0.1-0.5,0-0.8c0.1-0.3,0.1-0.5,0.1-0.8c-0.1-0.4-0.3-0.7-0.4-0.9
			c0.1-0.5,0.4-0.9,0.8-1.3c0.3-0.3,0.7-0.5,1.2-0.5c0.3,0,0.6,0.3,0.6,0.7S117.2,42.3,117.2,42.8z M158,42.9
			c-0.1-0.1-0.3-0.3-0.6-0.6c-0.3-0.3-0.7-0.4-1-0.4c-0.6,0-1.1,0.1-1.4,0.3c-0.4,0.2-0.8,0.3-1.1,0.4c-0.1,0.1-0.2,0.1-0.2-0.1
			c-0.1,0-0.2-0.1-0.3-0.1c-1.5,0.1-3.4,0.3-5.7,0.8c0-0.1,0.1-0.2,0.3-0.3l0.4-0.6c0.3-0.6,0.4-1,0.6-1.3c0.1-0.3,0.1-0.5,0.2-0.6
			c0-0.1,0.1-0.2,0.1-0.3v-0.2c0.1-0.3,0.1-0.6,0.3-0.8c0.1-0.1,0.2-0.3,0.3-0.6c0.3-0.4,0.4-0.8,0.4-1.3c-0.1-0.2-0.1-0.5-0.1-0.8
			c-0.1-0.3-0.1-0.5,0-0.6c0.3-0.6,0.5-1.2,0.6-1.6c0.1-0.3,0.2-0.7,0.3-1.1l0.5-1.7l-0.1-0.6c-0.1-0.2-0.1-0.5-0.1-0.8
			c-0.1-0.3-0.2-0.6-0.2-0.9l-0.1-1.5c-0.3-0.3-0.5-0.6-0.6-0.8c-0.3-0.2-0.6-0.3-0.9-0.3c-0.5-0.1-0.8-0.1-1,0.1
			c-0.3,0.1-0.6,0.3-0.8,0.4c-0.3,0.4-0.4,0.7-0.5,1c-0.1,0.3-0.3,0.6-0.3,0.7c0,0,0.1,0.1,0.2,0.1c0.1,0.1,0.3,0.2,0.6,0.3
			l-0.9,0.3l-0.3,0.6c-0.1,0.3-0.2,0.6-0.2,0.8c-0.1,0.3-0.1,0.5-0.2,0.7l-0.6,2l-0.3,0.6v0.6c-0.1,0.6-0.3,1.2-0.5,1.9
			c-0.3,0.8-0.5,1.5-0.6,2.2c-0.2,0.8-0.3,1.5-0.5,2c-0.2,0.6-0.3,1-0.3,1.3c0,0.1,0,0.2,0.1,0.3c0,0.1,0.1,0.2,0.1,0.3v0.3
			l-0.3,1.1c-0.2,0.1-0.3,0.1-0.5,0.1c-0.1,0.1-0.3,0.1-0.5,0.1c-0.1,0-0.3,0-0.3-0.1h-0.2c-0.2,0-0.3-0.1-0.5-0.1
			c-0.1,0-0.3-0.1-0.5-0.1s-0.3,0.1-0.5,0.1c-0.3,0.1-0.6,0.2-0.8,0.3h-1c-0.6,0-1.1,0.1-1.5,0.1c-0.9,0.1-1.4,0.5-1.5,1.1
			c-0.1,0.7-0.1,1.3,0.2,1.7c0.2,0.6,0.5,1.1,0.9,1.5c0.3,0.3,0.8,0.4,1.7,0.4c0.4,0,1-0.1,1.7-0.1c0.6-0.1,1.3-0.2,2-0.3
			s1.4-0.3,2.2-0.4c0.7-0.1,1.3-0.3,2-0.4c0.4-0.1,0.8-0.2,1.3-0.2c0.3-0.1,0.6-0.2,0.8-0.2c0.2-0.1,0.5-0.1,0.8-0.1
			c0.3-0.1,0.6-0.2,0.9-0.3c0.5-0.1,1-0.2,1.6-0.3c0.5-0.1,0.9-0.1,1.3-0.2c0.2,0,0.6-0.1,1.3-0.2c0.6-0.1,1.2-0.3,1.9-0.6
			c0.6-0.2,1.1-0.5,1.7-0.9c0.4-0.3,0.7-0.8,0.7-1.3L158,42.9z M136.8,30c0.6,0.4,1,0.7,1.5,0.8c0.4,0.3,0.8,0.4,1.2,0.5l0.4,0.1
			c0,0,0.1,0,0.2-0.1c0.1,0,0.1-0.1,0.3-0.1c0.3,0,0.4-0.1,0.6-0.2c0-0.1,0.1-0.2,0.4-0.5l0.1-1l-0.3-1.5c-0.3,0-0.4-0.1-0.4-0.2
			c-0.1-0.1-0.2-0.2-0.3-0.5l-0.3-0.8l-0.3-0.8l-0.4-0.8l-0.1-0.6l-0.3-1c-0.2-0.5-0.3-1-0.5-1.7c-0.2-0.6-0.3-1.1-0.4-1.8
			c0.9-0.3,2-0.6,3.1-0.9c1.1-0.3,2.2-0.5,3.2-0.8c-0.1,0.3-0.2,0.6-0.3,0.8c-0.1,0.3-0.3,0.6-0.3,0.8c-0.1,0.6-0.2,1.2-0.2,2
			c-0.1,0.9-0.1,1.7-0.1,2.5c0,0.7,0,1.3,0.1,1.7c0,0.6,0.1,0.8,0.6,0.9c0.4,0.1,0.8,0.1,1.3-0.1c0.3-0.1,0.6-0.2,0.9-0.3
			c0.3-0.1,0.7-0.4,1-0.8c0.3-0.4,0.5-0.9,0.7-1.5c0.1-0.5,0.3-1,0.5-1.7c0.1-0.6,0.1-1,0.3-1.6c0-0.3,0.1-0.6,0.3-0.9
			c0.1-0.2,0.2-0.5,0.2-0.8c0-0.5,0.1-1,0.3-1.4c0.1-0.3,0.3-0.7,0.4-1.1l-0.1-0.6c0-0.2,0.1-0.4,0.1-0.6c0-0.1,0.1-0.4,0.2-0.7
			c0.3-1.3,0.6-2.7,1-4.4c0.3-1.6,0.4-3.2,0.3-4.9c-0.1-0.8-0.2-1.6-0.3-2.3c-0.3-0.6-0.6-1-0.9-1.1c-1.1-0.1-1.9-0.1-2.3,0.2
			c-0.5,0.3-0.8,0.7-1,1c-0.1,0.2-0.2,0.4-0.3,0.6c-0.1,0.3-0.3,0.6-0.3,1c-0.1,0.5-0.2,1-0.3,1.6c-0.1,0.6-0.2,1.2-0.3,1.7
			c-0.1,0.6-0.2,1.2-0.3,1.7c-0.1,0.6-0.3,1-0.3,1.2c-0.1,0.5-0.2,0.9-0.2,1.3l-0.2,1.3c-0.1,0.1-0.1,0.3-0.1,0.3
			c0,0.1-0.1,0.3-0.1,0.4h-0.2c-1.3,0.3-2.6,0.6-3.8,0.9c-1.3,0.3-2.2,0.6-3,0.9c-0.1-0.5-0.1-1-0.1-1.6c-0.1-0.5-0.1-1-0.1-1.6
			l0.1-1.3l-0.3-0.8c0-0.1,0-0.2,0.1-0.3c0.1-0.3,0.1-0.4,0.1-0.6l-0.3-1.5l0.2-0.7l0.1-1l0.1-0.3c0-0.2-0.2-0.6-0.5-1.1
			c0-0.3-0.1-1-0.2-1.8c-0.1-0.8-0.6-1.3-1.2-1.5C135,1.6,134.5,1.6,134,2c-0.6,0.4-1.2,0.9-1.9,1.6c0,0.4-0.3,1.4-0.8,3.1
			c-0.1,0.4-0.2,1-0.3,1.5c-0.1,0.7-0.3,1.3-0.3,2c-0.1,0.4-0.1,0.8,0,1.2c0,0.4,0,0.8,0.1,1.1c-0.3,0.3-0.4,0.5-0.4,0.8
			c-0.1,0.3-0.1,0.4,0,0.5c0.1,0.1,0.1,0.3,0.3,0.3c0.1,1.7,0.3,3.1,0.6,4.5c0.2,1.4,0.6,2.9,1.1,4.3c0.2,1.1,0.6,1.9,1.1,2.4
			l0.2,0.1c0,0.1,0.1,0.3,0.3,0.4c0.1,0.3,0.1,0.4,0.3,0.6c0.2,0.5,0.4,0.8,0.7,1c0,0.6,0.2,1.1,0.6,1.5
			C136.1,29.4,136.4,29.8,136.8,30z"/>
	</g>
</g>
</svg>
