<?xml version="1.0" encoding="utf-8"?>
<!-- Generator: Adobe Illustrator 22.0.1, SVG Export Plug-In . SVG Version: 6.00 Build 0)  -->
<svg version="1.1" id="레이어_1" xmlns="http://www.w3.org/2000/svg" xmlns:xlink="http://www.w3.org/1999/xlink" x="0px"
	 y="0px" viewBox="0 0 214 68" style="enable-background:new 0 0 214 68;" xml:space="preserve">
<style type="text/css">
	.st0{fill:#FFFFFF;}
</style>
<g>
	<g>
		<path class="st0" d="M38.8,47.8c-0.3-0.6-0.5-1-0.8-1.4c-0.1-0.2-0.3-0.4-0.6-0.7c-0.3-0.1-0.5-0.3-0.7-0.6
			c-0.1,0-0.3-0.2-0.6-0.6c-0.3-0.3-0.7-0.6-1-1c-0.4-0.3-0.8-0.8-1.2-1.2c-0.4-0.3-0.8-0.7-1.1-1c-0.3-0.1-0.6-0.3-0.9-0.5
			c-0.4-0.1-0.7-0.3-1-0.5c-0.6-0.3-1.5-0.5-2.4-0.3c-0.5,0-0.8,0-0.9,0.1c-0.2,0.1-0.4,0.3-0.6,0.5c-0.1,0.3-0.3,0.6-0.4,0.9
			c-0.2,0.3-0.3,0.7-0.2,1l0.3,0.6c0.1,0.4,0.3,0.8,0.4,1c0.1,0.3,0.3,0.7,0.7,1c0.7,0.8,1.4,1.5,2.1,2c0.6,0.6,1.4,1,2.4,1.6
			l1.3,0.7l1.6,0.7c0.1,0.1,0.2,0.1,0.3,0.3l0.2,0.2c0,0.1,0.1,0.1,0.2,0.2c0.1,0,0.1,0.1,0.3,0.2c0.1,0.1,0.1,0.1,0.3,0.2l1,0.1
			l0.6,0.1l0.5-0.4c0.2-0.2,0.4-0.5,0.6-0.8c0.1-0.4,0.2-0.8,0.1-1.2C39.2,48.7,39,48.3,38.8,47.8z M44.2,15.5
			c-0.4,0-0.8,0.1-1.4,0.1c-0.6,0.1-1.2,0.2-1.7,0.4c-1.3,0.8-2.2,1.3-3,1.6c-0.8,0.4-1.6,0.7-2.4,0.8c-0.3,0.1-0.8,0.3-1.4,0.6
			c-0.3,0.1-0.6,0.2-0.8,0.2c-0.3,0.1-0.3,0.4-0.3,1c0,0.4,0.1,0.7,0.4,0.9c0.3,0.3,0.9,0.5,1.9,0.6c0.6,0.1,1.3,0,2.1-0.2
			c0.7-0.1,1.5-0.3,2.2-0.6c0.7-0.3,1.3-0.6,2-0.9c0.6-0.3,1.1-0.6,1.6-0.9c0.3-0.1,0.4-0.2,0.5-0.3c0-0.1,0.1-0.3,0.1-0.6
			c0.5-0.1,0.8-0.2,0.9-0.5c0-0.1,0-0.5-0.1-1L44.2,15.5z M15.8,27.7c0.3-0.1,0.6-0.2,0.6-0.2l0.6-0.1c0.1,0,0.3-0.1,0.4-0.2
			c0.1-0.1,0.3-0.2,0.8-0.2h0.3c0,0.1,0.1,0.1,0.2,0.1c0,0,0.1,0,0.1-0.1c0,0,0.1,0,0.3-0.1c0.1,0.1,0.3,0.2,0.6,0.2
			c0.3,0,0.7-0.2,1.1-0.7c0.3-0.4,0.6-0.9,0.6-1.6c0-0.3-0.1-0.6-0.3-1c-0.3-0.3-0.8-0.4-1.5-0.3c-0.4,0.1-0.8,0.2-1.3,0.2
			c0.2-0.9,0.5-1.8,0.8-2.7c0.2-0.8,0.4-1.6,0.6-2.4l0.8-4.7l0.1-1.4c0-0.3-0.1-0.8-0.2-1.4c-0.1-0.5-0.3-0.8-0.6-0.8l-0.5-0.5
			c-0.3-0.1-0.5-0.1-0.7-0.3c-0.3-0.1-0.6-0.1-0.8-0.1c-1.1,0.4-2.3,0.8-3.5,1.4c-1.3,0.6-2.2,1.1-2.8,1.5l-0.7,0.6
			c-0.3,0.3-0.6,0.6-0.6,0.9c-0.1,0.3-0.2,0.6-0.2,0.9c0,0.6,0.2,1,0.7,1c0.4,0.1,0.7,0.1,0.8,0.1c0.3,0,0.6-0.1,0.8-0.2
			c0.1-0.1,0.3-0.2,0.7-0.5l2.3-1.1l-0.3,1.7c0,0.4-0.1,0.8-0.2,1.3c-0.2,0.6-0.3,1.1-0.3,1.7c0,0.4-0.1,0.9-0.2,1.5
			C14,21,13.8,21.6,13.7,22l-0.6,3c-1,0.4-1.7,0.8-2.3,1.2c-0.7,0.5-1,1-1,1.5c0,0.7,0.1,1,0.4,1.1c0.2,0.1,0.5,0.2,0.9,0.2h0.5
			c0.3,0,0.6-0.1,1-0.3c0,0,0.2-0.1,0.6-0.3c0.3-0.1,0.8-0.2,1.3-0.3L15.8,27.7z M27,37.5l0.3-0.1c0.1-0.4,0.3-0.8,0.3-1.1v-1.5
			L27.3,34c-0.1-0.1-0.4-0.3-0.7-0.6c-0.3-0.2-0.8-0.3-1.3-0.3c-0.8,0-1.5,0.6-2.2,1.7c-0.1,0.1-0.3,0.4-0.5,0.8
			c-0.3,0.4-0.5,0.8-0.8,1.3c-0.3,0.5-0.6,0.9-0.8,1.3c-0.3,0.4-0.5,0.6-0.5,0.8L20,39.7c-0.3,0.5-0.7,1-1,1.5
			c-0.4,0.6-0.7,1.1-1,1.6c-0.6,0.6-0.9,1.2-1,1.6c-0.3,0.5-0.5,1-0.7,1.5L16,46.3l-0.4,0.5l0.1,0.4L15,47.9V48
			c-0.4,0.1-0.7,0.4-0.7,0.7c-0.1,0.3,0,0.6,0.1,0.8c0.1,0.3,0.4,0.6,0.8,1c0.2,0.2,0.4,0.3,0.7,0.3c0.2,0,0.5-0.1,0.8-0.1
			c0.1,0,0.3-0.1,0.6-0.2l0.4-0.4c0.3,0,0.6-0.2,1-0.5c0.1-0.3,0.5-0.7,0.9-1.1c0.1-0.3,0.3-0.6,0.8-1.2c0.3-0.5,0.6-0.9,0.9-1.2
			l0.4-0.4c0.3-0.3,0.6-0.6,0.8-0.9c0.1-0.1,0.2-0.3,0.3-0.6l0.4-0.3c0.3-0.3,0.5-0.6,0.6-1l0.1-0.1c0.1-0.1,0.2-0.2,0.3-0.3
			l0.2-0.6c0-0.1,0.1-0.3,0.3-0.6c0,0,0.1-0.1,0.1-0.2l0.1-0.1l0.6-0.7c0.1-0.1,0.1-0.1,0.1-0.2c0,0,0-0.1,0.1-0.2
			c0-0.1,0.1-0.2,0.2-0.4c0.1-0.1,0.1-0.2,0.3-0.3c0.1-0.2,0.2-0.5,0.4-0.8C26.9,37.8,27,37.6,27,37.5z M23.6,28.2
			c0,0.4,0.1,0.7,0.2,0.8c0.1,0.1,0.2,0.3,0.2,0.5l0.1,0.8c0.1,0.3,0.3,0.6,0.6,0.8c0.1,0.3,0.5,0.3,0.9,0.3c0.3,0,0.6,0,0.8-0.1
			c0.3,0,0.6-0.1,1-0.3c0.6-0.2,0.9-0.6,1-1c0.1-0.4,0.3-0.8,0.6-1.3l0.7-1.2l0.7-1.7c0-0.1,0.2-0.4,0.5-0.9c0.2-0.4,0.4-1,0.7-1.7
			c0.1-0.8,0.2-1.8,0.3-2.9c0.1-1,0.2-1.9,0.3-2.7l0.1-0.7c0.1,0,0.1-0.1,0.2-0.3c0-0.1,0.1-0.3,0.1-0.6v-0.3
			c-0.1-0.1-0.1-0.2-0.1-0.3V15c0-0.3,0.1-0.5,0.1-0.6c0-0.1,0.1-0.1,0.1-0.3c0-0.1,0-0.2,0.1-0.5c0-0.1,0-0.6,0.1-1.2l0.3-1.9
			c-0.1-0.1-0.1-0.3-0.1-0.5c-0.1-0.1-0.1-0.3-0.1-0.5c0.1-0.4,0.1-0.8,0.1-1.2c-0.1-0.3-0.1-0.5,0.1-0.8c0-0.3,0.1-0.5,0.1-0.8
			c0-0.1,0.1-0.3,0.1-0.6c0-0.5-0.1-1-0.3-1.7c-0.3-0.4-0.4-0.9-0.6-1.5c-0.1-0.4-0.4-0.7-0.8-0.7c-0.2-0.1-0.4-0.3-0.6-0.3
			c-0.3,0-0.6,0.1-0.9,0.2c-0.4,0.1-0.8,0.3-1,0.6c-0.4,0.3-0.7,0.5-0.9,0.7C28.2,3.9,28,4.1,28,4.4v0.8c-0.2,0.3-0.3,0.6-0.3,1
			l-0.1,1.2c0,0.7-0.1,1.3-0.2,1.7c-0.1,0.5-0.3,1-0.3,1.5l-0.6,2.5v1.5l0.1,0.6c0,0.4-0.1,0.6-0.2,0.8C26,16.1,26,16.2,26,16.4v0.1
			c0,0.1-0.1,0.1-0.1,0.1c-0.1,0.1-0.1,0.1-0.1,0.2c-0.4,0.2-0.6,0.5-0.6,0.8c0,0.1,0.1,0.2,0.2,0.3c0.1,0.2,0.2,0.4,0.2,0.6
			c-0.2,0.3-0.3,0.6-0.5,0.8c-0.1,0.3-0.2,0.5-0.3,0.7c-0.1,0.3-0.1,0.5-0.1,0.6c0,0.3,0.1,0.6,0.3,0.8c-0.3,0.4-0.4,0.8-0.4,1.2
			c-0.1,0.4-0.2,0.8-0.2,1.3L24,24.5c0,0.1,0.1,0.3,0.1,0.3v1L23.6,28.2z M8.9,17.3c0.1-0.4,0.1-1,0.1-1.9v-2.1c0-0.5-0.1-1-0.3-1.5
			c-0.3-0.4-0.6-0.8-0.8-1.3c0,0.1-0.1,0-0.1-0.1c-0.1-0.1-0.2-0.3-0.3-0.6C7.4,9.7,7.2,9.5,7.1,9.2L6.2,8.8L5.8,8.9h-1
			c-1.4,0.4-2,1.3-2,2.7L2.7,12v1.3c0,0.4-0.1,0.8-0.1,1.4c-0.1,0.6-0.1,1.1-0.1,1.5c0,0.3,0,0.5,0.1,0.6l-0.3,0.7
			c0,0.1,0.1,0.2,0.1,0.3c0,0.1,0.1,0.2,0.1,0.3c-0.1,0.7-0.1,1.5-0.1,2.3c-0.1,1-0.1,1.8-0.1,2.6c0,1.1,0.1,1.9,0.2,2.2
			c0.1,0.4,0.2,0.8,0.2,1.1v0.5c-0.1,0.1-0.1,0.3-0.1,0.6c0,0.1,0,0.3,0.1,0.6c0.1,0.3,0.2,0.5,0.3,0.7c0.1,0.3,0.3,0.5,0.4,0.7
			c0.1,0.3,0.1,0.4,0.3,0.4C4.2,29.9,4.4,30,4.5,30c0.2,0,0.5-0.1,0.8-0.3c0.3-0.1,0.8-0.4,1.4-0.9c0.6-0.4,0.9-0.7,1.1-0.9
			l-0.3-0.3c0.1-0.1,0.1-0.2,0.3-0.4C7.9,26.9,8,26.6,8,26.2C8,26.1,8,26,8,25.7c0-0.2,0.1-0.5,0.2-0.8c0-0.3,0.1-0.5,0.2-0.8
			c0-0.2,0.1-0.3,0.1-0.4c0.1-0.2,0.2-0.6,0.3-1c0-0.3,0.1-0.6,0.1-0.9c0-0.7,0.1-1.2,0.2-1.6c0.1-0.3,0.2-0.6,0.2-1
			c0-0.2-0.1-0.5-0.2-0.8C8.9,18.1,8.9,17.8,8.9,17.3z M75.2,19.7c-0.3-0.3-0.6-0.5-1-0.8c-0.3-0.1-0.6-0.1-0.9-0.1
			c-0.4,0.1-0.8,0.2-1,0.4l-0.5,0.5c-0.2,0.3-0.4,0.5-0.6,0.7c-0.1,0.3-0.3,0.4-0.3,0.6l-0.3,0.3c-0.2,0.1-0.4,0.3-0.6,0.4
			c-0.2,0.2-0.4,0.3-0.6,0.5L66,25c-0.3,0.3-0.6,0.6-0.8,1c-0.3,0.4-0.4,0.9-0.3,1.3c0.1,0.5,0.3,0.8,0.6,0.9c0.4,0.3,0.9,0.3,1.5,0
			l2.5-1.7c-0.1,1-0.3,2.1-0.4,3.2c-0.2,1.2-0.3,2.3-0.5,3.3c-0.1,1.1-0.3,2.1-0.3,2.9c-0.1,1-0.2,1.7-0.3,2.2
			c-0.1,0.6-0.1,1-0.1,1.5c-0.1,0.6-0.1,1.1-0.1,1.6c0,1.4,0.1,2.6,0.3,3.7c0.1,1.2,0.3,2,0.5,2.5h0.3c0.1,0.1,0.1,0.1,0.3,0.1
			c0.3,0.1,0.6,0.1,1,0c0.3-0.1,0.5-0.1,0.8-0.3c0.1-0.1,0.4-0.1,0.8-0.1l0.8-0.8v-0.6l0.8-1.1V43l0.3-0.3v-1.3
			c0.2-0.2,0.4-0.6,0.6-1.1C74,40,73.9,39.8,74,39.3c0-0.3,0-0.6,0.1-0.8c0-0.1,0.1-0.4,0.1-0.7c0-0.3,0.1-0.4,0.1-0.6
			c0.1-0.3,0.1-0.6,0.3-1c0.1-0.3,0.1-0.6,0.1-1c-0.1-0.6,0-1.1,0.1-1.7c0.1-0.4,0.2-0.8,0.3-1.3c0.2-0.6,0.2-1.3,0.1-2.1
			c-0.2-0.5-0.3-1-0.1-1.6c0.1-0.6,0.1-1,0.3-1.5c0.1-0.8,0.1-1.6,0.1-2.4c-0.1-0.7,0-1.5,0.1-2.3c0.1-0.3,0.1-0.6,0.1-0.8
			c0-0.2-0.1-0.6-0.1-1C75.5,20.3,75.4,20.1,75.2,19.7z M76.9,6.4c-0.3-0.1-0.6-0.2-0.8-0.2l-0.3,0.1l-0.6,0.1l-0.3,0.3
			c-0.1,0.1-0.3,0.2-0.4,0.3C74,7,73.5,7.2,72.9,7.5c-0.3,0.1-0.5,0.3-0.7,0.5c-0.3,0.2-0.6,0.4-0.8,0.6c-0.3,0.3-0.7,0.5-1.1,0.7
			c-0.5,0.3-0.8,0.5-0.8,0.5l-1.1,0.3c-0.6,0.6-1.2,1.1-1.9,1.7c-0.8,0.7-1.3,1.2-1.7,1.5l-0.2,0.3c-0.1,0.3-0.1,0.7,0,1
			c0.1,0.3,0.2,0.6,0.3,0.8c0.1,0.2,0.3,0.4,0.6,0.6c0.2,0.2,0.5,0.3,0.8,0.3c0.3,0,0.7-0.1,1.1-0.2c0.3,0,0.8-0.2,1.3-0.6
			c0.1-0.1,0.1-0.2,0.3-0.4l0.9-0.8c0,0,0-0.1,0.1-0.2c0-0.1,0.1-0.1,0.1-0.2c0.1,0,0.1-0.1,0.3-0.2c0-0.1,0.1-0.1,0.2-0.3l0.8-0.6
			l0.1-0.1c0,0,0-0.1,0.1-0.1c0.1,0,0.5-0.1,1-0.4l4.1-2.8C77,9.2,77.1,9,77.4,8.9c0.1-0.1,0.3-0.2,0.5-0.4C78,8.3,78,8.1,78,7.8
			c0-0.1-0.1-0.4-0.3-0.8C77.4,6.8,77.2,6.5,76.9,6.4z M90.5,21.1c-0.1-0.2-0.2-0.4-0.2-0.6c-0.1-0.1-0.1-0.1-0.1-0.3
			c-0.1-0.4-0.3-0.8-0.6-1.2c-0.3-0.3-0.4-0.5-0.6-0.6c-0.1,0-0.3-0.1-0.5-0.2l-0.5-0.5c-0.3-0.1-0.6-0.1-1-0.1
			c-0.5,0-0.9,0.1-1.3,0.1L84,18.6c-0.2,0.2-0.3,0.3-0.5,0.4c-0.4,0.3-0.8,0.6-1.3,1c-0.6,0.5-1.1,1.1-1.7,1.9
			c-0.3,0.3-0.4,0.6-0.6,0.8c-0.1,0.3-0.2,0.6-0.2,0.7c0,0.3,0.1,0.6,0.2,0.9c0.1,0.3,0.3,0.6,0.5,0.9l0.9-0.1h0.6
			c0.1,0,0.3,0,0.6-0.1c0.1,0,0.2-0.1,0.3-0.1c0.1,0,0.2-0.1,0.4-0.3c0.3-0.3,0.6-0.8,1-1.3c0.3-0.4,0.8-1,1.4-1.6
			c-0.1,0.5-0.1,1-0.1,1.7c-0.1,0.7-0.1,1.3-0.1,1.8L85,27.4l0.1,1.2l-0.2,0.5c-0.1,0.8-0.2,1.4-0.2,1.9c-0.1,0.6-0.1,1-0.2,1.5
			l-0.3,3.4l-0.3,1l-0.1,1l-0.1,1.5l-0.3,0.4c0,0.3,0,0.5,0.1,0.7v0.7l-0.3,0.3L83,43.2c0,0.6,0.1,1,0.3,1.3
			c0.1,0.4,0.6,0.6,1.4,0.6c0.6,0,1.1,0,1.7-0.1c0.6-0.1,1.1-0.2,1.8-0.5c0.3-0.1,0.4-0.1,0.4-0.3c0-0.1,0-0.2,0.1-0.3
			c0.1-0.1,0.2-0.4,0.5-0.8c0.1-0.3,0.2-0.6,0.1-0.9c-0.1-0.1-0.1-0.3-0.1-0.5c-0.1-0.1-0.1-0.3-0.1-0.4l0.2-0.7
			c0-0.1,0-0.3,0.1-0.6v-0.6c0-0.3,0.1-0.8,0.1-1.2c0-0.4,0-0.8,0.1-1.2l0.2-1.3l0.4-3.1l0.6-4.7c0-0.6,0.1-1,0.1-1.6v-3.1
			c0-0.4-0.1-0.8-0.1-1.3L90.5,21.1z M104.4,20.1c-0.1-0.1-0.1-0.3-0.2-0.6l-0.6-1.2l-0.8-1l-1.4-0.1c-0.1,0.1-0.3,0.1-0.6,0.1
			c-0.3,0.1-0.6,0.2-0.8,0.3l-0.4,0.1L99,18.1l-1.1,0.5l-1,1l-0.8,1l-0.8,0.8l-0.6,0.7l-0.4,0.6c-0.3,0.4-0.5,0.6-0.6,0.8
			c-0.2,0.2-0.3,0.4-0.5,0.6c-0.1,0.1-0.2,0.2-0.2,0.3c-0.1,0.1-0.2,0.3-0.3,0.3c-0.3,0.4-0.5,0.9-0.6,1.3c0,0.2-0.1,0.3-0.1,0.4
			c-0.3,1-0.3,1.5,0,1.8c0.2,0.3,0.4,0.6,0.7,0.6c0.8,0.3,1.4,0,1.9-0.8c0.1-0.3,0.3-0.5,0.5-0.8c0.1-0.1,0.3-0.4,0.6-0.7
			c0.1-0.3,0.4-0.6,0.8-1c0.3-0.3,0.6-0.8,1.1-1.4l0.5-0.6l1.1-1.3l-0.3,2c-0.3,1.3-0.4,2.4-0.6,3.2c-0.2,0.9-0.3,1.7-0.4,2.3
			c-0.1,0.7-0.3,1.3-0.3,1.8c-0.1,0.6-0.2,1.1-0.3,1.7c-0.1,0.3-0.1,0.7-0.1,1c-0.1,0.3-0.2,0.7-0.2,1c-0.1,0.3-0.1,0.6-0.1,0.8
			c-0.1,0.3-0.1,0.6-0.1,0.8c-0.1,0.3-0.1,0.5-0.1,0.8l-0.1,1.7v1.5l0.1,1.8l1.1,0.8h0.6c0.2,0.1,0.4,0.1,0.6,0.1
			c0.3,0.1,0.8,0.1,1.3,0c0.5,0,1-0.1,1.4-0.2l0.8-1.5l0.1-1.2l0.1-0.8l0.1-0.6l0.1-0.7l0.1-0.3l0.1-0.6c0.1-0.5,0.3-1.3,0.4-2.2
			c0.1-1,0.1-1.9,0.3-2.7c0.1-0.4,0.1-0.8,0.2-1.2v-0.6l-0.1-0.3l0.5-0.7l-0.4-1l0.3-1l0.1-1.1c0-0.6,0.1-1.1,0.2-1.7
			c0-0.6,0.1-1.2,0.1-1.8c0-0.6,0.1-1,0.1-1.5c0-0.4-0.1-0.8-0.1-1.1C104.4,20.3,104.4,20.2,104.4,20.1z M140.9,15
			c-0.1-1.1-0.1-2.1-0.1-2.9c-0.1-1-0.3-1.7-0.6-2.3l0.1-0.4c0-0.1-0.1-0.3-0.1-0.6c-0.1-0.3-0.3-0.7-0.4-1.1
			c-0.2-0.4-0.4-0.8-0.6-1.2c-0.3-0.3-0.6-0.6-0.9-0.8l-0.6-0.3l-0.7-0.1L136,5.5c-0.1,0.1-0.2,0.2-0.3,0.2c-0.3,0.1-0.6,0.3-1,0.7
			c-0.4,0.4-0.6,0.9-0.6,1.5c0,0.6,0,0.8,0.1,1v1.9c0,0.3,0,0.6,0.1,0.8c0,0.3,0,0.6,0.1,0.8v0.8c0,0.3-0.1,0.5-0.1,0.7
			c-0.1,0.3-0.2,0.6-0.2,0.8l0.1,0.4l-0.2,0.8c0,0.1,0.1,0.3,0.1,0.5c0,0.3,0.1,0.5,0.1,0.6c0,0.3,0,0.5,0.1,0.7
			c0,0.3,0,0.5,0.1,0.7l-0.3,0.4l-0.1,1.2l0.2,0.7l-0.1,0.8l-0.1,0.9c0,0.1,0,0.2,0.1,0.3c0,0.1,0.1,0.2,0.1,0.3
			c-0.1,0.4-0.1,0.6-0.1,0.6V24c0,0.1,0,0.3,0.1,0.3v0.3c-0.1,0.3-0.2,0.6-0.2,0.8c-0.1,0.3-0.1,0.6-0.1,0.9v0.6
			c0,0.3,0,0.5,0.1,0.6c0,0.2,0,0.3,0.1,0.4v0.4c0,0.3-0.1,0.6-0.3,0.9c-0.1,0.3-0.2,0.5-0.2,0.6c0,0.2,0,0.3,0.1,0.5
			c0,0.2,0.1,0.3,0.1,0.5l-0.1,0.9l-0.3,0.3c-0.1,1.5-0.3,2.8-0.4,4c-0.2,1.3-0.4,2.4-0.6,3.3L132,40l-0.1,0.8l-0.3,0.6l-0.4,1.3
			l-0.3,0.6c-0.2,0.3-0.3,0.5-0.4,0.6c-0.1,0.3-0.3,0.4-0.3,0.5c-0.1,0.2-0.2,0.3-0.2,0.3c-0.1,0.3-0.3,0.5-0.4,0.7
			c-0.1,0.3-0.3,0.6-0.4,0.8l-0.5,0.6c-0.1,0.1-0.1,0.3-0.1,0.4c-0.1,0.2-0.2,0.3-0.2,0.4c-0.1,0.2-0.3,0.5-0.6,0.8
			c-0.4,0.3-0.7,0.5-0.9,0.8c-0.2,0.1-0.3,0.3-0.5,0.4s-0.3,0.2-0.3,0.3l-0.1,0.2c-0.4,0.2-0.7,0.4-0.9,0.6
			c-0.1,0.1-0.2,0.3-0.3,0.4l-0.6,0.6c-0.2,0.3-0.3,0.8-0.3,1.2v0.4c0.1,0.1,0.1,0.3,0.1,0.6c0.1,0.1,0.3,0.3,0.4,0.6
			c0.2,0.1,0.5,0.2,0.8,0.2c0.4,0,0.8-0.1,1.2-0.4c0.3-0.2,0.6-0.4,1-0.7c0.3-0.3,0.8-0.8,1.4-1.3c0.2-0.1,0.5-0.3,0.8-0.6
			c0.3-0.3,0.8-0.8,1.6-1.5l1.3-1.5c0.8-0.8,1.7-1.8,2.7-3.1c0.9-1.3,2-2.9,3.2-5.2c0.2-0.3,0.3-0.8,0.5-1.3
			c0.1-0.4,0.1-0.9,0.2-1.5l0.8-2.1l-0.1-0.7c0.3-1.5,0.6-3.1,0.8-4.8l0.4-4.8c0-0.3,0.1-0.7,0.1-1.1c0-0.3,0-0.6,0.1-1l0.1-1.7
			l-0.1-0.6V15z M162.8,47.4c0-0.1,0-0.1,0.1-0.3c0.1-0.1,0.1-0.3,0.2-0.6v-0.8c-0.1-0.1-0.2-0.3-0.4-0.6c-0.3-0.1-0.6-0.2-0.9-0.1
			c-0.1,0.1-0.3,0.1-0.8,0.1c-0.6,0-1.1-0.1-1.6-0.4c-0.6-0.3-0.9-0.5-1.1-0.8c-0.6-0.6-0.9-1.3-1.2-2c-0.3-0.6-0.5-1-0.6-1.5
			l-0.5-1.9v-2c-0.1-0.2-0.1-0.5-0.1-0.8v-0.6c0.7-0.3,1.5-0.6,2.2-1c0.6-0.3,1.3-0.7,2-1.3l0.4-0.3l0.5-0.6
			c0.1-0.1,0.3-0.2,0.6-0.3c0.1-0.1,0.2-0.2,0.3-0.3l0.3-0.3l0.4-0.3l1.2-1.2c0.1-0.3,0.2-0.5,0.3-0.7c0.1-0.1,0.1-0.2,0.3-0.3
			c0.1-0.1,0.1-0.2,0.3-0.3c0.1-0.1,0.1-0.3,0.3-0.6c0-0.1,0.1-0.2,0.2-0.3c0.1-0.1,0.2-0.3,0.3-0.4c0.3-0.4,0.6-0.9,0.7-1.5
			c0.1-0.6,0.2-1.1,0.3-1.7l0.1-0.8l0.1-0.9l-0.1-0.6v-0.6c-0.1-0.1-0.1-0.3-0.1-0.5c-0.1-0.1-0.1-0.3-0.1-0.4l-0.2-0.9
			c-0.1-0.4-0.2-0.8-0.3-1l-0.4-0.8c-0.1-0.1-0.2-0.3-0.3-0.6c-0.1-0.1-0.2-0.2-0.2-0.3c-0.1-0.1-0.2-0.2-0.3-0.3l-0.4-0.4
			c-0.1,0-0.1-0.1-0.1-0.1c-0.1,0-0.1,0-0.1-0.1l-0.6-0.2c-0.4-0.1-0.7-0.2-0.8-0.2c-0.1,0-0.3,0.1-0.6,0.1
			c-0.3,0.1-0.4,0.1-0.6,0.1c-0.6,0.2-1,0.3-1,0.3c-0.3,0.3-0.7,0.6-1,0.9l-1,1c-0.3,0.3-0.6,0.6-0.8,0.9l-1,1.2
			c-0.3,0.4-0.6,0.8-0.8,1.1c-0.3,0.4-0.3,0.6-0.3,0.8c-0.1,0.2-0.3,0.3-0.3,0.4c-0.1,0.1-0.2,0.3-0.3,0.4l-0.3,0.2
			c-0.3,0.5-0.5,1-0.8,1.7l-1,2.7c-0.1,0.5-0.2,0.9-0.3,1.2c-0.1,0.3-0.2,0.8-0.3,1.2c-0.4,1-0.6,1.6-0.7,2c-0.1,0.4-0.3,0.8-0.3,1
			c-1-0.1-1.8-0.2-2.6-0.4l-0.8-0.2c-0.3,0-0.5-0.1-0.6-0.1c-0.4,0-0.6,0.1-0.8,0.1c-0.2,0.1-0.4,0.1-0.6,0.2
			c-0.4,0.3-0.6,0.6-0.7,0.8c-0.1,0.3-0.2,0.8-0.2,1.3c0,0.4,0.1,0.8,0.5,1c0.3,0.3,0.6,0.6,0.9,0.7c0.4,0.3,0.8,0.4,1,0.4
			c0.2,0.1,0.6,0.1,1.1,0.1h2c-0.1,0.4-0.1,0.8-0.1,1.3v1.3l0.1,0.9v0.9c0,0.1,0.1,0.3,0.3,0.6l-0.1,0.6c0,0.6,0.1,1,0.4,1.5
			c0.1,0.1,0.1,0.3,0.3,0.5c0,0.2,0.1,0.4,0.1,0.6c0.3,0.4,0.6,0.9,1.1,1.5c0.4,0.6,0.8,1,1,1.2l1.3,1.3c0.1,0,0.3-0.1,0.6-0.1
			l0.1,0.1l2.1,1c0.1,0,0.1-0.1,0.3-0.1c0-0.1,0.1-0.1,0.2-0.1c0.1,0.1,0.3,0.1,0.5,0.1h0.6c0.2,0,0.3-0.1,0.5-0.1
			c0.1-0.1,0.2-0.2,0.4-0.2l0.6-0.1c0.4-0.1,0.6-0.2,0.8-0.2c0.1-0.1,0.2-0.1,0.3-0.2c0.3-0.3,0.6-0.4,0.8-0.5L162.8,47.4z
			 M156.8,29.1c0.1-0.6,0.3-1.3,0.6-2c0.2-0.7,0.5-1.5,0.8-2.4c0.3-0.8,0.7-1.9,1.2-3.1c0,0,0-0.1,0.1-0.2v-0.2
			c0.1-0.3,0.4-0.6,0.8-1.1c0.3-0.4,0.6-0.8,1-1.2c0.2-0.3,0.4-0.4,0.7-0.4c0,0,0.1,0.1,0.2,0.1c0.2,0.6,0.4,1.2,0.6,1.7
			c0.1,0.7,0.2,1.4,0.2,2.2l-0.1,1v0.3l-0.1,0.3c-0.3,0.4-0.4,0.7-0.4,0.8l0.1,0.3c0,0.3-0.2,0.8-0.6,1.3c-0.5,0.6-0.8,1-1,1.2
			l-0.7,0.7c-0.7,0.7-1.3,1.3-1.9,1.6c-0.6,0.4-1.2,0.8-1.7,1C156.5,30.3,156.6,29.7,156.8,29.1z M183.6,5.5c-0.3-0.1-0.7-0.1-1.2,0
			l-0.6,0.1l-0.6,0.6c-0.2,0.1-0.4,0.2-0.6,0.3c-0.3,0.2-0.6,0.4-1,0.7c-0.4,0.3-0.8,0.5-1,0.7l-1,0.8l-0.8,0.3
			c-0.6,0.6-1.2,1.1-1.8,1.8c-0.7,0.7-1.1,1.3-1.4,1.7l-0.1,0.2c-0.1,0.6,0,1.1,0.3,1.7c0.2,0.7,0.6,1,1.3,1h0.3
			c0.1,0.1,0.1,0.1,0.3,0.1c0.5,0.3,1,0.3,1.5,0.1c0.1,0,0.3-0.1,0.6-0.4c0.3-0.1,0.4-0.4,0.4-0.8c0-0.1,0-0.3,0.1-0.5v-0.5l0.4-0.6
			c0.3-0.4,0.6-0.8,0.8-1c0.1-0.1,0.3-0.2,0.4-0.3l0.2-0.2l0.8-0.5c0.3-0.3,0.8-0.7,1.3-1c0.4-0.3,0.9-0.6,1.3-1
			c0.2-0.1,0.5-0.5,0.9-1c0.3-0.4,0.3-0.9,0-1.6C184.1,6,183.8,5.7,183.6,5.5z M183.4,24.5c-0.1-0.1-0.1-0.3-0.2-0.6l0.1-0.6
			l0.1-0.2v-1c0-0.4-0.1-0.8-0.1-1.4c-0.1-0.4-0.3-0.9-0.4-1.3c-0.3-0.4-0.6-0.7-1-0.8l-0.5-0.5l-1.6,0.1c-0.1,0.1-0.2,0.3-0.3,0.4
			c-0.1,0.3-0.3,0.4-0.3,0.5l-0.9,1.1c-0.2,0.4-0.3,0.9-0.3,1.5c-0.1,0.7-0.1,1.4-0.1,2v0.6c-0.1,0.2-0.1,0.3-0.1,0.4
			c-0.1,0.4-0.1,0.7-0.1,1c-0.1,0.3-0.1,0.7-0.2,1c-0.1,0.3-0.1,0.6-0.1,0.8c-0.1,0.3-0.1,0.6-0.1,0.8c-0.1,0.1-0.1,0.3,0,0.3
			c0,0.1-0.1,0.2-0.1,0.3c-0.1,0.3-0.3,0.6-0.3,0.9v0.4c-0.1,0.2-0.1,0.3-0.1,0.4c-0.3,2.5-0.8,4.8-1.3,6.9
			c-0.6,2.2-1.1,4.3-1.5,6.4l-0.8,2.2c-0.3,0.6-0.5,1.1-0.8,1.7c-0.3,0.6-0.6,1.2-0.8,1.7l-0.4,0.8c-0.4,0.8-0.8,1.5-0.9,2
			c-0.2,0.4-0.3,0.9-0.5,1.5l-0.9,1.5l-0.4,0.8c-0.1,0.2-0.2,0.4-0.3,0.6c-0.1,0.1-0.1,0.3-0.3,0.6l-0.5,0.9c0,0.1-0.1,0.3-0.4,0.6
			c-0.1,0.3-0.6,0.8-1.1,1.6c-0.3,0.3-0.6,0.7-0.9,1.1c-0.3,0.4-0.4,0.6-0.5,0.7l-0.6,0.5c-0.3,0.3-0.6,0.7-0.8,1
			c-0.1,0.3-0.3,0.5-0.6,0.8v0.6c0,0.1,0,0.2-0.1,0.3v0.3c0.1,0.3,0.3,0.6,0.4,1c0.2,0.3,0.6,0.3,1.3,0.3c0.3-0.1,0.6-0.3,0.7-0.3
			c0.2-0.1,0.5-0.3,0.8-0.4c0.3-0.2,0.5-0.4,0.8-0.6c0.3-0.3,0.6-0.5,0.8-0.8l0.8-0.8c0.3-0.3,0.6-0.7,1-1.2l1.4-1.5
			c0.1-0.1,0.2-0.3,0.3-0.5c0.1-0.1,0.2-0.3,0.3-0.5c0.1-0.2,0.1-0.3,0.3-0.5l0.3-0.3c0.6-0.6,1.1-1.3,1.7-2.2
			c0.6-0.8,1-1.7,1.6-2.4l0.1-0.5l0.3-0.4l1.2-2.2c0.1-0.4,0.3-0.8,0.5-1.1c0.1-0.4,0.4-1,0.8-1.7l0.6-0.2c0-0.1,0.1-0.3,0.1-0.6
			c0-0.3,0.1-0.6,0.1-0.8c0.1-0.2,0.2-0.5,0.3-0.8c0.1-0.3,0.1-0.6,0.3-0.9l0.8-2.1l1.1-3.3c0.1-0.5,0.2-1.1,0.3-1.8
			c0.1-0.6,0.1-1.3,0.3-1.8l0.4-0.5v-1c0.2-0.9,0.4-2.1,0.7-3.6c0.2-1.5,0.4-2.8,0.6-4.1l-0.1-1.1l0.2-1.5
			C183.4,25,183.4,24.7,183.4,24.5z M210.7,35.4l0.1-2.7l0.1-0.7l-0.2-0.3l0.1-1.1c-0.1-0.3-0.1-0.7-0.1-1v-0.8
			c-0.1-0.6-0.1-1.3-0.1-1.9c-0.1-0.6-0.1-1.3-0.2-2l-0.4-3.4l-0.5-0.4c-0.3-0.3-0.6-0.7-0.8-1c-0.3-0.3-0.8-0.4-1.4-0.4
			c-0.6,0-1,0.3-1.2,0.8c-0.3,0.6-0.5,1.1-0.7,1.6c-0.1,0.3-0.3,0.5-0.3,0.6c-0.1,0.1-0.2,0.5-0.4,1v0.7c-0.2,0.2-0.3,0.4-0.3,0.7
			c0,0.3,0.1,0.6,0.2,0.7l-0.1,0.3l-0.1,0.8c0,0.5-0.1,0.8-0.1,1.1c-0.1,0.3-0.1,0.6-0.1,0.8c-0.1,0.2-0.1,0.3-0.1,0.4
			c-0.1,0.1-0.1,0.3-0.1,0.6c0,0.1,0,0.2,0.1,0.3v0.3c0.1,0.3,0.1,0.7,0.1,1.1c-0.1,0.2-0.1,0.6-0.1,1c-1.4,2.1-2.8,4.1-4.2,5.9
			c-1.5,2-2.9,3.4-4.3,4.5c-0.1,0-0.3,0-0.3-0.1c-0.3-0.8-0.5-1.7-0.6-2.9c-0.1-1.1-0.3-2.1-0.3-3.1l0.1-0.7l-0.1-0.8v-0.3l0.1-0.5
			v-0.5l0.2-1.3v-0.6c-0.1-0.1-0.1-0.2-0.1-0.3v-0.8l0.1-0.8v-0.9l0.1-0.5c0.1-0.8,0.1-1.3,0.1-1.4c0-0.1,0-0.2,0.1-0.3l0.3-0.6
			c0-0.1,0.1-0.4,0.1-0.7v-0.6c0-0.6-0.1-1.3-0.3-1.8c-0.2-0.6-0.6-0.8-1.2-0.8c-0.3,0-0.6,0.1-0.7,0.1c-0.3,0.1-0.5,0.2-0.7,0.3
			l-0.3,0.1c-0.7,0.3-1.2,0.6-1.5,1c-0.3,0.4-0.6,0.9-0.6,1.3c-0.1,0.3-0.2,0.7-0.2,1c-0.1,0.4-0.2,0.8-0.2,1l-0.3,0.8v0.6l-0.2,0.3
			c-0.3,1.4-0.6,2.7-0.8,4.1c-0.2,1.4-0.3,2.9-0.4,4.3v0.5c0,0.2,0,0.3,0.1,0.5c0,0.3,0.1,0.6,0.1,0.8c-0.1,0.3-0.1,0.5-0.1,0.7
			c0,0.1,0,0.2,0.1,0.3c0,0.2,0.1,0.3,0.1,0.5c0.1,0.4,0.1,0.8,0.3,1.1c0,0.4,0.1,0.8,0.2,1.2v0.6l0.3,0.7c0.1,0.4,0.3,0.8,0.6,1.3
			c0.2,0.6,0.4,0.9,0.7,1.1l1.1,0.5c0.9,0,1.7-0.1,2.6-0.2c0.8-0.1,1.5-0.3,2.2-0.5c0.2-0.1,0.5-0.1,0.8-0.3c0.2,0,0.4-0.1,0.6-0.1
			l0.4-0.3l0.5-0.3l0.5-0.6l0.8-0.8l1-1.2l0.8-0.9l0.3-0.7c0.1-0.2,0.4-0.5,0.8-0.9c0.3-0.3,0.6-0.7,1-1.2c0,0.1,0,0.2,0.1,0.2
			c0.1,0.3,0.1,0.5,0.2,0.8V43l0.2,0.7l-0.1,0.4c0.1,0.1,0.1,0.2,0.2,0.3c0,0.2,0.1,0.3,0.2,0.5l-0.1,0.4l0.4,1l0.9,0.9
			c0.2,0.3,0.3,0.3,0.5,0.4h0.5c0.6,0,1.3-0.1,2.1-0.3L210,47c0-0.4,0-0.7,0.1-0.8c0-0.1,0.1-0.2,0.2-0.5l0.2-0.7
			c0.1-0.3,0.1-0.6,0.1-0.8c0-0.1-0.1-0.3-0.1-0.6l0.3-0.6l-0.1-0.7l0.1-2.9v-0.9c0-0.3-0.1-0.6-0.1-0.8l-0.1-0.9l0.1-0.5V35.4z"/>
	</g>
</g>
</svg>
