<?xml version="1.0" encoding="utf-8"?>
<!-- Generator: Adobe Illustrator 22.0.1, SVG Export Plug-In . SVG Version: 6.00 Build 0)  -->
<svg version="1.1" id="레이어_1" xmlns="http://www.w3.org/2000/svg" xmlns:xlink="http://www.w3.org/1999/xlink" x="0px"
	 y="0px" viewBox="0 0 524.1 263.4" style="enable-background:new 0 0 524.1 263.4;" xml:space="preserve">
<style type="text/css">
	.st0{fill:#125381;}
	.st1{fill:#FFFFFF;}
</style>
<path class="st0" d="M506.4,202.3c-0.8,2.9-0.8,5.7,0.4,8.7c1.8,4.3,2.1,8.9,1.1,13.1c-2.6,13.1-10.1,19.2-23.9,21.4
	c-8.2,1.3-14-6.8-10.7-14.4c3.7-8.4,9.8-14.8,17.4-19.9c1.1-0.8,2.4-1.4,3.6-2c2.4-1.3,3.6-3.3,4-6 M499.5,219.1
	c-1.6,0.2-2.3,0.2-2.9,0.5c-6.3,3-11,7.8-15.2,13.3c-0.6,0.9-0.9,2-1.2,3.1c-0.3,1.4,0.6,2.7,2.1,2.9c3.8,0.6,7.3-0.5,10.1-3
	C497.2,231.6,499.4,226.1,499.5,219.1z"/>
<path class="st1" d="M419.4,59.8c-0.3,1.2-0.9,2-1.7,2.7c-3.6,3.5-7.7,6.2-12.1,8.4c-4.7,2.2-9.6,2.9-14.8,2
	c-2.3-0.4-4.3-1.3-6.1-2.8c-2.5-2.1-3.2-5.5-1.7-8.4c0.1-0.3,0.3-0.5,0.5-0.8c0.8-1,2.2-1,2.8,0.1c0.4,0.6,0.6,1.3,0.8,2
	c0.2,0.6,0.2,1.2,0.4,1.8c0.9,2.6,2.7,4.1,5.4,4.3c2.3,0.2,4.5,0.1,6.7-0.8c5.8-2.3,11.6-4.8,16.8-8.5c0.3-0.2,0.7-0.5,1-0.7
	C418.2,58.6,418.7,59,419.4,59.8z"/>
<path class="st1" d="M243.5,78.8c-0.4,1.5-1.2,2.5-2,3.4c-4.3,4.3-9.1,7.7-14.3,10.3c-5.5,2.7-11.2,3.3-17,1.9
	c-2.6-0.6-4.9-1.9-6.9-3.9c-2.8-2.9-3.4-7.3-1.6-11c0.2-0.3,0.4-0.7,0.6-1c1-1.3,2.5-1.2,3.2,0.2c0.4,0.8,0.6,1.7,0.9,2.6
	c0.2,0.8,0.2,1.6,0.4,2.4c0.9,3.4,2.9,5.5,6.1,5.9c2.6,0.4,5.2,0.3,7.7-0.7c6.8-2.7,13.5-5.7,19.6-10.2c0.4-0.3,0.8-0.6,1.2-0.9
	C242.2,77.2,242.8,77.8,243.5,78.8z"/>
<path class="st0" d="M1.1,221.8c-1.8-2.4-1.2-4.8-0.1-7.3c3.6-8.2,9.4-13.9,15.6-18.7c9.6-7.4,18.1-16.4,26.1-26.2
	c1.7-2.1,2.9-4.9,4.9-8.2c-12.6-8-24-2.8-35.1,1.4c-3.7-3.4-4.2-7.5-3.6-11.8c0.6-4.8,3.8-7.1,6.9-8.9c6.9-3.8,14.3-4.3,21.7-3.3
	c4.7,0.6,9.4,1.8,14.3,2.7c3.5,5.2,7.1,10.5,10.7,15.9c-2.2,10.5-8.4,17.5-12.9,26.5c5.1,8,12.5,9.2,19.6,10.7
	c5.9,1.2,12.1,1,18.1,1.2c5.8,0.2,11-1.5,15.7-6.1c2.7-2.6,5.8-4.9,9.1-6c2-0.7,4.6,1.1,6.7,1.7c0.6,9.6-2.1,16.6-7.5,21.8
	c-6.3,6.1-13.1,10.4-21.5,9c-4.7-0.8-9.5-1.3-14.2-2.2c-10-1.9-19.2-6.4-26.9-14.6c-2-2.1-4-4-6.6-6.5c-2.5,1.9-5.1,3.5-7.4,5.7
	C20,212.5,16.5,215.1,1.1,221.8z"/>
<path class="st0" d="M174.6,175.5c-1.3-1.7-0.9-3.6-0.1-5.4c2.7-6.1,6.9-10.2,11.5-13.8c7.1-5.4,13.4-12.1,19.2-19.3
	c1.3-1.6,2.2-3.6,3.6-6.1c-9.3-5.9-17.7-2-25.9,1c-2.7-2.5-3.1-5.5-2.7-8.7c0.4-3.5,2.8-5.3,5.1-6.5c5.1-2.8,10.5-3.2,16-2.4
	c3.5,0.5,6.9,1.3,10.6,2c2.6,3.8,5.2,7.7,7.9,11.7c-1.6,7.7-6.2,12.9-9.5,19.5c3.8,5.9,9.2,6.8,14.4,7.9c4.4,0.9,8.9,0.7,13.4,0.9
	c4.3,0.1,8.1-1.1,11.6-4.5c2-1.9,4.3-3.6,6.7-4.4c1.5-0.5,3.4,0.8,5,1.3c0.4,7.1-1.6,12.2-5.5,16.1c-4.6,4.5-9.7,7.7-15.9,6.7
	c-3.5-0.6-7-1-10.5-1.6c-7.4-1.4-14.1-4.7-19.9-10.8c-1.4-1.5-3-2.9-4.9-4.8c-1.8,1.4-3.8,2.6-5.5,4.2
	C188.5,168.7,185.9,170.5,174.6,175.5z"/>
<path class="st1" d="M266.4,90.1c2.9,0.3,5.7-0.1,8.6-0.9c2.5-0.7,5-1,7.4,0.9c-0.6,0.6-1.1,1.5-1.9,1.9c-6,3.2-14.7,2.8-20.2-0.7
	c-2.2-1.4-3-3.3-2.4-5.4c0.6-2.1,1.5-4.2,2.7-6.1c2.2-3.5,4.8-3,7.2-6.4c0.7-1,1.4-2,1.9-3.1c0.5-1.1,0.8-2.2,0.8-3.4
	c0.1-1.5-1.5-2.4-3.3-1.8c-2.4,0.8-4.7,1.8-6.9,2.8c-1.8,0.8-3.5,1-3.9,0.4c-0.7-1.1,0.2-1.9,0.8-2.8c2.9-3.7,7.8-5.5,12.7-4.7
	c4.7,0.7,7.6,3.6,7.3,7.4c-0.2,2.8-1.5,5.3-3,7.8c-2.2,3.5-4.6,3-6.8,6.5c-0.7,1-1.2,2.1-1.9,3.1C264.5,87.3,264.8,88.7,266.4,90.1z
	"/>
<path class="st1" d="M335.3,26c0.6-4.1-1.9-7-2.4-10.4c1.7-1,3.1-0.5,4.1,0.6c2.3,2.3,3.5,5.3,4.2,8.4c0.1,0.7,0.1,1.6-0.2,2.2
	c-2.1,3.4-4.3,6.4-8.7,7.4c-5.4,1.3-9.9,0.2-13.6-4.2c-3.8-4.6-5.2-9.6-2.8-15.2c3.2-7.4,9.3-11.6,16.8-13.7
	c4.3-1.2,5.8,1.2,7.3,4.4c0.9,1.9-0.7,4.6-2.9,4.5c-4.1-0.2-6.6,2.3-9.1,4.8c-0.8,0.8-1.7,1.8-1.8,2.7c-0.4,2.5-1.8,4.4-2.8,6.7
	c-1.1,2.7,0.1,4.9,3,5.4c2.1,0.4,4.1,0.3,5.9-1.1C333.4,27.8,334.4,26.9,335.3,26z"/>
<path class="st1" d="M378.2,26.1c1-5.2,0.9-10.8,4.6-15.2c1.4-0.3,1.8,0.5,2.1,1.4c0.6,2.1,0.6,4.2-0.5,6.3c-1.4,2.5-2.3,5.3-3.5,8
	c4.4,1.6,8.8,1,13.2,1.1c0.3,3.3-2.6,4-4.1,6.3c0,0.3,0,1.2,0.1,2.1c0.7,4.9-2.1,8.3-5.1,11.5c-1.3,1.4-3.1,2-5,1.8
	c-2.8-0.2-4.5-2-3.9-4.8c0.4-2.1,1.4-4.1,2.2-6.1c0.4-1,1.1-1.9,1.8-3.1c-0.9-0.4-1.6-0.9-2.4-1.1c-4.7-1-8-4.2-11.3-7.4
	c-0.3-0.2-0.6-0.6-0.6-0.9c0-0.7,0-1.4,0.3-2c0.2-0.3,1-0.6,1.4-0.5c1.4,0.4,2.7,1,4.1,1.4C373.7,25.7,375.7,26.9,378.2,26.1z
	 M385.1,35.7c-0.3,0.1-0.5,0.1-0.7,0.1c-2.9,1.7-5,4.1-4.9,7.7c0,0.6,0.6,1.2,1.1,1.6c0.3,0.2,1.1,0.2,1.5-0.1
	c2.3-1.6,3.9-3.7,4.4-6.5c0.1-0.7,0-1.4-0.3-2.1C386,36.2,385.4,35.9,385.1,35.7z"/>
<path class="st0" d="M423.7,138.9c3.7-15.2,4.1-32.1,15.6-44.6c4.1-0.8,5.4,1.8,6,4.4c1.5,6.5,1.3,12.5-2.4,18.7
	c-4.4,7.3-7.6,15.4-11.3,23.3c12.9,5.4,26,4,39.2,4.8c0.6,9.7-8.1,11.5-13,18.4c0,1-0.2,3.7,0,6.3c1.4,14.7-7.3,24.5-16.7,33.7
	c-4,3.9-9.4,5.4-15.1,4.8c-8.2-1-13-6.6-11-14.8c1.5-6.2,4.6-12.1,7.4-18c1.4-2.9,3.5-5.4,5.8-9c-2.6-1.3-4.7-2.9-7.1-3.5
	c-13.9-3.6-23.3-13.5-32.8-23.3c-0.7-0.8-1.6-1.9-1.5-2.8c0.1-2,0.2-4.3,1.2-5.9c0.6-1,3-1.8,4.2-1.4c4.1,1.3,8,3.3,12.1,4.8
	C410.4,137,416,140.9,423.7,138.9z M442.9,168.1c-1,0.2-1.6,0.1-2,0.4c-9,4.8-15.3,11.7-15.7,22.4c-0.1,1.7,1.6,3.8,3.1,4.9
	c0.9,0.7,3.3,0.7,4.4,0c6.9-4.5,12.1-10.5,14-18.7c0.4-1.9,0-4.3-0.7-6.2C445.6,169.6,443.9,168.9,442.9,168.1z"/>
<path class="st0" d="M524.2,126c-2.7,11.9-3.6,13.1-5.6,23.7c-4.2,22.4-3.6,32.2-12,53.2c-2.3,5.7-4.4,11.6-8.8,16
	c-4.2-2.4-2.8-5-2.2-7c4-12.7,1.1-13.5,5-26.1c1.2-3.7,2-7.6,2.6-11.5c0.4-3.3-1.5-5.6-4.5-6.9c-4.2-1.8-8.5-2.4-13,0.4
	c-4.3,9.2-5.7,29.7-14.1,37.4c-3.8-1.4-3-4.2-2.8-6.3c0.9-8.8,3.7-26.4,4.9-35.2c1.3-10.3,2.7-20.5,4.1-30.7c0.4-2.6,1.8-5.3,4.4-5
	c2,0.2,4.3,2.3,5.5,4.2c1.2,2,1.5,4.7,1.6,7.1c0.1,2.4-0.7,4.9-0.8,7.3c-0.3,5.6,1.1,8.2,4.9,9.5c6.1,2,11.7,0.5,14-4.6
	c1.8-4,3-8.3,3.9-12.6c2.1-9.6,2-10,4-19.7C520.9,121.5,520.9,121.5,524.2,126z"/>
<path class="st1" d="M230.6,46c-2,5.7-1.9,11.5-2.9,17.1c-0.7,3.8-1,7.6-1.6,11.4c-0.2,1.3-0.8,2.6-1.3,3.8
	c-0.2,0.4-0.9,0.6-1.4,0.6c-0.5,0-1.2-0.3-1.3-0.7c-0.5-1.5-1-3.1-1.1-4.7c-0.1-4.6,0-9.3,0.2-14c0.5-11.5,1.1-23,1.7-34.4
	c0.1-1.6,0.2-3.3,0.6-4.9c0.3-0.8,1.5-2.1,2.1-2c1.2,0.2,2.7,1,3.1,2c0.7,1.7,0.7,3.7,1,5.6c0.5,2.9,1,5.9,1.5,9
	c6.8,0.7,14.3-1.9,18.8,5.7C244.6,46.8,237.1,44.6,230.6,46z"/>
<path class="st1" d="M359.5,16.9c2.4,2.4,3.8,4.5,3.7,7.7c-0.1,2.2,0.3,4.5,0.3,6.8c0,4.9,0.2,9.8-0.3,14.7
	c-0.5,5.6-1.7,11.2-2.6,16.8c-0.2,1.5-0.6,2.9-1.8,3.8c-1.2-0.1-1.3-0.9-1.3-1.6c0-6.2,0-12.5-0.1-18.7c-0.1-6.8-0.3-13.6-0.4-20.4
	C357,23,356.7,19.9,359.5,16.9z"/>
<path class="st1" d="M341.3,84.5c-4.1-4.3-4.5-6-2.9-14.7c0.9-4.7,2.2-9.4,3.4-14.7c-2.7,0.3-5,0.1-7,0.8c-6,2.2-12.3,1.9-18.4,1.8
	c-7.3-0.1-13.3-3.3-16.8-10c-1.1-2-1.9-4.2,0.1-6.4c0.9,0,2-0.4,2.7-0.1c7.3,3.7,15.1,3.7,23,3.3c6.2-0.3,12.4-0.7,18.6-1
	c2-0.1,4-0.4,5.8,0c1.4,0.3,3.1,1.2,3.9,2.4c1.1,1.5,0.1,3.1-1.2,4.2c-8.2,7.3-10.5,17-10.7,27.4C341.7,79.7,341.5,81.8,341.3,84.5z
	"/>
<path class="st1" d="M147.2,77.2c0-1.3-0.1-2.9,0.1-4.5c2.9-20.3,5.8-40.5,8.8-60.8c0.4-2.8,0.8-5.6,1.6-8.2c1-3.4,5.5-4.6,7.7-1.9
	c1.7,2,3.1,4.7,3.7,7.2c0.9,3.9,0.8,7.9,1.2,12c5.7,5.1,28.1-11.3,33.3-4.1c-3.8,3.1-6.7,5.2-10.6,4.9c-3.5-0.3-21.2,12.2-25.5,11.9
	c-1.7,5.8-3,11.3-4.8,16.5c-2.9,8.7-6,17.4-9.3,26C152.3,78.9,149.9,79.5,147.2,77.2z"/>
<path class="st1" d="M116.7,31.3c-4.7,6.9-6.9,13.8-5.4,22.4c2.4-0.4,4.4-0.3,6-1.1c7.4-3.6,35.8-35.3,43.1-39.1
	c1.2-0.6,2.3-1.6,3.6-1.9c0.8-0.2,2.1,0.1,2.7,0.7c0.5,0.5,0.6,1.9,0.3,2.7c-0.3,0.9-1.2,1.7-2,2.3c-10.2,7-41.3,42.1-54.6,44.2
	c-1.6-0.9-3.5-2.2-5.7-3.1c-6-2.6-7.5-7.7-7.3-13.4c0.3-7.3,2.5-14.1,6.3-20.4c2.1-3.4,6.1-4,8.6-0.9
	C114,25.9,115.2,28.8,116.7,31.3z"/>
<path class="st1" d="M259.6,45.4c-0.8-1.5-1.6-2.7-2.2-3.9c-1.2-2.5-1-5,0.3-7.4c0.8-1.5,1.6-3.3,2.9-4.3c1.4-1,0.9-1.8,0.6-2.9
	c-0.3-1.4,0.6-2.4,1.9-2.3c0.6,0,1.2,0.1,1.7,0.3c4.1,1.4,8.1,7.4,7.6,11.6c-0.4,3-1.6,5.6-4.5,7.2
	C265.4,45.1,262.9,45.8,259.6,45.4z M261.2,37.2c0.8,1,1.4,1.8,2.1,2.5c0.8,0.8,1.8,0.8,2.7,0.2c2-1.3,2.8-3.4,2.7-5.6
	c-0.1-1.9-0.9-3.8-2.9-4.5C264.3,32.2,262.9,34.4,261.2,37.2z"/>
<path class="st0" d="M141.5,252.6c-1.3-3.4-2.9-5.8-2.9-8.1c-0.1-5.6,0.1-11.4,1.1-16.9c5.3-31.3,8.5-62.8,8.9-94.8
	c0-1.7,0.1-3.4,0.2-5.1c0.4-4.5,2.6-8.1,4.5-7c2.3,1.4,4.7,3.5,6.1,6.1c1.1,2.2,1.1,5.5,1.1,8.3c0.3,29.7-0.8,59.2-7.1,88
	c-1.8,8.1-4.9,15.9-7.7,23.7C145.1,248.6,143.5,250,141.5,252.6z"/>
<path class="st0" d="M133.7,185.2c-8.5-4.6-5.5-14.3-9.6-20.1c-4.6-0.4-8.3,3.5-12.3,5.7c-7.5,4.1-15.1,5.2-22.9,2.1
	c-6-2.4-7.4-5.8-6.8-16.5c3.6,0.5,7.1,0.7,10.6,1.7c10.5,3.1,21.5-2.8,25.5-16.8c1.2-4.2,2.8-8.4,4.8-12.1c0.8-1.4,3.3-2.5,4.8-2.1
	c1.4,0.4,3.4,2.6,3.6,4.3C133.4,148.7,135.6,166.1,133.7,185.2z"/>
<g>
	<path class="st1" d="M208.6,57.8c2.2,0.5,3.9,0.9,5.6,1.4c1.1,0.3,2.4,0.8,2.1,2.2c-0.2,0.7-1.3,1.2-2.1,1.5
		c-0.9,0.3-1.9,0.4-2.8,0.3c-6.2-0.7-11.8,1.3-17.3,3.6c-0.9,0.4-1.9,0.7-2.8,0.7c-0.9,0-1.7-0.6-2.6-0.9c1.5-2.6,1.5-2.6,13.9-8.1
		c0.7-5.1,1.5-10.4,2.3-15.7c0.1-0.7,0-1.5-0.1-2.3c-0.3-2.2-1.7-3.5-3.9-3.5c-2.7,0.1-5.3,0.8-7.6,2.5c-0.9,0.7-1.7,1.6-2.6,2.3
		c-1,0.8-2.5,0.5-3.7-0.4c-1-0.8-1.4-2-0.9-3.1c0.7-1.5,1.5-3.2,2.7-4.3c6.6-6.1,15.2-4.9,20.7,3.1c1,1.4,1.1,3.7,1.1,5.6
		c0,3.1-0.5,6.1-0.9,9.2C209.5,53.6,209.1,55.4,208.6,57.8z"/>
	<path class="st1" d="M184.3,68.6c-3.1-2.4-4.5-5.4-5-9c-0.6-4.8-0.5-9.6,1-14.2c0.7-2.1,2.1-2.6,4-1.4c2.6,1.6,2.7,2.4,2.2,5.6
		c-0.4,2.8-0.3,5.7-0.3,8.5c0,2.1,0.3,4.2,0.3,6.3C186.6,66,186.2,67.4,184.3,68.6z"/>
</g>
<path class="st1" d="M244.4,50c1.9-0.1,3.4-0.4,4.8-0.2c8.8,1.1,17.3-0.5,25.9-2c3.2-0.6,6.5-1.4,10.5-0.6c-0.7,1.1-1,2.1-1.7,2.4
	c-11.1,6.6-23,8.1-35.5,5.1C246.4,54.2,244.3,53.4,244.4,50z"/>
<path class="st1" d="M405.5,14.8c6.6,4.9,7.7,11.6,7.4,19.3c4,4.2,12.1,5.4,12.9,14.4c-5.3-2.2-9.3-3.9-13.9-5.9
	c-1.2,2.2-2.3,3.9-3,5.7c-1.4,3.6-2,7.5-5.7,10.5c-0.9-0.9-2.5-1.9-2.5-2.8c-0.4-13.4-0.6-26.8,3.2-39.8
	C403.8,15.9,404.2,15.7,405.5,14.8z"/>
<path class="st0" d="M393.5,127.1c-0.1,1.4,0,2.4-0.3,3.3c-6.7,20.9-8.5,42.5-9.9,64.3c-0.4,5.5-1.2,10.9-2.2,16.4
	c-0.3,1.9-1.7,4-3.9,3.5c-1.7-0.4-4.1-1.8-4.4-3.2c-1.1-5-1.8-10.2-2.2-15.3c-0.3-5.5-0.1-11-0.1-17.4c-2.2,0.7-3.8,0.8-4.8,1.6
	c-2.2,1.9-4,4.3-6.2,6.2c-10.4,8.7-22.1,12-35.4,8.2c-5.4-1.5-8.7-5-10.2-10.3c3-2.5,5.9-1.9,8.7-1.2c13.8,3.1,24.3-2.3,32-13.2
	c7.7-10.8,14.1-22.5,18.8-35c3.6-9.8,7.5-11.8,17.8-9.1C391.9,125.8,392.4,126.4,393.5,127.1z"/>
<path class="st0" d="M282.3,154.5c-1-2-2-4.3-3.1-6.4c3.3-3.4,7-2.5,10.5-2.2c3.3,0.3,6.3,1.5,8.6,4c9,9.9,12.5,21.4,8.7,34.3
	c-3.3,11.1-9.3,20.7-19.5,27.1c-2.2,1.4-4.2,3.1-6.4,4.4c-2.2,1.3-4.6,2.5-7,3.3c-4.1,1.3-7.3-0.3-8.4-4.4
	c-2.6-9.2-3.7-18.5,0.8-27.6C271.7,176.6,276.7,166.1,282.3,154.5z M280.6,191.7c2-0.4,2.8-0.3,3.2-0.7c5.6-5,8.4-11.5,9.6-18.6
	c0.8-4.7-1.3-8.7-6.5-11.8C284.3,171.1,279.9,180.5,280.6,191.7z"/>
<path class="st0" d="M320.3,144.3c0.8-2.9,2.8-4.4,5.6-4.6c2.9-0.2,5.9-0.4,8.6,0.3c5.5,1.5,10.9,3.7,15.9,7.2
	c-0.2,3.4-2.2,5.1-4.9,5.1c-5.8-0.1-11.6-0.5-17.3-1.5C324.6,150.2,321.7,147.9,320.3,144.3z"/>
<path class="st0" d="M267.8,182.1c-2.6,7.7-6.7,9.9-10.7,11.5c-14.6,5.5-29.1,11.5-44,15.5c-13.3,3.6-26.9,3-40-2.6
	c-5.7-2.5-10-6.4-10.9-14.4c-0.6-5.1,2.4-8.6,6.2-7c1.6,0.7,3.2,1.6,4.7,2.7c9.6,6.7,19.9,7.5,30.5,5.1c13.3-3.1,26.5-6.6,39.8-9.6
	c5.6-1.2,11.2-1.8,16.9-2.3C262.3,180.8,264.4,181.6,267.8,182.1z"/>
<path class="st0" d="M236.6,252.2c-0.2,4.9,0.4,8.9-3,11c-2.2,1.4-4.8-1.5-6.7-7.9c-2.8-9.5-5.3-19.1-7.9-28.7
	c-0.5-2-0.8-4.2-0.6-6.3c0.1-1.4,1-3.1,1.9-3.8c0.9-0.7,2.7-0.8,3.6-0.1c1.8,1.4,3.4,3.3,4.6,5.4C233.8,231.3,236.1,242,236.6,252.2
	z"/>
</svg>
